M48
; DRILL file {KiCad 8.0.5} date 2025-05-24T22:33:44-0400
; FORMAT={-:-/ absolute / inch / decimal}
; #@! TF.CreationDate,2025-05-24T22:33:44-04:00
; #@! TF.GenerationSoftware,Kicad,Pcbnew,8.0.5
; #@! TF.FileFunction,Plated,1,2,PTH
FMAT,2
INCH
; #@! TA.AperFunction,Plated,PTH,ViaDrill
T1C0.0118
; #@! TA.AperFunction,Plated,PTH,ComponentDrill
T2C0.0276
; #@! TA.AperFunction,Plated,PTH,ComponentDrill
T3C0.0307
; #@! TA.AperFunction,Plated,PTH,ComponentDrill
T4C0.0315
; #@! TA.AperFunction,Plated,PTH,ComponentDrill
T5C0.0394
; #@! TA.AperFunction,Plated,PTH,ComponentDrill
T6C0.0402
; #@! TA.AperFunction,Plated,PTH,ComponentDrill
T7C0.0591
%
G90
G05
T1
X12.2805Y-2.6417
X14.5285Y-2.6417
X14.6388Y-2.6417
X14.876Y-3.0226
X14.8853Y-3.0871
X15.3622Y-2.685
X15.7154Y-2.7461
X15.7392Y-2.128
X15.8041Y-2.5738
X16.7844Y-2.564
X16.9469Y-2.7943
X17.5768Y-2.8435
X17.874Y-3.5069
X18.0217Y-2.1841
T2
X12.2748Y-4.8593
X12.2787Y-4.5807
X12.5748Y-4.8593
X12.5787Y-4.5807
T3
X14.9213Y-1.985
X14.9213Y-2.085
X14.9213Y-2.185
X14.9213Y-2.285
X14.9213Y-2.385
X14.9213Y-2.485
X14.9213Y-2.585
X14.9213Y-2.685
X15.2339Y-1.985
X15.2339Y-2.085
X15.2339Y-2.185
X15.2339Y-2.285
X15.2339Y-2.385
X15.2339Y-2.485
X15.2339Y-2.585
X15.2339Y-2.685
T4
X1.5906Y-2.9839
X1.5906Y-3.2839
X1.5945Y-2.0472
X1.5945Y-2.3472
X1.7835Y-5.9848
X1.7835Y-6.2848
X1.9646Y-3.7354
X1.9646Y-4.0354
X2.1535Y-4.4839
X2.1535Y-4.7839
X2.3386Y-2.9835
X2.3386Y-3.2835
X2.5295Y-5.2358
X2.5295Y-5.5358
X2.7165Y-3.7354
X2.7165Y-4.0354
X2.7205Y-5.9848
X2.7205Y-6.2848
X2.9016Y-4.4839
X2.9016Y-4.7839
X3.0906Y-2.0492
X3.0906Y-2.3492
X3.0906Y-2.9835
X3.0906Y-3.2835
X3.2776Y-5.2354
X3.2776Y-5.5354
X3.4646Y-3.7354
X3.4646Y-4.0354
X3.6535Y-4.4839
X3.6535Y-4.7839
X3.6575Y-5.9825
X3.6575Y-6.2825
X3.8386Y-2.0488
X3.8386Y-2.3488
X3.8425Y-2.9835
X3.8425Y-3.2835
X4.0295Y-5.2354
X4.0295Y-5.5354
X4.2165Y-3.7354
X4.2165Y-4.0354
X4.4016Y-4.4839
X4.4016Y-4.7839
X4.5866Y-2.0488
X4.5866Y-2.3488
X4.5866Y-2.9835
X4.5866Y-3.2835
X4.7756Y-5.2335
X4.7756Y-5.5335
X4.9646Y-3.7354
X4.9646Y-4.0354
X5.1535Y-4.4839
X5.1535Y-4.7839
X5.3386Y-2.0488
X5.3386Y-2.3488
X5.3386Y-2.9874
X5.3386Y-3.2874
X5.5276Y-5.2335
X5.5276Y-5.5335
X5.7126Y-3.7354
X5.7126Y-4.0354
X5.9016Y-4.4835
X5.9016Y-4.7835
X6.0906Y-2.9839
X6.0906Y-3.2839
X6.2776Y-5.2335
X6.2776Y-5.5335
X6.4646Y-2.0488
X6.4646Y-2.3488
X6.4646Y-3.7354
X6.4646Y-4.0354
X6.6496Y-4.4835
X6.6496Y-4.7835
X6.8386Y-2.9835
X6.8386Y-3.2835
X7.0276Y-5.2335
X7.0276Y-5.5335
X7.2126Y-2.0488
X7.2126Y-2.3488
X7.2126Y-3.7354
X7.2126Y-4.0354
X7.4016Y-4.4835
X7.4016Y-4.7835
X7.5906Y-2.9839
X7.5906Y-3.2839
X7.7756Y-5.2354
X7.7756Y-5.5354
X7.9606Y-3.7354
X7.9606Y-4.0354
X7.9646Y-2.0488
X7.9646Y-2.3488
X8.1496Y-4.4835
X8.1496Y-4.7835
X8.3386Y-2.9839
X8.3386Y-3.2839
X8.3415Y-5.9835
X8.3415Y-6.2835
X8.5236Y-5.2354
X8.5236Y-5.5354
X8.7126Y-2.0488
X8.7126Y-2.3488
X8.7126Y-3.7354
X8.7126Y-4.0354
X8.9016Y-4.4835
X8.9016Y-4.7835
X9.0866Y-2.9835
X9.0866Y-3.2835
X9.2736Y-5.2354
X9.2736Y-5.5354
X9.2766Y-5.9854
X9.2766Y-6.2854
X9.4606Y-3.7354
X9.4606Y-4.0354
X9.6535Y-4.4835
X9.6535Y-4.7835
X9.8346Y-2.0488
X9.8346Y-2.3488
X9.8346Y-2.9835
X9.8346Y-3.2835
X10.0256Y-5.2354
X10.0256Y-5.5354
X10.2126Y-3.7354
X10.2126Y-4.0354
X10.2126Y-5.9854
X10.2126Y-6.2854
X10.3976Y-4.4835
X10.3976Y-4.7835
X10.5866Y-2.0488
X10.5866Y-2.3488
X10.5866Y-2.9835
X10.5866Y-3.2835
X10.9606Y-3.7354
X10.9606Y-4.0354
X11.1496Y-5.9854
X11.1496Y-6.2854
X11.3386Y-2.0488
X11.3386Y-2.3488
X12.0846Y-2.9848
X12.0846Y-3.2848
X12.0866Y-2.0488
X12.0866Y-2.3488
X12.0866Y-3.7354
X12.0866Y-4.0354
X12.0866Y-4.4835
X12.0866Y-4.7835
X12.0876Y-5.9884
X12.0876Y-6.2884
X12.0886Y-5.2354
X12.0886Y-5.5354
X13.1161Y-2.9862
X13.1161Y-3.2862
X13.1171Y-5.9835
X13.1171Y-6.2835
X13.1181Y-3.7343
X13.1181Y-4.0343
X13.1201Y-2.047
X13.1201Y-2.347
X13.8652Y-5.9835
X13.8652Y-6.2835
X13.8661Y-2.9843
X13.8661Y-3.2843
X13.8661Y-5.2354
X13.8661Y-5.5354
X13.8681Y-2.0482
X13.8681Y-2.3482
X13.8691Y-3.7364
X13.8691Y-4.0364
X14.6152Y-5.9854
X14.6152Y-6.2854
X14.6191Y-3.7364
X14.6191Y-4.0364
X14.6201Y-2.9862
X14.6201Y-3.2862
X14.6211Y-2.049
X14.6211Y-2.349
X15.7293Y-5.2354
X15.7293Y-5.5354
X15.7313Y-2.9844
X15.7313Y-3.2844
X15.7313Y-3.7344
X15.7313Y-4.0344
X15.7313Y-4.4844
X15.7313Y-4.7844
X16.4764Y-5.2364
X16.4764Y-5.5364
X16.4783Y-3.7344
X16.4783Y-4.0344
X16.4803Y-2.9844
X16.4803Y-3.2844
X16.4803Y-4.4844
X16.4803Y-4.7844
X16.4803Y-5.9884
X16.4803Y-6.2884
X17.2274Y-3.7364
X17.2274Y-4.0364
X17.2283Y-5.2354
X17.2283Y-5.5354
X17.2293Y-2.9844
X17.2293Y-3.2844
X17.2293Y-4.4854
X17.2293Y-4.7854
X17.2313Y-5.9844
X17.2313Y-6.2844
X17.9774Y-2.9858
X17.9774Y-3.2858
X17.9783Y-3.81
X17.9783Y-4.11
X17.9803Y-5.312
X17.9803Y-5.612
T5
X12.7433Y-4.5809
X12.7433Y-4.6809
X12.7433Y-4.7809
X12.7433Y-4.8809
T6
X15.9835Y-1.9533
X15.9835Y-2.6533
X15.9925Y-2.2033
X15.9925Y-2.3033
X15.9925Y-2.4033
X16.0835Y-1.9533
X16.0835Y-2.6533
X16.1835Y-1.9533
X16.1835Y-2.6533
X16.2835Y-1.9533
X16.2835Y-2.6533
X16.3835Y-1.9533
X16.3835Y-2.6533
X16.4835Y-1.9533
X16.4835Y-2.6533
X16.5835Y-1.9533
X16.5835Y-2.6533
X16.6835Y-1.9533
X16.6835Y-2.6533
X16.7835Y-1.9533
X16.7835Y-2.6533
X16.8835Y-1.9533
X16.8835Y-2.6533
X16.9835Y-1.9533
X16.9835Y-2.6533
X17.0835Y-1.9533
X17.0835Y-2.6533
X17.1835Y-1.9533
X17.1835Y-2.6533
X17.2835Y-1.9533
X17.2835Y-2.6533
X17.3835Y-1.9533
X17.3835Y-2.6533
X17.4835Y-1.9533
X17.4835Y-2.6533
X17.5835Y-1.9533
X17.5835Y-2.6533
X17.6835Y-1.9533
X17.6835Y-2.6533
X17.7835Y-1.9533
X17.7835Y-2.6533
X17.8835Y-1.9533
X17.8835Y-2.6533
T7
X1.0657Y-2.1488
X1.0657Y-3.0858
X1.1618Y-6.0843
X1.2531Y-3.8354
X1.3157Y-2.0488
X1.3157Y-2.9858
X1.3469Y-4.5852
X1.4118Y-5.9843
X1.5031Y-3.7354
X1.5339Y-5.3346
X1.5969Y-4.4852
X1.7839Y-5.2346
X1.8154Y-3.0858
X2.0654Y-2.9858
X2.0988Y-6.0843
X2.1902Y-3.8354
X2.3488Y-5.9843
X2.3776Y-4.585
X2.4402Y-3.7354
X2.565Y-2.1488
X2.565Y-3.0858
X2.6276Y-4.485
X2.7524Y-5.3346
X2.815Y-2.0488
X2.815Y-2.9858
X2.9398Y-3.8354
X3.0024Y-5.2346
X3.039Y-6.0843
X3.1272Y-4.585
X3.1898Y-3.7354
X3.289Y-5.9843
X3.3146Y-2.1488
X3.3146Y-3.0858
X3.3772Y-4.485
X3.502Y-5.3346
X3.5646Y-2.0488
X3.5646Y-2.9858
X3.6894Y-3.8354
X3.752Y-5.2346
X3.8768Y-4.585
X3.9394Y-3.7354
X4.0642Y-2.1488
X4.0642Y-3.0858
X4.1268Y-4.485
X4.2516Y-5.3346
X4.3142Y-2.0488
X4.3142Y-2.9858
X4.439Y-3.8354
X4.5016Y-5.2346
X4.6264Y-4.585
X4.689Y-3.7354
X4.8138Y-2.1488
X4.8138Y-3.0858
X4.8764Y-4.485
X5.0012Y-5.3346
X5.0638Y-2.0488
X5.0638Y-2.9858
X5.1886Y-3.8354
X5.2512Y-5.2346
X5.376Y-4.585
X5.4386Y-3.7354
X5.5634Y-3.0858
X5.626Y-4.485
X5.7508Y-5.3346
X5.8134Y-2.9858
X5.8502Y-6.0841
X5.9382Y-2.1488
X5.9382Y-3.8354
X6.0008Y-5.2346
X6.1002Y-5.9841
X6.1256Y-4.585
X6.1882Y-2.0488
X6.1882Y-3.7354
X6.313Y-3.0858
X6.3756Y-4.485
X6.5004Y-5.3346
X6.563Y-2.9858
X6.6878Y-2.1488
X6.6878Y-3.8354
X6.7504Y-5.2346
X6.8752Y-4.585
X6.9378Y-2.0488
X6.9378Y-3.7354
X7.0626Y-3.0858
X7.1252Y-4.485
X7.25Y-5.3346
X7.3126Y-2.9858
X7.4374Y-2.1488
X7.4374Y-3.8354
X7.5Y-5.2346
X7.6248Y-4.585
X7.6874Y-2.0488
X7.6874Y-3.7354
X7.8122Y-3.0858
X7.8748Y-4.485
X7.9996Y-5.3346
X8.0622Y-2.9858
X8.187Y-2.1488
X8.187Y-3.8354
X8.2496Y-5.2346
X8.3744Y-4.585
X8.437Y-2.0488
X8.437Y-3.7354
X8.5618Y-3.0858
X8.6244Y-4.485
X8.6579Y-6.0843
X8.7492Y-5.3346
X8.8118Y-2.9858
X8.9079Y-5.9843
X8.9366Y-3.8354
X8.9992Y-5.2346
X9.124Y-4.585
X9.1866Y-3.7354
X9.3114Y-2.1488
X9.3114Y-3.0858
X9.374Y-4.485
X9.4988Y-5.3346
X9.5614Y-2.0488
X9.5614Y-2.9858
X9.5949Y-6.0843
X9.6862Y-3.8354
X9.7488Y-5.2346
X9.8449Y-5.9843
X9.8736Y-4.585
X9.9362Y-3.7354
X10.061Y-2.1488
X10.061Y-3.0858
X10.1236Y-4.485
X10.311Y-2.0488
X10.311Y-2.9858
X10.4358Y-3.8354
X10.5325Y-6.0846
X10.6858Y-3.7354
X10.7825Y-5.9846
X10.8106Y-2.1488
X10.9067Y-5.3346
X11.0606Y-2.0488
X11.0925Y-4.585
X11.1567Y-5.2346
X11.1854Y-3.0858
X11.3425Y-4.485
X11.3728Y-3.8354
X11.4354Y-2.9858
X11.4689Y-6.0886
X11.5602Y-2.1488
X11.6228Y-3.7354
X11.7189Y-5.9886
X11.8102Y-2.0488
X12.5933Y-2.1486
X12.5933Y-3.0856
X12.5933Y-3.8352
X12.5933Y-6.0841
X12.8433Y-2.0486
X12.8433Y-2.9856
X12.8433Y-3.7352
X12.8433Y-5.9841
X13.3429Y-2.1486
X13.3429Y-3.0856
X13.3429Y-3.8352
X13.3429Y-5.3344
X13.3429Y-6.0841
X13.5929Y-2.0486
X13.5929Y-2.9856
X13.5929Y-3.7352
X13.5929Y-5.2344
X13.5929Y-5.9841
X14.0925Y-2.1486
X14.0925Y-3.0856
X14.0925Y-3.8352
X14.0925Y-6.0841
X14.3425Y-2.0486
X14.3425Y-2.9856
X14.3425Y-3.7352
X14.3425Y-5.9841
X15.2043Y-3.0856
X15.2043Y-3.8352
X15.2043Y-4.5848
X15.2043Y-5.3344
X15.4543Y-2.9856
X15.4543Y-3.7352
X15.4543Y-4.4848
X15.4543Y-5.2344
X15.5791Y-6.0841
X15.8291Y-5.9841
X15.9539Y-3.0856
X15.9539Y-3.8352
X15.9539Y-4.5848
X15.9539Y-5.3344
X16.2039Y-2.9856
X16.2039Y-3.7352
X16.2039Y-4.4848
X16.2039Y-5.2344
X16.7035Y-3.0856
X16.7035Y-3.8352
X16.7035Y-4.5848
X16.7035Y-5.3344
X16.7035Y-6.0841
X16.9535Y-2.9856
X16.9535Y-3.7352
X16.9535Y-4.4848
X16.9535Y-5.2344
X16.9535Y-5.9841
X17.4531Y-3.0856
X17.4531Y-4.21
X17.4531Y-5.7093
X17.7031Y-2.9856
X17.7031Y-4.11
X17.7031Y-5.6093
M30
