%TF.GenerationSoftware,KiCad,Pcbnew,8.0.5*%
%TF.CreationDate,2025-05-24T12:52:23-04:00*%
%TF.ProjectId,Keyboard-Saturn,4b657962-6f61-4726-942d-53617475726e,rev?*%
%TF.SameCoordinates,Original*%
%TF.FileFunction,Legend,Bot*%
%TF.FilePolarity,Positive*%
%FSLAX46Y46*%
G04 Gerber Fmt 4.6, Leading zero omitted, Abs format (unit mm)*
G04 Created by KiCad (PCBNEW 8.0.5) date 2025-05-24 12:52:23*
%MOMM*%
%LPD*%
G01*
G04 APERTURE LIST*
%ADD10C,0.150000*%
%ADD11C,0.200000*%
%ADD12C,0.127000*%
G04 APERTURE END LIST*
D10*
X382306904Y-69599819D02*
X382306904Y-70409342D01*
X382306904Y-70409342D02*
X382259285Y-70504580D01*
X382259285Y-70504580D02*
X382211666Y-70552200D01*
X382211666Y-70552200D02*
X382116428Y-70599819D01*
X382116428Y-70599819D02*
X381925952Y-70599819D01*
X381925952Y-70599819D02*
X381830714Y-70552200D01*
X381830714Y-70552200D02*
X381783095Y-70504580D01*
X381783095Y-70504580D02*
X381735476Y-70409342D01*
X381735476Y-70409342D02*
X381735476Y-69599819D01*
X381354523Y-69599819D02*
X380735476Y-69599819D01*
X380735476Y-69599819D02*
X381068809Y-69980771D01*
X381068809Y-69980771D02*
X380925952Y-69980771D01*
X380925952Y-69980771D02*
X380830714Y-70028390D01*
X380830714Y-70028390D02*
X380783095Y-70076009D01*
X380783095Y-70076009D02*
X380735476Y-70171247D01*
X380735476Y-70171247D02*
X380735476Y-70409342D01*
X380735476Y-70409342D02*
X380783095Y-70504580D01*
X380783095Y-70504580D02*
X380830714Y-70552200D01*
X380830714Y-70552200D02*
X380925952Y-70599819D01*
X380925952Y-70599819D02*
X381211666Y-70599819D01*
X381211666Y-70599819D02*
X381306904Y-70552200D01*
X381306904Y-70552200D02*
X381354523Y-70504580D01*
X443680390Y-51893571D02*
X443642295Y-51817381D01*
X443642295Y-51817381D02*
X443642295Y-51703095D01*
X443642295Y-51703095D02*
X443680390Y-51588809D01*
X443680390Y-51588809D02*
X443756580Y-51512619D01*
X443756580Y-51512619D02*
X443832771Y-51474524D01*
X443832771Y-51474524D02*
X443985152Y-51436428D01*
X443985152Y-51436428D02*
X444099438Y-51436428D01*
X444099438Y-51436428D02*
X444251819Y-51474524D01*
X444251819Y-51474524D02*
X444328009Y-51512619D01*
X444328009Y-51512619D02*
X444404200Y-51588809D01*
X444404200Y-51588809D02*
X444442295Y-51703095D01*
X444442295Y-51703095D02*
X444442295Y-51779286D01*
X444442295Y-51779286D02*
X444404200Y-51893571D01*
X444404200Y-51893571D02*
X444366104Y-51931667D01*
X444366104Y-51931667D02*
X444099438Y-51931667D01*
X444099438Y-51931667D02*
X444099438Y-51779286D01*
X444442295Y-52274524D02*
X443642295Y-52274524D01*
X443642295Y-52274524D02*
X443642295Y-52579286D01*
X443642295Y-52579286D02*
X443680390Y-52655476D01*
X443680390Y-52655476D02*
X443718485Y-52693571D01*
X443718485Y-52693571D02*
X443794676Y-52731667D01*
X443794676Y-52731667D02*
X443908961Y-52731667D01*
X443908961Y-52731667D02*
X443985152Y-52693571D01*
X443985152Y-52693571D02*
X444023247Y-52655476D01*
X444023247Y-52655476D02*
X444061342Y-52579286D01*
X444061342Y-52579286D02*
X444061342Y-52274524D01*
X443642295Y-52998333D02*
X443642295Y-53493571D01*
X443642295Y-53493571D02*
X443947057Y-53226905D01*
X443947057Y-53226905D02*
X443947057Y-53341190D01*
X443947057Y-53341190D02*
X443985152Y-53417381D01*
X443985152Y-53417381D02*
X444023247Y-53455476D01*
X444023247Y-53455476D02*
X444099438Y-53493571D01*
X444099438Y-53493571D02*
X444289914Y-53493571D01*
X444289914Y-53493571D02*
X444366104Y-53455476D01*
X444366104Y-53455476D02*
X444404200Y-53417381D01*
X444404200Y-53417381D02*
X444442295Y-53341190D01*
X444442295Y-53341190D02*
X444442295Y-53112619D01*
X444442295Y-53112619D02*
X444404200Y-53036428D01*
X444404200Y-53036428D02*
X444366104Y-52998333D01*
X423360390Y-63785476D02*
X423322295Y-63709286D01*
X423322295Y-63709286D02*
X423322295Y-63595000D01*
X423322295Y-63595000D02*
X423360390Y-63480714D01*
X423360390Y-63480714D02*
X423436580Y-63404524D01*
X423436580Y-63404524D02*
X423512771Y-63366429D01*
X423512771Y-63366429D02*
X423665152Y-63328333D01*
X423665152Y-63328333D02*
X423779438Y-63328333D01*
X423779438Y-63328333D02*
X423931819Y-63366429D01*
X423931819Y-63366429D02*
X424008009Y-63404524D01*
X424008009Y-63404524D02*
X424084200Y-63480714D01*
X424084200Y-63480714D02*
X424122295Y-63595000D01*
X424122295Y-63595000D02*
X424122295Y-63671191D01*
X424122295Y-63671191D02*
X424084200Y-63785476D01*
X424084200Y-63785476D02*
X424046104Y-63823572D01*
X424046104Y-63823572D02*
X423779438Y-63823572D01*
X423779438Y-63823572D02*
X423779438Y-63671191D01*
X424122295Y-64166429D02*
X423322295Y-64166429D01*
X423322295Y-64166429D02*
X424122295Y-64623572D01*
X424122295Y-64623572D02*
X423322295Y-64623572D01*
X424122295Y-65004524D02*
X423322295Y-65004524D01*
X423322295Y-65004524D02*
X423322295Y-65195000D01*
X423322295Y-65195000D02*
X423360390Y-65309286D01*
X423360390Y-65309286D02*
X423436580Y-65385476D01*
X423436580Y-65385476D02*
X423512771Y-65423571D01*
X423512771Y-65423571D02*
X423665152Y-65461667D01*
X423665152Y-65461667D02*
X423779438Y-65461667D01*
X423779438Y-65461667D02*
X423931819Y-65423571D01*
X423931819Y-65423571D02*
X424008009Y-65385476D01*
X424008009Y-65385476D02*
X424084200Y-65309286D01*
X424084200Y-65309286D02*
X424122295Y-65195000D01*
X424122295Y-65195000D02*
X424122295Y-65004524D01*
X428440390Y-51893571D02*
X428402295Y-51817381D01*
X428402295Y-51817381D02*
X428402295Y-51703095D01*
X428402295Y-51703095D02*
X428440390Y-51588809D01*
X428440390Y-51588809D02*
X428516580Y-51512619D01*
X428516580Y-51512619D02*
X428592771Y-51474524D01*
X428592771Y-51474524D02*
X428745152Y-51436428D01*
X428745152Y-51436428D02*
X428859438Y-51436428D01*
X428859438Y-51436428D02*
X429011819Y-51474524D01*
X429011819Y-51474524D02*
X429088009Y-51512619D01*
X429088009Y-51512619D02*
X429164200Y-51588809D01*
X429164200Y-51588809D02*
X429202295Y-51703095D01*
X429202295Y-51703095D02*
X429202295Y-51779286D01*
X429202295Y-51779286D02*
X429164200Y-51893571D01*
X429164200Y-51893571D02*
X429126104Y-51931667D01*
X429126104Y-51931667D02*
X428859438Y-51931667D01*
X428859438Y-51931667D02*
X428859438Y-51779286D01*
X429202295Y-52274524D02*
X428402295Y-52274524D01*
X428402295Y-52274524D02*
X428402295Y-52579286D01*
X428402295Y-52579286D02*
X428440390Y-52655476D01*
X428440390Y-52655476D02*
X428478485Y-52693571D01*
X428478485Y-52693571D02*
X428554676Y-52731667D01*
X428554676Y-52731667D02*
X428668961Y-52731667D01*
X428668961Y-52731667D02*
X428745152Y-52693571D01*
X428745152Y-52693571D02*
X428783247Y-52655476D01*
X428783247Y-52655476D02*
X428821342Y-52579286D01*
X428821342Y-52579286D02*
X428821342Y-52274524D01*
X428745152Y-53188809D02*
X428707057Y-53112619D01*
X428707057Y-53112619D02*
X428668961Y-53074524D01*
X428668961Y-53074524D02*
X428592771Y-53036428D01*
X428592771Y-53036428D02*
X428554676Y-53036428D01*
X428554676Y-53036428D02*
X428478485Y-53074524D01*
X428478485Y-53074524D02*
X428440390Y-53112619D01*
X428440390Y-53112619D02*
X428402295Y-53188809D01*
X428402295Y-53188809D02*
X428402295Y-53341190D01*
X428402295Y-53341190D02*
X428440390Y-53417381D01*
X428440390Y-53417381D02*
X428478485Y-53455476D01*
X428478485Y-53455476D02*
X428554676Y-53493571D01*
X428554676Y-53493571D02*
X428592771Y-53493571D01*
X428592771Y-53493571D02*
X428668961Y-53455476D01*
X428668961Y-53455476D02*
X428707057Y-53417381D01*
X428707057Y-53417381D02*
X428745152Y-53341190D01*
X428745152Y-53341190D02*
X428745152Y-53188809D01*
X428745152Y-53188809D02*
X428783247Y-53112619D01*
X428783247Y-53112619D02*
X428821342Y-53074524D01*
X428821342Y-53074524D02*
X428897533Y-53036428D01*
X428897533Y-53036428D02*
X429049914Y-53036428D01*
X429049914Y-53036428D02*
X429126104Y-53074524D01*
X429126104Y-53074524D02*
X429164200Y-53112619D01*
X429164200Y-53112619D02*
X429202295Y-53188809D01*
X429202295Y-53188809D02*
X429202295Y-53341190D01*
X429202295Y-53341190D02*
X429164200Y-53417381D01*
X429164200Y-53417381D02*
X429126104Y-53455476D01*
X429126104Y-53455476D02*
X429049914Y-53493571D01*
X429049914Y-53493571D02*
X428897533Y-53493571D01*
X428897533Y-53493571D02*
X428821342Y-53455476D01*
X428821342Y-53455476D02*
X428783247Y-53417381D01*
X428783247Y-53417381D02*
X428745152Y-53341190D01*
X448760390Y-51855476D02*
X448722295Y-51779286D01*
X448722295Y-51779286D02*
X448722295Y-51665000D01*
X448722295Y-51665000D02*
X448760390Y-51550714D01*
X448760390Y-51550714D02*
X448836580Y-51474524D01*
X448836580Y-51474524D02*
X448912771Y-51436429D01*
X448912771Y-51436429D02*
X449065152Y-51398333D01*
X449065152Y-51398333D02*
X449179438Y-51398333D01*
X449179438Y-51398333D02*
X449331819Y-51436429D01*
X449331819Y-51436429D02*
X449408009Y-51474524D01*
X449408009Y-51474524D02*
X449484200Y-51550714D01*
X449484200Y-51550714D02*
X449522295Y-51665000D01*
X449522295Y-51665000D02*
X449522295Y-51741191D01*
X449522295Y-51741191D02*
X449484200Y-51855476D01*
X449484200Y-51855476D02*
X449446104Y-51893572D01*
X449446104Y-51893572D02*
X449179438Y-51893572D01*
X449179438Y-51893572D02*
X449179438Y-51741191D01*
X449522295Y-52236429D02*
X448722295Y-52236429D01*
X448722295Y-52236429D02*
X449522295Y-52693572D01*
X449522295Y-52693572D02*
X448722295Y-52693572D01*
X449522295Y-53074524D02*
X448722295Y-53074524D01*
X448722295Y-53074524D02*
X448722295Y-53265000D01*
X448722295Y-53265000D02*
X448760390Y-53379286D01*
X448760390Y-53379286D02*
X448836580Y-53455476D01*
X448836580Y-53455476D02*
X448912771Y-53493571D01*
X448912771Y-53493571D02*
X449065152Y-53531667D01*
X449065152Y-53531667D02*
X449179438Y-53531667D01*
X449179438Y-53531667D02*
X449331819Y-53493571D01*
X449331819Y-53493571D02*
X449408009Y-53455476D01*
X449408009Y-53455476D02*
X449484200Y-53379286D01*
X449484200Y-53379286D02*
X449522295Y-53265000D01*
X449522295Y-53265000D02*
X449522295Y-53074524D01*
X423360390Y-51855476D02*
X423322295Y-51779286D01*
X423322295Y-51779286D02*
X423322295Y-51665000D01*
X423322295Y-51665000D02*
X423360390Y-51550714D01*
X423360390Y-51550714D02*
X423436580Y-51474524D01*
X423436580Y-51474524D02*
X423512771Y-51436429D01*
X423512771Y-51436429D02*
X423665152Y-51398333D01*
X423665152Y-51398333D02*
X423779438Y-51398333D01*
X423779438Y-51398333D02*
X423931819Y-51436429D01*
X423931819Y-51436429D02*
X424008009Y-51474524D01*
X424008009Y-51474524D02*
X424084200Y-51550714D01*
X424084200Y-51550714D02*
X424122295Y-51665000D01*
X424122295Y-51665000D02*
X424122295Y-51741191D01*
X424122295Y-51741191D02*
X424084200Y-51855476D01*
X424084200Y-51855476D02*
X424046104Y-51893572D01*
X424046104Y-51893572D02*
X423779438Y-51893572D01*
X423779438Y-51893572D02*
X423779438Y-51741191D01*
X424122295Y-52236429D02*
X423322295Y-52236429D01*
X423322295Y-52236429D02*
X424122295Y-52693572D01*
X424122295Y-52693572D02*
X423322295Y-52693572D01*
X424122295Y-53074524D02*
X423322295Y-53074524D01*
X423322295Y-53074524D02*
X423322295Y-53265000D01*
X423322295Y-53265000D02*
X423360390Y-53379286D01*
X423360390Y-53379286D02*
X423436580Y-53455476D01*
X423436580Y-53455476D02*
X423512771Y-53493571D01*
X423512771Y-53493571D02*
X423665152Y-53531667D01*
X423665152Y-53531667D02*
X423779438Y-53531667D01*
X423779438Y-53531667D02*
X423931819Y-53493571D01*
X423931819Y-53493571D02*
X424008009Y-53455476D01*
X424008009Y-53455476D02*
X424084200Y-53379286D01*
X424084200Y-53379286D02*
X424122295Y-53265000D01*
X424122295Y-53265000D02*
X424122295Y-53074524D01*
X429202295Y-63804524D02*
X428821342Y-63537857D01*
X429202295Y-63347381D02*
X428402295Y-63347381D01*
X428402295Y-63347381D02*
X428402295Y-63652143D01*
X428402295Y-63652143D02*
X428440390Y-63728333D01*
X428440390Y-63728333D02*
X428478485Y-63766428D01*
X428478485Y-63766428D02*
X428554676Y-63804524D01*
X428554676Y-63804524D02*
X428668961Y-63804524D01*
X428668961Y-63804524D02*
X428745152Y-63766428D01*
X428745152Y-63766428D02*
X428783247Y-63728333D01*
X428783247Y-63728333D02*
X428821342Y-63652143D01*
X428821342Y-63652143D02*
X428821342Y-63347381D01*
X428402295Y-64147381D02*
X429049914Y-64147381D01*
X429049914Y-64147381D02*
X429126104Y-64185476D01*
X429126104Y-64185476D02*
X429164200Y-64223571D01*
X429164200Y-64223571D02*
X429202295Y-64299762D01*
X429202295Y-64299762D02*
X429202295Y-64452143D01*
X429202295Y-64452143D02*
X429164200Y-64528333D01*
X429164200Y-64528333D02*
X429126104Y-64566428D01*
X429126104Y-64566428D02*
X429049914Y-64604524D01*
X429049914Y-64604524D02*
X428402295Y-64604524D01*
X429202295Y-64985476D02*
X428402295Y-64985476D01*
X428402295Y-64985476D02*
X429202295Y-65442619D01*
X429202295Y-65442619D02*
X428402295Y-65442619D01*
X433510390Y-63092618D02*
X433472295Y-63016428D01*
X433472295Y-63016428D02*
X433472295Y-62902142D01*
X433472295Y-62902142D02*
X433510390Y-62787856D01*
X433510390Y-62787856D02*
X433586580Y-62711666D01*
X433586580Y-62711666D02*
X433662771Y-62673571D01*
X433662771Y-62673571D02*
X433815152Y-62635475D01*
X433815152Y-62635475D02*
X433929438Y-62635475D01*
X433929438Y-62635475D02*
X434081819Y-62673571D01*
X434081819Y-62673571D02*
X434158009Y-62711666D01*
X434158009Y-62711666D02*
X434234200Y-62787856D01*
X434234200Y-62787856D02*
X434272295Y-62902142D01*
X434272295Y-62902142D02*
X434272295Y-62978333D01*
X434272295Y-62978333D02*
X434234200Y-63092618D01*
X434234200Y-63092618D02*
X434196104Y-63130714D01*
X434196104Y-63130714D02*
X433929438Y-63130714D01*
X433929438Y-63130714D02*
X433929438Y-62978333D01*
X434272295Y-63473571D02*
X433472295Y-63473571D01*
X433472295Y-63473571D02*
X433472295Y-63778333D01*
X433472295Y-63778333D02*
X433510390Y-63854523D01*
X433510390Y-63854523D02*
X433548485Y-63892618D01*
X433548485Y-63892618D02*
X433624676Y-63930714D01*
X433624676Y-63930714D02*
X433738961Y-63930714D01*
X433738961Y-63930714D02*
X433815152Y-63892618D01*
X433815152Y-63892618D02*
X433853247Y-63854523D01*
X433853247Y-63854523D02*
X433891342Y-63778333D01*
X433891342Y-63778333D02*
X433891342Y-63473571D01*
X433548485Y-64235475D02*
X433510390Y-64273571D01*
X433510390Y-64273571D02*
X433472295Y-64349761D01*
X433472295Y-64349761D02*
X433472295Y-64540237D01*
X433472295Y-64540237D02*
X433510390Y-64616428D01*
X433510390Y-64616428D02*
X433548485Y-64654523D01*
X433548485Y-64654523D02*
X433624676Y-64692618D01*
X433624676Y-64692618D02*
X433700866Y-64692618D01*
X433700866Y-64692618D02*
X433815152Y-64654523D01*
X433815152Y-64654523D02*
X434272295Y-64197380D01*
X434272295Y-64197380D02*
X434272295Y-64692618D01*
X433472295Y-64959285D02*
X433472295Y-65492619D01*
X433472295Y-65492619D02*
X434272295Y-65149761D01*
X420820390Y-51862618D02*
X420782295Y-51786428D01*
X420782295Y-51786428D02*
X420782295Y-51672142D01*
X420782295Y-51672142D02*
X420820390Y-51557856D01*
X420820390Y-51557856D02*
X420896580Y-51481666D01*
X420896580Y-51481666D02*
X420972771Y-51443571D01*
X420972771Y-51443571D02*
X421125152Y-51405475D01*
X421125152Y-51405475D02*
X421239438Y-51405475D01*
X421239438Y-51405475D02*
X421391819Y-51443571D01*
X421391819Y-51443571D02*
X421468009Y-51481666D01*
X421468009Y-51481666D02*
X421544200Y-51557856D01*
X421544200Y-51557856D02*
X421582295Y-51672142D01*
X421582295Y-51672142D02*
X421582295Y-51748333D01*
X421582295Y-51748333D02*
X421544200Y-51862618D01*
X421544200Y-51862618D02*
X421506104Y-51900714D01*
X421506104Y-51900714D02*
X421239438Y-51900714D01*
X421239438Y-51900714D02*
X421239438Y-51748333D01*
X421582295Y-52243571D02*
X420782295Y-52243571D01*
X420782295Y-52243571D02*
X420782295Y-52548333D01*
X420782295Y-52548333D02*
X420820390Y-52624523D01*
X420820390Y-52624523D02*
X420858485Y-52662618D01*
X420858485Y-52662618D02*
X420934676Y-52700714D01*
X420934676Y-52700714D02*
X421048961Y-52700714D01*
X421048961Y-52700714D02*
X421125152Y-52662618D01*
X421125152Y-52662618D02*
X421163247Y-52624523D01*
X421163247Y-52624523D02*
X421201342Y-52548333D01*
X421201342Y-52548333D02*
X421201342Y-52243571D01*
X421582295Y-53462618D02*
X421582295Y-53005475D01*
X421582295Y-53234047D02*
X420782295Y-53234047D01*
X420782295Y-53234047D02*
X420896580Y-53157856D01*
X420896580Y-53157856D02*
X420972771Y-53081666D01*
X420972771Y-53081666D02*
X421010866Y-53005475D01*
X420782295Y-53957857D02*
X420782295Y-54034047D01*
X420782295Y-54034047D02*
X420820390Y-54110238D01*
X420820390Y-54110238D02*
X420858485Y-54148333D01*
X420858485Y-54148333D02*
X420934676Y-54186428D01*
X420934676Y-54186428D02*
X421087057Y-54224523D01*
X421087057Y-54224523D02*
X421277533Y-54224523D01*
X421277533Y-54224523D02*
X421429914Y-54186428D01*
X421429914Y-54186428D02*
X421506104Y-54148333D01*
X421506104Y-54148333D02*
X421544200Y-54110238D01*
X421544200Y-54110238D02*
X421582295Y-54034047D01*
X421582295Y-54034047D02*
X421582295Y-53957857D01*
X421582295Y-53957857D02*
X421544200Y-53881666D01*
X421544200Y-53881666D02*
X421506104Y-53843571D01*
X421506104Y-53843571D02*
X421429914Y-53805476D01*
X421429914Y-53805476D02*
X421277533Y-53767380D01*
X421277533Y-53767380D02*
X421087057Y-53767380D01*
X421087057Y-53767380D02*
X420934676Y-53805476D01*
X420934676Y-53805476D02*
X420858485Y-53843571D01*
X420858485Y-53843571D02*
X420820390Y-53881666D01*
X420820390Y-53881666D02*
X420782295Y-53957857D01*
X420810390Y-63092618D02*
X420772295Y-63016428D01*
X420772295Y-63016428D02*
X420772295Y-62902142D01*
X420772295Y-62902142D02*
X420810390Y-62787856D01*
X420810390Y-62787856D02*
X420886580Y-62711666D01*
X420886580Y-62711666D02*
X420962771Y-62673571D01*
X420962771Y-62673571D02*
X421115152Y-62635475D01*
X421115152Y-62635475D02*
X421229438Y-62635475D01*
X421229438Y-62635475D02*
X421381819Y-62673571D01*
X421381819Y-62673571D02*
X421458009Y-62711666D01*
X421458009Y-62711666D02*
X421534200Y-62787856D01*
X421534200Y-62787856D02*
X421572295Y-62902142D01*
X421572295Y-62902142D02*
X421572295Y-62978333D01*
X421572295Y-62978333D02*
X421534200Y-63092618D01*
X421534200Y-63092618D02*
X421496104Y-63130714D01*
X421496104Y-63130714D02*
X421229438Y-63130714D01*
X421229438Y-63130714D02*
X421229438Y-62978333D01*
X421572295Y-63473571D02*
X420772295Y-63473571D01*
X420772295Y-63473571D02*
X420772295Y-63778333D01*
X420772295Y-63778333D02*
X420810390Y-63854523D01*
X420810390Y-63854523D02*
X420848485Y-63892618D01*
X420848485Y-63892618D02*
X420924676Y-63930714D01*
X420924676Y-63930714D02*
X421038961Y-63930714D01*
X421038961Y-63930714D02*
X421115152Y-63892618D01*
X421115152Y-63892618D02*
X421153247Y-63854523D01*
X421153247Y-63854523D02*
X421191342Y-63778333D01*
X421191342Y-63778333D02*
X421191342Y-63473571D01*
X420848485Y-64235475D02*
X420810390Y-64273571D01*
X420810390Y-64273571D02*
X420772295Y-64349761D01*
X420772295Y-64349761D02*
X420772295Y-64540237D01*
X420772295Y-64540237D02*
X420810390Y-64616428D01*
X420810390Y-64616428D02*
X420848485Y-64654523D01*
X420848485Y-64654523D02*
X420924676Y-64692618D01*
X420924676Y-64692618D02*
X421000866Y-64692618D01*
X421000866Y-64692618D02*
X421115152Y-64654523D01*
X421115152Y-64654523D02*
X421572295Y-64197380D01*
X421572295Y-64197380D02*
X421572295Y-64692618D01*
X421572295Y-65454523D02*
X421572295Y-64997380D01*
X421572295Y-65225952D02*
X420772295Y-65225952D01*
X420772295Y-65225952D02*
X420886580Y-65149761D01*
X420886580Y-65149761D02*
X420962771Y-65073571D01*
X420962771Y-65073571D02*
X421000866Y-64997380D01*
X441140390Y-51893571D02*
X441102295Y-51817381D01*
X441102295Y-51817381D02*
X441102295Y-51703095D01*
X441102295Y-51703095D02*
X441140390Y-51588809D01*
X441140390Y-51588809D02*
X441216580Y-51512619D01*
X441216580Y-51512619D02*
X441292771Y-51474524D01*
X441292771Y-51474524D02*
X441445152Y-51436428D01*
X441445152Y-51436428D02*
X441559438Y-51436428D01*
X441559438Y-51436428D02*
X441711819Y-51474524D01*
X441711819Y-51474524D02*
X441788009Y-51512619D01*
X441788009Y-51512619D02*
X441864200Y-51588809D01*
X441864200Y-51588809D02*
X441902295Y-51703095D01*
X441902295Y-51703095D02*
X441902295Y-51779286D01*
X441902295Y-51779286D02*
X441864200Y-51893571D01*
X441864200Y-51893571D02*
X441826104Y-51931667D01*
X441826104Y-51931667D02*
X441559438Y-51931667D01*
X441559438Y-51931667D02*
X441559438Y-51779286D01*
X441902295Y-52274524D02*
X441102295Y-52274524D01*
X441102295Y-52274524D02*
X441102295Y-52579286D01*
X441102295Y-52579286D02*
X441140390Y-52655476D01*
X441140390Y-52655476D02*
X441178485Y-52693571D01*
X441178485Y-52693571D02*
X441254676Y-52731667D01*
X441254676Y-52731667D02*
X441368961Y-52731667D01*
X441368961Y-52731667D02*
X441445152Y-52693571D01*
X441445152Y-52693571D02*
X441483247Y-52655476D01*
X441483247Y-52655476D02*
X441521342Y-52579286D01*
X441521342Y-52579286D02*
X441521342Y-52274524D01*
X441368961Y-53417381D02*
X441902295Y-53417381D01*
X441064200Y-53226905D02*
X441635628Y-53036428D01*
X441635628Y-53036428D02*
X441635628Y-53531667D01*
X408120390Y-63092618D02*
X408082295Y-63016428D01*
X408082295Y-63016428D02*
X408082295Y-62902142D01*
X408082295Y-62902142D02*
X408120390Y-62787856D01*
X408120390Y-62787856D02*
X408196580Y-62711666D01*
X408196580Y-62711666D02*
X408272771Y-62673571D01*
X408272771Y-62673571D02*
X408425152Y-62635475D01*
X408425152Y-62635475D02*
X408539438Y-62635475D01*
X408539438Y-62635475D02*
X408691819Y-62673571D01*
X408691819Y-62673571D02*
X408768009Y-62711666D01*
X408768009Y-62711666D02*
X408844200Y-62787856D01*
X408844200Y-62787856D02*
X408882295Y-62902142D01*
X408882295Y-62902142D02*
X408882295Y-62978333D01*
X408882295Y-62978333D02*
X408844200Y-63092618D01*
X408844200Y-63092618D02*
X408806104Y-63130714D01*
X408806104Y-63130714D02*
X408539438Y-63130714D01*
X408539438Y-63130714D02*
X408539438Y-62978333D01*
X408882295Y-63473571D02*
X408082295Y-63473571D01*
X408082295Y-63473571D02*
X408082295Y-63778333D01*
X408082295Y-63778333D02*
X408120390Y-63854523D01*
X408120390Y-63854523D02*
X408158485Y-63892618D01*
X408158485Y-63892618D02*
X408234676Y-63930714D01*
X408234676Y-63930714D02*
X408348961Y-63930714D01*
X408348961Y-63930714D02*
X408425152Y-63892618D01*
X408425152Y-63892618D02*
X408463247Y-63854523D01*
X408463247Y-63854523D02*
X408501342Y-63778333D01*
X408501342Y-63778333D02*
X408501342Y-63473571D01*
X408882295Y-64692618D02*
X408882295Y-64235475D01*
X408882295Y-64464047D02*
X408082295Y-64464047D01*
X408082295Y-64464047D02*
X408196580Y-64387856D01*
X408196580Y-64387856D02*
X408272771Y-64311666D01*
X408272771Y-64311666D02*
X408310866Y-64235475D01*
X408082295Y-64959285D02*
X408082295Y-65492619D01*
X408082295Y-65492619D02*
X408882295Y-65149761D01*
X409719523Y-58105390D02*
X409795713Y-58067295D01*
X409795713Y-58067295D02*
X409909999Y-58067295D01*
X409909999Y-58067295D02*
X410024285Y-58105390D01*
X410024285Y-58105390D02*
X410100475Y-58181580D01*
X410100475Y-58181580D02*
X410138570Y-58257771D01*
X410138570Y-58257771D02*
X410176666Y-58410152D01*
X410176666Y-58410152D02*
X410176666Y-58524438D01*
X410176666Y-58524438D02*
X410138570Y-58676819D01*
X410138570Y-58676819D02*
X410100475Y-58753009D01*
X410100475Y-58753009D02*
X410024285Y-58829200D01*
X410024285Y-58829200D02*
X409909999Y-58867295D01*
X409909999Y-58867295D02*
X409833808Y-58867295D01*
X409833808Y-58867295D02*
X409719523Y-58829200D01*
X409719523Y-58829200D02*
X409681427Y-58791104D01*
X409681427Y-58791104D02*
X409681427Y-58524438D01*
X409681427Y-58524438D02*
X409833808Y-58524438D01*
X409338570Y-58867295D02*
X409338570Y-58067295D01*
X409338570Y-58067295D02*
X408881427Y-58867295D01*
X408881427Y-58867295D02*
X408881427Y-58067295D01*
X408500475Y-58867295D02*
X408500475Y-58067295D01*
X408500475Y-58067295D02*
X408309999Y-58067295D01*
X408309999Y-58067295D02*
X408195713Y-58105390D01*
X408195713Y-58105390D02*
X408119523Y-58181580D01*
X408119523Y-58181580D02*
X408081428Y-58257771D01*
X408081428Y-58257771D02*
X408043332Y-58410152D01*
X408043332Y-58410152D02*
X408043332Y-58524438D01*
X408043332Y-58524438D02*
X408081428Y-58676819D01*
X408081428Y-58676819D02*
X408119523Y-58753009D01*
X408119523Y-58753009D02*
X408195713Y-58829200D01*
X408195713Y-58829200D02*
X408309999Y-58867295D01*
X408309999Y-58867295D02*
X408500475Y-58867295D01*
X410660390Y-51855476D02*
X410622295Y-51779286D01*
X410622295Y-51779286D02*
X410622295Y-51665000D01*
X410622295Y-51665000D02*
X410660390Y-51550714D01*
X410660390Y-51550714D02*
X410736580Y-51474524D01*
X410736580Y-51474524D02*
X410812771Y-51436429D01*
X410812771Y-51436429D02*
X410965152Y-51398333D01*
X410965152Y-51398333D02*
X411079438Y-51398333D01*
X411079438Y-51398333D02*
X411231819Y-51436429D01*
X411231819Y-51436429D02*
X411308009Y-51474524D01*
X411308009Y-51474524D02*
X411384200Y-51550714D01*
X411384200Y-51550714D02*
X411422295Y-51665000D01*
X411422295Y-51665000D02*
X411422295Y-51741191D01*
X411422295Y-51741191D02*
X411384200Y-51855476D01*
X411384200Y-51855476D02*
X411346104Y-51893572D01*
X411346104Y-51893572D02*
X411079438Y-51893572D01*
X411079438Y-51893572D02*
X411079438Y-51741191D01*
X411422295Y-52236429D02*
X410622295Y-52236429D01*
X410622295Y-52236429D02*
X411422295Y-52693572D01*
X411422295Y-52693572D02*
X410622295Y-52693572D01*
X411422295Y-53074524D02*
X410622295Y-53074524D01*
X410622295Y-53074524D02*
X410622295Y-53265000D01*
X410622295Y-53265000D02*
X410660390Y-53379286D01*
X410660390Y-53379286D02*
X410736580Y-53455476D01*
X410736580Y-53455476D02*
X410812771Y-53493571D01*
X410812771Y-53493571D02*
X410965152Y-53531667D01*
X410965152Y-53531667D02*
X411079438Y-53531667D01*
X411079438Y-53531667D02*
X411231819Y-53493571D01*
X411231819Y-53493571D02*
X411308009Y-53455476D01*
X411308009Y-53455476D02*
X411384200Y-53379286D01*
X411384200Y-53379286D02*
X411422295Y-53265000D01*
X411422295Y-53265000D02*
X411422295Y-53074524D01*
X408120390Y-51862618D02*
X408082295Y-51786428D01*
X408082295Y-51786428D02*
X408082295Y-51672142D01*
X408082295Y-51672142D02*
X408120390Y-51557856D01*
X408120390Y-51557856D02*
X408196580Y-51481666D01*
X408196580Y-51481666D02*
X408272771Y-51443571D01*
X408272771Y-51443571D02*
X408425152Y-51405475D01*
X408425152Y-51405475D02*
X408539438Y-51405475D01*
X408539438Y-51405475D02*
X408691819Y-51443571D01*
X408691819Y-51443571D02*
X408768009Y-51481666D01*
X408768009Y-51481666D02*
X408844200Y-51557856D01*
X408844200Y-51557856D02*
X408882295Y-51672142D01*
X408882295Y-51672142D02*
X408882295Y-51748333D01*
X408882295Y-51748333D02*
X408844200Y-51862618D01*
X408844200Y-51862618D02*
X408806104Y-51900714D01*
X408806104Y-51900714D02*
X408539438Y-51900714D01*
X408539438Y-51900714D02*
X408539438Y-51748333D01*
X408882295Y-52243571D02*
X408082295Y-52243571D01*
X408082295Y-52243571D02*
X408082295Y-52548333D01*
X408082295Y-52548333D02*
X408120390Y-52624523D01*
X408120390Y-52624523D02*
X408158485Y-52662618D01*
X408158485Y-52662618D02*
X408234676Y-52700714D01*
X408234676Y-52700714D02*
X408348961Y-52700714D01*
X408348961Y-52700714D02*
X408425152Y-52662618D01*
X408425152Y-52662618D02*
X408463247Y-52624523D01*
X408463247Y-52624523D02*
X408501342Y-52548333D01*
X408501342Y-52548333D02*
X408501342Y-52243571D01*
X408882295Y-53462618D02*
X408882295Y-53005475D01*
X408882295Y-53234047D02*
X408082295Y-53234047D01*
X408082295Y-53234047D02*
X408196580Y-53157856D01*
X408196580Y-53157856D02*
X408272771Y-53081666D01*
X408272771Y-53081666D02*
X408310866Y-53005475D01*
X408348961Y-54148333D02*
X408882295Y-54148333D01*
X408044200Y-53957857D02*
X408615628Y-53767380D01*
X408615628Y-53767380D02*
X408615628Y-54262619D01*
X415740390Y-63092618D02*
X415702295Y-63016428D01*
X415702295Y-63016428D02*
X415702295Y-62902142D01*
X415702295Y-62902142D02*
X415740390Y-62787856D01*
X415740390Y-62787856D02*
X415816580Y-62711666D01*
X415816580Y-62711666D02*
X415892771Y-62673571D01*
X415892771Y-62673571D02*
X416045152Y-62635475D01*
X416045152Y-62635475D02*
X416159438Y-62635475D01*
X416159438Y-62635475D02*
X416311819Y-62673571D01*
X416311819Y-62673571D02*
X416388009Y-62711666D01*
X416388009Y-62711666D02*
X416464200Y-62787856D01*
X416464200Y-62787856D02*
X416502295Y-62902142D01*
X416502295Y-62902142D02*
X416502295Y-62978333D01*
X416502295Y-62978333D02*
X416464200Y-63092618D01*
X416464200Y-63092618D02*
X416426104Y-63130714D01*
X416426104Y-63130714D02*
X416159438Y-63130714D01*
X416159438Y-63130714D02*
X416159438Y-62978333D01*
X416502295Y-63473571D02*
X415702295Y-63473571D01*
X415702295Y-63473571D02*
X415702295Y-63778333D01*
X415702295Y-63778333D02*
X415740390Y-63854523D01*
X415740390Y-63854523D02*
X415778485Y-63892618D01*
X415778485Y-63892618D02*
X415854676Y-63930714D01*
X415854676Y-63930714D02*
X415968961Y-63930714D01*
X415968961Y-63930714D02*
X416045152Y-63892618D01*
X416045152Y-63892618D02*
X416083247Y-63854523D01*
X416083247Y-63854523D02*
X416121342Y-63778333D01*
X416121342Y-63778333D02*
X416121342Y-63473571D01*
X416502295Y-64692618D02*
X416502295Y-64235475D01*
X416502295Y-64464047D02*
X415702295Y-64464047D01*
X415702295Y-64464047D02*
X415816580Y-64387856D01*
X415816580Y-64387856D02*
X415892771Y-64311666D01*
X415892771Y-64311666D02*
X415930866Y-64235475D01*
X416502295Y-65073571D02*
X416502295Y-65225952D01*
X416502295Y-65225952D02*
X416464200Y-65302142D01*
X416464200Y-65302142D02*
X416426104Y-65340238D01*
X416426104Y-65340238D02*
X416311819Y-65416428D01*
X416311819Y-65416428D02*
X416159438Y-65454523D01*
X416159438Y-65454523D02*
X415854676Y-65454523D01*
X415854676Y-65454523D02*
X415778485Y-65416428D01*
X415778485Y-65416428D02*
X415740390Y-65378333D01*
X415740390Y-65378333D02*
X415702295Y-65302142D01*
X415702295Y-65302142D02*
X415702295Y-65149761D01*
X415702295Y-65149761D02*
X415740390Y-65073571D01*
X415740390Y-65073571D02*
X415778485Y-65035476D01*
X415778485Y-65035476D02*
X415854676Y-64997380D01*
X415854676Y-64997380D02*
X416045152Y-64997380D01*
X416045152Y-64997380D02*
X416121342Y-65035476D01*
X416121342Y-65035476D02*
X416159438Y-65073571D01*
X416159438Y-65073571D02*
X416197533Y-65149761D01*
X416197533Y-65149761D02*
X416197533Y-65302142D01*
X416197533Y-65302142D02*
X416159438Y-65378333D01*
X416159438Y-65378333D02*
X416121342Y-65416428D01*
X416121342Y-65416428D02*
X416045152Y-65454523D01*
X451310390Y-51893571D02*
X451272295Y-51817381D01*
X451272295Y-51817381D02*
X451272295Y-51703095D01*
X451272295Y-51703095D02*
X451310390Y-51588809D01*
X451310390Y-51588809D02*
X451386580Y-51512619D01*
X451386580Y-51512619D02*
X451462771Y-51474524D01*
X451462771Y-51474524D02*
X451615152Y-51436428D01*
X451615152Y-51436428D02*
X451729438Y-51436428D01*
X451729438Y-51436428D02*
X451881819Y-51474524D01*
X451881819Y-51474524D02*
X451958009Y-51512619D01*
X451958009Y-51512619D02*
X452034200Y-51588809D01*
X452034200Y-51588809D02*
X452072295Y-51703095D01*
X452072295Y-51703095D02*
X452072295Y-51779286D01*
X452072295Y-51779286D02*
X452034200Y-51893571D01*
X452034200Y-51893571D02*
X451996104Y-51931667D01*
X451996104Y-51931667D02*
X451729438Y-51931667D01*
X451729438Y-51931667D02*
X451729438Y-51779286D01*
X452072295Y-52274524D02*
X451272295Y-52274524D01*
X451272295Y-52274524D02*
X451272295Y-52579286D01*
X451272295Y-52579286D02*
X451310390Y-52655476D01*
X451310390Y-52655476D02*
X451348485Y-52693571D01*
X451348485Y-52693571D02*
X451424676Y-52731667D01*
X451424676Y-52731667D02*
X451538961Y-52731667D01*
X451538961Y-52731667D02*
X451615152Y-52693571D01*
X451615152Y-52693571D02*
X451653247Y-52655476D01*
X451653247Y-52655476D02*
X451691342Y-52579286D01*
X451691342Y-52579286D02*
X451691342Y-52274524D01*
X452072295Y-53493571D02*
X452072295Y-53036428D01*
X452072295Y-53265000D02*
X451272295Y-53265000D01*
X451272295Y-53265000D02*
X451386580Y-53188809D01*
X451386580Y-53188809D02*
X451462771Y-53112619D01*
X451462771Y-53112619D02*
X451500866Y-53036428D01*
X405580390Y-63092618D02*
X405542295Y-63016428D01*
X405542295Y-63016428D02*
X405542295Y-62902142D01*
X405542295Y-62902142D02*
X405580390Y-62787856D01*
X405580390Y-62787856D02*
X405656580Y-62711666D01*
X405656580Y-62711666D02*
X405732771Y-62673571D01*
X405732771Y-62673571D02*
X405885152Y-62635475D01*
X405885152Y-62635475D02*
X405999438Y-62635475D01*
X405999438Y-62635475D02*
X406151819Y-62673571D01*
X406151819Y-62673571D02*
X406228009Y-62711666D01*
X406228009Y-62711666D02*
X406304200Y-62787856D01*
X406304200Y-62787856D02*
X406342295Y-62902142D01*
X406342295Y-62902142D02*
X406342295Y-62978333D01*
X406342295Y-62978333D02*
X406304200Y-63092618D01*
X406304200Y-63092618D02*
X406266104Y-63130714D01*
X406266104Y-63130714D02*
X405999438Y-63130714D01*
X405999438Y-63130714D02*
X405999438Y-62978333D01*
X406342295Y-63473571D02*
X405542295Y-63473571D01*
X405542295Y-63473571D02*
X405542295Y-63778333D01*
X405542295Y-63778333D02*
X405580390Y-63854523D01*
X405580390Y-63854523D02*
X405618485Y-63892618D01*
X405618485Y-63892618D02*
X405694676Y-63930714D01*
X405694676Y-63930714D02*
X405808961Y-63930714D01*
X405808961Y-63930714D02*
X405885152Y-63892618D01*
X405885152Y-63892618D02*
X405923247Y-63854523D01*
X405923247Y-63854523D02*
X405961342Y-63778333D01*
X405961342Y-63778333D02*
X405961342Y-63473571D01*
X406342295Y-64692618D02*
X406342295Y-64235475D01*
X406342295Y-64464047D02*
X405542295Y-64464047D01*
X405542295Y-64464047D02*
X405656580Y-64387856D01*
X405656580Y-64387856D02*
X405732771Y-64311666D01*
X405732771Y-64311666D02*
X405770866Y-64235475D01*
X405542295Y-65378333D02*
X405542295Y-65225952D01*
X405542295Y-65225952D02*
X405580390Y-65149761D01*
X405580390Y-65149761D02*
X405618485Y-65111666D01*
X405618485Y-65111666D02*
X405732771Y-65035476D01*
X405732771Y-65035476D02*
X405885152Y-64997380D01*
X405885152Y-64997380D02*
X406189914Y-64997380D01*
X406189914Y-64997380D02*
X406266104Y-65035476D01*
X406266104Y-65035476D02*
X406304200Y-65073571D01*
X406304200Y-65073571D02*
X406342295Y-65149761D01*
X406342295Y-65149761D02*
X406342295Y-65302142D01*
X406342295Y-65302142D02*
X406304200Y-65378333D01*
X406304200Y-65378333D02*
X406266104Y-65416428D01*
X406266104Y-65416428D02*
X406189914Y-65454523D01*
X406189914Y-65454523D02*
X405999438Y-65454523D01*
X405999438Y-65454523D02*
X405923247Y-65416428D01*
X405923247Y-65416428D02*
X405885152Y-65378333D01*
X405885152Y-65378333D02*
X405847057Y-65302142D01*
X405847057Y-65302142D02*
X405847057Y-65149761D01*
X405847057Y-65149761D02*
X405885152Y-65073571D01*
X405885152Y-65073571D02*
X405923247Y-65035476D01*
X405923247Y-65035476D02*
X405999438Y-64997380D01*
X438600390Y-51893571D02*
X438562295Y-51817381D01*
X438562295Y-51817381D02*
X438562295Y-51703095D01*
X438562295Y-51703095D02*
X438600390Y-51588809D01*
X438600390Y-51588809D02*
X438676580Y-51512619D01*
X438676580Y-51512619D02*
X438752771Y-51474524D01*
X438752771Y-51474524D02*
X438905152Y-51436428D01*
X438905152Y-51436428D02*
X439019438Y-51436428D01*
X439019438Y-51436428D02*
X439171819Y-51474524D01*
X439171819Y-51474524D02*
X439248009Y-51512619D01*
X439248009Y-51512619D02*
X439324200Y-51588809D01*
X439324200Y-51588809D02*
X439362295Y-51703095D01*
X439362295Y-51703095D02*
X439362295Y-51779286D01*
X439362295Y-51779286D02*
X439324200Y-51893571D01*
X439324200Y-51893571D02*
X439286104Y-51931667D01*
X439286104Y-51931667D02*
X439019438Y-51931667D01*
X439019438Y-51931667D02*
X439019438Y-51779286D01*
X439362295Y-52274524D02*
X438562295Y-52274524D01*
X438562295Y-52274524D02*
X438562295Y-52579286D01*
X438562295Y-52579286D02*
X438600390Y-52655476D01*
X438600390Y-52655476D02*
X438638485Y-52693571D01*
X438638485Y-52693571D02*
X438714676Y-52731667D01*
X438714676Y-52731667D02*
X438828961Y-52731667D01*
X438828961Y-52731667D02*
X438905152Y-52693571D01*
X438905152Y-52693571D02*
X438943247Y-52655476D01*
X438943247Y-52655476D02*
X438981342Y-52579286D01*
X438981342Y-52579286D02*
X438981342Y-52274524D01*
X438562295Y-53455476D02*
X438562295Y-53074524D01*
X438562295Y-53074524D02*
X438943247Y-53036428D01*
X438943247Y-53036428D02*
X438905152Y-53074524D01*
X438905152Y-53074524D02*
X438867057Y-53150714D01*
X438867057Y-53150714D02*
X438867057Y-53341190D01*
X438867057Y-53341190D02*
X438905152Y-53417381D01*
X438905152Y-53417381D02*
X438943247Y-53455476D01*
X438943247Y-53455476D02*
X439019438Y-53493571D01*
X439019438Y-53493571D02*
X439209914Y-53493571D01*
X439209914Y-53493571D02*
X439286104Y-53455476D01*
X439286104Y-53455476D02*
X439324200Y-53417381D01*
X439324200Y-53417381D02*
X439362295Y-53341190D01*
X439362295Y-53341190D02*
X439362295Y-53150714D01*
X439362295Y-53150714D02*
X439324200Y-53074524D01*
X439324200Y-53074524D02*
X439286104Y-53036428D01*
X410660390Y-63785476D02*
X410622295Y-63709286D01*
X410622295Y-63709286D02*
X410622295Y-63595000D01*
X410622295Y-63595000D02*
X410660390Y-63480714D01*
X410660390Y-63480714D02*
X410736580Y-63404524D01*
X410736580Y-63404524D02*
X410812771Y-63366429D01*
X410812771Y-63366429D02*
X410965152Y-63328333D01*
X410965152Y-63328333D02*
X411079438Y-63328333D01*
X411079438Y-63328333D02*
X411231819Y-63366429D01*
X411231819Y-63366429D02*
X411308009Y-63404524D01*
X411308009Y-63404524D02*
X411384200Y-63480714D01*
X411384200Y-63480714D02*
X411422295Y-63595000D01*
X411422295Y-63595000D02*
X411422295Y-63671191D01*
X411422295Y-63671191D02*
X411384200Y-63785476D01*
X411384200Y-63785476D02*
X411346104Y-63823572D01*
X411346104Y-63823572D02*
X411079438Y-63823572D01*
X411079438Y-63823572D02*
X411079438Y-63671191D01*
X411422295Y-64166429D02*
X410622295Y-64166429D01*
X410622295Y-64166429D02*
X411422295Y-64623572D01*
X411422295Y-64623572D02*
X410622295Y-64623572D01*
X411422295Y-65004524D02*
X410622295Y-65004524D01*
X410622295Y-65004524D02*
X410622295Y-65195000D01*
X410622295Y-65195000D02*
X410660390Y-65309286D01*
X410660390Y-65309286D02*
X410736580Y-65385476D01*
X410736580Y-65385476D02*
X410812771Y-65423571D01*
X410812771Y-65423571D02*
X410965152Y-65461667D01*
X410965152Y-65461667D02*
X411079438Y-65461667D01*
X411079438Y-65461667D02*
X411231819Y-65423571D01*
X411231819Y-65423571D02*
X411308009Y-65385476D01*
X411308009Y-65385476D02*
X411384200Y-65309286D01*
X411384200Y-65309286D02*
X411422295Y-65195000D01*
X411422295Y-65195000D02*
X411422295Y-65004524D01*
X413200390Y-63092618D02*
X413162295Y-63016428D01*
X413162295Y-63016428D02*
X413162295Y-62902142D01*
X413162295Y-62902142D02*
X413200390Y-62787856D01*
X413200390Y-62787856D02*
X413276580Y-62711666D01*
X413276580Y-62711666D02*
X413352771Y-62673571D01*
X413352771Y-62673571D02*
X413505152Y-62635475D01*
X413505152Y-62635475D02*
X413619438Y-62635475D01*
X413619438Y-62635475D02*
X413771819Y-62673571D01*
X413771819Y-62673571D02*
X413848009Y-62711666D01*
X413848009Y-62711666D02*
X413924200Y-62787856D01*
X413924200Y-62787856D02*
X413962295Y-62902142D01*
X413962295Y-62902142D02*
X413962295Y-62978333D01*
X413962295Y-62978333D02*
X413924200Y-63092618D01*
X413924200Y-63092618D02*
X413886104Y-63130714D01*
X413886104Y-63130714D02*
X413619438Y-63130714D01*
X413619438Y-63130714D02*
X413619438Y-62978333D01*
X413962295Y-63473571D02*
X413162295Y-63473571D01*
X413162295Y-63473571D02*
X413162295Y-63778333D01*
X413162295Y-63778333D02*
X413200390Y-63854523D01*
X413200390Y-63854523D02*
X413238485Y-63892618D01*
X413238485Y-63892618D02*
X413314676Y-63930714D01*
X413314676Y-63930714D02*
X413428961Y-63930714D01*
X413428961Y-63930714D02*
X413505152Y-63892618D01*
X413505152Y-63892618D02*
X413543247Y-63854523D01*
X413543247Y-63854523D02*
X413581342Y-63778333D01*
X413581342Y-63778333D02*
X413581342Y-63473571D01*
X413962295Y-64692618D02*
X413962295Y-64235475D01*
X413962295Y-64464047D02*
X413162295Y-64464047D01*
X413162295Y-64464047D02*
X413276580Y-64387856D01*
X413276580Y-64387856D02*
X413352771Y-64311666D01*
X413352771Y-64311666D02*
X413390866Y-64235475D01*
X413505152Y-65149761D02*
X413467057Y-65073571D01*
X413467057Y-65073571D02*
X413428961Y-65035476D01*
X413428961Y-65035476D02*
X413352771Y-64997380D01*
X413352771Y-64997380D02*
X413314676Y-64997380D01*
X413314676Y-64997380D02*
X413238485Y-65035476D01*
X413238485Y-65035476D02*
X413200390Y-65073571D01*
X413200390Y-65073571D02*
X413162295Y-65149761D01*
X413162295Y-65149761D02*
X413162295Y-65302142D01*
X413162295Y-65302142D02*
X413200390Y-65378333D01*
X413200390Y-65378333D02*
X413238485Y-65416428D01*
X413238485Y-65416428D02*
X413314676Y-65454523D01*
X413314676Y-65454523D02*
X413352771Y-65454523D01*
X413352771Y-65454523D02*
X413428961Y-65416428D01*
X413428961Y-65416428D02*
X413467057Y-65378333D01*
X413467057Y-65378333D02*
X413505152Y-65302142D01*
X413505152Y-65302142D02*
X413505152Y-65149761D01*
X413505152Y-65149761D02*
X413543247Y-65073571D01*
X413543247Y-65073571D02*
X413581342Y-65035476D01*
X413581342Y-65035476D02*
X413657533Y-64997380D01*
X413657533Y-64997380D02*
X413809914Y-64997380D01*
X413809914Y-64997380D02*
X413886104Y-65035476D01*
X413886104Y-65035476D02*
X413924200Y-65073571D01*
X413924200Y-65073571D02*
X413962295Y-65149761D01*
X413962295Y-65149761D02*
X413962295Y-65302142D01*
X413962295Y-65302142D02*
X413924200Y-65378333D01*
X413924200Y-65378333D02*
X413886104Y-65416428D01*
X413886104Y-65416428D02*
X413809914Y-65454523D01*
X413809914Y-65454523D02*
X413657533Y-65454523D01*
X413657533Y-65454523D02*
X413581342Y-65416428D01*
X413581342Y-65416428D02*
X413543247Y-65378333D01*
X413543247Y-65378333D02*
X413505152Y-65302142D01*
X425900390Y-51893571D02*
X425862295Y-51817381D01*
X425862295Y-51817381D02*
X425862295Y-51703095D01*
X425862295Y-51703095D02*
X425900390Y-51588809D01*
X425900390Y-51588809D02*
X425976580Y-51512619D01*
X425976580Y-51512619D02*
X426052771Y-51474524D01*
X426052771Y-51474524D02*
X426205152Y-51436428D01*
X426205152Y-51436428D02*
X426319438Y-51436428D01*
X426319438Y-51436428D02*
X426471819Y-51474524D01*
X426471819Y-51474524D02*
X426548009Y-51512619D01*
X426548009Y-51512619D02*
X426624200Y-51588809D01*
X426624200Y-51588809D02*
X426662295Y-51703095D01*
X426662295Y-51703095D02*
X426662295Y-51779286D01*
X426662295Y-51779286D02*
X426624200Y-51893571D01*
X426624200Y-51893571D02*
X426586104Y-51931667D01*
X426586104Y-51931667D02*
X426319438Y-51931667D01*
X426319438Y-51931667D02*
X426319438Y-51779286D01*
X426662295Y-52274524D02*
X425862295Y-52274524D01*
X425862295Y-52274524D02*
X425862295Y-52579286D01*
X425862295Y-52579286D02*
X425900390Y-52655476D01*
X425900390Y-52655476D02*
X425938485Y-52693571D01*
X425938485Y-52693571D02*
X426014676Y-52731667D01*
X426014676Y-52731667D02*
X426128961Y-52731667D01*
X426128961Y-52731667D02*
X426205152Y-52693571D01*
X426205152Y-52693571D02*
X426243247Y-52655476D01*
X426243247Y-52655476D02*
X426281342Y-52579286D01*
X426281342Y-52579286D02*
X426281342Y-52274524D01*
X426662295Y-53112619D02*
X426662295Y-53265000D01*
X426662295Y-53265000D02*
X426624200Y-53341190D01*
X426624200Y-53341190D02*
X426586104Y-53379286D01*
X426586104Y-53379286D02*
X426471819Y-53455476D01*
X426471819Y-53455476D02*
X426319438Y-53493571D01*
X426319438Y-53493571D02*
X426014676Y-53493571D01*
X426014676Y-53493571D02*
X425938485Y-53455476D01*
X425938485Y-53455476D02*
X425900390Y-53417381D01*
X425900390Y-53417381D02*
X425862295Y-53341190D01*
X425862295Y-53341190D02*
X425862295Y-53188809D01*
X425862295Y-53188809D02*
X425900390Y-53112619D01*
X425900390Y-53112619D02*
X425938485Y-53074524D01*
X425938485Y-53074524D02*
X426014676Y-53036428D01*
X426014676Y-53036428D02*
X426205152Y-53036428D01*
X426205152Y-53036428D02*
X426281342Y-53074524D01*
X426281342Y-53074524D02*
X426319438Y-53112619D01*
X426319438Y-53112619D02*
X426357533Y-53188809D01*
X426357533Y-53188809D02*
X426357533Y-53341190D01*
X426357533Y-53341190D02*
X426319438Y-53417381D01*
X426319438Y-53417381D02*
X426281342Y-53455476D01*
X426281342Y-53455476D02*
X426205152Y-53493571D01*
X411555238Y-61369200D02*
X411440952Y-61407295D01*
X411440952Y-61407295D02*
X411250476Y-61407295D01*
X411250476Y-61407295D02*
X411174285Y-61369200D01*
X411174285Y-61369200D02*
X411136190Y-61331104D01*
X411136190Y-61331104D02*
X411098095Y-61254914D01*
X411098095Y-61254914D02*
X411098095Y-61178723D01*
X411098095Y-61178723D02*
X411136190Y-61102533D01*
X411136190Y-61102533D02*
X411174285Y-61064438D01*
X411174285Y-61064438D02*
X411250476Y-61026342D01*
X411250476Y-61026342D02*
X411402857Y-60988247D01*
X411402857Y-60988247D02*
X411479047Y-60950152D01*
X411479047Y-60950152D02*
X411517142Y-60912057D01*
X411517142Y-60912057D02*
X411555238Y-60835866D01*
X411555238Y-60835866D02*
X411555238Y-60759676D01*
X411555238Y-60759676D02*
X411517142Y-60683485D01*
X411517142Y-60683485D02*
X411479047Y-60645390D01*
X411479047Y-60645390D02*
X411402857Y-60607295D01*
X411402857Y-60607295D02*
X411212380Y-60607295D01*
X411212380Y-60607295D02*
X411098095Y-60645390D01*
X410831428Y-60607295D02*
X410640952Y-61407295D01*
X410640952Y-61407295D02*
X410488571Y-60835866D01*
X410488571Y-60835866D02*
X410336190Y-61407295D01*
X410336190Y-61407295D02*
X410145714Y-60607295D01*
X409840951Y-61407295D02*
X409840951Y-60607295D01*
X409840951Y-60607295D02*
X409650475Y-60607295D01*
X409650475Y-60607295D02*
X409536189Y-60645390D01*
X409536189Y-60645390D02*
X409459999Y-60721580D01*
X409459999Y-60721580D02*
X409421904Y-60797771D01*
X409421904Y-60797771D02*
X409383808Y-60950152D01*
X409383808Y-60950152D02*
X409383808Y-61064438D01*
X409383808Y-61064438D02*
X409421904Y-61216819D01*
X409421904Y-61216819D02*
X409459999Y-61293009D01*
X409459999Y-61293009D02*
X409536189Y-61369200D01*
X409536189Y-61369200D02*
X409650475Y-61407295D01*
X409650475Y-61407295D02*
X409840951Y-61407295D01*
X409040951Y-61407295D02*
X409040951Y-60607295D01*
X408507618Y-60607295D02*
X408355237Y-60607295D01*
X408355237Y-60607295D02*
X408279047Y-60645390D01*
X408279047Y-60645390D02*
X408202856Y-60721580D01*
X408202856Y-60721580D02*
X408164761Y-60873961D01*
X408164761Y-60873961D02*
X408164761Y-61140628D01*
X408164761Y-61140628D02*
X408202856Y-61293009D01*
X408202856Y-61293009D02*
X408279047Y-61369200D01*
X408279047Y-61369200D02*
X408355237Y-61407295D01*
X408355237Y-61407295D02*
X408507618Y-61407295D01*
X408507618Y-61407295D02*
X408583809Y-61369200D01*
X408583809Y-61369200D02*
X408659999Y-61293009D01*
X408659999Y-61293009D02*
X408698095Y-61140628D01*
X408698095Y-61140628D02*
X408698095Y-60873961D01*
X408698095Y-60873961D02*
X408659999Y-60721580D01*
X408659999Y-60721580D02*
X408583809Y-60645390D01*
X408583809Y-60645390D02*
X408507618Y-60607295D01*
X431010390Y-51893571D02*
X430972295Y-51817381D01*
X430972295Y-51817381D02*
X430972295Y-51703095D01*
X430972295Y-51703095D02*
X431010390Y-51588809D01*
X431010390Y-51588809D02*
X431086580Y-51512619D01*
X431086580Y-51512619D02*
X431162771Y-51474524D01*
X431162771Y-51474524D02*
X431315152Y-51436428D01*
X431315152Y-51436428D02*
X431429438Y-51436428D01*
X431429438Y-51436428D02*
X431581819Y-51474524D01*
X431581819Y-51474524D02*
X431658009Y-51512619D01*
X431658009Y-51512619D02*
X431734200Y-51588809D01*
X431734200Y-51588809D02*
X431772295Y-51703095D01*
X431772295Y-51703095D02*
X431772295Y-51779286D01*
X431772295Y-51779286D02*
X431734200Y-51893571D01*
X431734200Y-51893571D02*
X431696104Y-51931667D01*
X431696104Y-51931667D02*
X431429438Y-51931667D01*
X431429438Y-51931667D02*
X431429438Y-51779286D01*
X431772295Y-52274524D02*
X430972295Y-52274524D01*
X430972295Y-52274524D02*
X430972295Y-52579286D01*
X430972295Y-52579286D02*
X431010390Y-52655476D01*
X431010390Y-52655476D02*
X431048485Y-52693571D01*
X431048485Y-52693571D02*
X431124676Y-52731667D01*
X431124676Y-52731667D02*
X431238961Y-52731667D01*
X431238961Y-52731667D02*
X431315152Y-52693571D01*
X431315152Y-52693571D02*
X431353247Y-52655476D01*
X431353247Y-52655476D02*
X431391342Y-52579286D01*
X431391342Y-52579286D02*
X431391342Y-52274524D01*
X430972295Y-52998333D02*
X430972295Y-53531667D01*
X430972295Y-53531667D02*
X431772295Y-53188809D01*
X438600390Y-63092618D02*
X438562295Y-63016428D01*
X438562295Y-63016428D02*
X438562295Y-62902142D01*
X438562295Y-62902142D02*
X438600390Y-62787856D01*
X438600390Y-62787856D02*
X438676580Y-62711666D01*
X438676580Y-62711666D02*
X438752771Y-62673571D01*
X438752771Y-62673571D02*
X438905152Y-62635475D01*
X438905152Y-62635475D02*
X439019438Y-62635475D01*
X439019438Y-62635475D02*
X439171819Y-62673571D01*
X439171819Y-62673571D02*
X439248009Y-62711666D01*
X439248009Y-62711666D02*
X439324200Y-62787856D01*
X439324200Y-62787856D02*
X439362295Y-62902142D01*
X439362295Y-62902142D02*
X439362295Y-62978333D01*
X439362295Y-62978333D02*
X439324200Y-63092618D01*
X439324200Y-63092618D02*
X439286104Y-63130714D01*
X439286104Y-63130714D02*
X439019438Y-63130714D01*
X439019438Y-63130714D02*
X439019438Y-62978333D01*
X439362295Y-63473571D02*
X438562295Y-63473571D01*
X438562295Y-63473571D02*
X438562295Y-63778333D01*
X438562295Y-63778333D02*
X438600390Y-63854523D01*
X438600390Y-63854523D02*
X438638485Y-63892618D01*
X438638485Y-63892618D02*
X438714676Y-63930714D01*
X438714676Y-63930714D02*
X438828961Y-63930714D01*
X438828961Y-63930714D02*
X438905152Y-63892618D01*
X438905152Y-63892618D02*
X438943247Y-63854523D01*
X438943247Y-63854523D02*
X438981342Y-63778333D01*
X438981342Y-63778333D02*
X438981342Y-63473571D01*
X438638485Y-64235475D02*
X438600390Y-64273571D01*
X438600390Y-64273571D02*
X438562295Y-64349761D01*
X438562295Y-64349761D02*
X438562295Y-64540237D01*
X438562295Y-64540237D02*
X438600390Y-64616428D01*
X438600390Y-64616428D02*
X438638485Y-64654523D01*
X438638485Y-64654523D02*
X438714676Y-64692618D01*
X438714676Y-64692618D02*
X438790866Y-64692618D01*
X438790866Y-64692618D02*
X438905152Y-64654523D01*
X438905152Y-64654523D02*
X439362295Y-64197380D01*
X439362295Y-64197380D02*
X439362295Y-64692618D01*
X438905152Y-65149761D02*
X438867057Y-65073571D01*
X438867057Y-65073571D02*
X438828961Y-65035476D01*
X438828961Y-65035476D02*
X438752771Y-64997380D01*
X438752771Y-64997380D02*
X438714676Y-64997380D01*
X438714676Y-64997380D02*
X438638485Y-65035476D01*
X438638485Y-65035476D02*
X438600390Y-65073571D01*
X438600390Y-65073571D02*
X438562295Y-65149761D01*
X438562295Y-65149761D02*
X438562295Y-65302142D01*
X438562295Y-65302142D02*
X438600390Y-65378333D01*
X438600390Y-65378333D02*
X438638485Y-65416428D01*
X438638485Y-65416428D02*
X438714676Y-65454523D01*
X438714676Y-65454523D02*
X438752771Y-65454523D01*
X438752771Y-65454523D02*
X438828961Y-65416428D01*
X438828961Y-65416428D02*
X438867057Y-65378333D01*
X438867057Y-65378333D02*
X438905152Y-65302142D01*
X438905152Y-65302142D02*
X438905152Y-65149761D01*
X438905152Y-65149761D02*
X438943247Y-65073571D01*
X438943247Y-65073571D02*
X438981342Y-65035476D01*
X438981342Y-65035476D02*
X439057533Y-64997380D01*
X439057533Y-64997380D02*
X439209914Y-64997380D01*
X439209914Y-64997380D02*
X439286104Y-65035476D01*
X439286104Y-65035476D02*
X439324200Y-65073571D01*
X439324200Y-65073571D02*
X439362295Y-65149761D01*
X439362295Y-65149761D02*
X439362295Y-65302142D01*
X439362295Y-65302142D02*
X439324200Y-65378333D01*
X439324200Y-65378333D02*
X439286104Y-65416428D01*
X439286104Y-65416428D02*
X439209914Y-65454523D01*
X439209914Y-65454523D02*
X439057533Y-65454523D01*
X439057533Y-65454523D02*
X438981342Y-65416428D01*
X438981342Y-65416428D02*
X438943247Y-65378333D01*
X438943247Y-65378333D02*
X438905152Y-65302142D01*
X411669524Y-56289200D02*
X411555238Y-56327295D01*
X411555238Y-56327295D02*
X411364762Y-56327295D01*
X411364762Y-56327295D02*
X411288571Y-56289200D01*
X411288571Y-56289200D02*
X411250476Y-56251104D01*
X411250476Y-56251104D02*
X411212381Y-56174914D01*
X411212381Y-56174914D02*
X411212381Y-56098723D01*
X411212381Y-56098723D02*
X411250476Y-56022533D01*
X411250476Y-56022533D02*
X411288571Y-55984438D01*
X411288571Y-55984438D02*
X411364762Y-55946342D01*
X411364762Y-55946342D02*
X411517143Y-55908247D01*
X411517143Y-55908247D02*
X411593333Y-55870152D01*
X411593333Y-55870152D02*
X411631428Y-55832057D01*
X411631428Y-55832057D02*
X411669524Y-55755866D01*
X411669524Y-55755866D02*
X411669524Y-55679676D01*
X411669524Y-55679676D02*
X411631428Y-55603485D01*
X411631428Y-55603485D02*
X411593333Y-55565390D01*
X411593333Y-55565390D02*
X411517143Y-55527295D01*
X411517143Y-55527295D02*
X411326666Y-55527295D01*
X411326666Y-55527295D02*
X411212381Y-55565390D01*
X410945714Y-55527295D02*
X410755238Y-56327295D01*
X410755238Y-56327295D02*
X410602857Y-55755866D01*
X410602857Y-55755866D02*
X410450476Y-56327295D01*
X410450476Y-56327295D02*
X410260000Y-55527295D01*
X409498094Y-56251104D02*
X409536190Y-56289200D01*
X409536190Y-56289200D02*
X409650475Y-56327295D01*
X409650475Y-56327295D02*
X409726666Y-56327295D01*
X409726666Y-56327295D02*
X409840952Y-56289200D01*
X409840952Y-56289200D02*
X409917142Y-56213009D01*
X409917142Y-56213009D02*
X409955237Y-56136819D01*
X409955237Y-56136819D02*
X409993333Y-55984438D01*
X409993333Y-55984438D02*
X409993333Y-55870152D01*
X409993333Y-55870152D02*
X409955237Y-55717771D01*
X409955237Y-55717771D02*
X409917142Y-55641580D01*
X409917142Y-55641580D02*
X409840952Y-55565390D01*
X409840952Y-55565390D02*
X409726666Y-55527295D01*
X409726666Y-55527295D02*
X409650475Y-55527295D01*
X409650475Y-55527295D02*
X409536190Y-55565390D01*
X409536190Y-55565390D02*
X409498094Y-55603485D01*
X408774285Y-56327295D02*
X409155237Y-56327295D01*
X409155237Y-56327295D02*
X409155237Y-55527295D01*
X408507618Y-56327295D02*
X408507618Y-55527295D01*
X408050475Y-56327295D02*
X408393333Y-55870152D01*
X408050475Y-55527295D02*
X408507618Y-55984438D01*
X443642295Y-63554523D02*
X443642295Y-64049761D01*
X443642295Y-64049761D02*
X443947057Y-63783095D01*
X443947057Y-63783095D02*
X443947057Y-63897380D01*
X443947057Y-63897380D02*
X443985152Y-63973571D01*
X443985152Y-63973571D02*
X444023247Y-64011666D01*
X444023247Y-64011666D02*
X444099438Y-64049761D01*
X444099438Y-64049761D02*
X444289914Y-64049761D01*
X444289914Y-64049761D02*
X444366104Y-64011666D01*
X444366104Y-64011666D02*
X444404200Y-63973571D01*
X444404200Y-63973571D02*
X444442295Y-63897380D01*
X444442295Y-63897380D02*
X444442295Y-63668809D01*
X444442295Y-63668809D02*
X444404200Y-63592618D01*
X444404200Y-63592618D02*
X444366104Y-63554523D01*
X443642295Y-64278333D02*
X444442295Y-64545000D01*
X444442295Y-64545000D02*
X443642295Y-64811666D01*
X443642295Y-65002142D02*
X443642295Y-65497380D01*
X443642295Y-65497380D02*
X443947057Y-65230714D01*
X443947057Y-65230714D02*
X443947057Y-65344999D01*
X443947057Y-65344999D02*
X443985152Y-65421190D01*
X443985152Y-65421190D02*
X444023247Y-65459285D01*
X444023247Y-65459285D02*
X444099438Y-65497380D01*
X444099438Y-65497380D02*
X444289914Y-65497380D01*
X444289914Y-65497380D02*
X444366104Y-65459285D01*
X444366104Y-65459285D02*
X444404200Y-65421190D01*
X444404200Y-65421190D02*
X444442295Y-65344999D01*
X444442295Y-65344999D02*
X444442295Y-65116428D01*
X444442295Y-65116428D02*
X444404200Y-65040237D01*
X444404200Y-65040237D02*
X444366104Y-65002142D01*
X430980390Y-63092618D02*
X430942295Y-63016428D01*
X430942295Y-63016428D02*
X430942295Y-62902142D01*
X430942295Y-62902142D02*
X430980390Y-62787856D01*
X430980390Y-62787856D02*
X431056580Y-62711666D01*
X431056580Y-62711666D02*
X431132771Y-62673571D01*
X431132771Y-62673571D02*
X431285152Y-62635475D01*
X431285152Y-62635475D02*
X431399438Y-62635475D01*
X431399438Y-62635475D02*
X431551819Y-62673571D01*
X431551819Y-62673571D02*
X431628009Y-62711666D01*
X431628009Y-62711666D02*
X431704200Y-62787856D01*
X431704200Y-62787856D02*
X431742295Y-62902142D01*
X431742295Y-62902142D02*
X431742295Y-62978333D01*
X431742295Y-62978333D02*
X431704200Y-63092618D01*
X431704200Y-63092618D02*
X431666104Y-63130714D01*
X431666104Y-63130714D02*
X431399438Y-63130714D01*
X431399438Y-63130714D02*
X431399438Y-62978333D01*
X431742295Y-63473571D02*
X430942295Y-63473571D01*
X430942295Y-63473571D02*
X430942295Y-63778333D01*
X430942295Y-63778333D02*
X430980390Y-63854523D01*
X430980390Y-63854523D02*
X431018485Y-63892618D01*
X431018485Y-63892618D02*
X431094676Y-63930714D01*
X431094676Y-63930714D02*
X431208961Y-63930714D01*
X431208961Y-63930714D02*
X431285152Y-63892618D01*
X431285152Y-63892618D02*
X431323247Y-63854523D01*
X431323247Y-63854523D02*
X431361342Y-63778333D01*
X431361342Y-63778333D02*
X431361342Y-63473571D01*
X431018485Y-64235475D02*
X430980390Y-64273571D01*
X430980390Y-64273571D02*
X430942295Y-64349761D01*
X430942295Y-64349761D02*
X430942295Y-64540237D01*
X430942295Y-64540237D02*
X430980390Y-64616428D01*
X430980390Y-64616428D02*
X431018485Y-64654523D01*
X431018485Y-64654523D02*
X431094676Y-64692618D01*
X431094676Y-64692618D02*
X431170866Y-64692618D01*
X431170866Y-64692618D02*
X431285152Y-64654523D01*
X431285152Y-64654523D02*
X431742295Y-64197380D01*
X431742295Y-64197380D02*
X431742295Y-64692618D01*
X430942295Y-65378333D02*
X430942295Y-65225952D01*
X430942295Y-65225952D02*
X430980390Y-65149761D01*
X430980390Y-65149761D02*
X431018485Y-65111666D01*
X431018485Y-65111666D02*
X431132771Y-65035476D01*
X431132771Y-65035476D02*
X431285152Y-64997380D01*
X431285152Y-64997380D02*
X431589914Y-64997380D01*
X431589914Y-64997380D02*
X431666104Y-65035476D01*
X431666104Y-65035476D02*
X431704200Y-65073571D01*
X431704200Y-65073571D02*
X431742295Y-65149761D01*
X431742295Y-65149761D02*
X431742295Y-65302142D01*
X431742295Y-65302142D02*
X431704200Y-65378333D01*
X431704200Y-65378333D02*
X431666104Y-65416428D01*
X431666104Y-65416428D02*
X431589914Y-65454523D01*
X431589914Y-65454523D02*
X431399438Y-65454523D01*
X431399438Y-65454523D02*
X431323247Y-65416428D01*
X431323247Y-65416428D02*
X431285152Y-65378333D01*
X431285152Y-65378333D02*
X431247057Y-65302142D01*
X431247057Y-65302142D02*
X431247057Y-65149761D01*
X431247057Y-65149761D02*
X431285152Y-65073571D01*
X431285152Y-65073571D02*
X431323247Y-65035476D01*
X431323247Y-65035476D02*
X431399438Y-64997380D01*
X425900390Y-63092618D02*
X425862295Y-63016428D01*
X425862295Y-63016428D02*
X425862295Y-62902142D01*
X425862295Y-62902142D02*
X425900390Y-62787856D01*
X425900390Y-62787856D02*
X425976580Y-62711666D01*
X425976580Y-62711666D02*
X426052771Y-62673571D01*
X426052771Y-62673571D02*
X426205152Y-62635475D01*
X426205152Y-62635475D02*
X426319438Y-62635475D01*
X426319438Y-62635475D02*
X426471819Y-62673571D01*
X426471819Y-62673571D02*
X426548009Y-62711666D01*
X426548009Y-62711666D02*
X426624200Y-62787856D01*
X426624200Y-62787856D02*
X426662295Y-62902142D01*
X426662295Y-62902142D02*
X426662295Y-62978333D01*
X426662295Y-62978333D02*
X426624200Y-63092618D01*
X426624200Y-63092618D02*
X426586104Y-63130714D01*
X426586104Y-63130714D02*
X426319438Y-63130714D01*
X426319438Y-63130714D02*
X426319438Y-62978333D01*
X426662295Y-63473571D02*
X425862295Y-63473571D01*
X425862295Y-63473571D02*
X425862295Y-63778333D01*
X425862295Y-63778333D02*
X425900390Y-63854523D01*
X425900390Y-63854523D02*
X425938485Y-63892618D01*
X425938485Y-63892618D02*
X426014676Y-63930714D01*
X426014676Y-63930714D02*
X426128961Y-63930714D01*
X426128961Y-63930714D02*
X426205152Y-63892618D01*
X426205152Y-63892618D02*
X426243247Y-63854523D01*
X426243247Y-63854523D02*
X426281342Y-63778333D01*
X426281342Y-63778333D02*
X426281342Y-63473571D01*
X425938485Y-64235475D02*
X425900390Y-64273571D01*
X425900390Y-64273571D02*
X425862295Y-64349761D01*
X425862295Y-64349761D02*
X425862295Y-64540237D01*
X425862295Y-64540237D02*
X425900390Y-64616428D01*
X425900390Y-64616428D02*
X425938485Y-64654523D01*
X425938485Y-64654523D02*
X426014676Y-64692618D01*
X426014676Y-64692618D02*
X426090866Y-64692618D01*
X426090866Y-64692618D02*
X426205152Y-64654523D01*
X426205152Y-64654523D02*
X426662295Y-64197380D01*
X426662295Y-64197380D02*
X426662295Y-64692618D01*
X425938485Y-64997380D02*
X425900390Y-65035476D01*
X425900390Y-65035476D02*
X425862295Y-65111666D01*
X425862295Y-65111666D02*
X425862295Y-65302142D01*
X425862295Y-65302142D02*
X425900390Y-65378333D01*
X425900390Y-65378333D02*
X425938485Y-65416428D01*
X425938485Y-65416428D02*
X426014676Y-65454523D01*
X426014676Y-65454523D02*
X426090866Y-65454523D01*
X426090866Y-65454523D02*
X426205152Y-65416428D01*
X426205152Y-65416428D02*
X426662295Y-64959285D01*
X426662295Y-64959285D02*
X426662295Y-65454523D01*
X448760390Y-63935476D02*
X448722295Y-63859286D01*
X448722295Y-63859286D02*
X448722295Y-63745000D01*
X448722295Y-63745000D02*
X448760390Y-63630714D01*
X448760390Y-63630714D02*
X448836580Y-63554524D01*
X448836580Y-63554524D02*
X448912771Y-63516429D01*
X448912771Y-63516429D02*
X449065152Y-63478333D01*
X449065152Y-63478333D02*
X449179438Y-63478333D01*
X449179438Y-63478333D02*
X449331819Y-63516429D01*
X449331819Y-63516429D02*
X449408009Y-63554524D01*
X449408009Y-63554524D02*
X449484200Y-63630714D01*
X449484200Y-63630714D02*
X449522295Y-63745000D01*
X449522295Y-63745000D02*
X449522295Y-63821191D01*
X449522295Y-63821191D02*
X449484200Y-63935476D01*
X449484200Y-63935476D02*
X449446104Y-63973572D01*
X449446104Y-63973572D02*
X449179438Y-63973572D01*
X449179438Y-63973572D02*
X449179438Y-63821191D01*
X449522295Y-64316429D02*
X448722295Y-64316429D01*
X448722295Y-64316429D02*
X449522295Y-64773572D01*
X449522295Y-64773572D02*
X448722295Y-64773572D01*
X449522295Y-65154524D02*
X448722295Y-65154524D01*
X448722295Y-65154524D02*
X448722295Y-65345000D01*
X448722295Y-65345000D02*
X448760390Y-65459286D01*
X448760390Y-65459286D02*
X448836580Y-65535476D01*
X448836580Y-65535476D02*
X448912771Y-65573571D01*
X448912771Y-65573571D02*
X449065152Y-65611667D01*
X449065152Y-65611667D02*
X449179438Y-65611667D01*
X449179438Y-65611667D02*
X449331819Y-65573571D01*
X449331819Y-65573571D02*
X449408009Y-65535476D01*
X449408009Y-65535476D02*
X449484200Y-65459286D01*
X449484200Y-65459286D02*
X449522295Y-65345000D01*
X449522295Y-65345000D02*
X449522295Y-65154524D01*
X436060390Y-51855476D02*
X436022295Y-51779286D01*
X436022295Y-51779286D02*
X436022295Y-51665000D01*
X436022295Y-51665000D02*
X436060390Y-51550714D01*
X436060390Y-51550714D02*
X436136580Y-51474524D01*
X436136580Y-51474524D02*
X436212771Y-51436429D01*
X436212771Y-51436429D02*
X436365152Y-51398333D01*
X436365152Y-51398333D02*
X436479438Y-51398333D01*
X436479438Y-51398333D02*
X436631819Y-51436429D01*
X436631819Y-51436429D02*
X436708009Y-51474524D01*
X436708009Y-51474524D02*
X436784200Y-51550714D01*
X436784200Y-51550714D02*
X436822295Y-51665000D01*
X436822295Y-51665000D02*
X436822295Y-51741191D01*
X436822295Y-51741191D02*
X436784200Y-51855476D01*
X436784200Y-51855476D02*
X436746104Y-51893572D01*
X436746104Y-51893572D02*
X436479438Y-51893572D01*
X436479438Y-51893572D02*
X436479438Y-51741191D01*
X436822295Y-52236429D02*
X436022295Y-52236429D01*
X436022295Y-52236429D02*
X436822295Y-52693572D01*
X436822295Y-52693572D02*
X436022295Y-52693572D01*
X436822295Y-53074524D02*
X436022295Y-53074524D01*
X436022295Y-53074524D02*
X436022295Y-53265000D01*
X436022295Y-53265000D02*
X436060390Y-53379286D01*
X436060390Y-53379286D02*
X436136580Y-53455476D01*
X436136580Y-53455476D02*
X436212771Y-53493571D01*
X436212771Y-53493571D02*
X436365152Y-53531667D01*
X436365152Y-53531667D02*
X436479438Y-53531667D01*
X436479438Y-53531667D02*
X436631819Y-53493571D01*
X436631819Y-53493571D02*
X436708009Y-53455476D01*
X436708009Y-53455476D02*
X436784200Y-53379286D01*
X436784200Y-53379286D02*
X436822295Y-53265000D01*
X436822295Y-53265000D02*
X436822295Y-53074524D01*
X415740390Y-51862618D02*
X415702295Y-51786428D01*
X415702295Y-51786428D02*
X415702295Y-51672142D01*
X415702295Y-51672142D02*
X415740390Y-51557856D01*
X415740390Y-51557856D02*
X415816580Y-51481666D01*
X415816580Y-51481666D02*
X415892771Y-51443571D01*
X415892771Y-51443571D02*
X416045152Y-51405475D01*
X416045152Y-51405475D02*
X416159438Y-51405475D01*
X416159438Y-51405475D02*
X416311819Y-51443571D01*
X416311819Y-51443571D02*
X416388009Y-51481666D01*
X416388009Y-51481666D02*
X416464200Y-51557856D01*
X416464200Y-51557856D02*
X416502295Y-51672142D01*
X416502295Y-51672142D02*
X416502295Y-51748333D01*
X416502295Y-51748333D02*
X416464200Y-51862618D01*
X416464200Y-51862618D02*
X416426104Y-51900714D01*
X416426104Y-51900714D02*
X416159438Y-51900714D01*
X416159438Y-51900714D02*
X416159438Y-51748333D01*
X416502295Y-52243571D02*
X415702295Y-52243571D01*
X415702295Y-52243571D02*
X415702295Y-52548333D01*
X415702295Y-52548333D02*
X415740390Y-52624523D01*
X415740390Y-52624523D02*
X415778485Y-52662618D01*
X415778485Y-52662618D02*
X415854676Y-52700714D01*
X415854676Y-52700714D02*
X415968961Y-52700714D01*
X415968961Y-52700714D02*
X416045152Y-52662618D01*
X416045152Y-52662618D02*
X416083247Y-52624523D01*
X416083247Y-52624523D02*
X416121342Y-52548333D01*
X416121342Y-52548333D02*
X416121342Y-52243571D01*
X416502295Y-53462618D02*
X416502295Y-53005475D01*
X416502295Y-53234047D02*
X415702295Y-53234047D01*
X415702295Y-53234047D02*
X415816580Y-53157856D01*
X415816580Y-53157856D02*
X415892771Y-53081666D01*
X415892771Y-53081666D02*
X415930866Y-53005475D01*
X415778485Y-53767380D02*
X415740390Y-53805476D01*
X415740390Y-53805476D02*
X415702295Y-53881666D01*
X415702295Y-53881666D02*
X415702295Y-54072142D01*
X415702295Y-54072142D02*
X415740390Y-54148333D01*
X415740390Y-54148333D02*
X415778485Y-54186428D01*
X415778485Y-54186428D02*
X415854676Y-54224523D01*
X415854676Y-54224523D02*
X415930866Y-54224523D01*
X415930866Y-54224523D02*
X416045152Y-54186428D01*
X416045152Y-54186428D02*
X416502295Y-53729285D01*
X416502295Y-53729285D02*
X416502295Y-54224523D01*
X405580390Y-51862618D02*
X405542295Y-51786428D01*
X405542295Y-51786428D02*
X405542295Y-51672142D01*
X405542295Y-51672142D02*
X405580390Y-51557856D01*
X405580390Y-51557856D02*
X405656580Y-51481666D01*
X405656580Y-51481666D02*
X405732771Y-51443571D01*
X405732771Y-51443571D02*
X405885152Y-51405475D01*
X405885152Y-51405475D02*
X405999438Y-51405475D01*
X405999438Y-51405475D02*
X406151819Y-51443571D01*
X406151819Y-51443571D02*
X406228009Y-51481666D01*
X406228009Y-51481666D02*
X406304200Y-51557856D01*
X406304200Y-51557856D02*
X406342295Y-51672142D01*
X406342295Y-51672142D02*
X406342295Y-51748333D01*
X406342295Y-51748333D02*
X406304200Y-51862618D01*
X406304200Y-51862618D02*
X406266104Y-51900714D01*
X406266104Y-51900714D02*
X405999438Y-51900714D01*
X405999438Y-51900714D02*
X405999438Y-51748333D01*
X406342295Y-52243571D02*
X405542295Y-52243571D01*
X405542295Y-52243571D02*
X405542295Y-52548333D01*
X405542295Y-52548333D02*
X405580390Y-52624523D01*
X405580390Y-52624523D02*
X405618485Y-52662618D01*
X405618485Y-52662618D02*
X405694676Y-52700714D01*
X405694676Y-52700714D02*
X405808961Y-52700714D01*
X405808961Y-52700714D02*
X405885152Y-52662618D01*
X405885152Y-52662618D02*
X405923247Y-52624523D01*
X405923247Y-52624523D02*
X405961342Y-52548333D01*
X405961342Y-52548333D02*
X405961342Y-52243571D01*
X406342295Y-53462618D02*
X406342295Y-53005475D01*
X406342295Y-53234047D02*
X405542295Y-53234047D01*
X405542295Y-53234047D02*
X405656580Y-53157856D01*
X405656580Y-53157856D02*
X405732771Y-53081666D01*
X405732771Y-53081666D02*
X405770866Y-53005475D01*
X405542295Y-54186428D02*
X405542295Y-53805476D01*
X405542295Y-53805476D02*
X405923247Y-53767380D01*
X405923247Y-53767380D02*
X405885152Y-53805476D01*
X405885152Y-53805476D02*
X405847057Y-53881666D01*
X405847057Y-53881666D02*
X405847057Y-54072142D01*
X405847057Y-54072142D02*
X405885152Y-54148333D01*
X405885152Y-54148333D02*
X405923247Y-54186428D01*
X405923247Y-54186428D02*
X405999438Y-54224523D01*
X405999438Y-54224523D02*
X406189914Y-54224523D01*
X406189914Y-54224523D02*
X406266104Y-54186428D01*
X406266104Y-54186428D02*
X406304200Y-54148333D01*
X406304200Y-54148333D02*
X406342295Y-54072142D01*
X406342295Y-54072142D02*
X406342295Y-53881666D01*
X406342295Y-53881666D02*
X406304200Y-53805476D01*
X406304200Y-53805476D02*
X406266104Y-53767380D01*
X433520390Y-51893571D02*
X433482295Y-51817381D01*
X433482295Y-51817381D02*
X433482295Y-51703095D01*
X433482295Y-51703095D02*
X433520390Y-51588809D01*
X433520390Y-51588809D02*
X433596580Y-51512619D01*
X433596580Y-51512619D02*
X433672771Y-51474524D01*
X433672771Y-51474524D02*
X433825152Y-51436428D01*
X433825152Y-51436428D02*
X433939438Y-51436428D01*
X433939438Y-51436428D02*
X434091819Y-51474524D01*
X434091819Y-51474524D02*
X434168009Y-51512619D01*
X434168009Y-51512619D02*
X434244200Y-51588809D01*
X434244200Y-51588809D02*
X434282295Y-51703095D01*
X434282295Y-51703095D02*
X434282295Y-51779286D01*
X434282295Y-51779286D02*
X434244200Y-51893571D01*
X434244200Y-51893571D02*
X434206104Y-51931667D01*
X434206104Y-51931667D02*
X433939438Y-51931667D01*
X433939438Y-51931667D02*
X433939438Y-51779286D01*
X434282295Y-52274524D02*
X433482295Y-52274524D01*
X433482295Y-52274524D02*
X433482295Y-52579286D01*
X433482295Y-52579286D02*
X433520390Y-52655476D01*
X433520390Y-52655476D02*
X433558485Y-52693571D01*
X433558485Y-52693571D02*
X433634676Y-52731667D01*
X433634676Y-52731667D02*
X433748961Y-52731667D01*
X433748961Y-52731667D02*
X433825152Y-52693571D01*
X433825152Y-52693571D02*
X433863247Y-52655476D01*
X433863247Y-52655476D02*
X433901342Y-52579286D01*
X433901342Y-52579286D02*
X433901342Y-52274524D01*
X433482295Y-53417381D02*
X433482295Y-53265000D01*
X433482295Y-53265000D02*
X433520390Y-53188809D01*
X433520390Y-53188809D02*
X433558485Y-53150714D01*
X433558485Y-53150714D02*
X433672771Y-53074524D01*
X433672771Y-53074524D02*
X433825152Y-53036428D01*
X433825152Y-53036428D02*
X434129914Y-53036428D01*
X434129914Y-53036428D02*
X434206104Y-53074524D01*
X434206104Y-53074524D02*
X434244200Y-53112619D01*
X434244200Y-53112619D02*
X434282295Y-53188809D01*
X434282295Y-53188809D02*
X434282295Y-53341190D01*
X434282295Y-53341190D02*
X434244200Y-53417381D01*
X434244200Y-53417381D02*
X434206104Y-53455476D01*
X434206104Y-53455476D02*
X434129914Y-53493571D01*
X434129914Y-53493571D02*
X433939438Y-53493571D01*
X433939438Y-53493571D02*
X433863247Y-53455476D01*
X433863247Y-53455476D02*
X433825152Y-53417381D01*
X433825152Y-53417381D02*
X433787057Y-53341190D01*
X433787057Y-53341190D02*
X433787057Y-53188809D01*
X433787057Y-53188809D02*
X433825152Y-53112619D01*
X433825152Y-53112619D02*
X433863247Y-53074524D01*
X433863247Y-53074524D02*
X433939438Y-53036428D01*
X446220390Y-51893571D02*
X446182295Y-51817381D01*
X446182295Y-51817381D02*
X446182295Y-51703095D01*
X446182295Y-51703095D02*
X446220390Y-51588809D01*
X446220390Y-51588809D02*
X446296580Y-51512619D01*
X446296580Y-51512619D02*
X446372771Y-51474524D01*
X446372771Y-51474524D02*
X446525152Y-51436428D01*
X446525152Y-51436428D02*
X446639438Y-51436428D01*
X446639438Y-51436428D02*
X446791819Y-51474524D01*
X446791819Y-51474524D02*
X446868009Y-51512619D01*
X446868009Y-51512619D02*
X446944200Y-51588809D01*
X446944200Y-51588809D02*
X446982295Y-51703095D01*
X446982295Y-51703095D02*
X446982295Y-51779286D01*
X446982295Y-51779286D02*
X446944200Y-51893571D01*
X446944200Y-51893571D02*
X446906104Y-51931667D01*
X446906104Y-51931667D02*
X446639438Y-51931667D01*
X446639438Y-51931667D02*
X446639438Y-51779286D01*
X446982295Y-52274524D02*
X446182295Y-52274524D01*
X446182295Y-52274524D02*
X446182295Y-52579286D01*
X446182295Y-52579286D02*
X446220390Y-52655476D01*
X446220390Y-52655476D02*
X446258485Y-52693571D01*
X446258485Y-52693571D02*
X446334676Y-52731667D01*
X446334676Y-52731667D02*
X446448961Y-52731667D01*
X446448961Y-52731667D02*
X446525152Y-52693571D01*
X446525152Y-52693571D02*
X446563247Y-52655476D01*
X446563247Y-52655476D02*
X446601342Y-52579286D01*
X446601342Y-52579286D02*
X446601342Y-52274524D01*
X446258485Y-53036428D02*
X446220390Y-53074524D01*
X446220390Y-53074524D02*
X446182295Y-53150714D01*
X446182295Y-53150714D02*
X446182295Y-53341190D01*
X446182295Y-53341190D02*
X446220390Y-53417381D01*
X446220390Y-53417381D02*
X446258485Y-53455476D01*
X446258485Y-53455476D02*
X446334676Y-53493571D01*
X446334676Y-53493571D02*
X446410866Y-53493571D01*
X446410866Y-53493571D02*
X446525152Y-53455476D01*
X446525152Y-53455476D02*
X446982295Y-52998333D01*
X446982295Y-52998333D02*
X446982295Y-53493571D01*
X453840390Y-51893571D02*
X453802295Y-51817381D01*
X453802295Y-51817381D02*
X453802295Y-51703095D01*
X453802295Y-51703095D02*
X453840390Y-51588809D01*
X453840390Y-51588809D02*
X453916580Y-51512619D01*
X453916580Y-51512619D02*
X453992771Y-51474524D01*
X453992771Y-51474524D02*
X454145152Y-51436428D01*
X454145152Y-51436428D02*
X454259438Y-51436428D01*
X454259438Y-51436428D02*
X454411819Y-51474524D01*
X454411819Y-51474524D02*
X454488009Y-51512619D01*
X454488009Y-51512619D02*
X454564200Y-51588809D01*
X454564200Y-51588809D02*
X454602295Y-51703095D01*
X454602295Y-51703095D02*
X454602295Y-51779286D01*
X454602295Y-51779286D02*
X454564200Y-51893571D01*
X454564200Y-51893571D02*
X454526104Y-51931667D01*
X454526104Y-51931667D02*
X454259438Y-51931667D01*
X454259438Y-51931667D02*
X454259438Y-51779286D01*
X454602295Y-52274524D02*
X453802295Y-52274524D01*
X453802295Y-52274524D02*
X453802295Y-52579286D01*
X453802295Y-52579286D02*
X453840390Y-52655476D01*
X453840390Y-52655476D02*
X453878485Y-52693571D01*
X453878485Y-52693571D02*
X453954676Y-52731667D01*
X453954676Y-52731667D02*
X454068961Y-52731667D01*
X454068961Y-52731667D02*
X454145152Y-52693571D01*
X454145152Y-52693571D02*
X454183247Y-52655476D01*
X454183247Y-52655476D02*
X454221342Y-52579286D01*
X454221342Y-52579286D02*
X454221342Y-52274524D01*
X453802295Y-53226905D02*
X453802295Y-53303095D01*
X453802295Y-53303095D02*
X453840390Y-53379286D01*
X453840390Y-53379286D02*
X453878485Y-53417381D01*
X453878485Y-53417381D02*
X453954676Y-53455476D01*
X453954676Y-53455476D02*
X454107057Y-53493571D01*
X454107057Y-53493571D02*
X454297533Y-53493571D01*
X454297533Y-53493571D02*
X454449914Y-53455476D01*
X454449914Y-53455476D02*
X454526104Y-53417381D01*
X454526104Y-53417381D02*
X454564200Y-53379286D01*
X454564200Y-53379286D02*
X454602295Y-53303095D01*
X454602295Y-53303095D02*
X454602295Y-53226905D01*
X454602295Y-53226905D02*
X454564200Y-53150714D01*
X454564200Y-53150714D02*
X454526104Y-53112619D01*
X454526104Y-53112619D02*
X454449914Y-53074524D01*
X454449914Y-53074524D02*
X454297533Y-53036428D01*
X454297533Y-53036428D02*
X454107057Y-53036428D01*
X454107057Y-53036428D02*
X453954676Y-53074524D01*
X453954676Y-53074524D02*
X453878485Y-53112619D01*
X453878485Y-53112619D02*
X453840390Y-53150714D01*
X453840390Y-53150714D02*
X453802295Y-53226905D01*
X453802295Y-62828333D02*
X454602295Y-63095000D01*
X454602295Y-63095000D02*
X453802295Y-63361666D01*
X454183247Y-63894999D02*
X454221342Y-64009285D01*
X454221342Y-64009285D02*
X454259438Y-64047380D01*
X454259438Y-64047380D02*
X454335628Y-64085476D01*
X454335628Y-64085476D02*
X454449914Y-64085476D01*
X454449914Y-64085476D02*
X454526104Y-64047380D01*
X454526104Y-64047380D02*
X454564200Y-64009285D01*
X454564200Y-64009285D02*
X454602295Y-63933095D01*
X454602295Y-63933095D02*
X454602295Y-63628333D01*
X454602295Y-63628333D02*
X453802295Y-63628333D01*
X453802295Y-63628333D02*
X453802295Y-63894999D01*
X453802295Y-63894999D02*
X453840390Y-63971190D01*
X453840390Y-63971190D02*
X453878485Y-64009285D01*
X453878485Y-64009285D02*
X453954676Y-64047380D01*
X453954676Y-64047380D02*
X454030866Y-64047380D01*
X454030866Y-64047380D02*
X454107057Y-64009285D01*
X454107057Y-64009285D02*
X454145152Y-63971190D01*
X454145152Y-63971190D02*
X454183247Y-63894999D01*
X454183247Y-63894999D02*
X454183247Y-63628333D01*
X453802295Y-64428333D02*
X454449914Y-64428333D01*
X454449914Y-64428333D02*
X454526104Y-64466428D01*
X454526104Y-64466428D02*
X454564200Y-64504523D01*
X454564200Y-64504523D02*
X454602295Y-64580714D01*
X454602295Y-64580714D02*
X454602295Y-64733095D01*
X454602295Y-64733095D02*
X454564200Y-64809285D01*
X454564200Y-64809285D02*
X454526104Y-64847380D01*
X454526104Y-64847380D02*
X454449914Y-64885476D01*
X454449914Y-64885476D02*
X453802295Y-64885476D01*
X454564200Y-65228332D02*
X454602295Y-65342618D01*
X454602295Y-65342618D02*
X454602295Y-65533094D01*
X454602295Y-65533094D02*
X454564200Y-65609285D01*
X454564200Y-65609285D02*
X454526104Y-65647380D01*
X454526104Y-65647380D02*
X454449914Y-65685475D01*
X454449914Y-65685475D02*
X454373723Y-65685475D01*
X454373723Y-65685475D02*
X454297533Y-65647380D01*
X454297533Y-65647380D02*
X454259438Y-65609285D01*
X454259438Y-65609285D02*
X454221342Y-65533094D01*
X454221342Y-65533094D02*
X454183247Y-65380713D01*
X454183247Y-65380713D02*
X454145152Y-65304523D01*
X454145152Y-65304523D02*
X454107057Y-65266428D01*
X454107057Y-65266428D02*
X454030866Y-65228332D01*
X454030866Y-65228332D02*
X453954676Y-65228332D01*
X453954676Y-65228332D02*
X453878485Y-65266428D01*
X453878485Y-65266428D02*
X453840390Y-65304523D01*
X453840390Y-65304523D02*
X453802295Y-65380713D01*
X453802295Y-65380713D02*
X453802295Y-65571190D01*
X453802295Y-65571190D02*
X453840390Y-65685475D01*
X446182295Y-61468809D02*
X446182295Y-61964047D01*
X446182295Y-61964047D02*
X446487057Y-61697381D01*
X446487057Y-61697381D02*
X446487057Y-61811666D01*
X446487057Y-61811666D02*
X446525152Y-61887857D01*
X446525152Y-61887857D02*
X446563247Y-61925952D01*
X446563247Y-61925952D02*
X446639438Y-61964047D01*
X446639438Y-61964047D02*
X446829914Y-61964047D01*
X446829914Y-61964047D02*
X446906104Y-61925952D01*
X446906104Y-61925952D02*
X446944200Y-61887857D01*
X446944200Y-61887857D02*
X446982295Y-61811666D01*
X446982295Y-61811666D02*
X446982295Y-61583095D01*
X446982295Y-61583095D02*
X446944200Y-61506904D01*
X446944200Y-61506904D02*
X446906104Y-61468809D01*
X446182295Y-62192619D02*
X446982295Y-62459286D01*
X446982295Y-62459286D02*
X446182295Y-62725952D01*
X446182295Y-62916428D02*
X446182295Y-63411666D01*
X446182295Y-63411666D02*
X446487057Y-63145000D01*
X446487057Y-63145000D02*
X446487057Y-63259285D01*
X446487057Y-63259285D02*
X446525152Y-63335476D01*
X446525152Y-63335476D02*
X446563247Y-63373571D01*
X446563247Y-63373571D02*
X446639438Y-63411666D01*
X446639438Y-63411666D02*
X446829914Y-63411666D01*
X446829914Y-63411666D02*
X446906104Y-63373571D01*
X446906104Y-63373571D02*
X446944200Y-63335476D01*
X446944200Y-63335476D02*
X446982295Y-63259285D01*
X446982295Y-63259285D02*
X446982295Y-63030714D01*
X446982295Y-63030714D02*
X446944200Y-62954523D01*
X446944200Y-62954523D02*
X446906104Y-62916428D01*
X447058485Y-63564048D02*
X447058485Y-64173571D01*
X446563247Y-64364048D02*
X446563247Y-64630714D01*
X446982295Y-64745000D02*
X446982295Y-64364048D01*
X446982295Y-64364048D02*
X446182295Y-64364048D01*
X446182295Y-64364048D02*
X446182295Y-64745000D01*
X446982295Y-65087858D02*
X446182295Y-65087858D01*
X446182295Y-65087858D02*
X446982295Y-65545001D01*
X446982295Y-65545001D02*
X446182295Y-65545001D01*
X418280390Y-63092618D02*
X418242295Y-63016428D01*
X418242295Y-63016428D02*
X418242295Y-62902142D01*
X418242295Y-62902142D02*
X418280390Y-62787856D01*
X418280390Y-62787856D02*
X418356580Y-62711666D01*
X418356580Y-62711666D02*
X418432771Y-62673571D01*
X418432771Y-62673571D02*
X418585152Y-62635475D01*
X418585152Y-62635475D02*
X418699438Y-62635475D01*
X418699438Y-62635475D02*
X418851819Y-62673571D01*
X418851819Y-62673571D02*
X418928009Y-62711666D01*
X418928009Y-62711666D02*
X419004200Y-62787856D01*
X419004200Y-62787856D02*
X419042295Y-62902142D01*
X419042295Y-62902142D02*
X419042295Y-62978333D01*
X419042295Y-62978333D02*
X419004200Y-63092618D01*
X419004200Y-63092618D02*
X418966104Y-63130714D01*
X418966104Y-63130714D02*
X418699438Y-63130714D01*
X418699438Y-63130714D02*
X418699438Y-62978333D01*
X419042295Y-63473571D02*
X418242295Y-63473571D01*
X418242295Y-63473571D02*
X418242295Y-63778333D01*
X418242295Y-63778333D02*
X418280390Y-63854523D01*
X418280390Y-63854523D02*
X418318485Y-63892618D01*
X418318485Y-63892618D02*
X418394676Y-63930714D01*
X418394676Y-63930714D02*
X418508961Y-63930714D01*
X418508961Y-63930714D02*
X418585152Y-63892618D01*
X418585152Y-63892618D02*
X418623247Y-63854523D01*
X418623247Y-63854523D02*
X418661342Y-63778333D01*
X418661342Y-63778333D02*
X418661342Y-63473571D01*
X418318485Y-64235475D02*
X418280390Y-64273571D01*
X418280390Y-64273571D02*
X418242295Y-64349761D01*
X418242295Y-64349761D02*
X418242295Y-64540237D01*
X418242295Y-64540237D02*
X418280390Y-64616428D01*
X418280390Y-64616428D02*
X418318485Y-64654523D01*
X418318485Y-64654523D02*
X418394676Y-64692618D01*
X418394676Y-64692618D02*
X418470866Y-64692618D01*
X418470866Y-64692618D02*
X418585152Y-64654523D01*
X418585152Y-64654523D02*
X419042295Y-64197380D01*
X419042295Y-64197380D02*
X419042295Y-64692618D01*
X418242295Y-65187857D02*
X418242295Y-65264047D01*
X418242295Y-65264047D02*
X418280390Y-65340238D01*
X418280390Y-65340238D02*
X418318485Y-65378333D01*
X418318485Y-65378333D02*
X418394676Y-65416428D01*
X418394676Y-65416428D02*
X418547057Y-65454523D01*
X418547057Y-65454523D02*
X418737533Y-65454523D01*
X418737533Y-65454523D02*
X418889914Y-65416428D01*
X418889914Y-65416428D02*
X418966104Y-65378333D01*
X418966104Y-65378333D02*
X419004200Y-65340238D01*
X419004200Y-65340238D02*
X419042295Y-65264047D01*
X419042295Y-65264047D02*
X419042295Y-65187857D01*
X419042295Y-65187857D02*
X419004200Y-65111666D01*
X419004200Y-65111666D02*
X418966104Y-65073571D01*
X418966104Y-65073571D02*
X418889914Y-65035476D01*
X418889914Y-65035476D02*
X418737533Y-64997380D01*
X418737533Y-64997380D02*
X418547057Y-64997380D01*
X418547057Y-64997380D02*
X418394676Y-65035476D01*
X418394676Y-65035476D02*
X418318485Y-65073571D01*
X418318485Y-65073571D02*
X418280390Y-65111666D01*
X418280390Y-65111666D02*
X418242295Y-65187857D01*
X413200390Y-51862618D02*
X413162295Y-51786428D01*
X413162295Y-51786428D02*
X413162295Y-51672142D01*
X413162295Y-51672142D02*
X413200390Y-51557856D01*
X413200390Y-51557856D02*
X413276580Y-51481666D01*
X413276580Y-51481666D02*
X413352771Y-51443571D01*
X413352771Y-51443571D02*
X413505152Y-51405475D01*
X413505152Y-51405475D02*
X413619438Y-51405475D01*
X413619438Y-51405475D02*
X413771819Y-51443571D01*
X413771819Y-51443571D02*
X413848009Y-51481666D01*
X413848009Y-51481666D02*
X413924200Y-51557856D01*
X413924200Y-51557856D02*
X413962295Y-51672142D01*
X413962295Y-51672142D02*
X413962295Y-51748333D01*
X413962295Y-51748333D02*
X413924200Y-51862618D01*
X413924200Y-51862618D02*
X413886104Y-51900714D01*
X413886104Y-51900714D02*
X413619438Y-51900714D01*
X413619438Y-51900714D02*
X413619438Y-51748333D01*
X413962295Y-52243571D02*
X413162295Y-52243571D01*
X413162295Y-52243571D02*
X413162295Y-52548333D01*
X413162295Y-52548333D02*
X413200390Y-52624523D01*
X413200390Y-52624523D02*
X413238485Y-52662618D01*
X413238485Y-52662618D02*
X413314676Y-52700714D01*
X413314676Y-52700714D02*
X413428961Y-52700714D01*
X413428961Y-52700714D02*
X413505152Y-52662618D01*
X413505152Y-52662618D02*
X413543247Y-52624523D01*
X413543247Y-52624523D02*
X413581342Y-52548333D01*
X413581342Y-52548333D02*
X413581342Y-52243571D01*
X413962295Y-53462618D02*
X413962295Y-53005475D01*
X413962295Y-53234047D02*
X413162295Y-53234047D01*
X413162295Y-53234047D02*
X413276580Y-53157856D01*
X413276580Y-53157856D02*
X413352771Y-53081666D01*
X413352771Y-53081666D02*
X413390866Y-53005475D01*
X413162295Y-53729285D02*
X413162295Y-54224523D01*
X413162295Y-54224523D02*
X413467057Y-53957857D01*
X413467057Y-53957857D02*
X413467057Y-54072142D01*
X413467057Y-54072142D02*
X413505152Y-54148333D01*
X413505152Y-54148333D02*
X413543247Y-54186428D01*
X413543247Y-54186428D02*
X413619438Y-54224523D01*
X413619438Y-54224523D02*
X413809914Y-54224523D01*
X413809914Y-54224523D02*
X413886104Y-54186428D01*
X413886104Y-54186428D02*
X413924200Y-54148333D01*
X413924200Y-54148333D02*
X413962295Y-54072142D01*
X413962295Y-54072142D02*
X413962295Y-53843571D01*
X413962295Y-53843571D02*
X413924200Y-53767380D01*
X413924200Y-53767380D02*
X413886104Y-53729285D01*
X451262295Y-62923571D02*
X452062295Y-63190238D01*
X452062295Y-63190238D02*
X451262295Y-63456904D01*
X452024200Y-63685475D02*
X452062295Y-63799761D01*
X452062295Y-63799761D02*
X452062295Y-63990237D01*
X452062295Y-63990237D02*
X452024200Y-64066428D01*
X452024200Y-64066428D02*
X451986104Y-64104523D01*
X451986104Y-64104523D02*
X451909914Y-64142618D01*
X451909914Y-64142618D02*
X451833723Y-64142618D01*
X451833723Y-64142618D02*
X451757533Y-64104523D01*
X451757533Y-64104523D02*
X451719438Y-64066428D01*
X451719438Y-64066428D02*
X451681342Y-63990237D01*
X451681342Y-63990237D02*
X451643247Y-63837856D01*
X451643247Y-63837856D02*
X451605152Y-63761666D01*
X451605152Y-63761666D02*
X451567057Y-63723571D01*
X451567057Y-63723571D02*
X451490866Y-63685475D01*
X451490866Y-63685475D02*
X451414676Y-63685475D01*
X451414676Y-63685475D02*
X451338485Y-63723571D01*
X451338485Y-63723571D02*
X451300390Y-63761666D01*
X451300390Y-63761666D02*
X451262295Y-63837856D01*
X451262295Y-63837856D02*
X451262295Y-64028333D01*
X451262295Y-64028333D02*
X451300390Y-64142618D01*
X451681342Y-64637857D02*
X452062295Y-64637857D01*
X451262295Y-64371190D02*
X451681342Y-64637857D01*
X451681342Y-64637857D02*
X451262295Y-64904523D01*
X452024200Y-65133094D02*
X452062295Y-65247380D01*
X452062295Y-65247380D02*
X452062295Y-65437856D01*
X452062295Y-65437856D02*
X452024200Y-65514047D01*
X452024200Y-65514047D02*
X451986104Y-65552142D01*
X451986104Y-65552142D02*
X451909914Y-65590237D01*
X451909914Y-65590237D02*
X451833723Y-65590237D01*
X451833723Y-65590237D02*
X451757533Y-65552142D01*
X451757533Y-65552142D02*
X451719438Y-65514047D01*
X451719438Y-65514047D02*
X451681342Y-65437856D01*
X451681342Y-65437856D02*
X451643247Y-65285475D01*
X451643247Y-65285475D02*
X451605152Y-65209285D01*
X451605152Y-65209285D02*
X451567057Y-65171190D01*
X451567057Y-65171190D02*
X451490866Y-65133094D01*
X451490866Y-65133094D02*
X451414676Y-65133094D01*
X451414676Y-65133094D02*
X451338485Y-65171190D01*
X451338485Y-65171190D02*
X451300390Y-65209285D01*
X451300390Y-65209285D02*
X451262295Y-65285475D01*
X451262295Y-65285475D02*
X451262295Y-65475952D01*
X451262295Y-65475952D02*
X451300390Y-65590237D01*
X418280390Y-51862618D02*
X418242295Y-51786428D01*
X418242295Y-51786428D02*
X418242295Y-51672142D01*
X418242295Y-51672142D02*
X418280390Y-51557856D01*
X418280390Y-51557856D02*
X418356580Y-51481666D01*
X418356580Y-51481666D02*
X418432771Y-51443571D01*
X418432771Y-51443571D02*
X418585152Y-51405475D01*
X418585152Y-51405475D02*
X418699438Y-51405475D01*
X418699438Y-51405475D02*
X418851819Y-51443571D01*
X418851819Y-51443571D02*
X418928009Y-51481666D01*
X418928009Y-51481666D02*
X419004200Y-51557856D01*
X419004200Y-51557856D02*
X419042295Y-51672142D01*
X419042295Y-51672142D02*
X419042295Y-51748333D01*
X419042295Y-51748333D02*
X419004200Y-51862618D01*
X419004200Y-51862618D02*
X418966104Y-51900714D01*
X418966104Y-51900714D02*
X418699438Y-51900714D01*
X418699438Y-51900714D02*
X418699438Y-51748333D01*
X419042295Y-52243571D02*
X418242295Y-52243571D01*
X418242295Y-52243571D02*
X418242295Y-52548333D01*
X418242295Y-52548333D02*
X418280390Y-52624523D01*
X418280390Y-52624523D02*
X418318485Y-52662618D01*
X418318485Y-52662618D02*
X418394676Y-52700714D01*
X418394676Y-52700714D02*
X418508961Y-52700714D01*
X418508961Y-52700714D02*
X418585152Y-52662618D01*
X418585152Y-52662618D02*
X418623247Y-52624523D01*
X418623247Y-52624523D02*
X418661342Y-52548333D01*
X418661342Y-52548333D02*
X418661342Y-52243571D01*
X419042295Y-53462618D02*
X419042295Y-53005475D01*
X419042295Y-53234047D02*
X418242295Y-53234047D01*
X418242295Y-53234047D02*
X418356580Y-53157856D01*
X418356580Y-53157856D02*
X418432771Y-53081666D01*
X418432771Y-53081666D02*
X418470866Y-53005475D01*
X419042295Y-54224523D02*
X419042295Y-53767380D01*
X419042295Y-53995952D02*
X418242295Y-53995952D01*
X418242295Y-53995952D02*
X418356580Y-53919761D01*
X418356580Y-53919761D02*
X418432771Y-53843571D01*
X418432771Y-53843571D02*
X418470866Y-53767380D01*
X441673723Y-60052142D02*
X441673723Y-60433095D01*
X441902295Y-59975952D02*
X441102295Y-60242619D01*
X441102295Y-60242619D02*
X441902295Y-60509285D01*
X441902295Y-60775952D02*
X441102295Y-60775952D01*
X441102295Y-60775952D02*
X441102295Y-60966428D01*
X441102295Y-60966428D02*
X441140390Y-61080714D01*
X441140390Y-61080714D02*
X441216580Y-61156904D01*
X441216580Y-61156904D02*
X441292771Y-61194999D01*
X441292771Y-61194999D02*
X441445152Y-61233095D01*
X441445152Y-61233095D02*
X441559438Y-61233095D01*
X441559438Y-61233095D02*
X441711819Y-61194999D01*
X441711819Y-61194999D02*
X441788009Y-61156904D01*
X441788009Y-61156904D02*
X441864200Y-61080714D01*
X441864200Y-61080714D02*
X441902295Y-60966428D01*
X441902295Y-60966428D02*
X441902295Y-60775952D01*
X441826104Y-62033095D02*
X441864200Y-61994999D01*
X441864200Y-61994999D02*
X441902295Y-61880714D01*
X441902295Y-61880714D02*
X441902295Y-61804523D01*
X441902295Y-61804523D02*
X441864200Y-61690237D01*
X441864200Y-61690237D02*
X441788009Y-61614047D01*
X441788009Y-61614047D02*
X441711819Y-61575952D01*
X441711819Y-61575952D02*
X441559438Y-61537856D01*
X441559438Y-61537856D02*
X441445152Y-61537856D01*
X441445152Y-61537856D02*
X441292771Y-61575952D01*
X441292771Y-61575952D02*
X441216580Y-61614047D01*
X441216580Y-61614047D02*
X441140390Y-61690237D01*
X441140390Y-61690237D02*
X441102295Y-61804523D01*
X441102295Y-61804523D02*
X441102295Y-61880714D01*
X441102295Y-61880714D02*
X441140390Y-61994999D01*
X441140390Y-61994999D02*
X441178485Y-62033095D01*
X441978485Y-62185476D02*
X441978485Y-62794999D01*
X441102295Y-62871190D02*
X441902295Y-63137857D01*
X441902295Y-63137857D02*
X441102295Y-63404523D01*
X441902295Y-64128333D02*
X441521342Y-63861666D01*
X441902295Y-63671190D02*
X441102295Y-63671190D01*
X441102295Y-63671190D02*
X441102295Y-63975952D01*
X441102295Y-63975952D02*
X441140390Y-64052142D01*
X441140390Y-64052142D02*
X441178485Y-64090237D01*
X441178485Y-64090237D02*
X441254676Y-64128333D01*
X441254676Y-64128333D02*
X441368961Y-64128333D01*
X441368961Y-64128333D02*
X441445152Y-64090237D01*
X441445152Y-64090237D02*
X441483247Y-64052142D01*
X441483247Y-64052142D02*
X441521342Y-63975952D01*
X441521342Y-63975952D02*
X441521342Y-63671190D01*
X441483247Y-64471190D02*
X441483247Y-64737856D01*
X441902295Y-64852142D02*
X441902295Y-64471190D01*
X441902295Y-64471190D02*
X441102295Y-64471190D01*
X441102295Y-64471190D02*
X441102295Y-64852142D01*
X441483247Y-65461666D02*
X441483247Y-65195000D01*
X441902295Y-65195000D02*
X441102295Y-65195000D01*
X441102295Y-65195000D02*
X441102295Y-65575952D01*
X436593723Y-62635476D02*
X436593723Y-63016429D01*
X436822295Y-62559286D02*
X436022295Y-62825953D01*
X436022295Y-62825953D02*
X436822295Y-63092619D01*
X436060390Y-63778333D02*
X436022295Y-63702143D01*
X436022295Y-63702143D02*
X436022295Y-63587857D01*
X436022295Y-63587857D02*
X436060390Y-63473571D01*
X436060390Y-63473571D02*
X436136580Y-63397381D01*
X436136580Y-63397381D02*
X436212771Y-63359286D01*
X436212771Y-63359286D02*
X436365152Y-63321190D01*
X436365152Y-63321190D02*
X436479438Y-63321190D01*
X436479438Y-63321190D02*
X436631819Y-63359286D01*
X436631819Y-63359286D02*
X436708009Y-63397381D01*
X436708009Y-63397381D02*
X436784200Y-63473571D01*
X436784200Y-63473571D02*
X436822295Y-63587857D01*
X436822295Y-63587857D02*
X436822295Y-63664048D01*
X436822295Y-63664048D02*
X436784200Y-63778333D01*
X436784200Y-63778333D02*
X436746104Y-63816429D01*
X436746104Y-63816429D02*
X436479438Y-63816429D01*
X436479438Y-63816429D02*
X436479438Y-63664048D01*
X436822295Y-64159286D02*
X436022295Y-64159286D01*
X436022295Y-64159286D02*
X436822295Y-64616429D01*
X436822295Y-64616429D02*
X436022295Y-64616429D01*
X436822295Y-64997381D02*
X436022295Y-64997381D01*
X436022295Y-64997381D02*
X436022295Y-65187857D01*
X436022295Y-65187857D02*
X436060390Y-65302143D01*
X436060390Y-65302143D02*
X436136580Y-65378333D01*
X436136580Y-65378333D02*
X436212771Y-65416428D01*
X436212771Y-65416428D02*
X436365152Y-65454524D01*
X436365152Y-65454524D02*
X436479438Y-65454524D01*
X436479438Y-65454524D02*
X436631819Y-65416428D01*
X436631819Y-65416428D02*
X436708009Y-65378333D01*
X436708009Y-65378333D02*
X436784200Y-65302143D01*
X436784200Y-65302143D02*
X436822295Y-65187857D01*
X436822295Y-65187857D02*
X436822295Y-64997381D01*
D11*
%TO.C,U3*%
X378035000Y-68200000D02*
G75*
G02*
X377835000Y-68200000I-100000J0D01*
G01*
X377835000Y-68200000D02*
G75*
G02*
X378035000Y-68200000I100000J0D01*
G01*
D12*
X386145000Y-49535000D02*
X379795000Y-49535000D01*
X386145000Y-69085000D02*
X379795000Y-69085000D01*
D10*
%TO.C,U1*%
X404610000Y-48005000D02*
X404610000Y-69005000D01*
X452943000Y-65998000D02*
X455610000Y-65998000D01*
X452943000Y-69005000D02*
X452943000Y-65998000D01*
X455610000Y-48005000D02*
X404610000Y-48005000D01*
X455610000Y-69005000D02*
X404610000Y-69005000D01*
X455610000Y-69005000D02*
X455610000Y-48005000D01*
%TD*%
M02*
