M48
; DRILL file {KiCad 8.0.5} date 2025-05-24T13:04:36-0400
; FORMAT={-:-/ absolute / inch / decimal}
; #@! TF.CreationDate,2025-05-24T13:04:36-04:00
; #@! TF.GenerationSoftware,Kicad,Pcbnew,8.0.5
; #@! TF.FileFunction,NonPlated,1,2,NPTH
FMAT,2
INCH
; #@! TA.AperFunction,NonPlated,NPTH,ComponentDrill
T1C0.0689
; #@! TA.AperFunction,NonPlated,NPTH,ComponentDrill
T2C0.1575
%
G90
G05
T1
X1.0157Y-2.2488
X1.0157Y-3.1858
X1.1118Y-6.1843
X1.2031Y-3.9354
X1.2969Y-4.6852
X1.4157Y-2.2488
X1.4157Y-3.1858
X1.4839Y-5.4346
X1.5118Y-6.1843
X1.6031Y-3.9354
X1.6969Y-4.6852
X1.7654Y-3.1858
X1.8839Y-5.4346
X2.0488Y-6.1843
X2.1402Y-3.9354
X2.1654Y-3.1858
X2.3276Y-4.685
X2.4488Y-6.1843
X2.515Y-2.2488
X2.515Y-3.1858
X2.5402Y-3.9354
X2.7024Y-5.4346
X2.7276Y-4.685
X2.8898Y-3.9354
X2.915Y-2.2488
X2.915Y-3.1858
X2.989Y-6.1843
X3.0772Y-4.685
X3.1024Y-5.4346
X3.2646Y-2.2488
X3.2646Y-3.1858
X3.2898Y-3.9354
X3.389Y-6.1843
X3.452Y-5.4346
X3.4772Y-4.685
X3.6394Y-3.9354
X3.6646Y-2.2488
X3.6646Y-3.1858
X3.8268Y-4.685
X3.852Y-5.4346
X4.0142Y-2.2488
X4.0142Y-3.1858
X4.0394Y-3.9354
X4.2016Y-5.4346
X4.2268Y-4.685
X4.389Y-3.9354
X4.4142Y-2.2488
X4.4142Y-3.1858
X4.5764Y-4.685
X4.6016Y-5.4346
X4.7638Y-2.2488
X4.7638Y-3.1858
X4.789Y-3.9354
X4.9512Y-5.4346
X4.9764Y-4.685
X5.1386Y-3.9354
X5.1638Y-2.2488
X5.1638Y-3.1858
X5.326Y-4.685
X5.3512Y-5.4346
X5.5134Y-3.1858
X5.5386Y-3.9354
X5.7008Y-5.4346
X5.726Y-4.685
X5.8002Y-6.1841
X5.8882Y-2.2488
X5.8882Y-3.9354
X5.9134Y-3.1858
X6.0756Y-4.685
X6.1008Y-5.4346
X6.2002Y-6.1841
X6.263Y-3.1858
X6.2882Y-2.2488
X6.2882Y-3.9354
X6.4504Y-5.4346
X6.4756Y-4.685
X6.6378Y-2.2488
X6.6378Y-3.9354
X6.663Y-3.1858
X6.8252Y-4.685
X6.8504Y-5.4346
X7.0126Y-3.1858
X7.0378Y-2.2488
X7.0378Y-3.9354
X7.2Y-5.4346
X7.2252Y-4.685
X7.3874Y-2.2488
X7.3874Y-3.9354
X7.4126Y-3.1858
X7.5748Y-4.685
X7.6Y-5.4346
X7.7622Y-3.1858
X7.7874Y-2.2488
X7.7874Y-3.9354
X7.9496Y-5.4346
X7.9748Y-4.685
X8.137Y-2.2488
X8.137Y-3.9354
X8.1622Y-3.1858
X8.3244Y-4.685
X8.3496Y-5.4346
X8.5118Y-3.1858
X8.537Y-2.2488
X8.537Y-3.9354
X8.6079Y-6.1843
X8.6992Y-5.4346
X8.7244Y-4.685
X8.8866Y-3.9354
X8.9118Y-3.1858
X9.0079Y-6.1843
X9.074Y-4.685
X9.0992Y-5.4346
X9.2614Y-2.2488
X9.2614Y-3.1858
X9.2866Y-3.9354
X9.4488Y-5.4346
X9.474Y-4.685
X9.5449Y-6.1843
X9.6362Y-3.9354
X9.6614Y-2.2488
X9.6614Y-3.1858
X9.8236Y-4.685
X9.8488Y-5.4346
X9.9449Y-6.1843
X10.011Y-2.2488
X10.011Y-3.1858
X10.0362Y-3.9354
X10.2236Y-4.685
X10.3858Y-3.9354
X10.411Y-2.2488
X10.411Y-3.1858
X10.4825Y-6.1846
X10.7606Y-2.2488
X10.7858Y-3.9354
X10.8567Y-5.4346
X10.8825Y-6.1846
X11.0425Y-4.685
X11.1354Y-3.1858
X11.1606Y-2.2488
X11.2567Y-5.4346
X11.3228Y-3.9354
X11.4189Y-6.1886
X11.4425Y-4.685
X11.5102Y-2.2488
X11.5354Y-3.1858
X11.7228Y-3.9354
X11.8189Y-6.1886
X11.9102Y-2.2488
X12.5433Y-2.2486
X12.5433Y-3.1856
X12.5433Y-3.9352
X12.5433Y-6.1841
X12.9433Y-2.2486
X12.9433Y-3.1856
X12.9433Y-3.9352
X12.9433Y-6.1841
X13.2929Y-2.2486
X13.2929Y-3.1856
X13.2929Y-3.9352
X13.2929Y-5.4344
X13.2929Y-6.1841
X13.6929Y-2.2486
X13.6929Y-3.1856
X13.6929Y-3.9352
X13.6929Y-5.4344
X13.6929Y-6.1841
X14.0425Y-2.2486
X14.0425Y-3.1856
X14.0425Y-3.9352
X14.0425Y-6.1841
X14.4425Y-2.2486
X14.4425Y-3.1856
X14.4425Y-3.9352
X14.4425Y-6.1841
X15.1543Y-3.1856
X15.1543Y-3.9352
X15.1543Y-4.6848
X15.1543Y-5.4344
X15.5291Y-6.1841
X15.5543Y-3.1856
X15.5543Y-3.9352
X15.5543Y-4.6848
X15.5543Y-5.4344
X15.9039Y-3.1856
X15.9039Y-3.9352
X15.9039Y-4.6848
X15.9039Y-5.4344
X15.9291Y-6.1841
X16.3039Y-3.1856
X16.3039Y-3.9352
X16.3039Y-4.6848
X16.3039Y-5.4344
X16.6535Y-3.1856
X16.6535Y-3.9352
X16.6535Y-4.6848
X16.6535Y-5.4344
X16.6535Y-6.1841
X17.0535Y-3.1856
X17.0535Y-3.9352
X17.0535Y-4.6848
X17.0535Y-5.4344
X17.0535Y-6.1841
X17.4031Y-3.1856
X17.4031Y-4.31
X17.4031Y-5.8093
X17.8031Y-3.1856
X17.8031Y-4.31
X17.8031Y-5.8093
T2
X1.2157Y-2.2488
X1.2157Y-3.1858
X1.3118Y-6.1843
X1.4031Y-3.9354
X1.4969Y-4.6852
X1.6839Y-5.4346
X1.9654Y-3.1858
X2.2488Y-6.1843
X2.3402Y-3.9354
X2.5276Y-4.685
X2.715Y-2.2488
X2.715Y-3.1858
X2.9024Y-5.4346
X3.0898Y-3.9354
X3.189Y-6.1843
X3.2772Y-4.685
X3.4646Y-2.2488
X3.4646Y-3.1858
X3.652Y-5.4346
X3.8394Y-3.9354
X4.0268Y-4.685
X4.2142Y-2.2488
X4.2142Y-3.1858
X4.4016Y-5.4346
X4.589Y-3.9354
X4.7764Y-4.685
X4.9638Y-2.2488
X4.9638Y-3.1858
X5.1512Y-5.4346
X5.3386Y-3.9354
X5.526Y-4.685
X5.7134Y-3.1858
X5.9008Y-5.4346
X6.0002Y-6.1841
X6.0882Y-2.2488
X6.0882Y-3.9354
X6.2756Y-4.685
X6.463Y-3.1858
X6.6504Y-5.4346
X6.8378Y-2.2488
X6.8378Y-3.9354
X7.0252Y-4.685
X7.2126Y-3.1858
X7.4Y-5.4346
X7.5874Y-2.2488
X7.5874Y-3.9354
X7.7748Y-4.685
X7.9622Y-3.1858
X8.1496Y-5.4346
X8.337Y-2.2488
X8.337Y-3.9354
X8.5244Y-4.685
X8.7118Y-3.1858
X8.8079Y-6.1843
X8.8992Y-5.4346
X9.0866Y-3.9354
X9.274Y-4.685
X9.4614Y-2.2488
X9.4614Y-3.1858
X9.6488Y-5.4346
X9.7449Y-6.1843
X9.8362Y-3.9354
X10.0236Y-4.685
X10.211Y-2.2488
X10.211Y-3.1858
X10.5858Y-3.9354
X10.6825Y-6.1846
X10.9606Y-2.2488
X11.0567Y-5.4346
X11.2425Y-4.685
X11.3354Y-3.1858
X11.5228Y-3.9354
X11.6189Y-6.1886
X11.7102Y-2.2488
X12.7433Y-2.2486
X12.7433Y-3.1856
X12.7433Y-3.9352
X12.7433Y-6.1841
X13.4929Y-2.2486
X13.4929Y-3.1856
X13.4929Y-3.9352
X13.4929Y-5.4344
X13.4929Y-6.1841
X14.2425Y-2.2486
X14.2425Y-3.1856
X14.2425Y-3.9352
X14.2425Y-6.1841
X15.3543Y-3.1856
X15.3543Y-3.9352
X15.3543Y-4.6848
X15.3543Y-5.4344
X15.7291Y-6.1841
X16.1039Y-3.1856
X16.1039Y-3.9352
X16.1039Y-4.6848
X16.1039Y-5.4344
X16.8535Y-3.1856
X16.8535Y-3.9352
X16.8535Y-4.6848
X16.8535Y-5.4344
X16.8535Y-6.1841
X17.6031Y-3.1856
X17.6031Y-4.31
X17.6031Y-5.8093
M30
