%TF.GenerationSoftware,KiCad,Pcbnew,8.0.5*%
%TF.CreationDate,2025-05-24T13:04:37-04:00*%
%TF.ProjectId,Keyboard-Saturn,4b657962-6f61-4726-942d-53617475726e,rev?*%
%TF.SameCoordinates,Original*%
%TF.FileFunction,Drillmap*%
%TF.FilePolarity,Positive*%
%FSLAX45Y45*%
G04 Gerber Fmt 4.5, Leading zero omitted, Abs format (unit mm)*
G04 Created by KiCad (PCBNEW 8.0.5) date 2025-05-24 13:04:37*
%MOMM*%
%LPD*%
G01*
G04 APERTURE LIST*
%ADD10C,0.050000*%
%ADD11C,0.200000*%
%ADD12C,0.100000*%
%ADD13C,0.102000*%
%ADD14C,0.150000*%
G04 APERTURE END LIST*
D10*
X45975000Y-9435000D02*
X46022500Y-9435000D01*
X46022500Y-9452500D01*
X45975000Y-9452500D01*
X45975000Y-9435000D01*
X2130000Y-4237500D02*
X45940000Y-4237500D01*
X45940000Y-16672500D01*
X2130000Y-16672500D01*
X2130000Y-4237500D01*
D11*
D12*
X31177500Y-6695000D02*
X31207500Y-6725000D01*
X31207500Y-6695000D02*
X31177500Y-6725000D01*
X36887500Y-6695000D02*
X36917500Y-6725000D01*
X36917500Y-6695000D02*
X36887500Y-6725000D01*
X37167500Y-6695000D02*
X37197500Y-6725000D01*
X37197500Y-6695000D02*
X37167500Y-6725000D01*
X37770000Y-7662500D02*
X37800000Y-7692500D01*
X37800000Y-7662500D02*
X37770000Y-7692500D01*
X37793750Y-7826250D02*
X37823750Y-7856250D01*
X37823750Y-7826250D02*
X37793750Y-7856250D01*
X39005000Y-6805000D02*
X39035000Y-6835000D01*
X39035000Y-6805000D02*
X39005000Y-6835000D01*
X39902000Y-6960000D02*
X39932000Y-6990000D01*
X39932000Y-6960000D02*
X39902000Y-6990000D01*
X39962500Y-5390000D02*
X39992500Y-5420000D01*
X39992500Y-5390000D02*
X39962500Y-5420000D01*
X40127500Y-6522500D02*
X40157500Y-6552500D01*
X40157500Y-6522500D02*
X40127500Y-6552500D01*
X42617500Y-6497500D02*
X42647500Y-6527500D01*
X42647500Y-6497500D02*
X42617500Y-6527500D01*
X43030000Y-7082500D02*
X43060000Y-7112500D01*
X43060000Y-7082500D02*
X43030000Y-7112500D01*
X44630000Y-7207500D02*
X44660000Y-7237500D01*
X44660000Y-7207500D02*
X44630000Y-7237500D01*
X45385000Y-8892500D02*
X45415000Y-8922500D01*
X45415000Y-8892500D02*
X45385000Y-8922500D01*
X45760000Y-5532500D02*
X45790000Y-5562500D01*
X45790000Y-5532500D02*
X45760000Y-5562500D01*
X31213000Y-12342500D02*
G75*
G02*
X31143000Y-12342500I-35000J0D01*
G01*
X31143000Y-12342500D02*
G75*
G02*
X31213000Y-12342500I35000J0D01*
G01*
X31223000Y-11635000D02*
G75*
G02*
X31153000Y-11635000I-35000J0D01*
G01*
X31153000Y-11635000D02*
G75*
G02*
X31223000Y-11635000I35000J0D01*
G01*
X31975000Y-12342500D02*
G75*
G02*
X31905000Y-12342500I-35000J0D01*
G01*
X31905000Y-12342500D02*
G75*
G02*
X31975000Y-12342500I35000J0D01*
G01*
X31985000Y-11635000D02*
G75*
G02*
X31915000Y-11635000I-35000J0D01*
G01*
X31915000Y-11635000D02*
G75*
G02*
X31985000Y-11635000I35000J0D01*
G01*
X37900000Y-5003000D02*
X37900000Y-5081000D01*
X37861000Y-5042000D02*
X37939000Y-5042000D01*
X37900000Y-5257000D02*
X37900000Y-5335000D01*
X37861000Y-5296000D02*
X37939000Y-5296000D01*
X37900000Y-5511000D02*
X37900000Y-5589000D01*
X37861000Y-5550000D02*
X37939000Y-5550000D01*
X37900000Y-5765000D02*
X37900000Y-5843000D01*
X37861000Y-5804000D02*
X37939000Y-5804000D01*
X37900000Y-6019000D02*
X37900000Y-6097000D01*
X37861000Y-6058000D02*
X37939000Y-6058000D01*
X37900000Y-6273000D02*
X37900000Y-6351000D01*
X37861000Y-6312000D02*
X37939000Y-6312000D01*
X37900000Y-6527000D02*
X37900000Y-6605000D01*
X37861000Y-6566000D02*
X37939000Y-6566000D01*
X37900000Y-6781000D02*
X37900000Y-6859000D01*
X37861000Y-6820000D02*
X37939000Y-6820000D01*
X38694000Y-5003000D02*
X38694000Y-5081000D01*
X38655000Y-5042000D02*
X38733000Y-5042000D01*
X38694000Y-5257000D02*
X38694000Y-5335000D01*
X38655000Y-5296000D02*
X38733000Y-5296000D01*
X38694000Y-5511000D02*
X38694000Y-5589000D01*
X38655000Y-5550000D02*
X38733000Y-5550000D01*
X38694000Y-5765000D02*
X38694000Y-5843000D01*
X38655000Y-5804000D02*
X38733000Y-5804000D01*
X38694000Y-6019000D02*
X38694000Y-6097000D01*
X38655000Y-6058000D02*
X38733000Y-6058000D01*
X38694000Y-6273000D02*
X38694000Y-6351000D01*
X38655000Y-6312000D02*
X38733000Y-6312000D01*
X38694000Y-6527000D02*
X38694000Y-6605000D01*
X38655000Y-6566000D02*
X38733000Y-6566000D01*
X38694000Y-6781000D02*
X38694000Y-6859000D01*
X38655000Y-6820000D02*
X38733000Y-6820000D01*
X4068284Y-7607284D02*
X4068284Y-7550715D01*
X4011715Y-7550715D01*
X4011715Y-7607284D01*
X4068284Y-7607284D01*
X4068284Y-8369284D02*
X4068284Y-8312715D01*
X4011715Y-8312715D01*
X4011715Y-8369284D01*
X4068284Y-8369284D01*
X4078284Y-5228285D02*
X4078284Y-5171716D01*
X4021715Y-5171716D01*
X4021715Y-5228285D01*
X4078284Y-5228285D01*
X4078284Y-5990284D02*
X4078284Y-5933715D01*
X4021715Y-5933715D01*
X4021715Y-5990284D01*
X4078284Y-5990284D01*
X4558285Y-15229784D02*
X4558285Y-15173215D01*
X4501716Y-15173215D01*
X4501716Y-15229784D01*
X4558285Y-15229784D01*
X4558285Y-15991784D02*
X4558285Y-15935215D01*
X4501716Y-15935215D01*
X4501716Y-15991784D01*
X4558285Y-15991784D01*
X5018285Y-9516285D02*
X5018285Y-9459716D01*
X4961716Y-9459716D01*
X4961716Y-9516285D01*
X5018285Y-9516285D01*
X5018285Y-10278285D02*
X5018285Y-10221716D01*
X4961716Y-10221716D01*
X4961716Y-10278285D01*
X5018285Y-10278285D01*
X5498285Y-11417284D02*
X5498285Y-11360715D01*
X5441716Y-11360715D01*
X5441716Y-11417284D01*
X5498285Y-11417284D01*
X5498285Y-12179284D02*
X5498285Y-12122715D01*
X5441716Y-12122715D01*
X5441716Y-12179284D01*
X5498285Y-12179284D01*
X5968284Y-7606284D02*
X5968284Y-7549715D01*
X5911715Y-7549715D01*
X5911715Y-7606284D01*
X5968284Y-7606284D01*
X5968284Y-8368284D02*
X5968284Y-8311715D01*
X5911715Y-8311715D01*
X5911715Y-8368284D01*
X5968284Y-8368284D01*
X6453284Y-13327284D02*
X6453284Y-13270715D01*
X6396715Y-13270715D01*
X6396715Y-13327284D01*
X6453284Y-13327284D01*
X6453284Y-14089284D02*
X6453284Y-14032715D01*
X6396715Y-14032715D01*
X6396715Y-14089284D01*
X6453284Y-14089284D01*
X6928284Y-9516285D02*
X6928284Y-9459716D01*
X6871715Y-9459716D01*
X6871715Y-9516285D01*
X6928284Y-9516285D01*
X6928284Y-10278285D02*
X6928284Y-10221716D01*
X6871715Y-10221716D01*
X6871715Y-10278285D01*
X6928284Y-10278285D01*
X6938284Y-15229784D02*
X6938284Y-15173215D01*
X6881715Y-15173215D01*
X6881715Y-15229784D01*
X6938284Y-15229784D01*
X6938284Y-15991784D02*
X6938284Y-15935215D01*
X6881715Y-15935215D01*
X6881715Y-15991784D01*
X6938284Y-15991784D01*
X7398284Y-11417284D02*
X7398284Y-11360715D01*
X7341715Y-11360715D01*
X7341715Y-11417284D01*
X7398284Y-11417284D01*
X7398284Y-12179284D02*
X7398284Y-12122715D01*
X7341715Y-12122715D01*
X7341715Y-12179284D01*
X7398284Y-12179284D01*
X7878284Y-5233285D02*
X7878284Y-5176716D01*
X7821715Y-5176716D01*
X7821715Y-5233285D01*
X7878284Y-5233285D01*
X7878284Y-5995284D02*
X7878284Y-5938715D01*
X7821715Y-5938715D01*
X7821715Y-5995284D01*
X7878284Y-5995284D01*
X7878284Y-7606284D02*
X7878284Y-7549715D01*
X7821715Y-7549715D01*
X7821715Y-7606284D01*
X7878284Y-7606284D01*
X7878284Y-8368284D02*
X7878284Y-8311715D01*
X7821715Y-8311715D01*
X7821715Y-8368284D01*
X7878284Y-8368284D01*
X8353284Y-13326284D02*
X8353284Y-13269715D01*
X8296715Y-13269715D01*
X8296715Y-13326284D01*
X8353284Y-13326284D01*
X8353284Y-14088284D02*
X8353284Y-14031715D01*
X8296715Y-14031715D01*
X8296715Y-14088284D01*
X8353284Y-14088284D01*
X8828285Y-9516285D02*
X8828285Y-9459716D01*
X8771716Y-9459716D01*
X8771716Y-9516285D01*
X8828285Y-9516285D01*
X8828285Y-10278285D02*
X8828285Y-10221716D01*
X8771716Y-10221716D01*
X8771716Y-10278285D01*
X8828285Y-10278285D01*
X9308285Y-11417284D02*
X9308285Y-11360715D01*
X9251716Y-11360715D01*
X9251716Y-11417284D01*
X9308285Y-11417284D01*
X9308285Y-12179284D02*
X9308285Y-12122715D01*
X9251716Y-12122715D01*
X9251716Y-12179284D01*
X9308285Y-12179284D01*
X9318285Y-15223784D02*
X9318285Y-15167215D01*
X9261716Y-15167215D01*
X9261716Y-15223784D01*
X9318285Y-15223784D01*
X9318285Y-15985784D02*
X9318285Y-15929215D01*
X9261716Y-15929215D01*
X9261716Y-15985784D01*
X9318285Y-15985784D01*
X9778285Y-5232285D02*
X9778285Y-5175716D01*
X9721716Y-5175716D01*
X9721716Y-5232285D01*
X9778285Y-5232285D01*
X9778285Y-5994284D02*
X9778285Y-5937715D01*
X9721716Y-5937715D01*
X9721716Y-5994284D01*
X9778285Y-5994284D01*
X9788285Y-7606284D02*
X9788285Y-7549715D01*
X9731716Y-7549715D01*
X9731716Y-7606284D01*
X9788285Y-7606284D01*
X9788285Y-8368284D02*
X9788285Y-8311715D01*
X9731716Y-8311715D01*
X9731716Y-8368284D01*
X9788285Y-8368284D01*
X10263285Y-13326284D02*
X10263285Y-13269715D01*
X10206716Y-13269715D01*
X10206716Y-13326284D01*
X10263285Y-13326284D01*
X10263285Y-14088284D02*
X10263285Y-14031715D01*
X10206716Y-14031715D01*
X10206716Y-14088284D01*
X10263285Y-14088284D01*
X10738285Y-9516285D02*
X10738285Y-9459716D01*
X10681716Y-9459716D01*
X10681716Y-9516285D01*
X10738285Y-9516285D01*
X10738285Y-10278285D02*
X10738285Y-10221716D01*
X10681716Y-10221716D01*
X10681716Y-10278285D01*
X10738285Y-10278285D01*
X11208284Y-11417284D02*
X11208284Y-11360715D01*
X11151716Y-11360715D01*
X11151716Y-11417284D01*
X11208284Y-11417284D01*
X11208284Y-12179284D02*
X11208284Y-12122715D01*
X11151716Y-12122715D01*
X11151716Y-12179284D01*
X11208284Y-12179284D01*
X11678284Y-5232285D02*
X11678284Y-5175716D01*
X11621715Y-5175716D01*
X11621715Y-5232285D01*
X11678284Y-5232285D01*
X11678284Y-5994284D02*
X11678284Y-5937715D01*
X11621715Y-5937715D01*
X11621715Y-5994284D01*
X11678284Y-5994284D01*
X11678284Y-7606284D02*
X11678284Y-7549715D01*
X11621715Y-7549715D01*
X11621715Y-7606284D01*
X11678284Y-7606284D01*
X11678284Y-8368284D02*
X11678284Y-8311715D01*
X11621715Y-8311715D01*
X11621715Y-8368284D01*
X11678284Y-8368284D01*
X12158284Y-13321284D02*
X12158284Y-13264715D01*
X12101715Y-13264715D01*
X12101715Y-13321284D01*
X12158284Y-13321284D01*
X12158284Y-14083284D02*
X12158284Y-14026715D01*
X12101715Y-14026715D01*
X12101715Y-14083284D01*
X12158284Y-14083284D01*
X12638284Y-9516285D02*
X12638284Y-9459716D01*
X12581715Y-9459716D01*
X12581715Y-9516285D01*
X12638284Y-9516285D01*
X12638284Y-10278285D02*
X12638284Y-10221716D01*
X12581715Y-10221716D01*
X12581715Y-10278285D01*
X12638284Y-10278285D01*
X13118284Y-11417284D02*
X13118284Y-11360715D01*
X13061715Y-11360715D01*
X13061715Y-11417284D01*
X13118284Y-11417284D01*
X13118284Y-12179284D02*
X13118284Y-12122715D01*
X13061715Y-12122715D01*
X13061715Y-12179284D01*
X13118284Y-12179284D01*
X13588284Y-5232285D02*
X13588284Y-5175716D01*
X13531715Y-5175716D01*
X13531715Y-5232285D01*
X13588284Y-5232285D01*
X13588284Y-5994284D02*
X13588284Y-5937715D01*
X13531715Y-5937715D01*
X13531715Y-5994284D01*
X13588284Y-5994284D01*
X13588284Y-7616284D02*
X13588284Y-7559715D01*
X13531715Y-7559715D01*
X13531715Y-7616284D01*
X13588284Y-7616284D01*
X13588284Y-8378284D02*
X13588284Y-8321715D01*
X13531715Y-8321715D01*
X13531715Y-8378284D01*
X13588284Y-8378284D01*
X14068284Y-13321284D02*
X14068284Y-13264715D01*
X14011715Y-13264715D01*
X14011715Y-13321284D01*
X14068284Y-13321284D01*
X14068284Y-14083284D02*
X14068284Y-14026715D01*
X14011715Y-14026715D01*
X14011715Y-14083284D01*
X14068284Y-14083284D01*
X14538284Y-9516285D02*
X14538284Y-9459716D01*
X14481715Y-9459716D01*
X14481715Y-9516285D01*
X14538284Y-9516285D01*
X14538284Y-10278285D02*
X14538284Y-10221716D01*
X14481715Y-10221716D01*
X14481715Y-10278285D01*
X14538284Y-10278285D01*
X15018284Y-11416284D02*
X15018284Y-11359715D01*
X14961715Y-11359715D01*
X14961715Y-11416284D01*
X15018284Y-11416284D01*
X15018284Y-12178284D02*
X15018284Y-12121715D01*
X14961715Y-12121715D01*
X14961715Y-12178284D01*
X15018284Y-12178284D01*
X15498284Y-7607284D02*
X15498284Y-7550715D01*
X15441715Y-7550715D01*
X15441715Y-7607284D01*
X15498284Y-7607284D01*
X15498284Y-8369284D02*
X15498284Y-8312715D01*
X15441715Y-8312715D01*
X15441715Y-8369284D01*
X15498284Y-8369284D01*
X15973284Y-13321284D02*
X15973284Y-13264715D01*
X15916715Y-13264715D01*
X15916715Y-13321284D01*
X15973284Y-13321284D01*
X15973284Y-14083284D02*
X15973284Y-14026715D01*
X15916715Y-14026715D01*
X15916715Y-14083284D01*
X15973284Y-14083284D01*
X16448284Y-5232285D02*
X16448284Y-5175716D01*
X16391715Y-5175716D01*
X16391715Y-5232285D01*
X16448284Y-5232285D01*
X16448284Y-5994284D02*
X16448284Y-5937715D01*
X16391715Y-5937715D01*
X16391715Y-5994284D01*
X16448284Y-5994284D01*
X16448284Y-9516285D02*
X16448284Y-9459716D01*
X16391715Y-9459716D01*
X16391715Y-9516285D01*
X16448284Y-9516285D01*
X16448284Y-10278285D02*
X16448284Y-10221716D01*
X16391715Y-10221716D01*
X16391715Y-10278285D01*
X16448284Y-10278285D01*
X16918285Y-11416284D02*
X16918285Y-11359715D01*
X16861716Y-11359715D01*
X16861716Y-11416284D01*
X16918285Y-11416284D01*
X16918285Y-12178284D02*
X16918285Y-12121715D01*
X16861716Y-12121715D01*
X16861716Y-12178284D01*
X16918285Y-12178284D01*
X17398285Y-7606284D02*
X17398285Y-7549715D01*
X17341716Y-7549715D01*
X17341716Y-7606284D01*
X17398285Y-7606284D01*
X17398285Y-8368284D02*
X17398285Y-8311715D01*
X17341716Y-8311715D01*
X17341716Y-8368284D01*
X17398285Y-8368284D01*
X17878285Y-13321284D02*
X17878285Y-13264715D01*
X17821716Y-13264715D01*
X17821716Y-13321284D01*
X17878285Y-13321284D01*
X17878285Y-14083284D02*
X17878285Y-14026715D01*
X17821716Y-14026715D01*
X17821716Y-14083284D01*
X17878285Y-14083284D01*
X18348285Y-5232285D02*
X18348285Y-5175716D01*
X18291716Y-5175716D01*
X18291716Y-5232285D01*
X18348285Y-5232285D01*
X18348285Y-5994284D02*
X18348285Y-5937715D01*
X18291716Y-5937715D01*
X18291716Y-5994284D01*
X18348285Y-5994284D01*
X18348285Y-9516285D02*
X18348285Y-9459716D01*
X18291716Y-9459716D01*
X18291716Y-9516285D01*
X18348285Y-9516285D01*
X18348285Y-10278285D02*
X18348285Y-10221716D01*
X18291716Y-10221716D01*
X18291716Y-10278285D01*
X18348285Y-10278285D01*
X18828285Y-11416284D02*
X18828285Y-11359715D01*
X18771716Y-11359715D01*
X18771716Y-11416284D01*
X18828285Y-11416284D01*
X18828285Y-12178284D02*
X18828285Y-12121715D01*
X18771716Y-12121715D01*
X18771716Y-12178284D01*
X18828285Y-12178284D01*
X19308285Y-7607284D02*
X19308285Y-7550715D01*
X19251716Y-7550715D01*
X19251716Y-7607284D01*
X19308285Y-7607284D01*
X19308285Y-8369284D02*
X19308285Y-8312715D01*
X19251716Y-8312715D01*
X19251716Y-8369284D01*
X19308285Y-8369284D01*
X19778285Y-13326284D02*
X19778285Y-13269715D01*
X19721716Y-13269715D01*
X19721716Y-13326284D01*
X19778285Y-13326284D01*
X19778285Y-14088284D02*
X19778285Y-14031715D01*
X19721716Y-14031715D01*
X19721716Y-14088284D01*
X19778285Y-14088284D01*
X20248285Y-9516285D02*
X20248285Y-9459716D01*
X20191716Y-9459716D01*
X20191716Y-9516285D01*
X20248285Y-9516285D01*
X20248285Y-10278285D02*
X20248285Y-10221716D01*
X20191716Y-10221716D01*
X20191716Y-10278285D01*
X20248285Y-10278285D01*
X20258285Y-5232285D02*
X20258285Y-5175716D01*
X20201716Y-5175716D01*
X20201716Y-5232285D01*
X20258285Y-5232285D01*
X20258285Y-5994284D02*
X20258285Y-5937715D01*
X20201716Y-5937715D01*
X20201716Y-5994284D01*
X20258285Y-5994284D01*
X20728285Y-11416284D02*
X20728285Y-11359715D01*
X20671716Y-11359715D01*
X20671716Y-11416284D01*
X20728285Y-11416284D01*
X20728285Y-12178284D02*
X20728285Y-12121715D01*
X20671716Y-12121715D01*
X20671716Y-12178284D01*
X20728285Y-12178284D01*
X21208285Y-7607284D02*
X21208285Y-7550715D01*
X21151716Y-7550715D01*
X21151716Y-7607284D01*
X21208285Y-7607284D01*
X21208285Y-8369284D02*
X21208285Y-8312715D01*
X21151716Y-8312715D01*
X21151716Y-8369284D01*
X21208285Y-8369284D01*
X21215785Y-15226284D02*
X21215785Y-15169715D01*
X21159216Y-15169715D01*
X21159216Y-15226284D01*
X21215785Y-15226284D01*
X21215785Y-15988284D02*
X21215785Y-15931715D01*
X21159216Y-15931715D01*
X21159216Y-15988284D01*
X21215785Y-15988284D01*
X21678285Y-13326284D02*
X21678285Y-13269715D01*
X21621716Y-13269715D01*
X21621716Y-13326284D01*
X21678285Y-13326284D01*
X21678285Y-14088284D02*
X21678285Y-14031715D01*
X21621716Y-14031715D01*
X21621716Y-14088284D01*
X21678285Y-14088284D01*
X22158285Y-5232285D02*
X22158285Y-5175716D01*
X22101716Y-5175716D01*
X22101716Y-5232285D01*
X22158285Y-5232285D01*
X22158285Y-5994284D02*
X22158285Y-5937715D01*
X22101716Y-5937715D01*
X22101716Y-5994284D01*
X22158285Y-5994284D01*
X22158285Y-9516285D02*
X22158285Y-9459716D01*
X22101716Y-9459716D01*
X22101716Y-9516285D01*
X22158285Y-9516285D01*
X22158285Y-10278285D02*
X22158285Y-10221716D01*
X22101716Y-10221716D01*
X22101716Y-10278285D01*
X22158285Y-10278285D01*
X22638284Y-11416284D02*
X22638284Y-11359715D01*
X22581715Y-11359715D01*
X22581715Y-11416284D01*
X22638284Y-11416284D01*
X22638284Y-12178284D02*
X22638284Y-12121715D01*
X22581715Y-12121715D01*
X22581715Y-12178284D01*
X22638284Y-12178284D01*
X23108284Y-7606284D02*
X23108284Y-7549715D01*
X23051715Y-7549715D01*
X23051715Y-7606284D01*
X23108284Y-7606284D01*
X23108284Y-8368284D02*
X23108284Y-8311715D01*
X23051715Y-8311715D01*
X23051715Y-8368284D01*
X23108284Y-8368284D01*
X23583284Y-13326284D02*
X23583284Y-13269715D01*
X23526715Y-13269715D01*
X23526715Y-13326284D01*
X23583284Y-13326284D01*
X23583284Y-14088284D02*
X23583284Y-14031715D01*
X23526715Y-14031715D01*
X23526715Y-14088284D01*
X23583284Y-14088284D01*
X23590784Y-15231284D02*
X23590784Y-15174715D01*
X23534215Y-15174715D01*
X23534215Y-15231284D01*
X23590784Y-15231284D01*
X23590784Y-15993284D02*
X23590784Y-15936715D01*
X23534215Y-15936715D01*
X23534215Y-15993284D01*
X23590784Y-15993284D01*
X24058284Y-9516285D02*
X24058284Y-9459716D01*
X24001715Y-9459716D01*
X24001715Y-9516285D01*
X24058284Y-9516285D01*
X24058284Y-10278285D02*
X24058284Y-10221716D01*
X24001715Y-10221716D01*
X24001715Y-10278285D01*
X24058284Y-10278285D01*
X24548284Y-11416284D02*
X24548284Y-11359715D01*
X24491715Y-11359715D01*
X24491715Y-11416284D01*
X24548284Y-11416284D01*
X24548284Y-12178284D02*
X24548284Y-12121715D01*
X24491715Y-12121715D01*
X24491715Y-12178284D01*
X24548284Y-12178284D01*
X25008284Y-5232285D02*
X25008284Y-5175716D01*
X24951715Y-5175716D01*
X24951715Y-5232285D01*
X25008284Y-5232285D01*
X25008284Y-5994284D02*
X25008284Y-5937715D01*
X24951715Y-5937715D01*
X24951715Y-5994284D01*
X25008284Y-5994284D01*
X25008284Y-7606284D02*
X25008284Y-7549715D01*
X24951715Y-7549715D01*
X24951715Y-7606284D01*
X25008284Y-7606284D01*
X25008284Y-8368284D02*
X25008284Y-8311715D01*
X24951715Y-8311715D01*
X24951715Y-8368284D01*
X25008284Y-8368284D01*
X25493284Y-13326284D02*
X25493284Y-13269715D01*
X25436715Y-13269715D01*
X25436715Y-13326284D01*
X25493284Y-13326284D01*
X25493284Y-14088284D02*
X25493284Y-14031715D01*
X25436715Y-14031715D01*
X25436715Y-14088284D01*
X25493284Y-14088284D01*
X25968284Y-9516285D02*
X25968284Y-9459716D01*
X25911715Y-9459716D01*
X25911715Y-9516285D01*
X25968284Y-9516285D01*
X25968284Y-10278285D02*
X25968284Y-10221716D01*
X25911715Y-10221716D01*
X25911715Y-10278285D01*
X25968284Y-10278285D01*
X25968284Y-15231284D02*
X25968284Y-15174715D01*
X25911715Y-15174715D01*
X25911715Y-15231284D01*
X25968284Y-15231284D01*
X25968284Y-15993284D02*
X25968284Y-15936715D01*
X25911715Y-15936715D01*
X25911715Y-15993284D01*
X25968284Y-15993284D01*
X26438284Y-11416284D02*
X26438284Y-11359715D01*
X26381715Y-11359715D01*
X26381715Y-11416284D01*
X26438284Y-11416284D01*
X26438284Y-12178284D02*
X26438284Y-12121715D01*
X26381715Y-12121715D01*
X26381715Y-12178284D01*
X26438284Y-12178284D01*
X26918284Y-5232285D02*
X26918284Y-5175716D01*
X26861715Y-5175716D01*
X26861715Y-5232285D01*
X26918284Y-5232285D01*
X26918284Y-5994284D02*
X26918284Y-5937715D01*
X26861715Y-5937715D01*
X26861715Y-5994284D01*
X26918284Y-5994284D01*
X26918284Y-7606284D02*
X26918284Y-7549715D01*
X26861715Y-7549715D01*
X26861715Y-7606284D01*
X26918284Y-7606284D01*
X26918284Y-8368284D02*
X26918284Y-8311715D01*
X26861715Y-8311715D01*
X26861715Y-8368284D01*
X26918284Y-8368284D01*
X27868284Y-9516285D02*
X27868284Y-9459716D01*
X27811715Y-9459716D01*
X27811715Y-9516285D01*
X27868284Y-9516285D01*
X27868284Y-10278285D02*
X27868284Y-10221716D01*
X27811715Y-10221716D01*
X27811715Y-10278285D01*
X27868284Y-10278285D01*
X28348284Y-15231284D02*
X28348284Y-15174715D01*
X28291715Y-15174715D01*
X28291715Y-15231284D01*
X28348284Y-15231284D01*
X28348284Y-15993284D02*
X28348284Y-15936715D01*
X28291715Y-15936715D01*
X28291715Y-15993284D01*
X28348284Y-15993284D01*
X28828284Y-5232285D02*
X28828284Y-5175716D01*
X28771715Y-5175716D01*
X28771715Y-5232285D01*
X28828284Y-5232285D01*
X28828284Y-5994284D02*
X28828284Y-5937715D01*
X28771715Y-5937715D01*
X28771715Y-5994284D01*
X28828284Y-5994284D01*
X30723284Y-7609784D02*
X30723284Y-7553215D01*
X30666715Y-7553215D01*
X30666715Y-7609784D01*
X30723284Y-7609784D01*
X30723284Y-8371784D02*
X30723284Y-8315215D01*
X30666715Y-8315215D01*
X30666715Y-8371784D01*
X30723284Y-8371784D01*
X30728284Y-5232285D02*
X30728284Y-5175716D01*
X30671715Y-5175716D01*
X30671715Y-5232285D01*
X30728284Y-5232285D01*
X30728284Y-5994284D02*
X30728284Y-5937715D01*
X30671715Y-5937715D01*
X30671715Y-5994284D01*
X30728284Y-5994284D01*
X30728284Y-9516285D02*
X30728284Y-9459716D01*
X30671715Y-9459716D01*
X30671715Y-9516285D01*
X30728284Y-9516285D01*
X30728284Y-10278285D02*
X30728284Y-10221716D01*
X30671715Y-10221716D01*
X30671715Y-10278285D01*
X30728284Y-10278285D01*
X30728284Y-11416284D02*
X30728284Y-11359715D01*
X30671715Y-11359715D01*
X30671715Y-11416284D01*
X30728284Y-11416284D01*
X30728284Y-12178284D02*
X30728284Y-12121715D01*
X30671715Y-12121715D01*
X30671715Y-12178284D01*
X30728284Y-12178284D01*
X30730784Y-15238784D02*
X30730784Y-15182215D01*
X30674215Y-15182215D01*
X30674215Y-15238784D01*
X30730784Y-15238784D01*
X30730784Y-16000784D02*
X30730784Y-15944215D01*
X30674215Y-15944215D01*
X30674215Y-16000784D01*
X30730784Y-16000784D01*
X30733284Y-13326284D02*
X30733284Y-13269715D01*
X30676715Y-13269715D01*
X30676715Y-13326284D01*
X30733284Y-13326284D01*
X30733284Y-14088284D02*
X30733284Y-14031715D01*
X30676715Y-14031715D01*
X30676715Y-14088284D01*
X30733284Y-14088284D01*
X33343284Y-7613284D02*
X33343284Y-7556715D01*
X33286715Y-7556715D01*
X33286715Y-7613284D01*
X33343284Y-7613284D01*
X33343284Y-8375284D02*
X33343284Y-8318715D01*
X33286715Y-8318715D01*
X33286715Y-8375284D01*
X33343284Y-8375284D01*
X33345784Y-15226284D02*
X33345784Y-15169715D01*
X33289215Y-15169715D01*
X33289215Y-15226284D01*
X33345784Y-15226284D01*
X33345784Y-15988284D02*
X33345784Y-15931715D01*
X33289215Y-15931715D01*
X33289215Y-15988284D01*
X33345784Y-15988284D01*
X33348284Y-9513285D02*
X33348284Y-9456716D01*
X33291715Y-9456716D01*
X33291715Y-9513285D01*
X33348284Y-9513285D01*
X33348284Y-10275285D02*
X33348284Y-10218716D01*
X33291715Y-10218716D01*
X33291715Y-10275285D01*
X33348284Y-10275285D01*
X33353284Y-5227785D02*
X33353284Y-5171216D01*
X33296715Y-5171216D01*
X33296715Y-5227785D01*
X33353284Y-5227785D01*
X33353284Y-5989784D02*
X33353284Y-5933215D01*
X33296715Y-5933215D01*
X33296715Y-5989784D01*
X33353284Y-5989784D01*
X35245785Y-15226284D02*
X35245785Y-15169715D01*
X35189216Y-15169715D01*
X35189216Y-15226284D01*
X35245785Y-15226284D01*
X35245785Y-15988284D02*
X35245785Y-15931715D01*
X35189216Y-15931715D01*
X35189216Y-15988284D01*
X35245785Y-15988284D01*
X35248285Y-7608284D02*
X35248285Y-7551715D01*
X35191716Y-7551715D01*
X35191716Y-7608284D01*
X35248285Y-7608284D01*
X35248285Y-8370284D02*
X35248285Y-8313715D01*
X35191716Y-8313715D01*
X35191716Y-8370284D01*
X35248285Y-8370284D01*
X35248285Y-13326284D02*
X35248285Y-13269715D01*
X35191716Y-13269715D01*
X35191716Y-13326284D01*
X35248285Y-13326284D01*
X35248285Y-14088284D02*
X35248285Y-14031715D01*
X35191716Y-14031715D01*
X35191716Y-14088284D01*
X35248285Y-14088284D01*
X35253285Y-5230785D02*
X35253285Y-5174216D01*
X35196716Y-5174216D01*
X35196716Y-5230785D01*
X35253285Y-5230785D01*
X35253285Y-5992784D02*
X35253285Y-5936215D01*
X35196716Y-5936215D01*
X35196716Y-5992784D01*
X35253285Y-5992784D01*
X35255785Y-9518785D02*
X35255785Y-9462216D01*
X35199216Y-9462216D01*
X35199216Y-9518785D01*
X35255785Y-9518785D01*
X35255785Y-10280785D02*
X35255785Y-10224216D01*
X35199216Y-10224216D01*
X35199216Y-10280785D01*
X35255785Y-10280785D01*
X37150785Y-15231284D02*
X37150785Y-15174715D01*
X37094216Y-15174715D01*
X37094216Y-15231284D01*
X37150785Y-15231284D01*
X37150785Y-15993284D02*
X37150785Y-15936715D01*
X37094216Y-15936715D01*
X37094216Y-15993284D01*
X37150785Y-15993284D01*
X37160785Y-9518785D02*
X37160785Y-9462216D01*
X37104216Y-9462216D01*
X37104216Y-9518785D01*
X37160785Y-9518785D01*
X37160785Y-10280785D02*
X37160785Y-10224216D01*
X37104216Y-10224216D01*
X37104216Y-10280785D01*
X37160785Y-10280785D01*
X37163285Y-7613284D02*
X37163285Y-7556715D01*
X37106716Y-7556715D01*
X37106716Y-7613284D01*
X37163285Y-7613284D01*
X37163285Y-8375284D02*
X37163285Y-8318715D01*
X37106716Y-8318715D01*
X37106716Y-8375284D01*
X37163285Y-8375284D01*
X37165785Y-5232785D02*
X37165785Y-5176216D01*
X37109216Y-5176216D01*
X37109216Y-5232785D01*
X37165785Y-5232785D01*
X37165785Y-5994784D02*
X37165785Y-5938215D01*
X37109216Y-5938215D01*
X37109216Y-5994784D01*
X37165785Y-5994784D01*
X39980785Y-13326284D02*
X39980785Y-13269715D01*
X39924216Y-13269715D01*
X39924216Y-13326284D01*
X39980785Y-13326284D01*
X39980785Y-14088284D02*
X39980785Y-14031715D01*
X39924216Y-14031715D01*
X39924216Y-14088284D01*
X39980785Y-14088284D01*
X39985785Y-7608784D02*
X39985785Y-7552215D01*
X39929216Y-7552215D01*
X39929216Y-7608784D01*
X39985785Y-7608784D01*
X39985785Y-8370784D02*
X39985785Y-8314215D01*
X39929216Y-8314215D01*
X39929216Y-8370784D01*
X39985785Y-8370784D01*
X39985785Y-9513785D02*
X39985785Y-9457216D01*
X39929216Y-9457216D01*
X39929216Y-9513785D01*
X39985785Y-9513785D01*
X39985785Y-10275785D02*
X39985785Y-10219216D01*
X39929216Y-10219216D01*
X39929216Y-10275785D01*
X39985785Y-10275785D01*
X39985785Y-11418784D02*
X39985785Y-11362215D01*
X39929216Y-11362215D01*
X39929216Y-11418784D01*
X39985785Y-11418784D01*
X39985785Y-12180784D02*
X39985785Y-12124215D01*
X39929216Y-12124215D01*
X39929216Y-12180784D01*
X39985785Y-12180784D01*
X41878285Y-13328784D02*
X41878285Y-13272215D01*
X41821716Y-13272215D01*
X41821716Y-13328784D01*
X41878285Y-13328784D01*
X41878285Y-14090784D02*
X41878285Y-14034215D01*
X41821716Y-14034215D01*
X41821716Y-14090784D01*
X41878285Y-14090784D01*
X41883285Y-9513785D02*
X41883285Y-9457216D01*
X41826716Y-9457216D01*
X41826716Y-9513785D01*
X41883285Y-9513785D01*
X41883285Y-10275785D02*
X41883285Y-10219216D01*
X41826716Y-10219216D01*
X41826716Y-10275785D01*
X41883285Y-10275785D01*
X41888285Y-7608784D02*
X41888285Y-7552215D01*
X41831716Y-7552215D01*
X41831716Y-7608784D01*
X41888285Y-7608784D01*
X41888285Y-8370784D02*
X41888285Y-8314215D01*
X41831716Y-8314215D01*
X41831716Y-8370784D01*
X41888285Y-8370784D01*
X41888285Y-11418784D02*
X41888285Y-11362215D01*
X41831716Y-11362215D01*
X41831716Y-11418784D01*
X41888285Y-11418784D01*
X41888285Y-12180784D02*
X41888285Y-12124215D01*
X41831716Y-12124215D01*
X41831716Y-12180784D01*
X41888285Y-12180784D01*
X41888285Y-15238784D02*
X41888285Y-15182215D01*
X41831716Y-15182215D01*
X41831716Y-15238784D01*
X41888285Y-15238784D01*
X41888285Y-16000784D02*
X41888285Y-15944215D01*
X41831716Y-15944215D01*
X41831716Y-16000784D01*
X41888285Y-16000784D01*
X43785785Y-9518785D02*
X43785785Y-9462216D01*
X43729216Y-9462216D01*
X43729216Y-9518785D01*
X43785785Y-9518785D01*
X43785785Y-10280785D02*
X43785785Y-10224216D01*
X43729216Y-10224216D01*
X43729216Y-10280785D01*
X43785785Y-10280785D01*
X43788285Y-13326284D02*
X43788285Y-13269715D01*
X43731716Y-13269715D01*
X43731716Y-13326284D01*
X43788285Y-13326284D01*
X43788285Y-14088284D02*
X43788285Y-14031715D01*
X43731716Y-14031715D01*
X43731716Y-14088284D01*
X43788285Y-14088284D01*
X43790785Y-7608784D02*
X43790785Y-7552215D01*
X43734216Y-7552215D01*
X43734216Y-7608784D01*
X43790785Y-7608784D01*
X43790785Y-8370784D02*
X43790785Y-8314215D01*
X43734216Y-8314215D01*
X43734216Y-8370784D01*
X43790785Y-8370784D01*
X43790785Y-11421284D02*
X43790785Y-11364715D01*
X43734216Y-11364715D01*
X43734216Y-11421284D01*
X43790785Y-11421284D01*
X43790785Y-12183284D02*
X43790785Y-12126715D01*
X43734216Y-12126715D01*
X43734216Y-12183284D01*
X43790785Y-12183284D01*
X43795785Y-15228784D02*
X43795785Y-15172215D01*
X43739216Y-15172215D01*
X43739216Y-15228784D01*
X43795785Y-15228784D01*
X43795785Y-15990784D02*
X43795785Y-15934215D01*
X43739216Y-15934215D01*
X43739216Y-15990784D01*
X43795785Y-15990784D01*
X45690784Y-7612284D02*
X45690784Y-7555715D01*
X45634215Y-7555715D01*
X45634215Y-7612284D01*
X45690784Y-7612284D01*
X45690784Y-8374284D02*
X45690784Y-8317715D01*
X45634215Y-8317715D01*
X45634215Y-8374284D01*
X45690784Y-8374284D01*
X45693284Y-9705785D02*
X45693284Y-9649216D01*
X45636715Y-9649216D01*
X45636715Y-9705785D01*
X45693284Y-9705785D01*
X45693284Y-10467785D02*
X45693284Y-10411216D01*
X45636715Y-10411216D01*
X45636715Y-10467785D01*
X45693284Y-10467785D01*
X45698284Y-13520784D02*
X45698284Y-13464215D01*
X45641715Y-13464215D01*
X45641715Y-13520784D01*
X45698284Y-13520784D01*
X45698284Y-14282784D02*
X45698284Y-14226215D01*
X45641715Y-14226215D01*
X45641715Y-14282784D01*
X45698284Y-14282784D01*
X32368000Y-11685500D02*
X32418000Y-11635500D01*
X32368000Y-11585500D01*
X32318000Y-11635500D01*
X32368000Y-11685500D01*
X32368000Y-11939500D02*
X32418000Y-11889500D01*
X32368000Y-11839500D01*
X32318000Y-11889500D01*
X32368000Y-11939500D01*
X32368000Y-12193500D02*
X32418000Y-12143500D01*
X32368000Y-12093500D01*
X32318000Y-12143500D01*
X32368000Y-12193500D01*
X32368000Y-12447500D02*
X32418000Y-12397500D01*
X32368000Y-12347500D01*
X32318000Y-12397500D01*
X32368000Y-12447500D01*
D13*
X40547000Y-4910500D02*
X40649000Y-5012500D01*
X40649000Y-4910500D02*
X40547000Y-5012500D01*
X40649000Y-4961500D02*
G75*
G02*
X40547000Y-4961500I-51000J0D01*
G01*
X40547000Y-4961500D02*
G75*
G02*
X40649000Y-4961500I51000J0D01*
G01*
X40547000Y-6688500D02*
X40649000Y-6790500D01*
X40649000Y-6688500D02*
X40547000Y-6790500D01*
X40649000Y-6739500D02*
G75*
G02*
X40547000Y-6739500I-51000J0D01*
G01*
X40547000Y-6739500D02*
G75*
G02*
X40649000Y-6739500I51000J0D01*
G01*
X40570000Y-5545500D02*
X40672000Y-5647500D01*
X40672000Y-5545500D02*
X40570000Y-5647500D01*
X40672000Y-5596500D02*
G75*
G02*
X40570000Y-5596500I-51000J0D01*
G01*
X40570000Y-5596500D02*
G75*
G02*
X40672000Y-5596500I51000J0D01*
G01*
X40570000Y-5799500D02*
X40672000Y-5901500D01*
X40672000Y-5799500D02*
X40570000Y-5901500D01*
X40672000Y-5850500D02*
G75*
G02*
X40570000Y-5850500I-51000J0D01*
G01*
X40570000Y-5850500D02*
G75*
G02*
X40672000Y-5850500I51000J0D01*
G01*
X40570000Y-6053500D02*
X40672000Y-6155500D01*
X40672000Y-6053500D02*
X40570000Y-6155500D01*
X40672000Y-6104500D02*
G75*
G02*
X40570000Y-6104500I-51000J0D01*
G01*
X40570000Y-6104500D02*
G75*
G02*
X40672000Y-6104500I51000J0D01*
G01*
X40801000Y-4910500D02*
X40903000Y-5012500D01*
X40903000Y-4910500D02*
X40801000Y-5012500D01*
X40903000Y-4961500D02*
G75*
G02*
X40801000Y-4961500I-51000J0D01*
G01*
X40801000Y-4961500D02*
G75*
G02*
X40903000Y-4961500I51000J0D01*
G01*
X40801000Y-6688500D02*
X40903000Y-6790500D01*
X40903000Y-6688500D02*
X40801000Y-6790500D01*
X40903000Y-6739500D02*
G75*
G02*
X40801000Y-6739500I-51000J0D01*
G01*
X40801000Y-6739500D02*
G75*
G02*
X40903000Y-6739500I51000J0D01*
G01*
X41055000Y-4910500D02*
X41157000Y-5012500D01*
X41157000Y-4910500D02*
X41055000Y-5012500D01*
X41157000Y-4961500D02*
G75*
G02*
X41055000Y-4961500I-51000J0D01*
G01*
X41055000Y-4961500D02*
G75*
G02*
X41157000Y-4961500I51000J0D01*
G01*
X41055000Y-6688500D02*
X41157000Y-6790500D01*
X41157000Y-6688500D02*
X41055000Y-6790500D01*
X41157000Y-6739500D02*
G75*
G02*
X41055000Y-6739500I-51000J0D01*
G01*
X41055000Y-6739500D02*
G75*
G02*
X41157000Y-6739500I51000J0D01*
G01*
X41309000Y-4910500D02*
X41411000Y-5012500D01*
X41411000Y-4910500D02*
X41309000Y-5012500D01*
X41411000Y-4961500D02*
G75*
G02*
X41309000Y-4961500I-51000J0D01*
G01*
X41309000Y-4961500D02*
G75*
G02*
X41411000Y-4961500I51000J0D01*
G01*
X41309000Y-6688500D02*
X41411000Y-6790500D01*
X41411000Y-6688500D02*
X41309000Y-6790500D01*
X41411000Y-6739500D02*
G75*
G02*
X41309000Y-6739500I-51000J0D01*
G01*
X41309000Y-6739500D02*
G75*
G02*
X41411000Y-6739500I51000J0D01*
G01*
X41563000Y-4910500D02*
X41665000Y-5012500D01*
X41665000Y-4910500D02*
X41563000Y-5012500D01*
X41665000Y-4961500D02*
G75*
G02*
X41563000Y-4961500I-51000J0D01*
G01*
X41563000Y-4961500D02*
G75*
G02*
X41665000Y-4961500I51000J0D01*
G01*
X41563000Y-6688500D02*
X41665000Y-6790500D01*
X41665000Y-6688500D02*
X41563000Y-6790500D01*
X41665000Y-6739500D02*
G75*
G02*
X41563000Y-6739500I-51000J0D01*
G01*
X41563000Y-6739500D02*
G75*
G02*
X41665000Y-6739500I51000J0D01*
G01*
X41817000Y-4910500D02*
X41919000Y-5012500D01*
X41919000Y-4910500D02*
X41817000Y-5012500D01*
X41919000Y-4961500D02*
G75*
G02*
X41817000Y-4961500I-51000J0D01*
G01*
X41817000Y-4961500D02*
G75*
G02*
X41919000Y-4961500I51000J0D01*
G01*
X41817000Y-6688500D02*
X41919000Y-6790500D01*
X41919000Y-6688500D02*
X41817000Y-6790500D01*
X41919000Y-6739500D02*
G75*
G02*
X41817000Y-6739500I-51000J0D01*
G01*
X41817000Y-6739500D02*
G75*
G02*
X41919000Y-6739500I51000J0D01*
G01*
X42071000Y-4910500D02*
X42173000Y-5012500D01*
X42173000Y-4910500D02*
X42071000Y-5012500D01*
X42173000Y-4961500D02*
G75*
G02*
X42071000Y-4961500I-51000J0D01*
G01*
X42071000Y-4961500D02*
G75*
G02*
X42173000Y-4961500I51000J0D01*
G01*
X42071000Y-6688500D02*
X42173000Y-6790500D01*
X42173000Y-6688500D02*
X42071000Y-6790500D01*
X42173000Y-6739500D02*
G75*
G02*
X42071000Y-6739500I-51000J0D01*
G01*
X42071000Y-6739500D02*
G75*
G02*
X42173000Y-6739500I51000J0D01*
G01*
X42325000Y-4910500D02*
X42427000Y-5012500D01*
X42427000Y-4910500D02*
X42325000Y-5012500D01*
X42427000Y-4961500D02*
G75*
G02*
X42325000Y-4961500I-51000J0D01*
G01*
X42325000Y-4961500D02*
G75*
G02*
X42427000Y-4961500I51000J0D01*
G01*
X42325000Y-6688500D02*
X42427000Y-6790500D01*
X42427000Y-6688500D02*
X42325000Y-6790500D01*
X42427000Y-6739500D02*
G75*
G02*
X42325000Y-6739500I-51000J0D01*
G01*
X42325000Y-6739500D02*
G75*
G02*
X42427000Y-6739500I51000J0D01*
G01*
X42579000Y-4910500D02*
X42681000Y-5012500D01*
X42681000Y-4910500D02*
X42579000Y-5012500D01*
X42681000Y-4961500D02*
G75*
G02*
X42579000Y-4961500I-51000J0D01*
G01*
X42579000Y-4961500D02*
G75*
G02*
X42681000Y-4961500I51000J0D01*
G01*
X42579000Y-6688500D02*
X42681000Y-6790500D01*
X42681000Y-6688500D02*
X42579000Y-6790500D01*
X42681000Y-6739500D02*
G75*
G02*
X42579000Y-6739500I-51000J0D01*
G01*
X42579000Y-6739500D02*
G75*
G02*
X42681000Y-6739500I51000J0D01*
G01*
X42833000Y-4910500D02*
X42935000Y-5012500D01*
X42935000Y-4910500D02*
X42833000Y-5012500D01*
X42935000Y-4961500D02*
G75*
G02*
X42833000Y-4961500I-51000J0D01*
G01*
X42833000Y-4961500D02*
G75*
G02*
X42935000Y-4961500I51000J0D01*
G01*
X42833000Y-6688500D02*
X42935000Y-6790500D01*
X42935000Y-6688500D02*
X42833000Y-6790500D01*
X42935000Y-6739500D02*
G75*
G02*
X42833000Y-6739500I-51000J0D01*
G01*
X42833000Y-6739500D02*
G75*
G02*
X42935000Y-6739500I51000J0D01*
G01*
X43087000Y-4910500D02*
X43189000Y-5012500D01*
X43189000Y-4910500D02*
X43087000Y-5012500D01*
X43189000Y-4961500D02*
G75*
G02*
X43087000Y-4961500I-51000J0D01*
G01*
X43087000Y-4961500D02*
G75*
G02*
X43189000Y-4961500I51000J0D01*
G01*
X43087000Y-6688500D02*
X43189000Y-6790500D01*
X43189000Y-6688500D02*
X43087000Y-6790500D01*
X43189000Y-6739500D02*
G75*
G02*
X43087000Y-6739500I-51000J0D01*
G01*
X43087000Y-6739500D02*
G75*
G02*
X43189000Y-6739500I51000J0D01*
G01*
X43341000Y-4910500D02*
X43443000Y-5012500D01*
X43443000Y-4910500D02*
X43341000Y-5012500D01*
X43443000Y-4961500D02*
G75*
G02*
X43341000Y-4961500I-51000J0D01*
G01*
X43341000Y-4961500D02*
G75*
G02*
X43443000Y-4961500I51000J0D01*
G01*
X43341000Y-6688500D02*
X43443000Y-6790500D01*
X43443000Y-6688500D02*
X43341000Y-6790500D01*
X43443000Y-6739500D02*
G75*
G02*
X43341000Y-6739500I-51000J0D01*
G01*
X43341000Y-6739500D02*
G75*
G02*
X43443000Y-6739500I51000J0D01*
G01*
X43595000Y-4910500D02*
X43697000Y-5012500D01*
X43697000Y-4910500D02*
X43595000Y-5012500D01*
X43697000Y-4961500D02*
G75*
G02*
X43595000Y-4961500I-51000J0D01*
G01*
X43595000Y-4961500D02*
G75*
G02*
X43697000Y-4961500I51000J0D01*
G01*
X43595000Y-6688500D02*
X43697000Y-6790500D01*
X43697000Y-6688500D02*
X43595000Y-6790500D01*
X43697000Y-6739500D02*
G75*
G02*
X43595000Y-6739500I-51000J0D01*
G01*
X43595000Y-6739500D02*
G75*
G02*
X43697000Y-6739500I51000J0D01*
G01*
X43849000Y-4910500D02*
X43951000Y-5012500D01*
X43951000Y-4910500D02*
X43849000Y-5012500D01*
X43951000Y-4961500D02*
G75*
G02*
X43849000Y-4961500I-51000J0D01*
G01*
X43849000Y-4961500D02*
G75*
G02*
X43951000Y-4961500I51000J0D01*
G01*
X43849000Y-6688500D02*
X43951000Y-6790500D01*
X43951000Y-6688500D02*
X43849000Y-6790500D01*
X43951000Y-6739500D02*
G75*
G02*
X43849000Y-6739500I-51000J0D01*
G01*
X43849000Y-6739500D02*
G75*
G02*
X43951000Y-6739500I51000J0D01*
G01*
X44103000Y-4910500D02*
X44205000Y-5012500D01*
X44205000Y-4910500D02*
X44103000Y-5012500D01*
X44205000Y-4961500D02*
G75*
G02*
X44103000Y-4961500I-51000J0D01*
G01*
X44103000Y-4961500D02*
G75*
G02*
X44205000Y-4961500I51000J0D01*
G01*
X44103000Y-6688500D02*
X44205000Y-6790500D01*
X44205000Y-6688500D02*
X44103000Y-6790500D01*
X44205000Y-6739500D02*
G75*
G02*
X44103000Y-6739500I-51000J0D01*
G01*
X44103000Y-6739500D02*
G75*
G02*
X44205000Y-6739500I51000J0D01*
G01*
X44357000Y-4910500D02*
X44459000Y-5012500D01*
X44459000Y-4910500D02*
X44357000Y-5012500D01*
X44459000Y-4961500D02*
G75*
G02*
X44357000Y-4961500I-51000J0D01*
G01*
X44357000Y-4961500D02*
G75*
G02*
X44459000Y-4961500I51000J0D01*
G01*
X44357000Y-6688500D02*
X44459000Y-6790500D01*
X44459000Y-6688500D02*
X44357000Y-6790500D01*
X44459000Y-6739500D02*
G75*
G02*
X44357000Y-6739500I-51000J0D01*
G01*
X44357000Y-6739500D02*
G75*
G02*
X44459000Y-6739500I51000J0D01*
G01*
X44611000Y-4910500D02*
X44713000Y-5012500D01*
X44713000Y-4910500D02*
X44611000Y-5012500D01*
X44713000Y-4961500D02*
G75*
G02*
X44611000Y-4961500I-51000J0D01*
G01*
X44611000Y-4961500D02*
G75*
G02*
X44713000Y-4961500I51000J0D01*
G01*
X44611000Y-6688500D02*
X44713000Y-6790500D01*
X44713000Y-6688500D02*
X44611000Y-6790500D01*
X44713000Y-6739500D02*
G75*
G02*
X44611000Y-6739500I-51000J0D01*
G01*
X44611000Y-6739500D02*
G75*
G02*
X44713000Y-6739500I51000J0D01*
G01*
X44865000Y-4910500D02*
X44967000Y-5012500D01*
X44967000Y-4910500D02*
X44865000Y-5012500D01*
X44967000Y-4961500D02*
G75*
G02*
X44865000Y-4961500I-51000J0D01*
G01*
X44865000Y-4961500D02*
G75*
G02*
X44967000Y-4961500I51000J0D01*
G01*
X44865000Y-6688500D02*
X44967000Y-6790500D01*
X44967000Y-6688500D02*
X44865000Y-6790500D01*
X44967000Y-6739500D02*
G75*
G02*
X44865000Y-6739500I-51000J0D01*
G01*
X44865000Y-6739500D02*
G75*
G02*
X44967000Y-6739500I51000J0D01*
G01*
X45119000Y-4910500D02*
X45221000Y-5012500D01*
X45221000Y-4910500D02*
X45119000Y-5012500D01*
X45221000Y-4961500D02*
G75*
G02*
X45119000Y-4961500I-51000J0D01*
G01*
X45119000Y-4961500D02*
G75*
G02*
X45221000Y-4961500I51000J0D01*
G01*
X45119000Y-6688500D02*
X45221000Y-6790500D01*
X45221000Y-6688500D02*
X45119000Y-6790500D01*
X45221000Y-6739500D02*
G75*
G02*
X45119000Y-6739500I-51000J0D01*
G01*
X45119000Y-6739500D02*
G75*
G02*
X45221000Y-6739500I51000J0D01*
G01*
X45373000Y-4910500D02*
X45475000Y-5012500D01*
X45475000Y-4910500D02*
X45373000Y-5012500D01*
X45475000Y-4961500D02*
G75*
G02*
X45373000Y-4961500I-51000J0D01*
G01*
X45373000Y-4961500D02*
G75*
G02*
X45475000Y-4961500I51000J0D01*
G01*
X45373000Y-6688500D02*
X45475000Y-6790500D01*
X45475000Y-6688500D02*
X45373000Y-6790500D01*
X45475000Y-6739500D02*
G75*
G02*
X45373000Y-6739500I-51000J0D01*
G01*
X45373000Y-6739500D02*
G75*
G02*
X45475000Y-6739500I51000J0D01*
G01*
D14*
X2632000Y-5383000D02*
X2782000Y-5533000D01*
X2782000Y-5383000D02*
X2632000Y-5533000D01*
X2707000Y-5383000D02*
X2707000Y-5533000D01*
X2632000Y-5458000D02*
X2782000Y-5458000D01*
X2632000Y-7763000D02*
X2782000Y-7913000D01*
X2782000Y-7763000D02*
X2632000Y-7913000D01*
X2707000Y-7763000D02*
X2707000Y-7913000D01*
X2632000Y-7838000D02*
X2782000Y-7838000D01*
X2876000Y-15379000D02*
X3026000Y-15529000D01*
X3026000Y-15379000D02*
X2876000Y-15529000D01*
X2951000Y-15379000D02*
X2951000Y-15529000D01*
X2876000Y-15454000D02*
X3026000Y-15454000D01*
X3108000Y-9667000D02*
X3258000Y-9817000D01*
X3258000Y-9667000D02*
X3108000Y-9817000D01*
X3183000Y-9667000D02*
X3183000Y-9817000D01*
X3108000Y-9742000D02*
X3258000Y-9742000D01*
X3267000Y-5129000D02*
X3417000Y-5279000D01*
X3417000Y-5129000D02*
X3267000Y-5279000D01*
X3342000Y-5129000D02*
X3342000Y-5279000D01*
X3267000Y-5204000D02*
X3417000Y-5204000D01*
X3267000Y-7509000D02*
X3417000Y-7659000D01*
X3417000Y-7509000D02*
X3267000Y-7659000D01*
X3342000Y-7509000D02*
X3342000Y-7659000D01*
X3267000Y-7584000D02*
X3417000Y-7584000D01*
X3346000Y-11571500D02*
X3496000Y-11721500D01*
X3496000Y-11571500D02*
X3346000Y-11721500D01*
X3421000Y-11571500D02*
X3421000Y-11721500D01*
X3346000Y-11646500D02*
X3496000Y-11646500D01*
X3511000Y-15125000D02*
X3661000Y-15275000D01*
X3661000Y-15125000D02*
X3511000Y-15275000D01*
X3586000Y-15125000D02*
X3586000Y-15275000D01*
X3511000Y-15200000D02*
X3661000Y-15200000D01*
X3743000Y-9413000D02*
X3893000Y-9563000D01*
X3893000Y-9413000D02*
X3743000Y-9563000D01*
X3818000Y-9413000D02*
X3818000Y-9563000D01*
X3743000Y-9488000D02*
X3893000Y-9488000D01*
X3821000Y-13475000D02*
X3971000Y-13625000D01*
X3971000Y-13475000D02*
X3821000Y-13625000D01*
X3896000Y-13475000D02*
X3896000Y-13625000D01*
X3821000Y-13550000D02*
X3971000Y-13550000D01*
X3981000Y-11317500D02*
X4131000Y-11467500D01*
X4131000Y-11317500D02*
X3981000Y-11467500D01*
X4056000Y-11317500D02*
X4056000Y-11467500D01*
X3981000Y-11392500D02*
X4131000Y-11392500D01*
X4456000Y-13221000D02*
X4606000Y-13371000D01*
X4606000Y-13221000D02*
X4456000Y-13371000D01*
X4531000Y-13221000D02*
X4531000Y-13371000D01*
X4456000Y-13296000D02*
X4606000Y-13296000D01*
X4536000Y-7763000D02*
X4686000Y-7913000D01*
X4686000Y-7763000D02*
X4536000Y-7913000D01*
X4611000Y-7763000D02*
X4611000Y-7913000D01*
X4536000Y-7838000D02*
X4686000Y-7838000D01*
X5171000Y-7509000D02*
X5321000Y-7659000D01*
X5321000Y-7509000D02*
X5171000Y-7659000D01*
X5246000Y-7509000D02*
X5246000Y-7659000D01*
X5171000Y-7584000D02*
X5321000Y-7584000D01*
X5256000Y-15379000D02*
X5406000Y-15529000D01*
X5406000Y-15379000D02*
X5256000Y-15529000D01*
X5331000Y-15379000D02*
X5331000Y-15529000D01*
X5256000Y-15454000D02*
X5406000Y-15454000D01*
X5488000Y-9667000D02*
X5638000Y-9817000D01*
X5638000Y-9667000D02*
X5488000Y-9817000D01*
X5563000Y-9667000D02*
X5563000Y-9817000D01*
X5488000Y-9742000D02*
X5638000Y-9742000D01*
X5891000Y-15125000D02*
X6041000Y-15275000D01*
X6041000Y-15125000D02*
X5891000Y-15275000D01*
X5966000Y-15125000D02*
X5966000Y-15275000D01*
X5891000Y-15200000D02*
X6041000Y-15200000D01*
X5964000Y-11571000D02*
X6114000Y-11721000D01*
X6114000Y-11571000D02*
X5964000Y-11721000D01*
X6039000Y-11571000D02*
X6039000Y-11721000D01*
X5964000Y-11646000D02*
X6114000Y-11646000D01*
X6123000Y-9413000D02*
X6273000Y-9563000D01*
X6273000Y-9413000D02*
X6123000Y-9563000D01*
X6198000Y-9413000D02*
X6198000Y-9563000D01*
X6123000Y-9488000D02*
X6273000Y-9488000D01*
X6440000Y-5383000D02*
X6590000Y-5533000D01*
X6590000Y-5383000D02*
X6440000Y-5533000D01*
X6515000Y-5383000D02*
X6515000Y-5533000D01*
X6440000Y-5458000D02*
X6590000Y-5458000D01*
X6440000Y-7763000D02*
X6590000Y-7913000D01*
X6590000Y-7763000D02*
X6440000Y-7913000D01*
X6515000Y-7763000D02*
X6515000Y-7913000D01*
X6440000Y-7838000D02*
X6590000Y-7838000D01*
X6599000Y-11317000D02*
X6749000Y-11467000D01*
X6749000Y-11317000D02*
X6599000Y-11467000D01*
X6674000Y-11317000D02*
X6674000Y-11467000D01*
X6599000Y-11392000D02*
X6749000Y-11392000D01*
X6916000Y-13475000D02*
X7066000Y-13625000D01*
X7066000Y-13475000D02*
X6916000Y-13625000D01*
X6991000Y-13475000D02*
X6991000Y-13625000D01*
X6916000Y-13550000D02*
X7066000Y-13550000D01*
X7075000Y-5129000D02*
X7225000Y-5279000D01*
X7225000Y-5129000D02*
X7075000Y-5279000D01*
X7150000Y-5129000D02*
X7150000Y-5279000D01*
X7075000Y-5204000D02*
X7225000Y-5204000D01*
X7075000Y-7509000D02*
X7225000Y-7659000D01*
X7225000Y-7509000D02*
X7075000Y-7659000D01*
X7150000Y-7509000D02*
X7150000Y-7659000D01*
X7075000Y-7584000D02*
X7225000Y-7584000D01*
X7392000Y-9667000D02*
X7542000Y-9817000D01*
X7542000Y-9667000D02*
X7392000Y-9817000D01*
X7467000Y-9667000D02*
X7467000Y-9817000D01*
X7392000Y-9742000D02*
X7542000Y-9742000D01*
X7551000Y-13221000D02*
X7701000Y-13371000D01*
X7701000Y-13221000D02*
X7551000Y-13371000D01*
X7626000Y-13221000D02*
X7626000Y-13371000D01*
X7551000Y-13296000D02*
X7701000Y-13296000D01*
X7644000Y-15379000D02*
X7794000Y-15529000D01*
X7794000Y-15379000D02*
X7644000Y-15529000D01*
X7719000Y-15379000D02*
X7719000Y-15529000D01*
X7644000Y-15454000D02*
X7794000Y-15454000D01*
X7868000Y-11571000D02*
X8018000Y-11721000D01*
X8018000Y-11571000D02*
X7868000Y-11721000D01*
X7943000Y-11571000D02*
X7943000Y-11721000D01*
X7868000Y-11646000D02*
X8018000Y-11646000D01*
X8027000Y-9413000D02*
X8177000Y-9563000D01*
X8177000Y-9413000D02*
X8027000Y-9563000D01*
X8102000Y-9413000D02*
X8102000Y-9563000D01*
X8027000Y-9488000D02*
X8177000Y-9488000D01*
X8279000Y-15125000D02*
X8429000Y-15275000D01*
X8429000Y-15125000D02*
X8279000Y-15275000D01*
X8354000Y-15125000D02*
X8354000Y-15275000D01*
X8279000Y-15200000D02*
X8429000Y-15200000D01*
X8344000Y-5383000D02*
X8494000Y-5533000D01*
X8494000Y-5383000D02*
X8344000Y-5533000D01*
X8419000Y-5383000D02*
X8419000Y-5533000D01*
X8344000Y-5458000D02*
X8494000Y-5458000D01*
X8344000Y-7763000D02*
X8494000Y-7913000D01*
X8494000Y-7763000D02*
X8344000Y-7913000D01*
X8419000Y-7763000D02*
X8419000Y-7913000D01*
X8344000Y-7838000D02*
X8494000Y-7838000D01*
X8503000Y-11317000D02*
X8653000Y-11467000D01*
X8653000Y-11317000D02*
X8503000Y-11467000D01*
X8578000Y-11317000D02*
X8578000Y-11467000D01*
X8503000Y-11392000D02*
X8653000Y-11392000D01*
X8820000Y-13475000D02*
X8970000Y-13625000D01*
X8970000Y-13475000D02*
X8820000Y-13625000D01*
X8895000Y-13475000D02*
X8895000Y-13625000D01*
X8820000Y-13550000D02*
X8970000Y-13550000D01*
X8979000Y-5129000D02*
X9129000Y-5279000D01*
X9129000Y-5129000D02*
X8979000Y-5279000D01*
X9054000Y-5129000D02*
X9054000Y-5279000D01*
X8979000Y-5204000D02*
X9129000Y-5204000D01*
X8979000Y-7509000D02*
X9129000Y-7659000D01*
X9129000Y-7509000D02*
X8979000Y-7659000D01*
X9054000Y-7509000D02*
X9054000Y-7659000D01*
X8979000Y-7584000D02*
X9129000Y-7584000D01*
X9296000Y-9667000D02*
X9446000Y-9817000D01*
X9446000Y-9667000D02*
X9296000Y-9817000D01*
X9371000Y-9667000D02*
X9371000Y-9817000D01*
X9296000Y-9742000D02*
X9446000Y-9742000D01*
X9455000Y-13221000D02*
X9605000Y-13371000D01*
X9605000Y-13221000D02*
X9455000Y-13371000D01*
X9530000Y-13221000D02*
X9530000Y-13371000D01*
X9455000Y-13296000D02*
X9605000Y-13296000D01*
X9772000Y-11571000D02*
X9922000Y-11721000D01*
X9922000Y-11571000D02*
X9772000Y-11721000D01*
X9847000Y-11571000D02*
X9847000Y-11721000D01*
X9772000Y-11646000D02*
X9922000Y-11646000D01*
X9931000Y-9413000D02*
X10081000Y-9563000D01*
X10081000Y-9413000D02*
X9931000Y-9563000D01*
X10006000Y-9413000D02*
X10006000Y-9563000D01*
X9931000Y-9488000D02*
X10081000Y-9488000D01*
X10248000Y-5383000D02*
X10398000Y-5533000D01*
X10398000Y-5383000D02*
X10248000Y-5533000D01*
X10323000Y-5383000D02*
X10323000Y-5533000D01*
X10248000Y-5458000D02*
X10398000Y-5458000D01*
X10248000Y-7763000D02*
X10398000Y-7913000D01*
X10398000Y-7763000D02*
X10248000Y-7913000D01*
X10323000Y-7763000D02*
X10323000Y-7913000D01*
X10248000Y-7838000D02*
X10398000Y-7838000D01*
X10407000Y-11317000D02*
X10557000Y-11467000D01*
X10557000Y-11317000D02*
X10407000Y-11467000D01*
X10482000Y-11317000D02*
X10482000Y-11467000D01*
X10407000Y-11392000D02*
X10557000Y-11392000D01*
X10724000Y-13475000D02*
X10874000Y-13625000D01*
X10874000Y-13475000D02*
X10724000Y-13625000D01*
X10799000Y-13475000D02*
X10799000Y-13625000D01*
X10724000Y-13550000D02*
X10874000Y-13550000D01*
X10883000Y-5129000D02*
X11033000Y-5279000D01*
X11033000Y-5129000D02*
X10883000Y-5279000D01*
X10958000Y-5129000D02*
X10958000Y-5279000D01*
X10883000Y-5204000D02*
X11033000Y-5204000D01*
X10883000Y-7509000D02*
X11033000Y-7659000D01*
X11033000Y-7509000D02*
X10883000Y-7659000D01*
X10958000Y-7509000D02*
X10958000Y-7659000D01*
X10883000Y-7584000D02*
X11033000Y-7584000D01*
X11200000Y-9667000D02*
X11350000Y-9817000D01*
X11350000Y-9667000D02*
X11200000Y-9817000D01*
X11275000Y-9667000D02*
X11275000Y-9817000D01*
X11200000Y-9742000D02*
X11350000Y-9742000D01*
X11359000Y-13221000D02*
X11509000Y-13371000D01*
X11509000Y-13221000D02*
X11359000Y-13371000D01*
X11434000Y-13221000D02*
X11434000Y-13371000D01*
X11359000Y-13296000D02*
X11509000Y-13296000D01*
X11676000Y-11571000D02*
X11826000Y-11721000D01*
X11826000Y-11571000D02*
X11676000Y-11721000D01*
X11751000Y-11571000D02*
X11751000Y-11721000D01*
X11676000Y-11646000D02*
X11826000Y-11646000D01*
X11835000Y-9413000D02*
X11985000Y-9563000D01*
X11985000Y-9413000D02*
X11835000Y-9563000D01*
X11910000Y-9413000D02*
X11910000Y-9563000D01*
X11835000Y-9488000D02*
X11985000Y-9488000D01*
X12152000Y-5383000D02*
X12302000Y-5533000D01*
X12302000Y-5383000D02*
X12152000Y-5533000D01*
X12227000Y-5383000D02*
X12227000Y-5533000D01*
X12152000Y-5458000D02*
X12302000Y-5458000D01*
X12152000Y-7763000D02*
X12302000Y-7913000D01*
X12302000Y-7763000D02*
X12152000Y-7913000D01*
X12227000Y-7763000D02*
X12227000Y-7913000D01*
X12152000Y-7838000D02*
X12302000Y-7838000D01*
X12311000Y-11317000D02*
X12461000Y-11467000D01*
X12461000Y-11317000D02*
X12311000Y-11467000D01*
X12386000Y-11317000D02*
X12386000Y-11467000D01*
X12311000Y-11392000D02*
X12461000Y-11392000D01*
X12628000Y-13475000D02*
X12778000Y-13625000D01*
X12778000Y-13475000D02*
X12628000Y-13625000D01*
X12703000Y-13475000D02*
X12703000Y-13625000D01*
X12628000Y-13550000D02*
X12778000Y-13550000D01*
X12787000Y-5129000D02*
X12937000Y-5279000D01*
X12937000Y-5129000D02*
X12787000Y-5279000D01*
X12862000Y-5129000D02*
X12862000Y-5279000D01*
X12787000Y-5204000D02*
X12937000Y-5204000D01*
X12787000Y-7509000D02*
X12937000Y-7659000D01*
X12937000Y-7509000D02*
X12787000Y-7659000D01*
X12862000Y-7509000D02*
X12862000Y-7659000D01*
X12787000Y-7584000D02*
X12937000Y-7584000D01*
X13104000Y-9667000D02*
X13254000Y-9817000D01*
X13254000Y-9667000D02*
X13104000Y-9817000D01*
X13179000Y-9667000D02*
X13179000Y-9817000D01*
X13104000Y-9742000D02*
X13254000Y-9742000D01*
X13263000Y-13221000D02*
X13413000Y-13371000D01*
X13413000Y-13221000D02*
X13263000Y-13371000D01*
X13338000Y-13221000D02*
X13338000Y-13371000D01*
X13263000Y-13296000D02*
X13413000Y-13296000D01*
X13580000Y-11571000D02*
X13730000Y-11721000D01*
X13730000Y-11571000D02*
X13580000Y-11721000D01*
X13655000Y-11571000D02*
X13655000Y-11721000D01*
X13580000Y-11646000D02*
X13730000Y-11646000D01*
X13739000Y-9413000D02*
X13889000Y-9563000D01*
X13889000Y-9413000D02*
X13739000Y-9563000D01*
X13814000Y-9413000D02*
X13814000Y-9563000D01*
X13739000Y-9488000D02*
X13889000Y-9488000D01*
X14056000Y-7763000D02*
X14206000Y-7913000D01*
X14206000Y-7763000D02*
X14056000Y-7913000D01*
X14131000Y-7763000D02*
X14131000Y-7913000D01*
X14056000Y-7838000D02*
X14206000Y-7838000D01*
X14215000Y-11317000D02*
X14365000Y-11467000D01*
X14365000Y-11317000D02*
X14215000Y-11467000D01*
X14290000Y-11317000D02*
X14290000Y-11467000D01*
X14215000Y-11392000D02*
X14365000Y-11392000D01*
X14532000Y-13475000D02*
X14682000Y-13625000D01*
X14682000Y-13475000D02*
X14532000Y-13625000D01*
X14607000Y-13475000D02*
X14607000Y-13625000D01*
X14532000Y-13550000D02*
X14682000Y-13550000D01*
X14691000Y-7509000D02*
X14841000Y-7659000D01*
X14841000Y-7509000D02*
X14691000Y-7659000D01*
X14766000Y-7509000D02*
X14766000Y-7659000D01*
X14691000Y-7584000D02*
X14841000Y-7584000D01*
X14784500Y-15378500D02*
X14934500Y-15528500D01*
X14934500Y-15378500D02*
X14784500Y-15528500D01*
X14859500Y-15378500D02*
X14859500Y-15528500D01*
X14784500Y-15453500D02*
X14934500Y-15453500D01*
X15008000Y-5383000D02*
X15158000Y-5533000D01*
X15158000Y-5383000D02*
X15008000Y-5533000D01*
X15083000Y-5383000D02*
X15083000Y-5533000D01*
X15008000Y-5458000D02*
X15158000Y-5458000D01*
X15008000Y-9667000D02*
X15158000Y-9817000D01*
X15158000Y-9667000D02*
X15008000Y-9817000D01*
X15083000Y-9667000D02*
X15083000Y-9817000D01*
X15008000Y-9742000D02*
X15158000Y-9742000D01*
X15167000Y-13221000D02*
X15317000Y-13371000D01*
X15317000Y-13221000D02*
X15167000Y-13371000D01*
X15242000Y-13221000D02*
X15242000Y-13371000D01*
X15167000Y-13296000D02*
X15317000Y-13296000D01*
X15419500Y-15124500D02*
X15569500Y-15274500D01*
X15569500Y-15124500D02*
X15419500Y-15274500D01*
X15494500Y-15124500D02*
X15494500Y-15274500D01*
X15419500Y-15199500D02*
X15569500Y-15199500D01*
X15484000Y-11571000D02*
X15634000Y-11721000D01*
X15634000Y-11571000D02*
X15484000Y-11721000D01*
X15559000Y-11571000D02*
X15559000Y-11721000D01*
X15484000Y-11646000D02*
X15634000Y-11646000D01*
X15643000Y-5129000D02*
X15793000Y-5279000D01*
X15793000Y-5129000D02*
X15643000Y-5279000D01*
X15718000Y-5129000D02*
X15718000Y-5279000D01*
X15643000Y-5204000D02*
X15793000Y-5204000D01*
X15643000Y-9413000D02*
X15793000Y-9563000D01*
X15793000Y-9413000D02*
X15643000Y-9563000D01*
X15718000Y-9413000D02*
X15718000Y-9563000D01*
X15643000Y-9488000D02*
X15793000Y-9488000D01*
X15960000Y-7763000D02*
X16110000Y-7913000D01*
X16110000Y-7763000D02*
X15960000Y-7913000D01*
X16035000Y-7763000D02*
X16035000Y-7913000D01*
X15960000Y-7838000D02*
X16110000Y-7838000D01*
X16119000Y-11317000D02*
X16269000Y-11467000D01*
X16269000Y-11317000D02*
X16119000Y-11467000D01*
X16194000Y-11317000D02*
X16194000Y-11467000D01*
X16119000Y-11392000D02*
X16269000Y-11392000D01*
X16436000Y-13475000D02*
X16586000Y-13625000D01*
X16586000Y-13475000D02*
X16436000Y-13625000D01*
X16511000Y-13475000D02*
X16511000Y-13625000D01*
X16436000Y-13550000D02*
X16586000Y-13550000D01*
X16595000Y-7509000D02*
X16745000Y-7659000D01*
X16745000Y-7509000D02*
X16595000Y-7659000D01*
X16670000Y-7509000D02*
X16670000Y-7659000D01*
X16595000Y-7584000D02*
X16745000Y-7584000D01*
X16912000Y-5383000D02*
X17062000Y-5533000D01*
X17062000Y-5383000D02*
X16912000Y-5533000D01*
X16987000Y-5383000D02*
X16987000Y-5533000D01*
X16912000Y-5458000D02*
X17062000Y-5458000D01*
X16912000Y-9667000D02*
X17062000Y-9817000D01*
X17062000Y-9667000D02*
X16912000Y-9817000D01*
X16987000Y-9667000D02*
X16987000Y-9817000D01*
X16912000Y-9742000D02*
X17062000Y-9742000D01*
X17071000Y-13221000D02*
X17221000Y-13371000D01*
X17221000Y-13221000D02*
X17071000Y-13371000D01*
X17146000Y-13221000D02*
X17146000Y-13371000D01*
X17071000Y-13296000D02*
X17221000Y-13296000D01*
X17388000Y-11571000D02*
X17538000Y-11721000D01*
X17538000Y-11571000D02*
X17388000Y-11721000D01*
X17463000Y-11571000D02*
X17463000Y-11721000D01*
X17388000Y-11646000D02*
X17538000Y-11646000D01*
X17547000Y-5129000D02*
X17697000Y-5279000D01*
X17697000Y-5129000D02*
X17547000Y-5279000D01*
X17622000Y-5129000D02*
X17622000Y-5279000D01*
X17547000Y-5204000D02*
X17697000Y-5204000D01*
X17547000Y-9413000D02*
X17697000Y-9563000D01*
X17697000Y-9413000D02*
X17547000Y-9563000D01*
X17622000Y-9413000D02*
X17622000Y-9563000D01*
X17547000Y-9488000D02*
X17697000Y-9488000D01*
X17864000Y-7763000D02*
X18014000Y-7913000D01*
X18014000Y-7763000D02*
X17864000Y-7913000D01*
X17939000Y-7763000D02*
X17939000Y-7913000D01*
X17864000Y-7838000D02*
X18014000Y-7838000D01*
X18023000Y-11317000D02*
X18173000Y-11467000D01*
X18173000Y-11317000D02*
X18023000Y-11467000D01*
X18098000Y-11317000D02*
X18098000Y-11467000D01*
X18023000Y-11392000D02*
X18173000Y-11392000D01*
X18340000Y-13475000D02*
X18490000Y-13625000D01*
X18490000Y-13475000D02*
X18340000Y-13625000D01*
X18415000Y-13475000D02*
X18415000Y-13625000D01*
X18340000Y-13550000D02*
X18490000Y-13550000D01*
X18499000Y-7509000D02*
X18649000Y-7659000D01*
X18649000Y-7509000D02*
X18499000Y-7659000D01*
X18574000Y-7509000D02*
X18574000Y-7659000D01*
X18499000Y-7584000D02*
X18649000Y-7584000D01*
X18816000Y-5383000D02*
X18966000Y-5533000D01*
X18966000Y-5383000D02*
X18816000Y-5533000D01*
X18891000Y-5383000D02*
X18891000Y-5533000D01*
X18816000Y-5458000D02*
X18966000Y-5458000D01*
X18816000Y-9667000D02*
X18966000Y-9817000D01*
X18966000Y-9667000D02*
X18816000Y-9817000D01*
X18891000Y-9667000D02*
X18891000Y-9817000D01*
X18816000Y-9742000D02*
X18966000Y-9742000D01*
X18975000Y-13221000D02*
X19125000Y-13371000D01*
X19125000Y-13221000D02*
X18975000Y-13371000D01*
X19050000Y-13221000D02*
X19050000Y-13371000D01*
X18975000Y-13296000D02*
X19125000Y-13296000D01*
X19292000Y-11571000D02*
X19442000Y-11721000D01*
X19442000Y-11571000D02*
X19292000Y-11721000D01*
X19367000Y-11571000D02*
X19367000Y-11721000D01*
X19292000Y-11646000D02*
X19442000Y-11646000D01*
X19451000Y-5129000D02*
X19601000Y-5279000D01*
X19601000Y-5129000D02*
X19451000Y-5279000D01*
X19526000Y-5129000D02*
X19526000Y-5279000D01*
X19451000Y-5204000D02*
X19601000Y-5204000D01*
X19451000Y-9413000D02*
X19601000Y-9563000D01*
X19601000Y-9413000D02*
X19451000Y-9563000D01*
X19526000Y-9413000D02*
X19526000Y-9563000D01*
X19451000Y-9488000D02*
X19601000Y-9488000D01*
X19768000Y-7763000D02*
X19918000Y-7913000D01*
X19918000Y-7763000D02*
X19768000Y-7913000D01*
X19843000Y-7763000D02*
X19843000Y-7913000D01*
X19768000Y-7838000D02*
X19918000Y-7838000D01*
X19927000Y-11317000D02*
X20077000Y-11467000D01*
X20077000Y-11317000D02*
X19927000Y-11467000D01*
X20002000Y-11317000D02*
X20002000Y-11467000D01*
X19927000Y-11392000D02*
X20077000Y-11392000D01*
X20244000Y-13475000D02*
X20394000Y-13625000D01*
X20394000Y-13475000D02*
X20244000Y-13625000D01*
X20319000Y-13475000D02*
X20319000Y-13625000D01*
X20244000Y-13550000D02*
X20394000Y-13550000D01*
X20403000Y-7509000D02*
X20553000Y-7659000D01*
X20553000Y-7509000D02*
X20403000Y-7659000D01*
X20478000Y-7509000D02*
X20478000Y-7659000D01*
X20403000Y-7584000D02*
X20553000Y-7584000D01*
X20720000Y-5383000D02*
X20870000Y-5533000D01*
X20870000Y-5383000D02*
X20720000Y-5533000D01*
X20795000Y-5383000D02*
X20795000Y-5533000D01*
X20720000Y-5458000D02*
X20870000Y-5458000D01*
X20720000Y-9667000D02*
X20870000Y-9817000D01*
X20870000Y-9667000D02*
X20720000Y-9817000D01*
X20795000Y-9667000D02*
X20795000Y-9817000D01*
X20720000Y-9742000D02*
X20870000Y-9742000D01*
X20879000Y-13221000D02*
X21029000Y-13371000D01*
X21029000Y-13221000D02*
X20879000Y-13371000D01*
X20954000Y-13221000D02*
X20954000Y-13371000D01*
X20879000Y-13296000D02*
X21029000Y-13296000D01*
X21196000Y-11571000D02*
X21346000Y-11721000D01*
X21346000Y-11571000D02*
X21196000Y-11721000D01*
X21271000Y-11571000D02*
X21271000Y-11721000D01*
X21196000Y-11646000D02*
X21346000Y-11646000D01*
X21355000Y-5129000D02*
X21505000Y-5279000D01*
X21505000Y-5129000D02*
X21355000Y-5279000D01*
X21430000Y-5129000D02*
X21430000Y-5279000D01*
X21355000Y-5204000D02*
X21505000Y-5204000D01*
X21355000Y-9413000D02*
X21505000Y-9563000D01*
X21505000Y-9413000D02*
X21355000Y-9563000D01*
X21430000Y-9413000D02*
X21430000Y-9563000D01*
X21355000Y-9488000D02*
X21505000Y-9488000D01*
X21672000Y-7763000D02*
X21822000Y-7913000D01*
X21822000Y-7763000D02*
X21672000Y-7913000D01*
X21747000Y-7763000D02*
X21747000Y-7913000D01*
X21672000Y-7838000D02*
X21822000Y-7838000D01*
X21831000Y-11317000D02*
X21981000Y-11467000D01*
X21981000Y-11317000D02*
X21831000Y-11467000D01*
X21906000Y-11317000D02*
X21906000Y-11467000D01*
X21831000Y-11392000D02*
X21981000Y-11392000D01*
X21916000Y-15379000D02*
X22066000Y-15529000D01*
X22066000Y-15379000D02*
X21916000Y-15529000D01*
X21991000Y-15379000D02*
X21991000Y-15529000D01*
X21916000Y-15454000D02*
X22066000Y-15454000D01*
X22148000Y-13475000D02*
X22298000Y-13625000D01*
X22298000Y-13475000D02*
X22148000Y-13625000D01*
X22223000Y-13475000D02*
X22223000Y-13625000D01*
X22148000Y-13550000D02*
X22298000Y-13550000D01*
X22307000Y-7509000D02*
X22457000Y-7659000D01*
X22457000Y-7509000D02*
X22307000Y-7659000D01*
X22382000Y-7509000D02*
X22382000Y-7659000D01*
X22307000Y-7584000D02*
X22457000Y-7584000D01*
X22551000Y-15125000D02*
X22701000Y-15275000D01*
X22701000Y-15125000D02*
X22551000Y-15275000D01*
X22626000Y-15125000D02*
X22626000Y-15275000D01*
X22551000Y-15200000D02*
X22701000Y-15200000D01*
X22624000Y-9667000D02*
X22774000Y-9817000D01*
X22774000Y-9667000D02*
X22624000Y-9817000D01*
X22699000Y-9667000D02*
X22699000Y-9817000D01*
X22624000Y-9742000D02*
X22774000Y-9742000D01*
X22783000Y-13221000D02*
X22933000Y-13371000D01*
X22933000Y-13221000D02*
X22783000Y-13371000D01*
X22858000Y-13221000D02*
X22858000Y-13371000D01*
X22783000Y-13296000D02*
X22933000Y-13296000D01*
X23100000Y-11571000D02*
X23250000Y-11721000D01*
X23250000Y-11571000D02*
X23100000Y-11721000D01*
X23175000Y-11571000D02*
X23175000Y-11721000D01*
X23100000Y-11646000D02*
X23250000Y-11646000D01*
X23259000Y-9413000D02*
X23409000Y-9563000D01*
X23409000Y-9413000D02*
X23259000Y-9563000D01*
X23334000Y-9413000D02*
X23334000Y-9563000D01*
X23259000Y-9488000D02*
X23409000Y-9488000D01*
X23576000Y-5383000D02*
X23726000Y-5533000D01*
X23726000Y-5383000D02*
X23576000Y-5533000D01*
X23651000Y-5383000D02*
X23651000Y-5533000D01*
X23576000Y-5458000D02*
X23726000Y-5458000D01*
X23576000Y-7763000D02*
X23726000Y-7913000D01*
X23726000Y-7763000D02*
X23576000Y-7913000D01*
X23651000Y-7763000D02*
X23651000Y-7913000D01*
X23576000Y-7838000D02*
X23726000Y-7838000D01*
X23735000Y-11317000D02*
X23885000Y-11467000D01*
X23885000Y-11317000D02*
X23735000Y-11467000D01*
X23810000Y-11317000D02*
X23810000Y-11467000D01*
X23735000Y-11392000D02*
X23885000Y-11392000D01*
X24052000Y-13475000D02*
X24202000Y-13625000D01*
X24202000Y-13475000D02*
X24052000Y-13625000D01*
X24127000Y-13475000D02*
X24127000Y-13625000D01*
X24052000Y-13550000D02*
X24202000Y-13550000D01*
X24211000Y-5129000D02*
X24361000Y-5279000D01*
X24361000Y-5129000D02*
X24211000Y-5279000D01*
X24286000Y-5129000D02*
X24286000Y-5279000D01*
X24211000Y-5204000D02*
X24361000Y-5204000D01*
X24211000Y-7509000D02*
X24361000Y-7659000D01*
X24361000Y-7509000D02*
X24211000Y-7659000D01*
X24286000Y-7509000D02*
X24286000Y-7659000D01*
X24211000Y-7584000D02*
X24361000Y-7584000D01*
X24296000Y-15379000D02*
X24446000Y-15529000D01*
X24446000Y-15379000D02*
X24296000Y-15529000D01*
X24371000Y-15379000D02*
X24371000Y-15529000D01*
X24296000Y-15454000D02*
X24446000Y-15454000D01*
X24528000Y-9667000D02*
X24678000Y-9817000D01*
X24678000Y-9667000D02*
X24528000Y-9817000D01*
X24603000Y-9667000D02*
X24603000Y-9817000D01*
X24528000Y-9742000D02*
X24678000Y-9742000D01*
X24687000Y-13221000D02*
X24837000Y-13371000D01*
X24837000Y-13221000D02*
X24687000Y-13371000D01*
X24762000Y-13221000D02*
X24762000Y-13371000D01*
X24687000Y-13296000D02*
X24837000Y-13296000D01*
X24931000Y-15125000D02*
X25081000Y-15275000D01*
X25081000Y-15125000D02*
X24931000Y-15275000D01*
X25006000Y-15125000D02*
X25006000Y-15275000D01*
X24931000Y-15200000D02*
X25081000Y-15200000D01*
X25004000Y-11571000D02*
X25154000Y-11721000D01*
X25154000Y-11571000D02*
X25004000Y-11721000D01*
X25079000Y-11571000D02*
X25079000Y-11721000D01*
X25004000Y-11646000D02*
X25154000Y-11646000D01*
X25163000Y-9413000D02*
X25313000Y-9563000D01*
X25313000Y-9413000D02*
X25163000Y-9563000D01*
X25238000Y-9413000D02*
X25238000Y-9563000D01*
X25163000Y-9488000D02*
X25313000Y-9488000D01*
X25480000Y-5383000D02*
X25630000Y-5533000D01*
X25630000Y-5383000D02*
X25480000Y-5533000D01*
X25555000Y-5383000D02*
X25555000Y-5533000D01*
X25480000Y-5458000D02*
X25630000Y-5458000D01*
X25480000Y-7763000D02*
X25630000Y-7913000D01*
X25630000Y-7763000D02*
X25480000Y-7913000D01*
X25555000Y-7763000D02*
X25555000Y-7913000D01*
X25480000Y-7838000D02*
X25630000Y-7838000D01*
X25639000Y-11317000D02*
X25789000Y-11467000D01*
X25789000Y-11317000D02*
X25639000Y-11467000D01*
X25714000Y-11317000D02*
X25714000Y-11467000D01*
X25639000Y-11392000D02*
X25789000Y-11392000D01*
X26115000Y-5129000D02*
X26265000Y-5279000D01*
X26265000Y-5129000D02*
X26115000Y-5279000D01*
X26190000Y-5129000D02*
X26190000Y-5279000D01*
X26115000Y-5204000D02*
X26265000Y-5204000D01*
X26115000Y-7509000D02*
X26265000Y-7659000D01*
X26265000Y-7509000D02*
X26115000Y-7659000D01*
X26190000Y-7509000D02*
X26190000Y-7659000D01*
X26115000Y-7584000D02*
X26265000Y-7584000D01*
X26432000Y-9667000D02*
X26582000Y-9817000D01*
X26582000Y-9667000D02*
X26432000Y-9817000D01*
X26507000Y-9667000D02*
X26507000Y-9817000D01*
X26432000Y-9742000D02*
X26582000Y-9742000D01*
X26677500Y-15380000D02*
X26827500Y-15530000D01*
X26827500Y-15380000D02*
X26677500Y-15530000D01*
X26752500Y-15380000D02*
X26752500Y-15530000D01*
X26677500Y-15455000D02*
X26827500Y-15455000D01*
X27067000Y-9413000D02*
X27217000Y-9563000D01*
X27217000Y-9413000D02*
X27067000Y-9563000D01*
X27142000Y-9413000D02*
X27142000Y-9563000D01*
X27067000Y-9488000D02*
X27217000Y-9488000D01*
X27312500Y-15126000D02*
X27462500Y-15276000D01*
X27462500Y-15126000D02*
X27312500Y-15276000D01*
X27387500Y-15126000D02*
X27387500Y-15276000D01*
X27312500Y-15201000D02*
X27462500Y-15201000D01*
X27384000Y-5383000D02*
X27534000Y-5533000D01*
X27534000Y-5383000D02*
X27384000Y-5533000D01*
X27459000Y-5383000D02*
X27459000Y-5533000D01*
X27384000Y-5458000D02*
X27534000Y-5458000D01*
X27628000Y-13475000D02*
X27778000Y-13625000D01*
X27778000Y-13475000D02*
X27628000Y-13625000D01*
X27703000Y-13475000D02*
X27703000Y-13625000D01*
X27628000Y-13550000D02*
X27778000Y-13550000D01*
X28019000Y-5129000D02*
X28169000Y-5279000D01*
X28169000Y-5129000D02*
X28019000Y-5279000D01*
X28094000Y-5129000D02*
X28094000Y-5279000D01*
X28019000Y-5204000D02*
X28169000Y-5204000D01*
X28100000Y-11571000D02*
X28250000Y-11721000D01*
X28250000Y-11571000D02*
X28100000Y-11721000D01*
X28175000Y-11571000D02*
X28175000Y-11721000D01*
X28100000Y-11646000D02*
X28250000Y-11646000D01*
X28263000Y-13221000D02*
X28413000Y-13371000D01*
X28413000Y-13221000D02*
X28263000Y-13371000D01*
X28338000Y-13221000D02*
X28338000Y-13371000D01*
X28263000Y-13296000D02*
X28413000Y-13296000D01*
X28336000Y-7763000D02*
X28486000Y-7913000D01*
X28486000Y-7763000D02*
X28336000Y-7913000D01*
X28411000Y-7763000D02*
X28411000Y-7913000D01*
X28336000Y-7838000D02*
X28486000Y-7838000D01*
X28735000Y-11317000D02*
X28885000Y-11467000D01*
X28885000Y-11317000D02*
X28735000Y-11467000D01*
X28810000Y-11317000D02*
X28810000Y-11467000D01*
X28735000Y-11392000D02*
X28885000Y-11392000D01*
X28812000Y-9667000D02*
X28962000Y-9817000D01*
X28962000Y-9667000D02*
X28812000Y-9817000D01*
X28887000Y-9667000D02*
X28887000Y-9817000D01*
X28812000Y-9742000D02*
X28962000Y-9742000D01*
X28971000Y-7509000D02*
X29121000Y-7659000D01*
X29121000Y-7509000D02*
X28971000Y-7659000D01*
X29046000Y-7509000D02*
X29046000Y-7659000D01*
X28971000Y-7584000D02*
X29121000Y-7584000D01*
X29056000Y-15390000D02*
X29206000Y-15540000D01*
X29206000Y-15390000D02*
X29056000Y-15540000D01*
X29131000Y-15390000D02*
X29131000Y-15540000D01*
X29056000Y-15465000D02*
X29206000Y-15465000D01*
X29288000Y-5383000D02*
X29438000Y-5533000D01*
X29438000Y-5383000D02*
X29288000Y-5533000D01*
X29363000Y-5383000D02*
X29363000Y-5533000D01*
X29288000Y-5458000D02*
X29438000Y-5458000D01*
X29447000Y-9413000D02*
X29597000Y-9563000D01*
X29597000Y-9413000D02*
X29447000Y-9563000D01*
X29522000Y-9413000D02*
X29522000Y-9563000D01*
X29447000Y-9488000D02*
X29597000Y-9488000D01*
X29691000Y-15136000D02*
X29841000Y-15286000D01*
X29841000Y-15136000D02*
X29691000Y-15286000D01*
X29766000Y-15136000D02*
X29766000Y-15286000D01*
X29691000Y-15211000D02*
X29841000Y-15211000D01*
X29923000Y-5129000D02*
X30073000Y-5279000D01*
X30073000Y-5129000D02*
X29923000Y-5279000D01*
X29998000Y-5129000D02*
X29998000Y-5279000D01*
X29923000Y-5204000D02*
X30073000Y-5204000D01*
X31912000Y-5382500D02*
X32062000Y-5532500D01*
X32062000Y-5382500D02*
X31912000Y-5532500D01*
X31987000Y-5382500D02*
X31987000Y-5532500D01*
X31912000Y-5457500D02*
X32062000Y-5457500D01*
X31912000Y-7762500D02*
X32062000Y-7912500D01*
X32062000Y-7762500D02*
X31912000Y-7912500D01*
X31987000Y-7762500D02*
X31987000Y-7912500D01*
X31912000Y-7837500D02*
X32062000Y-7837500D01*
X31912000Y-9666500D02*
X32062000Y-9816500D01*
X32062000Y-9666500D02*
X31912000Y-9816500D01*
X31987000Y-9666500D02*
X31987000Y-9816500D01*
X31912000Y-9741500D02*
X32062000Y-9741500D01*
X31912000Y-15378500D02*
X32062000Y-15528500D01*
X32062000Y-15378500D02*
X31912000Y-15528500D01*
X31987000Y-15378500D02*
X31987000Y-15528500D01*
X31912000Y-15453500D02*
X32062000Y-15453500D01*
X32547000Y-5128500D02*
X32697000Y-5278500D01*
X32697000Y-5128500D02*
X32547000Y-5278500D01*
X32622000Y-5128500D02*
X32622000Y-5278500D01*
X32547000Y-5203500D02*
X32697000Y-5203500D01*
X32547000Y-7508500D02*
X32697000Y-7658500D01*
X32697000Y-7508500D02*
X32547000Y-7658500D01*
X32622000Y-7508500D02*
X32622000Y-7658500D01*
X32547000Y-7583500D02*
X32697000Y-7583500D01*
X32547000Y-9412500D02*
X32697000Y-9562500D01*
X32697000Y-9412500D02*
X32547000Y-9562500D01*
X32622000Y-9412500D02*
X32622000Y-9562500D01*
X32547000Y-9487500D02*
X32697000Y-9487500D01*
X32547000Y-15124500D02*
X32697000Y-15274500D01*
X32697000Y-15124500D02*
X32547000Y-15274500D01*
X32622000Y-15124500D02*
X32622000Y-15274500D01*
X32547000Y-15199500D02*
X32697000Y-15199500D01*
X33816000Y-5382500D02*
X33966000Y-5532500D01*
X33966000Y-5382500D02*
X33816000Y-5532500D01*
X33891000Y-5382500D02*
X33891000Y-5532500D01*
X33816000Y-5457500D02*
X33966000Y-5457500D01*
X33816000Y-7762500D02*
X33966000Y-7912500D01*
X33966000Y-7762500D02*
X33816000Y-7912500D01*
X33891000Y-7762500D02*
X33891000Y-7912500D01*
X33816000Y-7837500D02*
X33966000Y-7837500D01*
X33816000Y-9666500D02*
X33966000Y-9816500D01*
X33966000Y-9666500D02*
X33816000Y-9816500D01*
X33891000Y-9666500D02*
X33891000Y-9816500D01*
X33816000Y-9741500D02*
X33966000Y-9741500D01*
X33816000Y-13474500D02*
X33966000Y-13624500D01*
X33966000Y-13474500D02*
X33816000Y-13624500D01*
X33891000Y-13474500D02*
X33891000Y-13624500D01*
X33816000Y-13549500D02*
X33966000Y-13549500D01*
X33816000Y-15378500D02*
X33966000Y-15528500D01*
X33966000Y-15378500D02*
X33816000Y-15528500D01*
X33891000Y-15378500D02*
X33891000Y-15528500D01*
X33816000Y-15453500D02*
X33966000Y-15453500D01*
X34451000Y-5128500D02*
X34601000Y-5278500D01*
X34601000Y-5128500D02*
X34451000Y-5278500D01*
X34526000Y-5128500D02*
X34526000Y-5278500D01*
X34451000Y-5203500D02*
X34601000Y-5203500D01*
X34451000Y-7508500D02*
X34601000Y-7658500D01*
X34601000Y-7508500D02*
X34451000Y-7658500D01*
X34526000Y-7508500D02*
X34526000Y-7658500D01*
X34451000Y-7583500D02*
X34601000Y-7583500D01*
X34451000Y-9412500D02*
X34601000Y-9562500D01*
X34601000Y-9412500D02*
X34451000Y-9562500D01*
X34526000Y-9412500D02*
X34526000Y-9562500D01*
X34451000Y-9487500D02*
X34601000Y-9487500D01*
X34451000Y-13220500D02*
X34601000Y-13370500D01*
X34601000Y-13220500D02*
X34451000Y-13370500D01*
X34526000Y-13220500D02*
X34526000Y-13370500D01*
X34451000Y-13295500D02*
X34601000Y-13295500D01*
X34451000Y-15124500D02*
X34601000Y-15274500D01*
X34601000Y-15124500D02*
X34451000Y-15274500D01*
X34526000Y-15124500D02*
X34526000Y-15274500D01*
X34451000Y-15199500D02*
X34601000Y-15199500D01*
X35720000Y-5382500D02*
X35870000Y-5532500D01*
X35870000Y-5382500D02*
X35720000Y-5532500D01*
X35795000Y-5382500D02*
X35795000Y-5532500D01*
X35720000Y-5457500D02*
X35870000Y-5457500D01*
X35720000Y-7762500D02*
X35870000Y-7912500D01*
X35870000Y-7762500D02*
X35720000Y-7912500D01*
X35795000Y-7762500D02*
X35795000Y-7912500D01*
X35720000Y-7837500D02*
X35870000Y-7837500D01*
X35720000Y-9666500D02*
X35870000Y-9816500D01*
X35870000Y-9666500D02*
X35720000Y-9816500D01*
X35795000Y-9666500D02*
X35795000Y-9816500D01*
X35720000Y-9741500D02*
X35870000Y-9741500D01*
X35720000Y-15378500D02*
X35870000Y-15528500D01*
X35870000Y-15378500D02*
X35720000Y-15528500D01*
X35795000Y-15378500D02*
X35795000Y-15528500D01*
X35720000Y-15453500D02*
X35870000Y-15453500D01*
X36355000Y-5128500D02*
X36505000Y-5278500D01*
X36505000Y-5128500D02*
X36355000Y-5278500D01*
X36430000Y-5128500D02*
X36430000Y-5278500D01*
X36355000Y-5203500D02*
X36505000Y-5203500D01*
X36355000Y-7508500D02*
X36505000Y-7658500D01*
X36505000Y-7508500D02*
X36355000Y-7658500D01*
X36430000Y-7508500D02*
X36430000Y-7658500D01*
X36355000Y-7583500D02*
X36505000Y-7583500D01*
X36355000Y-9412500D02*
X36505000Y-9562500D01*
X36505000Y-9412500D02*
X36355000Y-9562500D01*
X36430000Y-9412500D02*
X36430000Y-9562500D01*
X36355000Y-9487500D02*
X36505000Y-9487500D01*
X36355000Y-15124500D02*
X36505000Y-15274500D01*
X36505000Y-15124500D02*
X36355000Y-15274500D01*
X36430000Y-15124500D02*
X36430000Y-15274500D01*
X36355000Y-15199500D02*
X36505000Y-15199500D01*
X38544000Y-7762500D02*
X38694000Y-7912500D01*
X38694000Y-7762500D02*
X38544000Y-7912500D01*
X38619000Y-7762500D02*
X38619000Y-7912500D01*
X38544000Y-7837500D02*
X38694000Y-7837500D01*
X38544000Y-9666500D02*
X38694000Y-9816500D01*
X38694000Y-9666500D02*
X38544000Y-9816500D01*
X38619000Y-9666500D02*
X38619000Y-9816500D01*
X38544000Y-9741500D02*
X38694000Y-9741500D01*
X38544000Y-11570500D02*
X38694000Y-11720500D01*
X38694000Y-11570500D02*
X38544000Y-11720500D01*
X38619000Y-11570500D02*
X38619000Y-11720500D01*
X38544000Y-11645500D02*
X38694000Y-11645500D01*
X38544000Y-13474500D02*
X38694000Y-13624500D01*
X38694000Y-13474500D02*
X38544000Y-13624500D01*
X38619000Y-13474500D02*
X38619000Y-13624500D01*
X38544000Y-13549500D02*
X38694000Y-13549500D01*
X39179000Y-7508500D02*
X39329000Y-7658500D01*
X39329000Y-7508500D02*
X39179000Y-7658500D01*
X39254000Y-7508500D02*
X39254000Y-7658500D01*
X39179000Y-7583500D02*
X39329000Y-7583500D01*
X39179000Y-9412500D02*
X39329000Y-9562500D01*
X39329000Y-9412500D02*
X39179000Y-9562500D01*
X39254000Y-9412500D02*
X39254000Y-9562500D01*
X39179000Y-9487500D02*
X39329000Y-9487500D01*
X39179000Y-11316500D02*
X39329000Y-11466500D01*
X39329000Y-11316500D02*
X39179000Y-11466500D01*
X39254000Y-11316500D02*
X39254000Y-11466500D01*
X39179000Y-11391500D02*
X39329000Y-11391500D01*
X39179000Y-13220500D02*
X39329000Y-13370500D01*
X39329000Y-13220500D02*
X39179000Y-13370500D01*
X39254000Y-13220500D02*
X39254000Y-13370500D01*
X39179000Y-13295500D02*
X39329000Y-13295500D01*
X39496000Y-15378500D02*
X39646000Y-15528500D01*
X39646000Y-15378500D02*
X39496000Y-15528500D01*
X39571000Y-15378500D02*
X39571000Y-15528500D01*
X39496000Y-15453500D02*
X39646000Y-15453500D01*
X40131000Y-15124500D02*
X40281000Y-15274500D01*
X40281000Y-15124500D02*
X40131000Y-15274500D01*
X40206000Y-15124500D02*
X40206000Y-15274500D01*
X40131000Y-15199500D02*
X40281000Y-15199500D01*
X40448000Y-7762500D02*
X40598000Y-7912500D01*
X40598000Y-7762500D02*
X40448000Y-7912500D01*
X40523000Y-7762500D02*
X40523000Y-7912500D01*
X40448000Y-7837500D02*
X40598000Y-7837500D01*
X40448000Y-9666500D02*
X40598000Y-9816500D01*
X40598000Y-9666500D02*
X40448000Y-9816500D01*
X40523000Y-9666500D02*
X40523000Y-9816500D01*
X40448000Y-9741500D02*
X40598000Y-9741500D01*
X40448000Y-11570500D02*
X40598000Y-11720500D01*
X40598000Y-11570500D02*
X40448000Y-11720500D01*
X40523000Y-11570500D02*
X40523000Y-11720500D01*
X40448000Y-11645500D02*
X40598000Y-11645500D01*
X40448000Y-13474500D02*
X40598000Y-13624500D01*
X40598000Y-13474500D02*
X40448000Y-13624500D01*
X40523000Y-13474500D02*
X40523000Y-13624500D01*
X40448000Y-13549500D02*
X40598000Y-13549500D01*
X41083000Y-7508500D02*
X41233000Y-7658500D01*
X41233000Y-7508500D02*
X41083000Y-7658500D01*
X41158000Y-7508500D02*
X41158000Y-7658500D01*
X41083000Y-7583500D02*
X41233000Y-7583500D01*
X41083000Y-9412500D02*
X41233000Y-9562500D01*
X41233000Y-9412500D02*
X41083000Y-9562500D01*
X41158000Y-9412500D02*
X41158000Y-9562500D01*
X41083000Y-9487500D02*
X41233000Y-9487500D01*
X41083000Y-11316500D02*
X41233000Y-11466500D01*
X41233000Y-11316500D02*
X41083000Y-11466500D01*
X41158000Y-11316500D02*
X41158000Y-11466500D01*
X41083000Y-11391500D02*
X41233000Y-11391500D01*
X41083000Y-13220500D02*
X41233000Y-13370500D01*
X41233000Y-13220500D02*
X41083000Y-13370500D01*
X41158000Y-13220500D02*
X41158000Y-13370500D01*
X41083000Y-13295500D02*
X41233000Y-13295500D01*
X42352000Y-7762500D02*
X42502000Y-7912500D01*
X42502000Y-7762500D02*
X42352000Y-7912500D01*
X42427000Y-7762500D02*
X42427000Y-7912500D01*
X42352000Y-7837500D02*
X42502000Y-7837500D01*
X42352000Y-9666500D02*
X42502000Y-9816500D01*
X42502000Y-9666500D02*
X42352000Y-9816500D01*
X42427000Y-9666500D02*
X42427000Y-9816500D01*
X42352000Y-9741500D02*
X42502000Y-9741500D01*
X42352000Y-11570500D02*
X42502000Y-11720500D01*
X42502000Y-11570500D02*
X42352000Y-11720500D01*
X42427000Y-11570500D02*
X42427000Y-11720500D01*
X42352000Y-11645500D02*
X42502000Y-11645500D01*
X42352000Y-13474500D02*
X42502000Y-13624500D01*
X42502000Y-13474500D02*
X42352000Y-13624500D01*
X42427000Y-13474500D02*
X42427000Y-13624500D01*
X42352000Y-13549500D02*
X42502000Y-13549500D01*
X42352000Y-15378500D02*
X42502000Y-15528500D01*
X42502000Y-15378500D02*
X42352000Y-15528500D01*
X42427000Y-15378500D02*
X42427000Y-15528500D01*
X42352000Y-15453500D02*
X42502000Y-15453500D01*
X42987000Y-7508500D02*
X43137000Y-7658500D01*
X43137000Y-7508500D02*
X42987000Y-7658500D01*
X43062000Y-7508500D02*
X43062000Y-7658500D01*
X42987000Y-7583500D02*
X43137000Y-7583500D01*
X42987000Y-9412500D02*
X43137000Y-9562500D01*
X43137000Y-9412500D02*
X42987000Y-9562500D01*
X43062000Y-9412500D02*
X43062000Y-9562500D01*
X42987000Y-9487500D02*
X43137000Y-9487500D01*
X42987000Y-11316500D02*
X43137000Y-11466500D01*
X43137000Y-11316500D02*
X42987000Y-11466500D01*
X43062000Y-11316500D02*
X43062000Y-11466500D01*
X42987000Y-11391500D02*
X43137000Y-11391500D01*
X42987000Y-13220500D02*
X43137000Y-13370500D01*
X43137000Y-13220500D02*
X42987000Y-13370500D01*
X43062000Y-13220500D02*
X43062000Y-13370500D01*
X42987000Y-13295500D02*
X43137000Y-13295500D01*
X42987000Y-15124500D02*
X43137000Y-15274500D01*
X43137000Y-15124500D02*
X42987000Y-15274500D01*
X43062000Y-15124500D02*
X43062000Y-15274500D01*
X42987000Y-15199500D02*
X43137000Y-15199500D01*
X44256000Y-7762500D02*
X44406000Y-7912500D01*
X44406000Y-7762500D02*
X44256000Y-7912500D01*
X44331000Y-7762500D02*
X44331000Y-7912500D01*
X44256000Y-7837500D02*
X44406000Y-7837500D01*
X44256000Y-10618500D02*
X44406000Y-10768500D01*
X44406000Y-10618500D02*
X44256000Y-10768500D01*
X44331000Y-10618500D02*
X44331000Y-10768500D01*
X44256000Y-10693500D02*
X44406000Y-10693500D01*
X44256000Y-14426500D02*
X44406000Y-14576500D01*
X44406000Y-14426500D02*
X44256000Y-14576500D01*
X44331000Y-14426500D02*
X44331000Y-14576500D01*
X44256000Y-14501500D02*
X44406000Y-14501500D01*
X44891000Y-7508500D02*
X45041000Y-7658500D01*
X45041000Y-7508500D02*
X44891000Y-7658500D01*
X44966000Y-7508500D02*
X44966000Y-7658500D01*
X44891000Y-7583500D02*
X45041000Y-7583500D01*
X44891000Y-10364500D02*
X45041000Y-10514500D01*
X45041000Y-10364500D02*
X44891000Y-10514500D01*
X44966000Y-10364500D02*
X44966000Y-10514500D01*
X44891000Y-10439500D02*
X45041000Y-10439500D01*
X44891000Y-14172500D02*
X45041000Y-14322500D01*
X45041000Y-14172500D02*
X44891000Y-14322500D01*
X44966000Y-14172500D02*
X44966000Y-14322500D01*
X44891000Y-14247500D02*
X45041000Y-14247500D01*
D11*
X2388277Y-16986484D02*
X2388277Y-16786484D01*
X2388277Y-16786484D02*
X2435896Y-16786484D01*
X2435896Y-16786484D02*
X2464467Y-16796008D01*
X2464467Y-16796008D02*
X2483515Y-16815055D01*
X2483515Y-16815055D02*
X2493039Y-16834103D01*
X2493039Y-16834103D02*
X2502563Y-16872198D01*
X2502563Y-16872198D02*
X2502563Y-16900770D01*
X2502563Y-16900770D02*
X2493039Y-16938865D01*
X2493039Y-16938865D02*
X2483515Y-16957912D01*
X2483515Y-16957912D02*
X2464467Y-16976960D01*
X2464467Y-16976960D02*
X2435896Y-16986484D01*
X2435896Y-16986484D02*
X2388277Y-16986484D01*
X2588277Y-16986484D02*
X2588277Y-16853150D01*
X2588277Y-16891246D02*
X2597801Y-16872198D01*
X2597801Y-16872198D02*
X2607324Y-16862674D01*
X2607324Y-16862674D02*
X2626372Y-16853150D01*
X2626372Y-16853150D02*
X2645420Y-16853150D01*
X2712086Y-16986484D02*
X2712086Y-16853150D01*
X2712086Y-16786484D02*
X2702563Y-16796008D01*
X2702563Y-16796008D02*
X2712086Y-16805531D01*
X2712086Y-16805531D02*
X2721610Y-16796008D01*
X2721610Y-16796008D02*
X2712086Y-16786484D01*
X2712086Y-16786484D02*
X2712086Y-16805531D01*
X2835896Y-16986484D02*
X2816848Y-16976960D01*
X2816848Y-16976960D02*
X2807324Y-16957912D01*
X2807324Y-16957912D02*
X2807324Y-16786484D01*
X2940658Y-16986484D02*
X2921610Y-16976960D01*
X2921610Y-16976960D02*
X2912086Y-16957912D01*
X2912086Y-16957912D02*
X2912086Y-16786484D01*
X3169229Y-16986484D02*
X3169229Y-16786484D01*
X3169229Y-16786484D02*
X3235896Y-16929341D01*
X3235896Y-16929341D02*
X3302562Y-16786484D01*
X3302562Y-16786484D02*
X3302562Y-16986484D01*
X3483515Y-16986484D02*
X3483515Y-16881722D01*
X3483515Y-16881722D02*
X3473991Y-16862674D01*
X3473991Y-16862674D02*
X3454943Y-16853150D01*
X3454943Y-16853150D02*
X3416848Y-16853150D01*
X3416848Y-16853150D02*
X3397801Y-16862674D01*
X3483515Y-16976960D02*
X3464467Y-16986484D01*
X3464467Y-16986484D02*
X3416848Y-16986484D01*
X3416848Y-16986484D02*
X3397801Y-16976960D01*
X3397801Y-16976960D02*
X3388277Y-16957912D01*
X3388277Y-16957912D02*
X3388277Y-16938865D01*
X3388277Y-16938865D02*
X3397801Y-16919817D01*
X3397801Y-16919817D02*
X3416848Y-16910293D01*
X3416848Y-16910293D02*
X3464467Y-16910293D01*
X3464467Y-16910293D02*
X3483515Y-16900770D01*
X3578753Y-16853150D02*
X3578753Y-17053150D01*
X3578753Y-16862674D02*
X3597801Y-16853150D01*
X3597801Y-16853150D02*
X3635896Y-16853150D01*
X3635896Y-16853150D02*
X3654943Y-16862674D01*
X3654943Y-16862674D02*
X3664467Y-16872198D01*
X3664467Y-16872198D02*
X3673991Y-16891246D01*
X3673991Y-16891246D02*
X3673991Y-16948389D01*
X3673991Y-16948389D02*
X3664467Y-16967436D01*
X3664467Y-16967436D02*
X3654943Y-16976960D01*
X3654943Y-16976960D02*
X3635896Y-16986484D01*
X3635896Y-16986484D02*
X3597801Y-16986484D01*
X3597801Y-16986484D02*
X3578753Y-16976960D01*
X3759705Y-16967436D02*
X3769229Y-16976960D01*
X3769229Y-16976960D02*
X3759705Y-16986484D01*
X3759705Y-16986484D02*
X3750182Y-16976960D01*
X3750182Y-16976960D02*
X3759705Y-16967436D01*
X3759705Y-16967436D02*
X3759705Y-16986484D01*
X3759705Y-16862674D02*
X3769229Y-16872198D01*
X3769229Y-16872198D02*
X3759705Y-16881722D01*
X3759705Y-16881722D02*
X3750182Y-16872198D01*
X3750182Y-16872198D02*
X3759705Y-16862674D01*
X3759705Y-16862674D02*
X3759705Y-16881722D01*
D12*
X2097500Y-17300000D02*
X2127500Y-17330000D01*
X2127500Y-17300000D02*
X2097500Y-17330000D01*
D11*
X2426372Y-17206484D02*
X2445420Y-17206484D01*
X2445420Y-17206484D02*
X2464467Y-17216008D01*
X2464467Y-17216008D02*
X2473991Y-17225531D01*
X2473991Y-17225531D02*
X2483515Y-17244579D01*
X2483515Y-17244579D02*
X2493039Y-17282674D01*
X2493039Y-17282674D02*
X2493039Y-17330293D01*
X2493039Y-17330293D02*
X2483515Y-17368389D01*
X2483515Y-17368389D02*
X2473991Y-17387436D01*
X2473991Y-17387436D02*
X2464467Y-17396960D01*
X2464467Y-17396960D02*
X2445420Y-17406484D01*
X2445420Y-17406484D02*
X2426372Y-17406484D01*
X2426372Y-17406484D02*
X2407324Y-17396960D01*
X2407324Y-17396960D02*
X2397801Y-17387436D01*
X2397801Y-17387436D02*
X2388277Y-17368389D01*
X2388277Y-17368389D02*
X2378753Y-17330293D01*
X2378753Y-17330293D02*
X2378753Y-17282674D01*
X2378753Y-17282674D02*
X2388277Y-17244579D01*
X2388277Y-17244579D02*
X2397801Y-17225531D01*
X2397801Y-17225531D02*
X2407324Y-17216008D01*
X2407324Y-17216008D02*
X2426372Y-17206484D01*
X2578753Y-17387436D02*
X2588277Y-17396960D01*
X2588277Y-17396960D02*
X2578753Y-17406484D01*
X2578753Y-17406484D02*
X2569229Y-17396960D01*
X2569229Y-17396960D02*
X2578753Y-17387436D01*
X2578753Y-17387436D02*
X2578753Y-17406484D01*
X2654944Y-17206484D02*
X2778753Y-17206484D01*
X2778753Y-17206484D02*
X2712086Y-17282674D01*
X2712086Y-17282674D02*
X2740658Y-17282674D01*
X2740658Y-17282674D02*
X2759705Y-17292198D01*
X2759705Y-17292198D02*
X2769229Y-17301722D01*
X2769229Y-17301722D02*
X2778753Y-17320770D01*
X2778753Y-17320770D02*
X2778753Y-17368389D01*
X2778753Y-17368389D02*
X2769229Y-17387436D01*
X2769229Y-17387436D02*
X2759705Y-17396960D01*
X2759705Y-17396960D02*
X2740658Y-17406484D01*
X2740658Y-17406484D02*
X2683515Y-17406484D01*
X2683515Y-17406484D02*
X2664467Y-17396960D01*
X2664467Y-17396960D02*
X2654944Y-17387436D01*
X2902562Y-17206484D02*
X2921610Y-17206484D01*
X2921610Y-17206484D02*
X2940658Y-17216008D01*
X2940658Y-17216008D02*
X2950182Y-17225531D01*
X2950182Y-17225531D02*
X2959705Y-17244579D01*
X2959705Y-17244579D02*
X2969229Y-17282674D01*
X2969229Y-17282674D02*
X2969229Y-17330293D01*
X2969229Y-17330293D02*
X2959705Y-17368389D01*
X2959705Y-17368389D02*
X2950182Y-17387436D01*
X2950182Y-17387436D02*
X2940658Y-17396960D01*
X2940658Y-17396960D02*
X2921610Y-17406484D01*
X2921610Y-17406484D02*
X2902562Y-17406484D01*
X2902562Y-17406484D02*
X2883515Y-17396960D01*
X2883515Y-17396960D02*
X2873991Y-17387436D01*
X2873991Y-17387436D02*
X2864467Y-17368389D01*
X2864467Y-17368389D02*
X2854943Y-17330293D01*
X2854943Y-17330293D02*
X2854943Y-17282674D01*
X2854943Y-17282674D02*
X2864467Y-17244579D01*
X2864467Y-17244579D02*
X2873991Y-17225531D01*
X2873991Y-17225531D02*
X2883515Y-17216008D01*
X2883515Y-17216008D02*
X2902562Y-17206484D01*
X3093039Y-17206484D02*
X3112086Y-17206484D01*
X3112086Y-17206484D02*
X3131134Y-17216008D01*
X3131134Y-17216008D02*
X3140658Y-17225531D01*
X3140658Y-17225531D02*
X3150182Y-17244579D01*
X3150182Y-17244579D02*
X3159705Y-17282674D01*
X3159705Y-17282674D02*
X3159705Y-17330293D01*
X3159705Y-17330293D02*
X3150182Y-17368389D01*
X3150182Y-17368389D02*
X3140658Y-17387436D01*
X3140658Y-17387436D02*
X3131134Y-17396960D01*
X3131134Y-17396960D02*
X3112086Y-17406484D01*
X3112086Y-17406484D02*
X3093039Y-17406484D01*
X3093039Y-17406484D02*
X3073991Y-17396960D01*
X3073991Y-17396960D02*
X3064467Y-17387436D01*
X3064467Y-17387436D02*
X3054943Y-17368389D01*
X3054943Y-17368389D02*
X3045420Y-17330293D01*
X3045420Y-17330293D02*
X3045420Y-17282674D01*
X3045420Y-17282674D02*
X3054943Y-17244579D01*
X3054943Y-17244579D02*
X3064467Y-17225531D01*
X3064467Y-17225531D02*
X3073991Y-17216008D01*
X3073991Y-17216008D02*
X3093039Y-17206484D01*
X3245420Y-17406484D02*
X3245420Y-17273150D01*
X3245420Y-17292198D02*
X3254943Y-17282674D01*
X3254943Y-17282674D02*
X3273991Y-17273150D01*
X3273991Y-17273150D02*
X3302563Y-17273150D01*
X3302563Y-17273150D02*
X3321610Y-17282674D01*
X3321610Y-17282674D02*
X3331134Y-17301722D01*
X3331134Y-17301722D02*
X3331134Y-17406484D01*
X3331134Y-17301722D02*
X3340658Y-17282674D01*
X3340658Y-17282674D02*
X3359705Y-17273150D01*
X3359705Y-17273150D02*
X3388277Y-17273150D01*
X3388277Y-17273150D02*
X3407324Y-17282674D01*
X3407324Y-17282674D02*
X3416848Y-17301722D01*
X3416848Y-17301722D02*
X3416848Y-17406484D01*
X3512086Y-17406484D02*
X3512086Y-17273150D01*
X3512086Y-17292198D02*
X3521610Y-17282674D01*
X3521610Y-17282674D02*
X3540658Y-17273150D01*
X3540658Y-17273150D02*
X3569229Y-17273150D01*
X3569229Y-17273150D02*
X3588277Y-17282674D01*
X3588277Y-17282674D02*
X3597801Y-17301722D01*
X3597801Y-17301722D02*
X3597801Y-17406484D01*
X3597801Y-17301722D02*
X3607324Y-17282674D01*
X3607324Y-17282674D02*
X3626372Y-17273150D01*
X3626372Y-17273150D02*
X3654943Y-17273150D01*
X3654943Y-17273150D02*
X3673991Y-17282674D01*
X3673991Y-17282674D02*
X3683515Y-17301722D01*
X3683515Y-17301722D02*
X3683515Y-17406484D01*
X4073991Y-17196960D02*
X3902563Y-17454103D01*
X4331134Y-17206484D02*
X4350182Y-17206484D01*
X4350182Y-17206484D02*
X4369229Y-17216008D01*
X4369229Y-17216008D02*
X4378753Y-17225531D01*
X4378753Y-17225531D02*
X4388277Y-17244579D01*
X4388277Y-17244579D02*
X4397801Y-17282674D01*
X4397801Y-17282674D02*
X4397801Y-17330293D01*
X4397801Y-17330293D02*
X4388277Y-17368389D01*
X4388277Y-17368389D02*
X4378753Y-17387436D01*
X4378753Y-17387436D02*
X4369229Y-17396960D01*
X4369229Y-17396960D02*
X4350182Y-17406484D01*
X4350182Y-17406484D02*
X4331134Y-17406484D01*
X4331134Y-17406484D02*
X4312087Y-17396960D01*
X4312087Y-17396960D02*
X4302563Y-17387436D01*
X4302563Y-17387436D02*
X4293039Y-17368389D01*
X4293039Y-17368389D02*
X4283515Y-17330293D01*
X4283515Y-17330293D02*
X4283515Y-17282674D01*
X4283515Y-17282674D02*
X4293039Y-17244579D01*
X4293039Y-17244579D02*
X4302563Y-17225531D01*
X4302563Y-17225531D02*
X4312087Y-17216008D01*
X4312087Y-17216008D02*
X4331134Y-17206484D01*
X4483515Y-17387436D02*
X4493039Y-17396960D01*
X4493039Y-17396960D02*
X4483515Y-17406484D01*
X4483515Y-17406484D02*
X4473991Y-17396960D01*
X4473991Y-17396960D02*
X4483515Y-17387436D01*
X4483515Y-17387436D02*
X4483515Y-17406484D01*
X4616848Y-17206484D02*
X4635896Y-17206484D01*
X4635896Y-17206484D02*
X4654944Y-17216008D01*
X4654944Y-17216008D02*
X4664468Y-17225531D01*
X4664468Y-17225531D02*
X4673991Y-17244579D01*
X4673991Y-17244579D02*
X4683515Y-17282674D01*
X4683515Y-17282674D02*
X4683515Y-17330293D01*
X4683515Y-17330293D02*
X4673991Y-17368389D01*
X4673991Y-17368389D02*
X4664468Y-17387436D01*
X4664468Y-17387436D02*
X4654944Y-17396960D01*
X4654944Y-17396960D02*
X4635896Y-17406484D01*
X4635896Y-17406484D02*
X4616848Y-17406484D01*
X4616848Y-17406484D02*
X4597801Y-17396960D01*
X4597801Y-17396960D02*
X4588277Y-17387436D01*
X4588277Y-17387436D02*
X4578753Y-17368389D01*
X4578753Y-17368389D02*
X4569229Y-17330293D01*
X4569229Y-17330293D02*
X4569229Y-17282674D01*
X4569229Y-17282674D02*
X4578753Y-17244579D01*
X4578753Y-17244579D02*
X4588277Y-17225531D01*
X4588277Y-17225531D02*
X4597801Y-17216008D01*
X4597801Y-17216008D02*
X4616848Y-17206484D01*
X4873991Y-17406484D02*
X4759706Y-17406484D01*
X4816848Y-17406484D02*
X4816848Y-17206484D01*
X4816848Y-17206484D02*
X4797801Y-17235055D01*
X4797801Y-17235055D02*
X4778753Y-17254103D01*
X4778753Y-17254103D02*
X4759706Y-17263627D01*
X5064468Y-17406484D02*
X4950182Y-17406484D01*
X5007325Y-17406484D02*
X5007325Y-17206484D01*
X5007325Y-17206484D02*
X4988277Y-17235055D01*
X4988277Y-17235055D02*
X4969229Y-17254103D01*
X4969229Y-17254103D02*
X4950182Y-17263627D01*
X5178753Y-17292198D02*
X5159706Y-17282674D01*
X5159706Y-17282674D02*
X5150182Y-17273150D01*
X5150182Y-17273150D02*
X5140658Y-17254103D01*
X5140658Y-17254103D02*
X5140658Y-17244579D01*
X5140658Y-17244579D02*
X5150182Y-17225531D01*
X5150182Y-17225531D02*
X5159706Y-17216008D01*
X5159706Y-17216008D02*
X5178753Y-17206484D01*
X5178753Y-17206484D02*
X5216849Y-17206484D01*
X5216849Y-17206484D02*
X5235896Y-17216008D01*
X5235896Y-17216008D02*
X5245420Y-17225531D01*
X5245420Y-17225531D02*
X5254944Y-17244579D01*
X5254944Y-17244579D02*
X5254944Y-17254103D01*
X5254944Y-17254103D02*
X5245420Y-17273150D01*
X5245420Y-17273150D02*
X5235896Y-17282674D01*
X5235896Y-17282674D02*
X5216849Y-17292198D01*
X5216849Y-17292198D02*
X5178753Y-17292198D01*
X5178753Y-17292198D02*
X5159706Y-17301722D01*
X5159706Y-17301722D02*
X5150182Y-17311246D01*
X5150182Y-17311246D02*
X5140658Y-17330293D01*
X5140658Y-17330293D02*
X5140658Y-17368389D01*
X5140658Y-17368389D02*
X5150182Y-17387436D01*
X5150182Y-17387436D02*
X5159706Y-17396960D01*
X5159706Y-17396960D02*
X5178753Y-17406484D01*
X5178753Y-17406484D02*
X5216849Y-17406484D01*
X5216849Y-17406484D02*
X5235896Y-17396960D01*
X5235896Y-17396960D02*
X5245420Y-17387436D01*
X5245420Y-17387436D02*
X5254944Y-17368389D01*
X5254944Y-17368389D02*
X5254944Y-17330293D01*
X5254944Y-17330293D02*
X5245420Y-17311246D01*
X5245420Y-17311246D02*
X5235896Y-17301722D01*
X5235896Y-17301722D02*
X5216849Y-17292198D01*
X5331134Y-17206484D02*
X5331134Y-17244579D01*
X5407325Y-17206484D02*
X5407325Y-17244579D01*
X5702563Y-17482674D02*
X5693039Y-17473150D01*
X5693039Y-17473150D02*
X5673991Y-17444579D01*
X5673991Y-17444579D02*
X5664468Y-17425531D01*
X5664468Y-17425531D02*
X5654944Y-17396960D01*
X5654944Y-17396960D02*
X5645420Y-17349341D01*
X5645420Y-17349341D02*
X5645420Y-17311246D01*
X5645420Y-17311246D02*
X5654944Y-17263627D01*
X5654944Y-17263627D02*
X5664468Y-17235055D01*
X5664468Y-17235055D02*
X5673991Y-17216008D01*
X5673991Y-17216008D02*
X5693039Y-17187436D01*
X5693039Y-17187436D02*
X5702563Y-17177912D01*
X5883515Y-17406484D02*
X5769229Y-17406484D01*
X5826372Y-17406484D02*
X5826372Y-17206484D01*
X5826372Y-17206484D02*
X5807325Y-17235055D01*
X5807325Y-17235055D02*
X5788277Y-17254103D01*
X5788277Y-17254103D02*
X5769229Y-17263627D01*
X6054944Y-17273150D02*
X6054944Y-17406484D01*
X6007325Y-17196960D02*
X5959706Y-17339817D01*
X5959706Y-17339817D02*
X6083515Y-17339817D01*
X6312087Y-17406484D02*
X6312087Y-17206484D01*
X6397801Y-17406484D02*
X6397801Y-17301722D01*
X6397801Y-17301722D02*
X6388277Y-17282674D01*
X6388277Y-17282674D02*
X6369230Y-17273150D01*
X6369230Y-17273150D02*
X6340658Y-17273150D01*
X6340658Y-17273150D02*
X6321610Y-17282674D01*
X6321610Y-17282674D02*
X6312087Y-17292198D01*
X6521610Y-17406484D02*
X6502563Y-17396960D01*
X6502563Y-17396960D02*
X6493039Y-17387436D01*
X6493039Y-17387436D02*
X6483515Y-17368389D01*
X6483515Y-17368389D02*
X6483515Y-17311246D01*
X6483515Y-17311246D02*
X6493039Y-17292198D01*
X6493039Y-17292198D02*
X6502563Y-17282674D01*
X6502563Y-17282674D02*
X6521610Y-17273150D01*
X6521610Y-17273150D02*
X6550182Y-17273150D01*
X6550182Y-17273150D02*
X6569230Y-17282674D01*
X6569230Y-17282674D02*
X6578753Y-17292198D01*
X6578753Y-17292198D02*
X6588277Y-17311246D01*
X6588277Y-17311246D02*
X6588277Y-17368389D01*
X6588277Y-17368389D02*
X6578753Y-17387436D01*
X6578753Y-17387436D02*
X6569230Y-17396960D01*
X6569230Y-17396960D02*
X6550182Y-17406484D01*
X6550182Y-17406484D02*
X6521610Y-17406484D01*
X6702563Y-17406484D02*
X6683515Y-17396960D01*
X6683515Y-17396960D02*
X6673991Y-17377912D01*
X6673991Y-17377912D02*
X6673991Y-17206484D01*
X6854944Y-17396960D02*
X6835896Y-17406484D01*
X6835896Y-17406484D02*
X6797801Y-17406484D01*
X6797801Y-17406484D02*
X6778753Y-17396960D01*
X6778753Y-17396960D02*
X6769230Y-17377912D01*
X6769230Y-17377912D02*
X6769230Y-17301722D01*
X6769230Y-17301722D02*
X6778753Y-17282674D01*
X6778753Y-17282674D02*
X6797801Y-17273150D01*
X6797801Y-17273150D02*
X6835896Y-17273150D01*
X6835896Y-17273150D02*
X6854944Y-17282674D01*
X6854944Y-17282674D02*
X6864468Y-17301722D01*
X6864468Y-17301722D02*
X6864468Y-17320770D01*
X6864468Y-17320770D02*
X6769230Y-17339817D01*
X6940658Y-17396960D02*
X6959706Y-17406484D01*
X6959706Y-17406484D02*
X6997801Y-17406484D01*
X6997801Y-17406484D02*
X7016849Y-17396960D01*
X7016849Y-17396960D02*
X7026372Y-17377912D01*
X7026372Y-17377912D02*
X7026372Y-17368389D01*
X7026372Y-17368389D02*
X7016849Y-17349341D01*
X7016849Y-17349341D02*
X6997801Y-17339817D01*
X6997801Y-17339817D02*
X6969230Y-17339817D01*
X6969230Y-17339817D02*
X6950182Y-17330293D01*
X6950182Y-17330293D02*
X6940658Y-17311246D01*
X6940658Y-17311246D02*
X6940658Y-17301722D01*
X6940658Y-17301722D02*
X6950182Y-17282674D01*
X6950182Y-17282674D02*
X6969230Y-17273150D01*
X6969230Y-17273150D02*
X6997801Y-17273150D01*
X6997801Y-17273150D02*
X7016849Y-17282674D01*
X7093039Y-17482674D02*
X7102563Y-17473150D01*
X7102563Y-17473150D02*
X7121611Y-17444579D01*
X7121611Y-17444579D02*
X7131134Y-17425531D01*
X7131134Y-17425531D02*
X7140658Y-17396960D01*
X7140658Y-17396960D02*
X7150182Y-17349341D01*
X7150182Y-17349341D02*
X7150182Y-17311246D01*
X7150182Y-17311246D02*
X7140658Y-17263627D01*
X7140658Y-17263627D02*
X7131134Y-17235055D01*
X7131134Y-17235055D02*
X7121611Y-17216008D01*
X7121611Y-17216008D02*
X7102563Y-17187436D01*
X7102563Y-17187436D02*
X7093039Y-17177912D01*
D12*
X2127500Y-17579000D02*
G75*
G02*
X2057500Y-17579000I-35000J0D01*
G01*
X2057500Y-17579000D02*
G75*
G02*
X2127500Y-17579000I35000J0D01*
G01*
D11*
X2426372Y-17470484D02*
X2445420Y-17470484D01*
X2445420Y-17470484D02*
X2464467Y-17480008D01*
X2464467Y-17480008D02*
X2473991Y-17489531D01*
X2473991Y-17489531D02*
X2483515Y-17508579D01*
X2483515Y-17508579D02*
X2493039Y-17546674D01*
X2493039Y-17546674D02*
X2493039Y-17594293D01*
X2493039Y-17594293D02*
X2483515Y-17632389D01*
X2483515Y-17632389D02*
X2473991Y-17651436D01*
X2473991Y-17651436D02*
X2464467Y-17660960D01*
X2464467Y-17660960D02*
X2445420Y-17670484D01*
X2445420Y-17670484D02*
X2426372Y-17670484D01*
X2426372Y-17670484D02*
X2407324Y-17660960D01*
X2407324Y-17660960D02*
X2397801Y-17651436D01*
X2397801Y-17651436D02*
X2388277Y-17632389D01*
X2388277Y-17632389D02*
X2378753Y-17594293D01*
X2378753Y-17594293D02*
X2378753Y-17546674D01*
X2378753Y-17546674D02*
X2388277Y-17508579D01*
X2388277Y-17508579D02*
X2397801Y-17489531D01*
X2397801Y-17489531D02*
X2407324Y-17480008D01*
X2407324Y-17480008D02*
X2426372Y-17470484D01*
X2578753Y-17651436D02*
X2588277Y-17660960D01*
X2588277Y-17660960D02*
X2578753Y-17670484D01*
X2578753Y-17670484D02*
X2569229Y-17660960D01*
X2569229Y-17660960D02*
X2578753Y-17651436D01*
X2578753Y-17651436D02*
X2578753Y-17670484D01*
X2654944Y-17470484D02*
X2788277Y-17470484D01*
X2788277Y-17470484D02*
X2702563Y-17670484D01*
X2902562Y-17470484D02*
X2921610Y-17470484D01*
X2921610Y-17470484D02*
X2940658Y-17480008D01*
X2940658Y-17480008D02*
X2950182Y-17489531D01*
X2950182Y-17489531D02*
X2959705Y-17508579D01*
X2959705Y-17508579D02*
X2969229Y-17546674D01*
X2969229Y-17546674D02*
X2969229Y-17594293D01*
X2969229Y-17594293D02*
X2959705Y-17632389D01*
X2959705Y-17632389D02*
X2950182Y-17651436D01*
X2950182Y-17651436D02*
X2940658Y-17660960D01*
X2940658Y-17660960D02*
X2921610Y-17670484D01*
X2921610Y-17670484D02*
X2902562Y-17670484D01*
X2902562Y-17670484D02*
X2883515Y-17660960D01*
X2883515Y-17660960D02*
X2873991Y-17651436D01*
X2873991Y-17651436D02*
X2864467Y-17632389D01*
X2864467Y-17632389D02*
X2854943Y-17594293D01*
X2854943Y-17594293D02*
X2854943Y-17546674D01*
X2854943Y-17546674D02*
X2864467Y-17508579D01*
X2864467Y-17508579D02*
X2873991Y-17489531D01*
X2873991Y-17489531D02*
X2883515Y-17480008D01*
X2883515Y-17480008D02*
X2902562Y-17470484D01*
X3093039Y-17470484D02*
X3112086Y-17470484D01*
X3112086Y-17470484D02*
X3131134Y-17480008D01*
X3131134Y-17480008D02*
X3140658Y-17489531D01*
X3140658Y-17489531D02*
X3150182Y-17508579D01*
X3150182Y-17508579D02*
X3159705Y-17546674D01*
X3159705Y-17546674D02*
X3159705Y-17594293D01*
X3159705Y-17594293D02*
X3150182Y-17632389D01*
X3150182Y-17632389D02*
X3140658Y-17651436D01*
X3140658Y-17651436D02*
X3131134Y-17660960D01*
X3131134Y-17660960D02*
X3112086Y-17670484D01*
X3112086Y-17670484D02*
X3093039Y-17670484D01*
X3093039Y-17670484D02*
X3073991Y-17660960D01*
X3073991Y-17660960D02*
X3064467Y-17651436D01*
X3064467Y-17651436D02*
X3054943Y-17632389D01*
X3054943Y-17632389D02*
X3045420Y-17594293D01*
X3045420Y-17594293D02*
X3045420Y-17546674D01*
X3045420Y-17546674D02*
X3054943Y-17508579D01*
X3054943Y-17508579D02*
X3064467Y-17489531D01*
X3064467Y-17489531D02*
X3073991Y-17480008D01*
X3073991Y-17480008D02*
X3093039Y-17470484D01*
X3245420Y-17670484D02*
X3245420Y-17537150D01*
X3245420Y-17556198D02*
X3254943Y-17546674D01*
X3254943Y-17546674D02*
X3273991Y-17537150D01*
X3273991Y-17537150D02*
X3302563Y-17537150D01*
X3302563Y-17537150D02*
X3321610Y-17546674D01*
X3321610Y-17546674D02*
X3331134Y-17565722D01*
X3331134Y-17565722D02*
X3331134Y-17670484D01*
X3331134Y-17565722D02*
X3340658Y-17546674D01*
X3340658Y-17546674D02*
X3359705Y-17537150D01*
X3359705Y-17537150D02*
X3388277Y-17537150D01*
X3388277Y-17537150D02*
X3407324Y-17546674D01*
X3407324Y-17546674D02*
X3416848Y-17565722D01*
X3416848Y-17565722D02*
X3416848Y-17670484D01*
X3512086Y-17670484D02*
X3512086Y-17537150D01*
X3512086Y-17556198D02*
X3521610Y-17546674D01*
X3521610Y-17546674D02*
X3540658Y-17537150D01*
X3540658Y-17537150D02*
X3569229Y-17537150D01*
X3569229Y-17537150D02*
X3588277Y-17546674D01*
X3588277Y-17546674D02*
X3597801Y-17565722D01*
X3597801Y-17565722D02*
X3597801Y-17670484D01*
X3597801Y-17565722D02*
X3607324Y-17546674D01*
X3607324Y-17546674D02*
X3626372Y-17537150D01*
X3626372Y-17537150D02*
X3654943Y-17537150D01*
X3654943Y-17537150D02*
X3673991Y-17546674D01*
X3673991Y-17546674D02*
X3683515Y-17565722D01*
X3683515Y-17565722D02*
X3683515Y-17670484D01*
X4073991Y-17460960D02*
X3902563Y-17718103D01*
X4331134Y-17470484D02*
X4350182Y-17470484D01*
X4350182Y-17470484D02*
X4369229Y-17480008D01*
X4369229Y-17480008D02*
X4378753Y-17489531D01*
X4378753Y-17489531D02*
X4388277Y-17508579D01*
X4388277Y-17508579D02*
X4397801Y-17546674D01*
X4397801Y-17546674D02*
X4397801Y-17594293D01*
X4397801Y-17594293D02*
X4388277Y-17632389D01*
X4388277Y-17632389D02*
X4378753Y-17651436D01*
X4378753Y-17651436D02*
X4369229Y-17660960D01*
X4369229Y-17660960D02*
X4350182Y-17670484D01*
X4350182Y-17670484D02*
X4331134Y-17670484D01*
X4331134Y-17670484D02*
X4312087Y-17660960D01*
X4312087Y-17660960D02*
X4302563Y-17651436D01*
X4302563Y-17651436D02*
X4293039Y-17632389D01*
X4293039Y-17632389D02*
X4283515Y-17594293D01*
X4283515Y-17594293D02*
X4283515Y-17546674D01*
X4283515Y-17546674D02*
X4293039Y-17508579D01*
X4293039Y-17508579D02*
X4302563Y-17489531D01*
X4302563Y-17489531D02*
X4312087Y-17480008D01*
X4312087Y-17480008D02*
X4331134Y-17470484D01*
X4483515Y-17651436D02*
X4493039Y-17660960D01*
X4493039Y-17660960D02*
X4483515Y-17670484D01*
X4483515Y-17670484D02*
X4473991Y-17660960D01*
X4473991Y-17660960D02*
X4483515Y-17651436D01*
X4483515Y-17651436D02*
X4483515Y-17670484D01*
X4616848Y-17470484D02*
X4635896Y-17470484D01*
X4635896Y-17470484D02*
X4654944Y-17480008D01*
X4654944Y-17480008D02*
X4664468Y-17489531D01*
X4664468Y-17489531D02*
X4673991Y-17508579D01*
X4673991Y-17508579D02*
X4683515Y-17546674D01*
X4683515Y-17546674D02*
X4683515Y-17594293D01*
X4683515Y-17594293D02*
X4673991Y-17632389D01*
X4673991Y-17632389D02*
X4664468Y-17651436D01*
X4664468Y-17651436D02*
X4654944Y-17660960D01*
X4654944Y-17660960D02*
X4635896Y-17670484D01*
X4635896Y-17670484D02*
X4616848Y-17670484D01*
X4616848Y-17670484D02*
X4597801Y-17660960D01*
X4597801Y-17660960D02*
X4588277Y-17651436D01*
X4588277Y-17651436D02*
X4578753Y-17632389D01*
X4578753Y-17632389D02*
X4569229Y-17594293D01*
X4569229Y-17594293D02*
X4569229Y-17546674D01*
X4569229Y-17546674D02*
X4578753Y-17508579D01*
X4578753Y-17508579D02*
X4588277Y-17489531D01*
X4588277Y-17489531D02*
X4597801Y-17480008D01*
X4597801Y-17480008D02*
X4616848Y-17470484D01*
X4759706Y-17489531D02*
X4769229Y-17480008D01*
X4769229Y-17480008D02*
X4788277Y-17470484D01*
X4788277Y-17470484D02*
X4835896Y-17470484D01*
X4835896Y-17470484D02*
X4854944Y-17480008D01*
X4854944Y-17480008D02*
X4864468Y-17489531D01*
X4864468Y-17489531D02*
X4873991Y-17508579D01*
X4873991Y-17508579D02*
X4873991Y-17527627D01*
X4873991Y-17527627D02*
X4864468Y-17556198D01*
X4864468Y-17556198D02*
X4750182Y-17670484D01*
X4750182Y-17670484D02*
X4873991Y-17670484D01*
X4940658Y-17470484D02*
X5073991Y-17470484D01*
X5073991Y-17470484D02*
X4988277Y-17670484D01*
X5235896Y-17470484D02*
X5197801Y-17470484D01*
X5197801Y-17470484D02*
X5178753Y-17480008D01*
X5178753Y-17480008D02*
X5169229Y-17489531D01*
X5169229Y-17489531D02*
X5150182Y-17518103D01*
X5150182Y-17518103D02*
X5140658Y-17556198D01*
X5140658Y-17556198D02*
X5140658Y-17632389D01*
X5140658Y-17632389D02*
X5150182Y-17651436D01*
X5150182Y-17651436D02*
X5159706Y-17660960D01*
X5159706Y-17660960D02*
X5178753Y-17670484D01*
X5178753Y-17670484D02*
X5216849Y-17670484D01*
X5216849Y-17670484D02*
X5235896Y-17660960D01*
X5235896Y-17660960D02*
X5245420Y-17651436D01*
X5245420Y-17651436D02*
X5254944Y-17632389D01*
X5254944Y-17632389D02*
X5254944Y-17584770D01*
X5254944Y-17584770D02*
X5245420Y-17565722D01*
X5245420Y-17565722D02*
X5235896Y-17556198D01*
X5235896Y-17556198D02*
X5216849Y-17546674D01*
X5216849Y-17546674D02*
X5178753Y-17546674D01*
X5178753Y-17546674D02*
X5159706Y-17556198D01*
X5159706Y-17556198D02*
X5150182Y-17565722D01*
X5150182Y-17565722D02*
X5140658Y-17584770D01*
X5331134Y-17470484D02*
X5331134Y-17508579D01*
X5407325Y-17470484D02*
X5407325Y-17508579D01*
X5702563Y-17746674D02*
X5693039Y-17737150D01*
X5693039Y-17737150D02*
X5673991Y-17708579D01*
X5673991Y-17708579D02*
X5664468Y-17689531D01*
X5664468Y-17689531D02*
X5654944Y-17660960D01*
X5654944Y-17660960D02*
X5645420Y-17613341D01*
X5645420Y-17613341D02*
X5645420Y-17575246D01*
X5645420Y-17575246D02*
X5654944Y-17527627D01*
X5654944Y-17527627D02*
X5664468Y-17499055D01*
X5664468Y-17499055D02*
X5673991Y-17480008D01*
X5673991Y-17480008D02*
X5693039Y-17451436D01*
X5693039Y-17451436D02*
X5702563Y-17441912D01*
X5864468Y-17537150D02*
X5864468Y-17670484D01*
X5816848Y-17460960D02*
X5769229Y-17603817D01*
X5769229Y-17603817D02*
X5893039Y-17603817D01*
X6121610Y-17670484D02*
X6121610Y-17470484D01*
X6207325Y-17670484D02*
X6207325Y-17565722D01*
X6207325Y-17565722D02*
X6197801Y-17546674D01*
X6197801Y-17546674D02*
X6178753Y-17537150D01*
X6178753Y-17537150D02*
X6150182Y-17537150D01*
X6150182Y-17537150D02*
X6131134Y-17546674D01*
X6131134Y-17546674D02*
X6121610Y-17556198D01*
X6331134Y-17670484D02*
X6312087Y-17660960D01*
X6312087Y-17660960D02*
X6302563Y-17651436D01*
X6302563Y-17651436D02*
X6293039Y-17632389D01*
X6293039Y-17632389D02*
X6293039Y-17575246D01*
X6293039Y-17575246D02*
X6302563Y-17556198D01*
X6302563Y-17556198D02*
X6312087Y-17546674D01*
X6312087Y-17546674D02*
X6331134Y-17537150D01*
X6331134Y-17537150D02*
X6359706Y-17537150D01*
X6359706Y-17537150D02*
X6378753Y-17546674D01*
X6378753Y-17546674D02*
X6388277Y-17556198D01*
X6388277Y-17556198D02*
X6397801Y-17575246D01*
X6397801Y-17575246D02*
X6397801Y-17632389D01*
X6397801Y-17632389D02*
X6388277Y-17651436D01*
X6388277Y-17651436D02*
X6378753Y-17660960D01*
X6378753Y-17660960D02*
X6359706Y-17670484D01*
X6359706Y-17670484D02*
X6331134Y-17670484D01*
X6512087Y-17670484D02*
X6493039Y-17660960D01*
X6493039Y-17660960D02*
X6483515Y-17641912D01*
X6483515Y-17641912D02*
X6483515Y-17470484D01*
X6664468Y-17660960D02*
X6645420Y-17670484D01*
X6645420Y-17670484D02*
X6607325Y-17670484D01*
X6607325Y-17670484D02*
X6588277Y-17660960D01*
X6588277Y-17660960D02*
X6578753Y-17641912D01*
X6578753Y-17641912D02*
X6578753Y-17565722D01*
X6578753Y-17565722D02*
X6588277Y-17546674D01*
X6588277Y-17546674D02*
X6607325Y-17537150D01*
X6607325Y-17537150D02*
X6645420Y-17537150D01*
X6645420Y-17537150D02*
X6664468Y-17546674D01*
X6664468Y-17546674D02*
X6673991Y-17565722D01*
X6673991Y-17565722D02*
X6673991Y-17584770D01*
X6673991Y-17584770D02*
X6578753Y-17603817D01*
X6750182Y-17660960D02*
X6769230Y-17670484D01*
X6769230Y-17670484D02*
X6807325Y-17670484D01*
X6807325Y-17670484D02*
X6826372Y-17660960D01*
X6826372Y-17660960D02*
X6835896Y-17641912D01*
X6835896Y-17641912D02*
X6835896Y-17632389D01*
X6835896Y-17632389D02*
X6826372Y-17613341D01*
X6826372Y-17613341D02*
X6807325Y-17603817D01*
X6807325Y-17603817D02*
X6778753Y-17603817D01*
X6778753Y-17603817D02*
X6759706Y-17594293D01*
X6759706Y-17594293D02*
X6750182Y-17575246D01*
X6750182Y-17575246D02*
X6750182Y-17565722D01*
X6750182Y-17565722D02*
X6759706Y-17546674D01*
X6759706Y-17546674D02*
X6778753Y-17537150D01*
X6778753Y-17537150D02*
X6807325Y-17537150D01*
X6807325Y-17537150D02*
X6826372Y-17546674D01*
X6902563Y-17746674D02*
X6912087Y-17737150D01*
X6912087Y-17737150D02*
X6931134Y-17708579D01*
X6931134Y-17708579D02*
X6940658Y-17689531D01*
X6940658Y-17689531D02*
X6950182Y-17660960D01*
X6950182Y-17660960D02*
X6959706Y-17613341D01*
X6959706Y-17613341D02*
X6959706Y-17575246D01*
X6959706Y-17575246D02*
X6950182Y-17527627D01*
X6950182Y-17527627D02*
X6940658Y-17499055D01*
X6940658Y-17499055D02*
X6931134Y-17480008D01*
X6931134Y-17480008D02*
X6912087Y-17451436D01*
X6912087Y-17451436D02*
X6902563Y-17441912D01*
D12*
X2088500Y-17804000D02*
X2088500Y-17882000D01*
X2049500Y-17843000D02*
X2127500Y-17843000D01*
D11*
X2426372Y-17734484D02*
X2445420Y-17734484D01*
X2445420Y-17734484D02*
X2464467Y-17744008D01*
X2464467Y-17744008D02*
X2473991Y-17753531D01*
X2473991Y-17753531D02*
X2483515Y-17772579D01*
X2483515Y-17772579D02*
X2493039Y-17810674D01*
X2493039Y-17810674D02*
X2493039Y-17858293D01*
X2493039Y-17858293D02*
X2483515Y-17896389D01*
X2483515Y-17896389D02*
X2473991Y-17915436D01*
X2473991Y-17915436D02*
X2464467Y-17924960D01*
X2464467Y-17924960D02*
X2445420Y-17934484D01*
X2445420Y-17934484D02*
X2426372Y-17934484D01*
X2426372Y-17934484D02*
X2407324Y-17924960D01*
X2407324Y-17924960D02*
X2397801Y-17915436D01*
X2397801Y-17915436D02*
X2388277Y-17896389D01*
X2388277Y-17896389D02*
X2378753Y-17858293D01*
X2378753Y-17858293D02*
X2378753Y-17810674D01*
X2378753Y-17810674D02*
X2388277Y-17772579D01*
X2388277Y-17772579D02*
X2397801Y-17753531D01*
X2397801Y-17753531D02*
X2407324Y-17744008D01*
X2407324Y-17744008D02*
X2426372Y-17734484D01*
X2578753Y-17915436D02*
X2588277Y-17924960D01*
X2588277Y-17924960D02*
X2578753Y-17934484D01*
X2578753Y-17934484D02*
X2569229Y-17924960D01*
X2569229Y-17924960D02*
X2578753Y-17915436D01*
X2578753Y-17915436D02*
X2578753Y-17934484D01*
X2654944Y-17734484D02*
X2788277Y-17734484D01*
X2788277Y-17734484D02*
X2702563Y-17934484D01*
X2893039Y-17820198D02*
X2873991Y-17810674D01*
X2873991Y-17810674D02*
X2864467Y-17801150D01*
X2864467Y-17801150D02*
X2854943Y-17782103D01*
X2854943Y-17782103D02*
X2854943Y-17772579D01*
X2854943Y-17772579D02*
X2864467Y-17753531D01*
X2864467Y-17753531D02*
X2873991Y-17744008D01*
X2873991Y-17744008D02*
X2893039Y-17734484D01*
X2893039Y-17734484D02*
X2931134Y-17734484D01*
X2931134Y-17734484D02*
X2950182Y-17744008D01*
X2950182Y-17744008D02*
X2959705Y-17753531D01*
X2959705Y-17753531D02*
X2969229Y-17772579D01*
X2969229Y-17772579D02*
X2969229Y-17782103D01*
X2969229Y-17782103D02*
X2959705Y-17801150D01*
X2959705Y-17801150D02*
X2950182Y-17810674D01*
X2950182Y-17810674D02*
X2931134Y-17820198D01*
X2931134Y-17820198D02*
X2893039Y-17820198D01*
X2893039Y-17820198D02*
X2873991Y-17829722D01*
X2873991Y-17829722D02*
X2864467Y-17839246D01*
X2864467Y-17839246D02*
X2854943Y-17858293D01*
X2854943Y-17858293D02*
X2854943Y-17896389D01*
X2854943Y-17896389D02*
X2864467Y-17915436D01*
X2864467Y-17915436D02*
X2873991Y-17924960D01*
X2873991Y-17924960D02*
X2893039Y-17934484D01*
X2893039Y-17934484D02*
X2931134Y-17934484D01*
X2931134Y-17934484D02*
X2950182Y-17924960D01*
X2950182Y-17924960D02*
X2959705Y-17915436D01*
X2959705Y-17915436D02*
X2969229Y-17896389D01*
X2969229Y-17896389D02*
X2969229Y-17858293D01*
X2969229Y-17858293D02*
X2959705Y-17839246D01*
X2959705Y-17839246D02*
X2950182Y-17829722D01*
X2950182Y-17829722D02*
X2931134Y-17820198D01*
X3093039Y-17734484D02*
X3112086Y-17734484D01*
X3112086Y-17734484D02*
X3131134Y-17744008D01*
X3131134Y-17744008D02*
X3140658Y-17753531D01*
X3140658Y-17753531D02*
X3150182Y-17772579D01*
X3150182Y-17772579D02*
X3159705Y-17810674D01*
X3159705Y-17810674D02*
X3159705Y-17858293D01*
X3159705Y-17858293D02*
X3150182Y-17896389D01*
X3150182Y-17896389D02*
X3140658Y-17915436D01*
X3140658Y-17915436D02*
X3131134Y-17924960D01*
X3131134Y-17924960D02*
X3112086Y-17934484D01*
X3112086Y-17934484D02*
X3093039Y-17934484D01*
X3093039Y-17934484D02*
X3073991Y-17924960D01*
X3073991Y-17924960D02*
X3064467Y-17915436D01*
X3064467Y-17915436D02*
X3054943Y-17896389D01*
X3054943Y-17896389D02*
X3045420Y-17858293D01*
X3045420Y-17858293D02*
X3045420Y-17810674D01*
X3045420Y-17810674D02*
X3054943Y-17772579D01*
X3054943Y-17772579D02*
X3064467Y-17753531D01*
X3064467Y-17753531D02*
X3073991Y-17744008D01*
X3073991Y-17744008D02*
X3093039Y-17734484D01*
X3245420Y-17934484D02*
X3245420Y-17801150D01*
X3245420Y-17820198D02*
X3254943Y-17810674D01*
X3254943Y-17810674D02*
X3273991Y-17801150D01*
X3273991Y-17801150D02*
X3302563Y-17801150D01*
X3302563Y-17801150D02*
X3321610Y-17810674D01*
X3321610Y-17810674D02*
X3331134Y-17829722D01*
X3331134Y-17829722D02*
X3331134Y-17934484D01*
X3331134Y-17829722D02*
X3340658Y-17810674D01*
X3340658Y-17810674D02*
X3359705Y-17801150D01*
X3359705Y-17801150D02*
X3388277Y-17801150D01*
X3388277Y-17801150D02*
X3407324Y-17810674D01*
X3407324Y-17810674D02*
X3416848Y-17829722D01*
X3416848Y-17829722D02*
X3416848Y-17934484D01*
X3512086Y-17934484D02*
X3512086Y-17801150D01*
X3512086Y-17820198D02*
X3521610Y-17810674D01*
X3521610Y-17810674D02*
X3540658Y-17801150D01*
X3540658Y-17801150D02*
X3569229Y-17801150D01*
X3569229Y-17801150D02*
X3588277Y-17810674D01*
X3588277Y-17810674D02*
X3597801Y-17829722D01*
X3597801Y-17829722D02*
X3597801Y-17934484D01*
X3597801Y-17829722D02*
X3607324Y-17810674D01*
X3607324Y-17810674D02*
X3626372Y-17801150D01*
X3626372Y-17801150D02*
X3654943Y-17801150D01*
X3654943Y-17801150D02*
X3673991Y-17810674D01*
X3673991Y-17810674D02*
X3683515Y-17829722D01*
X3683515Y-17829722D02*
X3683515Y-17934484D01*
X4073991Y-17724960D02*
X3902563Y-17982103D01*
X4331134Y-17734484D02*
X4350182Y-17734484D01*
X4350182Y-17734484D02*
X4369229Y-17744008D01*
X4369229Y-17744008D02*
X4378753Y-17753531D01*
X4378753Y-17753531D02*
X4388277Y-17772579D01*
X4388277Y-17772579D02*
X4397801Y-17810674D01*
X4397801Y-17810674D02*
X4397801Y-17858293D01*
X4397801Y-17858293D02*
X4388277Y-17896389D01*
X4388277Y-17896389D02*
X4378753Y-17915436D01*
X4378753Y-17915436D02*
X4369229Y-17924960D01*
X4369229Y-17924960D02*
X4350182Y-17934484D01*
X4350182Y-17934484D02*
X4331134Y-17934484D01*
X4331134Y-17934484D02*
X4312087Y-17924960D01*
X4312087Y-17924960D02*
X4302563Y-17915436D01*
X4302563Y-17915436D02*
X4293039Y-17896389D01*
X4293039Y-17896389D02*
X4283515Y-17858293D01*
X4283515Y-17858293D02*
X4283515Y-17810674D01*
X4283515Y-17810674D02*
X4293039Y-17772579D01*
X4293039Y-17772579D02*
X4302563Y-17753531D01*
X4302563Y-17753531D02*
X4312087Y-17744008D01*
X4312087Y-17744008D02*
X4331134Y-17734484D01*
X4483515Y-17915436D02*
X4493039Y-17924960D01*
X4493039Y-17924960D02*
X4483515Y-17934484D01*
X4483515Y-17934484D02*
X4473991Y-17924960D01*
X4473991Y-17924960D02*
X4483515Y-17915436D01*
X4483515Y-17915436D02*
X4483515Y-17934484D01*
X4616848Y-17734484D02*
X4635896Y-17734484D01*
X4635896Y-17734484D02*
X4654944Y-17744008D01*
X4654944Y-17744008D02*
X4664468Y-17753531D01*
X4664468Y-17753531D02*
X4673991Y-17772579D01*
X4673991Y-17772579D02*
X4683515Y-17810674D01*
X4683515Y-17810674D02*
X4683515Y-17858293D01*
X4683515Y-17858293D02*
X4673991Y-17896389D01*
X4673991Y-17896389D02*
X4664468Y-17915436D01*
X4664468Y-17915436D02*
X4654944Y-17924960D01*
X4654944Y-17924960D02*
X4635896Y-17934484D01*
X4635896Y-17934484D02*
X4616848Y-17934484D01*
X4616848Y-17934484D02*
X4597801Y-17924960D01*
X4597801Y-17924960D02*
X4588277Y-17915436D01*
X4588277Y-17915436D02*
X4578753Y-17896389D01*
X4578753Y-17896389D02*
X4569229Y-17858293D01*
X4569229Y-17858293D02*
X4569229Y-17810674D01*
X4569229Y-17810674D02*
X4578753Y-17772579D01*
X4578753Y-17772579D02*
X4588277Y-17753531D01*
X4588277Y-17753531D02*
X4597801Y-17744008D01*
X4597801Y-17744008D02*
X4616848Y-17734484D01*
X4750182Y-17734484D02*
X4873991Y-17734484D01*
X4873991Y-17734484D02*
X4807325Y-17810674D01*
X4807325Y-17810674D02*
X4835896Y-17810674D01*
X4835896Y-17810674D02*
X4854944Y-17820198D01*
X4854944Y-17820198D02*
X4864468Y-17829722D01*
X4864468Y-17829722D02*
X4873991Y-17848770D01*
X4873991Y-17848770D02*
X4873991Y-17896389D01*
X4873991Y-17896389D02*
X4864468Y-17915436D01*
X4864468Y-17915436D02*
X4854944Y-17924960D01*
X4854944Y-17924960D02*
X4835896Y-17934484D01*
X4835896Y-17934484D02*
X4778753Y-17934484D01*
X4778753Y-17934484D02*
X4759706Y-17924960D01*
X4759706Y-17924960D02*
X4750182Y-17915436D01*
X4997801Y-17734484D02*
X5016849Y-17734484D01*
X5016849Y-17734484D02*
X5035896Y-17744008D01*
X5035896Y-17744008D02*
X5045420Y-17753531D01*
X5045420Y-17753531D02*
X5054944Y-17772579D01*
X5054944Y-17772579D02*
X5064468Y-17810674D01*
X5064468Y-17810674D02*
X5064468Y-17858293D01*
X5064468Y-17858293D02*
X5054944Y-17896389D01*
X5054944Y-17896389D02*
X5045420Y-17915436D01*
X5045420Y-17915436D02*
X5035896Y-17924960D01*
X5035896Y-17924960D02*
X5016849Y-17934484D01*
X5016849Y-17934484D02*
X4997801Y-17934484D01*
X4997801Y-17934484D02*
X4978753Y-17924960D01*
X4978753Y-17924960D02*
X4969229Y-17915436D01*
X4969229Y-17915436D02*
X4959706Y-17896389D01*
X4959706Y-17896389D02*
X4950182Y-17858293D01*
X4950182Y-17858293D02*
X4950182Y-17810674D01*
X4950182Y-17810674D02*
X4959706Y-17772579D01*
X4959706Y-17772579D02*
X4969229Y-17753531D01*
X4969229Y-17753531D02*
X4978753Y-17744008D01*
X4978753Y-17744008D02*
X4997801Y-17734484D01*
X5131134Y-17734484D02*
X5264468Y-17734484D01*
X5264468Y-17734484D02*
X5178753Y-17934484D01*
X5331134Y-17734484D02*
X5331134Y-17772579D01*
X5407325Y-17734484D02*
X5407325Y-17772579D01*
X5702563Y-18010674D02*
X5693039Y-18001150D01*
X5693039Y-18001150D02*
X5673991Y-17972579D01*
X5673991Y-17972579D02*
X5664468Y-17953531D01*
X5664468Y-17953531D02*
X5654944Y-17924960D01*
X5654944Y-17924960D02*
X5645420Y-17877341D01*
X5645420Y-17877341D02*
X5645420Y-17839246D01*
X5645420Y-17839246D02*
X5654944Y-17791627D01*
X5654944Y-17791627D02*
X5664468Y-17763055D01*
X5664468Y-17763055D02*
X5673991Y-17744008D01*
X5673991Y-17744008D02*
X5693039Y-17715436D01*
X5693039Y-17715436D02*
X5702563Y-17705912D01*
X5883515Y-17934484D02*
X5769229Y-17934484D01*
X5826372Y-17934484D02*
X5826372Y-17734484D01*
X5826372Y-17734484D02*
X5807325Y-17763055D01*
X5807325Y-17763055D02*
X5788277Y-17782103D01*
X5788277Y-17782103D02*
X5769229Y-17791627D01*
X6054944Y-17734484D02*
X6016848Y-17734484D01*
X6016848Y-17734484D02*
X5997801Y-17744008D01*
X5997801Y-17744008D02*
X5988277Y-17753531D01*
X5988277Y-17753531D02*
X5969229Y-17782103D01*
X5969229Y-17782103D02*
X5959706Y-17820198D01*
X5959706Y-17820198D02*
X5959706Y-17896389D01*
X5959706Y-17896389D02*
X5969229Y-17915436D01*
X5969229Y-17915436D02*
X5978753Y-17924960D01*
X5978753Y-17924960D02*
X5997801Y-17934484D01*
X5997801Y-17934484D02*
X6035896Y-17934484D01*
X6035896Y-17934484D02*
X6054944Y-17924960D01*
X6054944Y-17924960D02*
X6064468Y-17915436D01*
X6064468Y-17915436D02*
X6073991Y-17896389D01*
X6073991Y-17896389D02*
X6073991Y-17848770D01*
X6073991Y-17848770D02*
X6064468Y-17829722D01*
X6064468Y-17829722D02*
X6054944Y-17820198D01*
X6054944Y-17820198D02*
X6035896Y-17810674D01*
X6035896Y-17810674D02*
X5997801Y-17810674D01*
X5997801Y-17810674D02*
X5978753Y-17820198D01*
X5978753Y-17820198D02*
X5969229Y-17829722D01*
X5969229Y-17829722D02*
X5959706Y-17848770D01*
X6312087Y-17934484D02*
X6312087Y-17734484D01*
X6397801Y-17934484D02*
X6397801Y-17829722D01*
X6397801Y-17829722D02*
X6388277Y-17810674D01*
X6388277Y-17810674D02*
X6369230Y-17801150D01*
X6369230Y-17801150D02*
X6340658Y-17801150D01*
X6340658Y-17801150D02*
X6321610Y-17810674D01*
X6321610Y-17810674D02*
X6312087Y-17820198D01*
X6521610Y-17934484D02*
X6502563Y-17924960D01*
X6502563Y-17924960D02*
X6493039Y-17915436D01*
X6493039Y-17915436D02*
X6483515Y-17896389D01*
X6483515Y-17896389D02*
X6483515Y-17839246D01*
X6483515Y-17839246D02*
X6493039Y-17820198D01*
X6493039Y-17820198D02*
X6502563Y-17810674D01*
X6502563Y-17810674D02*
X6521610Y-17801150D01*
X6521610Y-17801150D02*
X6550182Y-17801150D01*
X6550182Y-17801150D02*
X6569230Y-17810674D01*
X6569230Y-17810674D02*
X6578753Y-17820198D01*
X6578753Y-17820198D02*
X6588277Y-17839246D01*
X6588277Y-17839246D02*
X6588277Y-17896389D01*
X6588277Y-17896389D02*
X6578753Y-17915436D01*
X6578753Y-17915436D02*
X6569230Y-17924960D01*
X6569230Y-17924960D02*
X6550182Y-17934484D01*
X6550182Y-17934484D02*
X6521610Y-17934484D01*
X6702563Y-17934484D02*
X6683515Y-17924960D01*
X6683515Y-17924960D02*
X6673991Y-17905912D01*
X6673991Y-17905912D02*
X6673991Y-17734484D01*
X6854944Y-17924960D02*
X6835896Y-17934484D01*
X6835896Y-17934484D02*
X6797801Y-17934484D01*
X6797801Y-17934484D02*
X6778753Y-17924960D01*
X6778753Y-17924960D02*
X6769230Y-17905912D01*
X6769230Y-17905912D02*
X6769230Y-17829722D01*
X6769230Y-17829722D02*
X6778753Y-17810674D01*
X6778753Y-17810674D02*
X6797801Y-17801150D01*
X6797801Y-17801150D02*
X6835896Y-17801150D01*
X6835896Y-17801150D02*
X6854944Y-17810674D01*
X6854944Y-17810674D02*
X6864468Y-17829722D01*
X6864468Y-17829722D02*
X6864468Y-17848770D01*
X6864468Y-17848770D02*
X6769230Y-17867817D01*
X6940658Y-17924960D02*
X6959706Y-17934484D01*
X6959706Y-17934484D02*
X6997801Y-17934484D01*
X6997801Y-17934484D02*
X7016849Y-17924960D01*
X7016849Y-17924960D02*
X7026372Y-17905912D01*
X7026372Y-17905912D02*
X7026372Y-17896389D01*
X7026372Y-17896389D02*
X7016849Y-17877341D01*
X7016849Y-17877341D02*
X6997801Y-17867817D01*
X6997801Y-17867817D02*
X6969230Y-17867817D01*
X6969230Y-17867817D02*
X6950182Y-17858293D01*
X6950182Y-17858293D02*
X6940658Y-17839246D01*
X6940658Y-17839246D02*
X6940658Y-17829722D01*
X6940658Y-17829722D02*
X6950182Y-17810674D01*
X6950182Y-17810674D02*
X6969230Y-17801150D01*
X6969230Y-17801150D02*
X6997801Y-17801150D01*
X6997801Y-17801150D02*
X7016849Y-17810674D01*
X7093039Y-18010674D02*
X7102563Y-18001150D01*
X7102563Y-18001150D02*
X7121611Y-17972579D01*
X7121611Y-17972579D02*
X7131134Y-17953531D01*
X7131134Y-17953531D02*
X7140658Y-17924960D01*
X7140658Y-17924960D02*
X7150182Y-17877341D01*
X7150182Y-17877341D02*
X7150182Y-17839246D01*
X7150182Y-17839246D02*
X7140658Y-17791627D01*
X7140658Y-17791627D02*
X7131134Y-17763055D01*
X7131134Y-17763055D02*
X7121611Y-17744008D01*
X7121611Y-17744008D02*
X7102563Y-17715436D01*
X7102563Y-17715436D02*
X7093039Y-17705912D01*
D12*
X2115785Y-18135285D02*
X2115785Y-18078716D01*
X2059215Y-18078716D01*
X2059215Y-18135285D01*
X2115785Y-18135285D01*
D11*
X2426372Y-17998484D02*
X2445420Y-17998484D01*
X2445420Y-17998484D02*
X2464467Y-18008008D01*
X2464467Y-18008008D02*
X2473991Y-18017531D01*
X2473991Y-18017531D02*
X2483515Y-18036579D01*
X2483515Y-18036579D02*
X2493039Y-18074674D01*
X2493039Y-18074674D02*
X2493039Y-18122293D01*
X2493039Y-18122293D02*
X2483515Y-18160389D01*
X2483515Y-18160389D02*
X2473991Y-18179436D01*
X2473991Y-18179436D02*
X2464467Y-18188960D01*
X2464467Y-18188960D02*
X2445420Y-18198484D01*
X2445420Y-18198484D02*
X2426372Y-18198484D01*
X2426372Y-18198484D02*
X2407324Y-18188960D01*
X2407324Y-18188960D02*
X2397801Y-18179436D01*
X2397801Y-18179436D02*
X2388277Y-18160389D01*
X2388277Y-18160389D02*
X2378753Y-18122293D01*
X2378753Y-18122293D02*
X2378753Y-18074674D01*
X2378753Y-18074674D02*
X2388277Y-18036579D01*
X2388277Y-18036579D02*
X2397801Y-18017531D01*
X2397801Y-18017531D02*
X2407324Y-18008008D01*
X2407324Y-18008008D02*
X2426372Y-17998484D01*
X2578753Y-18179436D02*
X2588277Y-18188960D01*
X2588277Y-18188960D02*
X2578753Y-18198484D01*
X2578753Y-18198484D02*
X2569229Y-18188960D01*
X2569229Y-18188960D02*
X2578753Y-18179436D01*
X2578753Y-18179436D02*
X2578753Y-18198484D01*
X2702563Y-18084198D02*
X2683515Y-18074674D01*
X2683515Y-18074674D02*
X2673991Y-18065150D01*
X2673991Y-18065150D02*
X2664467Y-18046103D01*
X2664467Y-18046103D02*
X2664467Y-18036579D01*
X2664467Y-18036579D02*
X2673991Y-18017531D01*
X2673991Y-18017531D02*
X2683515Y-18008008D01*
X2683515Y-18008008D02*
X2702563Y-17998484D01*
X2702563Y-17998484D02*
X2740658Y-17998484D01*
X2740658Y-17998484D02*
X2759705Y-18008008D01*
X2759705Y-18008008D02*
X2769229Y-18017531D01*
X2769229Y-18017531D02*
X2778753Y-18036579D01*
X2778753Y-18036579D02*
X2778753Y-18046103D01*
X2778753Y-18046103D02*
X2769229Y-18065150D01*
X2769229Y-18065150D02*
X2759705Y-18074674D01*
X2759705Y-18074674D02*
X2740658Y-18084198D01*
X2740658Y-18084198D02*
X2702563Y-18084198D01*
X2702563Y-18084198D02*
X2683515Y-18093722D01*
X2683515Y-18093722D02*
X2673991Y-18103246D01*
X2673991Y-18103246D02*
X2664467Y-18122293D01*
X2664467Y-18122293D02*
X2664467Y-18160389D01*
X2664467Y-18160389D02*
X2673991Y-18179436D01*
X2673991Y-18179436D02*
X2683515Y-18188960D01*
X2683515Y-18188960D02*
X2702563Y-18198484D01*
X2702563Y-18198484D02*
X2740658Y-18198484D01*
X2740658Y-18198484D02*
X2759705Y-18188960D01*
X2759705Y-18188960D02*
X2769229Y-18179436D01*
X2769229Y-18179436D02*
X2778753Y-18160389D01*
X2778753Y-18160389D02*
X2778753Y-18122293D01*
X2778753Y-18122293D02*
X2769229Y-18103246D01*
X2769229Y-18103246D02*
X2759705Y-18093722D01*
X2759705Y-18093722D02*
X2740658Y-18084198D01*
X2902562Y-17998484D02*
X2921610Y-17998484D01*
X2921610Y-17998484D02*
X2940658Y-18008008D01*
X2940658Y-18008008D02*
X2950182Y-18017531D01*
X2950182Y-18017531D02*
X2959705Y-18036579D01*
X2959705Y-18036579D02*
X2969229Y-18074674D01*
X2969229Y-18074674D02*
X2969229Y-18122293D01*
X2969229Y-18122293D02*
X2959705Y-18160389D01*
X2959705Y-18160389D02*
X2950182Y-18179436D01*
X2950182Y-18179436D02*
X2940658Y-18188960D01*
X2940658Y-18188960D02*
X2921610Y-18198484D01*
X2921610Y-18198484D02*
X2902562Y-18198484D01*
X2902562Y-18198484D02*
X2883515Y-18188960D01*
X2883515Y-18188960D02*
X2873991Y-18179436D01*
X2873991Y-18179436D02*
X2864467Y-18160389D01*
X2864467Y-18160389D02*
X2854943Y-18122293D01*
X2854943Y-18122293D02*
X2854943Y-18074674D01*
X2854943Y-18074674D02*
X2864467Y-18036579D01*
X2864467Y-18036579D02*
X2873991Y-18017531D01*
X2873991Y-18017531D02*
X2883515Y-18008008D01*
X2883515Y-18008008D02*
X2902562Y-17998484D01*
X3093039Y-17998484D02*
X3112086Y-17998484D01*
X3112086Y-17998484D02*
X3131134Y-18008008D01*
X3131134Y-18008008D02*
X3140658Y-18017531D01*
X3140658Y-18017531D02*
X3150182Y-18036579D01*
X3150182Y-18036579D02*
X3159705Y-18074674D01*
X3159705Y-18074674D02*
X3159705Y-18122293D01*
X3159705Y-18122293D02*
X3150182Y-18160389D01*
X3150182Y-18160389D02*
X3140658Y-18179436D01*
X3140658Y-18179436D02*
X3131134Y-18188960D01*
X3131134Y-18188960D02*
X3112086Y-18198484D01*
X3112086Y-18198484D02*
X3093039Y-18198484D01*
X3093039Y-18198484D02*
X3073991Y-18188960D01*
X3073991Y-18188960D02*
X3064467Y-18179436D01*
X3064467Y-18179436D02*
X3054943Y-18160389D01*
X3054943Y-18160389D02*
X3045420Y-18122293D01*
X3045420Y-18122293D02*
X3045420Y-18074674D01*
X3045420Y-18074674D02*
X3054943Y-18036579D01*
X3054943Y-18036579D02*
X3064467Y-18017531D01*
X3064467Y-18017531D02*
X3073991Y-18008008D01*
X3073991Y-18008008D02*
X3093039Y-17998484D01*
X3245420Y-18198484D02*
X3245420Y-18065150D01*
X3245420Y-18084198D02*
X3254943Y-18074674D01*
X3254943Y-18074674D02*
X3273991Y-18065150D01*
X3273991Y-18065150D02*
X3302563Y-18065150D01*
X3302563Y-18065150D02*
X3321610Y-18074674D01*
X3321610Y-18074674D02*
X3331134Y-18093722D01*
X3331134Y-18093722D02*
X3331134Y-18198484D01*
X3331134Y-18093722D02*
X3340658Y-18074674D01*
X3340658Y-18074674D02*
X3359705Y-18065150D01*
X3359705Y-18065150D02*
X3388277Y-18065150D01*
X3388277Y-18065150D02*
X3407324Y-18074674D01*
X3407324Y-18074674D02*
X3416848Y-18093722D01*
X3416848Y-18093722D02*
X3416848Y-18198484D01*
X3512086Y-18198484D02*
X3512086Y-18065150D01*
X3512086Y-18084198D02*
X3521610Y-18074674D01*
X3521610Y-18074674D02*
X3540658Y-18065150D01*
X3540658Y-18065150D02*
X3569229Y-18065150D01*
X3569229Y-18065150D02*
X3588277Y-18074674D01*
X3588277Y-18074674D02*
X3597801Y-18093722D01*
X3597801Y-18093722D02*
X3597801Y-18198484D01*
X3597801Y-18093722D02*
X3607324Y-18074674D01*
X3607324Y-18074674D02*
X3626372Y-18065150D01*
X3626372Y-18065150D02*
X3654943Y-18065150D01*
X3654943Y-18065150D02*
X3673991Y-18074674D01*
X3673991Y-18074674D02*
X3683515Y-18093722D01*
X3683515Y-18093722D02*
X3683515Y-18198484D01*
X4073991Y-17988960D02*
X3902563Y-18246103D01*
X4331134Y-17998484D02*
X4350182Y-17998484D01*
X4350182Y-17998484D02*
X4369229Y-18008008D01*
X4369229Y-18008008D02*
X4378753Y-18017531D01*
X4378753Y-18017531D02*
X4388277Y-18036579D01*
X4388277Y-18036579D02*
X4397801Y-18074674D01*
X4397801Y-18074674D02*
X4397801Y-18122293D01*
X4397801Y-18122293D02*
X4388277Y-18160389D01*
X4388277Y-18160389D02*
X4378753Y-18179436D01*
X4378753Y-18179436D02*
X4369229Y-18188960D01*
X4369229Y-18188960D02*
X4350182Y-18198484D01*
X4350182Y-18198484D02*
X4331134Y-18198484D01*
X4331134Y-18198484D02*
X4312087Y-18188960D01*
X4312087Y-18188960D02*
X4302563Y-18179436D01*
X4302563Y-18179436D02*
X4293039Y-18160389D01*
X4293039Y-18160389D02*
X4283515Y-18122293D01*
X4283515Y-18122293D02*
X4283515Y-18074674D01*
X4283515Y-18074674D02*
X4293039Y-18036579D01*
X4293039Y-18036579D02*
X4302563Y-18017531D01*
X4302563Y-18017531D02*
X4312087Y-18008008D01*
X4312087Y-18008008D02*
X4331134Y-17998484D01*
X4483515Y-18179436D02*
X4493039Y-18188960D01*
X4493039Y-18188960D02*
X4483515Y-18198484D01*
X4483515Y-18198484D02*
X4473991Y-18188960D01*
X4473991Y-18188960D02*
X4483515Y-18179436D01*
X4483515Y-18179436D02*
X4483515Y-18198484D01*
X4616848Y-17998484D02*
X4635896Y-17998484D01*
X4635896Y-17998484D02*
X4654944Y-18008008D01*
X4654944Y-18008008D02*
X4664468Y-18017531D01*
X4664468Y-18017531D02*
X4673991Y-18036579D01*
X4673991Y-18036579D02*
X4683515Y-18074674D01*
X4683515Y-18074674D02*
X4683515Y-18122293D01*
X4683515Y-18122293D02*
X4673991Y-18160389D01*
X4673991Y-18160389D02*
X4664468Y-18179436D01*
X4664468Y-18179436D02*
X4654944Y-18188960D01*
X4654944Y-18188960D02*
X4635896Y-18198484D01*
X4635896Y-18198484D02*
X4616848Y-18198484D01*
X4616848Y-18198484D02*
X4597801Y-18188960D01*
X4597801Y-18188960D02*
X4588277Y-18179436D01*
X4588277Y-18179436D02*
X4578753Y-18160389D01*
X4578753Y-18160389D02*
X4569229Y-18122293D01*
X4569229Y-18122293D02*
X4569229Y-18074674D01*
X4569229Y-18074674D02*
X4578753Y-18036579D01*
X4578753Y-18036579D02*
X4588277Y-18017531D01*
X4588277Y-18017531D02*
X4597801Y-18008008D01*
X4597801Y-18008008D02*
X4616848Y-17998484D01*
X4750182Y-17998484D02*
X4873991Y-17998484D01*
X4873991Y-17998484D02*
X4807325Y-18074674D01*
X4807325Y-18074674D02*
X4835896Y-18074674D01*
X4835896Y-18074674D02*
X4854944Y-18084198D01*
X4854944Y-18084198D02*
X4864468Y-18093722D01*
X4864468Y-18093722D02*
X4873991Y-18112770D01*
X4873991Y-18112770D02*
X4873991Y-18160389D01*
X4873991Y-18160389D02*
X4864468Y-18179436D01*
X4864468Y-18179436D02*
X4854944Y-18188960D01*
X4854944Y-18188960D02*
X4835896Y-18198484D01*
X4835896Y-18198484D02*
X4778753Y-18198484D01*
X4778753Y-18198484D02*
X4759706Y-18188960D01*
X4759706Y-18188960D02*
X4750182Y-18179436D01*
X5064468Y-18198484D02*
X4950182Y-18198484D01*
X5007325Y-18198484D02*
X5007325Y-17998484D01*
X5007325Y-17998484D02*
X4988277Y-18027055D01*
X4988277Y-18027055D02*
X4969229Y-18046103D01*
X4969229Y-18046103D02*
X4950182Y-18055627D01*
X5245420Y-17998484D02*
X5150182Y-17998484D01*
X5150182Y-17998484D02*
X5140658Y-18093722D01*
X5140658Y-18093722D02*
X5150182Y-18084198D01*
X5150182Y-18084198D02*
X5169229Y-18074674D01*
X5169229Y-18074674D02*
X5216849Y-18074674D01*
X5216849Y-18074674D02*
X5235896Y-18084198D01*
X5235896Y-18084198D02*
X5245420Y-18093722D01*
X5245420Y-18093722D02*
X5254944Y-18112770D01*
X5254944Y-18112770D02*
X5254944Y-18160389D01*
X5254944Y-18160389D02*
X5245420Y-18179436D01*
X5245420Y-18179436D02*
X5235896Y-18188960D01*
X5235896Y-18188960D02*
X5216849Y-18198484D01*
X5216849Y-18198484D02*
X5169229Y-18198484D01*
X5169229Y-18198484D02*
X5150182Y-18188960D01*
X5150182Y-18188960D02*
X5140658Y-18179436D01*
X5331134Y-17998484D02*
X5331134Y-18036579D01*
X5407325Y-17998484D02*
X5407325Y-18036579D01*
X5702563Y-18274674D02*
X5693039Y-18265150D01*
X5693039Y-18265150D02*
X5673991Y-18236579D01*
X5673991Y-18236579D02*
X5664468Y-18217531D01*
X5664468Y-18217531D02*
X5654944Y-18188960D01*
X5654944Y-18188960D02*
X5645420Y-18141341D01*
X5645420Y-18141341D02*
X5645420Y-18103246D01*
X5645420Y-18103246D02*
X5654944Y-18055627D01*
X5654944Y-18055627D02*
X5664468Y-18027055D01*
X5664468Y-18027055D02*
X5673991Y-18008008D01*
X5673991Y-18008008D02*
X5693039Y-17979436D01*
X5693039Y-17979436D02*
X5702563Y-17969912D01*
X5769229Y-18017531D02*
X5778753Y-18008008D01*
X5778753Y-18008008D02*
X5797801Y-17998484D01*
X5797801Y-17998484D02*
X5845420Y-17998484D01*
X5845420Y-17998484D02*
X5864468Y-18008008D01*
X5864468Y-18008008D02*
X5873991Y-18017531D01*
X5873991Y-18017531D02*
X5883515Y-18036579D01*
X5883515Y-18036579D02*
X5883515Y-18055627D01*
X5883515Y-18055627D02*
X5873991Y-18084198D01*
X5873991Y-18084198D02*
X5759706Y-18198484D01*
X5759706Y-18198484D02*
X5883515Y-18198484D01*
X6007325Y-17998484D02*
X6026372Y-17998484D01*
X6026372Y-17998484D02*
X6045420Y-18008008D01*
X6045420Y-18008008D02*
X6054944Y-18017531D01*
X6054944Y-18017531D02*
X6064468Y-18036579D01*
X6064468Y-18036579D02*
X6073991Y-18074674D01*
X6073991Y-18074674D02*
X6073991Y-18122293D01*
X6073991Y-18122293D02*
X6064468Y-18160389D01*
X6064468Y-18160389D02*
X6054944Y-18179436D01*
X6054944Y-18179436D02*
X6045420Y-18188960D01*
X6045420Y-18188960D02*
X6026372Y-18198484D01*
X6026372Y-18198484D02*
X6007325Y-18198484D01*
X6007325Y-18198484D02*
X5988277Y-18188960D01*
X5988277Y-18188960D02*
X5978753Y-18179436D01*
X5978753Y-18179436D02*
X5969229Y-18160389D01*
X5969229Y-18160389D02*
X5959706Y-18122293D01*
X5959706Y-18122293D02*
X5959706Y-18074674D01*
X5959706Y-18074674D02*
X5969229Y-18036579D01*
X5969229Y-18036579D02*
X5978753Y-18017531D01*
X5978753Y-18017531D02*
X5988277Y-18008008D01*
X5988277Y-18008008D02*
X6007325Y-17998484D01*
X6188277Y-18084198D02*
X6169229Y-18074674D01*
X6169229Y-18074674D02*
X6159706Y-18065150D01*
X6159706Y-18065150D02*
X6150182Y-18046103D01*
X6150182Y-18046103D02*
X6150182Y-18036579D01*
X6150182Y-18036579D02*
X6159706Y-18017531D01*
X6159706Y-18017531D02*
X6169229Y-18008008D01*
X6169229Y-18008008D02*
X6188277Y-17998484D01*
X6188277Y-17998484D02*
X6226372Y-17998484D01*
X6226372Y-17998484D02*
X6245420Y-18008008D01*
X6245420Y-18008008D02*
X6254944Y-18017531D01*
X6254944Y-18017531D02*
X6264468Y-18036579D01*
X6264468Y-18036579D02*
X6264468Y-18046103D01*
X6264468Y-18046103D02*
X6254944Y-18065150D01*
X6254944Y-18065150D02*
X6245420Y-18074674D01*
X6245420Y-18074674D02*
X6226372Y-18084198D01*
X6226372Y-18084198D02*
X6188277Y-18084198D01*
X6188277Y-18084198D02*
X6169229Y-18093722D01*
X6169229Y-18093722D02*
X6159706Y-18103246D01*
X6159706Y-18103246D02*
X6150182Y-18122293D01*
X6150182Y-18122293D02*
X6150182Y-18160389D01*
X6150182Y-18160389D02*
X6159706Y-18179436D01*
X6159706Y-18179436D02*
X6169229Y-18188960D01*
X6169229Y-18188960D02*
X6188277Y-18198484D01*
X6188277Y-18198484D02*
X6226372Y-18198484D01*
X6226372Y-18198484D02*
X6245420Y-18188960D01*
X6245420Y-18188960D02*
X6254944Y-18179436D01*
X6254944Y-18179436D02*
X6264468Y-18160389D01*
X6264468Y-18160389D02*
X6264468Y-18122293D01*
X6264468Y-18122293D02*
X6254944Y-18103246D01*
X6254944Y-18103246D02*
X6245420Y-18093722D01*
X6245420Y-18093722D02*
X6226372Y-18084198D01*
X6502563Y-18198484D02*
X6502563Y-17998484D01*
X6588277Y-18198484D02*
X6588277Y-18093722D01*
X6588277Y-18093722D02*
X6578753Y-18074674D01*
X6578753Y-18074674D02*
X6559706Y-18065150D01*
X6559706Y-18065150D02*
X6531134Y-18065150D01*
X6531134Y-18065150D02*
X6512087Y-18074674D01*
X6512087Y-18074674D02*
X6502563Y-18084198D01*
X6712087Y-18198484D02*
X6693039Y-18188960D01*
X6693039Y-18188960D02*
X6683515Y-18179436D01*
X6683515Y-18179436D02*
X6673991Y-18160389D01*
X6673991Y-18160389D02*
X6673991Y-18103246D01*
X6673991Y-18103246D02*
X6683515Y-18084198D01*
X6683515Y-18084198D02*
X6693039Y-18074674D01*
X6693039Y-18074674D02*
X6712087Y-18065150D01*
X6712087Y-18065150D02*
X6740658Y-18065150D01*
X6740658Y-18065150D02*
X6759706Y-18074674D01*
X6759706Y-18074674D02*
X6769230Y-18084198D01*
X6769230Y-18084198D02*
X6778753Y-18103246D01*
X6778753Y-18103246D02*
X6778753Y-18160389D01*
X6778753Y-18160389D02*
X6769230Y-18179436D01*
X6769230Y-18179436D02*
X6759706Y-18188960D01*
X6759706Y-18188960D02*
X6740658Y-18198484D01*
X6740658Y-18198484D02*
X6712087Y-18198484D01*
X6893039Y-18198484D02*
X6873991Y-18188960D01*
X6873991Y-18188960D02*
X6864468Y-18169912D01*
X6864468Y-18169912D02*
X6864468Y-17998484D01*
X7045420Y-18188960D02*
X7026372Y-18198484D01*
X7026372Y-18198484D02*
X6988277Y-18198484D01*
X6988277Y-18198484D02*
X6969230Y-18188960D01*
X6969230Y-18188960D02*
X6959706Y-18169912D01*
X6959706Y-18169912D02*
X6959706Y-18093722D01*
X6959706Y-18093722D02*
X6969230Y-18074674D01*
X6969230Y-18074674D02*
X6988277Y-18065150D01*
X6988277Y-18065150D02*
X7026372Y-18065150D01*
X7026372Y-18065150D02*
X7045420Y-18074674D01*
X7045420Y-18074674D02*
X7054944Y-18093722D01*
X7054944Y-18093722D02*
X7054944Y-18112770D01*
X7054944Y-18112770D02*
X6959706Y-18131817D01*
X7131134Y-18188960D02*
X7150182Y-18198484D01*
X7150182Y-18198484D02*
X7188277Y-18198484D01*
X7188277Y-18198484D02*
X7207325Y-18188960D01*
X7207325Y-18188960D02*
X7216849Y-18169912D01*
X7216849Y-18169912D02*
X7216849Y-18160389D01*
X7216849Y-18160389D02*
X7207325Y-18141341D01*
X7207325Y-18141341D02*
X7188277Y-18131817D01*
X7188277Y-18131817D02*
X7159706Y-18131817D01*
X7159706Y-18131817D02*
X7140658Y-18122293D01*
X7140658Y-18122293D02*
X7131134Y-18103246D01*
X7131134Y-18103246D02*
X7131134Y-18093722D01*
X7131134Y-18093722D02*
X7140658Y-18074674D01*
X7140658Y-18074674D02*
X7159706Y-18065150D01*
X7159706Y-18065150D02*
X7188277Y-18065150D01*
X7188277Y-18065150D02*
X7207325Y-18074674D01*
X7283515Y-18274674D02*
X7293039Y-18265150D01*
X7293039Y-18265150D02*
X7312087Y-18236579D01*
X7312087Y-18236579D02*
X7321611Y-18217531D01*
X7321611Y-18217531D02*
X7331134Y-18188960D01*
X7331134Y-18188960D02*
X7340658Y-18141341D01*
X7340658Y-18141341D02*
X7340658Y-18103246D01*
X7340658Y-18103246D02*
X7331134Y-18055627D01*
X7331134Y-18055627D02*
X7321611Y-18027055D01*
X7321611Y-18027055D02*
X7312087Y-18008008D01*
X7312087Y-18008008D02*
X7293039Y-17979436D01*
X7293039Y-17979436D02*
X7283515Y-17969912D01*
D12*
X2077500Y-18421000D02*
X2127500Y-18371000D01*
X2077500Y-18321000D01*
X2027500Y-18371000D01*
X2077500Y-18421000D01*
D11*
X2493039Y-18462484D02*
X2378753Y-18462484D01*
X2435896Y-18462484D02*
X2435896Y-18262484D01*
X2435896Y-18262484D02*
X2416848Y-18291055D01*
X2416848Y-18291055D02*
X2397801Y-18310103D01*
X2397801Y-18310103D02*
X2378753Y-18319627D01*
X2578753Y-18443436D02*
X2588277Y-18452960D01*
X2588277Y-18452960D02*
X2578753Y-18462484D01*
X2578753Y-18462484D02*
X2569229Y-18452960D01*
X2569229Y-18452960D02*
X2578753Y-18443436D01*
X2578753Y-18443436D02*
X2578753Y-18462484D01*
X2712086Y-18262484D02*
X2731134Y-18262484D01*
X2731134Y-18262484D02*
X2750182Y-18272008D01*
X2750182Y-18272008D02*
X2759705Y-18281531D01*
X2759705Y-18281531D02*
X2769229Y-18300579D01*
X2769229Y-18300579D02*
X2778753Y-18338674D01*
X2778753Y-18338674D02*
X2778753Y-18386293D01*
X2778753Y-18386293D02*
X2769229Y-18424389D01*
X2769229Y-18424389D02*
X2759705Y-18443436D01*
X2759705Y-18443436D02*
X2750182Y-18452960D01*
X2750182Y-18452960D02*
X2731134Y-18462484D01*
X2731134Y-18462484D02*
X2712086Y-18462484D01*
X2712086Y-18462484D02*
X2693039Y-18452960D01*
X2693039Y-18452960D02*
X2683515Y-18443436D01*
X2683515Y-18443436D02*
X2673991Y-18424389D01*
X2673991Y-18424389D02*
X2664467Y-18386293D01*
X2664467Y-18386293D02*
X2664467Y-18338674D01*
X2664467Y-18338674D02*
X2673991Y-18300579D01*
X2673991Y-18300579D02*
X2683515Y-18281531D01*
X2683515Y-18281531D02*
X2693039Y-18272008D01*
X2693039Y-18272008D02*
X2712086Y-18262484D01*
X2902562Y-18262484D02*
X2921610Y-18262484D01*
X2921610Y-18262484D02*
X2940658Y-18272008D01*
X2940658Y-18272008D02*
X2950182Y-18281531D01*
X2950182Y-18281531D02*
X2959705Y-18300579D01*
X2959705Y-18300579D02*
X2969229Y-18338674D01*
X2969229Y-18338674D02*
X2969229Y-18386293D01*
X2969229Y-18386293D02*
X2959705Y-18424389D01*
X2959705Y-18424389D02*
X2950182Y-18443436D01*
X2950182Y-18443436D02*
X2940658Y-18452960D01*
X2940658Y-18452960D02*
X2921610Y-18462484D01*
X2921610Y-18462484D02*
X2902562Y-18462484D01*
X2902562Y-18462484D02*
X2883515Y-18452960D01*
X2883515Y-18452960D02*
X2873991Y-18443436D01*
X2873991Y-18443436D02*
X2864467Y-18424389D01*
X2864467Y-18424389D02*
X2854943Y-18386293D01*
X2854943Y-18386293D02*
X2854943Y-18338674D01*
X2854943Y-18338674D02*
X2864467Y-18300579D01*
X2864467Y-18300579D02*
X2873991Y-18281531D01*
X2873991Y-18281531D02*
X2883515Y-18272008D01*
X2883515Y-18272008D02*
X2902562Y-18262484D01*
X3093039Y-18262484D02*
X3112086Y-18262484D01*
X3112086Y-18262484D02*
X3131134Y-18272008D01*
X3131134Y-18272008D02*
X3140658Y-18281531D01*
X3140658Y-18281531D02*
X3150182Y-18300579D01*
X3150182Y-18300579D02*
X3159705Y-18338674D01*
X3159705Y-18338674D02*
X3159705Y-18386293D01*
X3159705Y-18386293D02*
X3150182Y-18424389D01*
X3150182Y-18424389D02*
X3140658Y-18443436D01*
X3140658Y-18443436D02*
X3131134Y-18452960D01*
X3131134Y-18452960D02*
X3112086Y-18462484D01*
X3112086Y-18462484D02*
X3093039Y-18462484D01*
X3093039Y-18462484D02*
X3073991Y-18452960D01*
X3073991Y-18452960D02*
X3064467Y-18443436D01*
X3064467Y-18443436D02*
X3054943Y-18424389D01*
X3054943Y-18424389D02*
X3045420Y-18386293D01*
X3045420Y-18386293D02*
X3045420Y-18338674D01*
X3045420Y-18338674D02*
X3054943Y-18300579D01*
X3054943Y-18300579D02*
X3064467Y-18281531D01*
X3064467Y-18281531D02*
X3073991Y-18272008D01*
X3073991Y-18272008D02*
X3093039Y-18262484D01*
X3245420Y-18462484D02*
X3245420Y-18329150D01*
X3245420Y-18348198D02*
X3254943Y-18338674D01*
X3254943Y-18338674D02*
X3273991Y-18329150D01*
X3273991Y-18329150D02*
X3302563Y-18329150D01*
X3302563Y-18329150D02*
X3321610Y-18338674D01*
X3321610Y-18338674D02*
X3331134Y-18357722D01*
X3331134Y-18357722D02*
X3331134Y-18462484D01*
X3331134Y-18357722D02*
X3340658Y-18338674D01*
X3340658Y-18338674D02*
X3359705Y-18329150D01*
X3359705Y-18329150D02*
X3388277Y-18329150D01*
X3388277Y-18329150D02*
X3407324Y-18338674D01*
X3407324Y-18338674D02*
X3416848Y-18357722D01*
X3416848Y-18357722D02*
X3416848Y-18462484D01*
X3512086Y-18462484D02*
X3512086Y-18329150D01*
X3512086Y-18348198D02*
X3521610Y-18338674D01*
X3521610Y-18338674D02*
X3540658Y-18329150D01*
X3540658Y-18329150D02*
X3569229Y-18329150D01*
X3569229Y-18329150D02*
X3588277Y-18338674D01*
X3588277Y-18338674D02*
X3597801Y-18357722D01*
X3597801Y-18357722D02*
X3597801Y-18462484D01*
X3597801Y-18357722D02*
X3607324Y-18338674D01*
X3607324Y-18338674D02*
X3626372Y-18329150D01*
X3626372Y-18329150D02*
X3654943Y-18329150D01*
X3654943Y-18329150D02*
X3673991Y-18338674D01*
X3673991Y-18338674D02*
X3683515Y-18357722D01*
X3683515Y-18357722D02*
X3683515Y-18462484D01*
X4073991Y-18252960D02*
X3902563Y-18510103D01*
X4331134Y-18262484D02*
X4350182Y-18262484D01*
X4350182Y-18262484D02*
X4369229Y-18272008D01*
X4369229Y-18272008D02*
X4378753Y-18281531D01*
X4378753Y-18281531D02*
X4388277Y-18300579D01*
X4388277Y-18300579D02*
X4397801Y-18338674D01*
X4397801Y-18338674D02*
X4397801Y-18386293D01*
X4397801Y-18386293D02*
X4388277Y-18424389D01*
X4388277Y-18424389D02*
X4378753Y-18443436D01*
X4378753Y-18443436D02*
X4369229Y-18452960D01*
X4369229Y-18452960D02*
X4350182Y-18462484D01*
X4350182Y-18462484D02*
X4331134Y-18462484D01*
X4331134Y-18462484D02*
X4312087Y-18452960D01*
X4312087Y-18452960D02*
X4302563Y-18443436D01*
X4302563Y-18443436D02*
X4293039Y-18424389D01*
X4293039Y-18424389D02*
X4283515Y-18386293D01*
X4283515Y-18386293D02*
X4283515Y-18338674D01*
X4283515Y-18338674D02*
X4293039Y-18300579D01*
X4293039Y-18300579D02*
X4302563Y-18281531D01*
X4302563Y-18281531D02*
X4312087Y-18272008D01*
X4312087Y-18272008D02*
X4331134Y-18262484D01*
X4483515Y-18443436D02*
X4493039Y-18452960D01*
X4493039Y-18452960D02*
X4483515Y-18462484D01*
X4483515Y-18462484D02*
X4473991Y-18452960D01*
X4473991Y-18452960D02*
X4483515Y-18443436D01*
X4483515Y-18443436D02*
X4483515Y-18462484D01*
X4616848Y-18262484D02*
X4635896Y-18262484D01*
X4635896Y-18262484D02*
X4654944Y-18272008D01*
X4654944Y-18272008D02*
X4664468Y-18281531D01*
X4664468Y-18281531D02*
X4673991Y-18300579D01*
X4673991Y-18300579D02*
X4683515Y-18338674D01*
X4683515Y-18338674D02*
X4683515Y-18386293D01*
X4683515Y-18386293D02*
X4673991Y-18424389D01*
X4673991Y-18424389D02*
X4664468Y-18443436D01*
X4664468Y-18443436D02*
X4654944Y-18452960D01*
X4654944Y-18452960D02*
X4635896Y-18462484D01*
X4635896Y-18462484D02*
X4616848Y-18462484D01*
X4616848Y-18462484D02*
X4597801Y-18452960D01*
X4597801Y-18452960D02*
X4588277Y-18443436D01*
X4588277Y-18443436D02*
X4578753Y-18424389D01*
X4578753Y-18424389D02*
X4569229Y-18386293D01*
X4569229Y-18386293D02*
X4569229Y-18338674D01*
X4569229Y-18338674D02*
X4578753Y-18300579D01*
X4578753Y-18300579D02*
X4588277Y-18281531D01*
X4588277Y-18281531D02*
X4597801Y-18272008D01*
X4597801Y-18272008D02*
X4616848Y-18262484D01*
X4750182Y-18262484D02*
X4873991Y-18262484D01*
X4873991Y-18262484D02*
X4807325Y-18338674D01*
X4807325Y-18338674D02*
X4835896Y-18338674D01*
X4835896Y-18338674D02*
X4854944Y-18348198D01*
X4854944Y-18348198D02*
X4864468Y-18357722D01*
X4864468Y-18357722D02*
X4873991Y-18376770D01*
X4873991Y-18376770D02*
X4873991Y-18424389D01*
X4873991Y-18424389D02*
X4864468Y-18443436D01*
X4864468Y-18443436D02*
X4854944Y-18452960D01*
X4854944Y-18452960D02*
X4835896Y-18462484D01*
X4835896Y-18462484D02*
X4778753Y-18462484D01*
X4778753Y-18462484D02*
X4759706Y-18452960D01*
X4759706Y-18452960D02*
X4750182Y-18443436D01*
X4969229Y-18462484D02*
X5007325Y-18462484D01*
X5007325Y-18462484D02*
X5026372Y-18452960D01*
X5026372Y-18452960D02*
X5035896Y-18443436D01*
X5035896Y-18443436D02*
X5054944Y-18414865D01*
X5054944Y-18414865D02*
X5064468Y-18376770D01*
X5064468Y-18376770D02*
X5064468Y-18300579D01*
X5064468Y-18300579D02*
X5054944Y-18281531D01*
X5054944Y-18281531D02*
X5045420Y-18272008D01*
X5045420Y-18272008D02*
X5026372Y-18262484D01*
X5026372Y-18262484D02*
X4988277Y-18262484D01*
X4988277Y-18262484D02*
X4969229Y-18272008D01*
X4969229Y-18272008D02*
X4959706Y-18281531D01*
X4959706Y-18281531D02*
X4950182Y-18300579D01*
X4950182Y-18300579D02*
X4950182Y-18348198D01*
X4950182Y-18348198D02*
X4959706Y-18367246D01*
X4959706Y-18367246D02*
X4969229Y-18376770D01*
X4969229Y-18376770D02*
X4988277Y-18386293D01*
X4988277Y-18386293D02*
X5026372Y-18386293D01*
X5026372Y-18386293D02*
X5045420Y-18376770D01*
X5045420Y-18376770D02*
X5054944Y-18367246D01*
X5054944Y-18367246D02*
X5064468Y-18348198D01*
X5235896Y-18329150D02*
X5235896Y-18462484D01*
X5188277Y-18252960D02*
X5140658Y-18395817D01*
X5140658Y-18395817D02*
X5264468Y-18395817D01*
X5331134Y-18262484D02*
X5331134Y-18300579D01*
X5407325Y-18262484D02*
X5407325Y-18300579D01*
X5702563Y-18538674D02*
X5693039Y-18529150D01*
X5693039Y-18529150D02*
X5673991Y-18500579D01*
X5673991Y-18500579D02*
X5664468Y-18481531D01*
X5664468Y-18481531D02*
X5654944Y-18452960D01*
X5654944Y-18452960D02*
X5645420Y-18405341D01*
X5645420Y-18405341D02*
X5645420Y-18367246D01*
X5645420Y-18367246D02*
X5654944Y-18319627D01*
X5654944Y-18319627D02*
X5664468Y-18291055D01*
X5664468Y-18291055D02*
X5673991Y-18272008D01*
X5673991Y-18272008D02*
X5693039Y-18243436D01*
X5693039Y-18243436D02*
X5702563Y-18233912D01*
X5864468Y-18329150D02*
X5864468Y-18462484D01*
X5816848Y-18252960D02*
X5769229Y-18395817D01*
X5769229Y-18395817D02*
X5893039Y-18395817D01*
X6121610Y-18462484D02*
X6121610Y-18262484D01*
X6207325Y-18462484D02*
X6207325Y-18357722D01*
X6207325Y-18357722D02*
X6197801Y-18338674D01*
X6197801Y-18338674D02*
X6178753Y-18329150D01*
X6178753Y-18329150D02*
X6150182Y-18329150D01*
X6150182Y-18329150D02*
X6131134Y-18338674D01*
X6131134Y-18338674D02*
X6121610Y-18348198D01*
X6331134Y-18462484D02*
X6312087Y-18452960D01*
X6312087Y-18452960D02*
X6302563Y-18443436D01*
X6302563Y-18443436D02*
X6293039Y-18424389D01*
X6293039Y-18424389D02*
X6293039Y-18367246D01*
X6293039Y-18367246D02*
X6302563Y-18348198D01*
X6302563Y-18348198D02*
X6312087Y-18338674D01*
X6312087Y-18338674D02*
X6331134Y-18329150D01*
X6331134Y-18329150D02*
X6359706Y-18329150D01*
X6359706Y-18329150D02*
X6378753Y-18338674D01*
X6378753Y-18338674D02*
X6388277Y-18348198D01*
X6388277Y-18348198D02*
X6397801Y-18367246D01*
X6397801Y-18367246D02*
X6397801Y-18424389D01*
X6397801Y-18424389D02*
X6388277Y-18443436D01*
X6388277Y-18443436D02*
X6378753Y-18452960D01*
X6378753Y-18452960D02*
X6359706Y-18462484D01*
X6359706Y-18462484D02*
X6331134Y-18462484D01*
X6512087Y-18462484D02*
X6493039Y-18452960D01*
X6493039Y-18452960D02*
X6483515Y-18433912D01*
X6483515Y-18433912D02*
X6483515Y-18262484D01*
X6664468Y-18452960D02*
X6645420Y-18462484D01*
X6645420Y-18462484D02*
X6607325Y-18462484D01*
X6607325Y-18462484D02*
X6588277Y-18452960D01*
X6588277Y-18452960D02*
X6578753Y-18433912D01*
X6578753Y-18433912D02*
X6578753Y-18357722D01*
X6578753Y-18357722D02*
X6588277Y-18338674D01*
X6588277Y-18338674D02*
X6607325Y-18329150D01*
X6607325Y-18329150D02*
X6645420Y-18329150D01*
X6645420Y-18329150D02*
X6664468Y-18338674D01*
X6664468Y-18338674D02*
X6673991Y-18357722D01*
X6673991Y-18357722D02*
X6673991Y-18376770D01*
X6673991Y-18376770D02*
X6578753Y-18395817D01*
X6750182Y-18452960D02*
X6769230Y-18462484D01*
X6769230Y-18462484D02*
X6807325Y-18462484D01*
X6807325Y-18462484D02*
X6826372Y-18452960D01*
X6826372Y-18452960D02*
X6835896Y-18433912D01*
X6835896Y-18433912D02*
X6835896Y-18424389D01*
X6835896Y-18424389D02*
X6826372Y-18405341D01*
X6826372Y-18405341D02*
X6807325Y-18395817D01*
X6807325Y-18395817D02*
X6778753Y-18395817D01*
X6778753Y-18395817D02*
X6759706Y-18386293D01*
X6759706Y-18386293D02*
X6750182Y-18367246D01*
X6750182Y-18367246D02*
X6750182Y-18357722D01*
X6750182Y-18357722D02*
X6759706Y-18338674D01*
X6759706Y-18338674D02*
X6778753Y-18329150D01*
X6778753Y-18329150D02*
X6807325Y-18329150D01*
X6807325Y-18329150D02*
X6826372Y-18338674D01*
X6902563Y-18538674D02*
X6912087Y-18529150D01*
X6912087Y-18529150D02*
X6931134Y-18500579D01*
X6931134Y-18500579D02*
X6940658Y-18481531D01*
X6940658Y-18481531D02*
X6950182Y-18452960D01*
X6950182Y-18452960D02*
X6959706Y-18405341D01*
X6959706Y-18405341D02*
X6959706Y-18367246D01*
X6959706Y-18367246D02*
X6950182Y-18319627D01*
X6950182Y-18319627D02*
X6940658Y-18291055D01*
X6940658Y-18291055D02*
X6931134Y-18272008D01*
X6931134Y-18272008D02*
X6912087Y-18243436D01*
X6912087Y-18243436D02*
X6902563Y-18233912D01*
D13*
X2025500Y-18584000D02*
X2127500Y-18686000D01*
X2127500Y-18584000D02*
X2025500Y-18686000D01*
X2127500Y-18635000D02*
G75*
G02*
X2025500Y-18635000I-51000J0D01*
G01*
X2025500Y-18635000D02*
G75*
G02*
X2127500Y-18635000I51000J0D01*
G01*
D11*
X2493039Y-18726484D02*
X2378753Y-18726484D01*
X2435896Y-18726484D02*
X2435896Y-18526484D01*
X2435896Y-18526484D02*
X2416848Y-18555055D01*
X2416848Y-18555055D02*
X2397801Y-18574103D01*
X2397801Y-18574103D02*
X2378753Y-18583627D01*
X2578753Y-18707436D02*
X2588277Y-18716960D01*
X2588277Y-18716960D02*
X2578753Y-18726484D01*
X2578753Y-18726484D02*
X2569229Y-18716960D01*
X2569229Y-18716960D02*
X2578753Y-18707436D01*
X2578753Y-18707436D02*
X2578753Y-18726484D01*
X2712086Y-18526484D02*
X2731134Y-18526484D01*
X2731134Y-18526484D02*
X2750182Y-18536008D01*
X2750182Y-18536008D02*
X2759705Y-18545531D01*
X2759705Y-18545531D02*
X2769229Y-18564579D01*
X2769229Y-18564579D02*
X2778753Y-18602674D01*
X2778753Y-18602674D02*
X2778753Y-18650293D01*
X2778753Y-18650293D02*
X2769229Y-18688389D01*
X2769229Y-18688389D02*
X2759705Y-18707436D01*
X2759705Y-18707436D02*
X2750182Y-18716960D01*
X2750182Y-18716960D02*
X2731134Y-18726484D01*
X2731134Y-18726484D02*
X2712086Y-18726484D01*
X2712086Y-18726484D02*
X2693039Y-18716960D01*
X2693039Y-18716960D02*
X2683515Y-18707436D01*
X2683515Y-18707436D02*
X2673991Y-18688389D01*
X2673991Y-18688389D02*
X2664467Y-18650293D01*
X2664467Y-18650293D02*
X2664467Y-18602674D01*
X2664467Y-18602674D02*
X2673991Y-18564579D01*
X2673991Y-18564579D02*
X2683515Y-18545531D01*
X2683515Y-18545531D02*
X2693039Y-18536008D01*
X2693039Y-18536008D02*
X2712086Y-18526484D01*
X2854943Y-18545531D02*
X2864467Y-18536008D01*
X2864467Y-18536008D02*
X2883515Y-18526484D01*
X2883515Y-18526484D02*
X2931134Y-18526484D01*
X2931134Y-18526484D02*
X2950182Y-18536008D01*
X2950182Y-18536008D02*
X2959705Y-18545531D01*
X2959705Y-18545531D02*
X2969229Y-18564579D01*
X2969229Y-18564579D02*
X2969229Y-18583627D01*
X2969229Y-18583627D02*
X2959705Y-18612198D01*
X2959705Y-18612198D02*
X2845420Y-18726484D01*
X2845420Y-18726484D02*
X2969229Y-18726484D01*
X3093039Y-18526484D02*
X3112086Y-18526484D01*
X3112086Y-18526484D02*
X3131134Y-18536008D01*
X3131134Y-18536008D02*
X3140658Y-18545531D01*
X3140658Y-18545531D02*
X3150182Y-18564579D01*
X3150182Y-18564579D02*
X3159705Y-18602674D01*
X3159705Y-18602674D02*
X3159705Y-18650293D01*
X3159705Y-18650293D02*
X3150182Y-18688389D01*
X3150182Y-18688389D02*
X3140658Y-18707436D01*
X3140658Y-18707436D02*
X3131134Y-18716960D01*
X3131134Y-18716960D02*
X3112086Y-18726484D01*
X3112086Y-18726484D02*
X3093039Y-18726484D01*
X3093039Y-18726484D02*
X3073991Y-18716960D01*
X3073991Y-18716960D02*
X3064467Y-18707436D01*
X3064467Y-18707436D02*
X3054943Y-18688389D01*
X3054943Y-18688389D02*
X3045420Y-18650293D01*
X3045420Y-18650293D02*
X3045420Y-18602674D01*
X3045420Y-18602674D02*
X3054943Y-18564579D01*
X3054943Y-18564579D02*
X3064467Y-18545531D01*
X3064467Y-18545531D02*
X3073991Y-18536008D01*
X3073991Y-18536008D02*
X3093039Y-18526484D01*
X3245420Y-18726484D02*
X3245420Y-18593150D01*
X3245420Y-18612198D02*
X3254943Y-18602674D01*
X3254943Y-18602674D02*
X3273991Y-18593150D01*
X3273991Y-18593150D02*
X3302563Y-18593150D01*
X3302563Y-18593150D02*
X3321610Y-18602674D01*
X3321610Y-18602674D02*
X3331134Y-18621722D01*
X3331134Y-18621722D02*
X3331134Y-18726484D01*
X3331134Y-18621722D02*
X3340658Y-18602674D01*
X3340658Y-18602674D02*
X3359705Y-18593150D01*
X3359705Y-18593150D02*
X3388277Y-18593150D01*
X3388277Y-18593150D02*
X3407324Y-18602674D01*
X3407324Y-18602674D02*
X3416848Y-18621722D01*
X3416848Y-18621722D02*
X3416848Y-18726484D01*
X3512086Y-18726484D02*
X3512086Y-18593150D01*
X3512086Y-18612198D02*
X3521610Y-18602674D01*
X3521610Y-18602674D02*
X3540658Y-18593150D01*
X3540658Y-18593150D02*
X3569229Y-18593150D01*
X3569229Y-18593150D02*
X3588277Y-18602674D01*
X3588277Y-18602674D02*
X3597801Y-18621722D01*
X3597801Y-18621722D02*
X3597801Y-18726484D01*
X3597801Y-18621722D02*
X3607324Y-18602674D01*
X3607324Y-18602674D02*
X3626372Y-18593150D01*
X3626372Y-18593150D02*
X3654943Y-18593150D01*
X3654943Y-18593150D02*
X3673991Y-18602674D01*
X3673991Y-18602674D02*
X3683515Y-18621722D01*
X3683515Y-18621722D02*
X3683515Y-18726484D01*
X4073991Y-18516960D02*
X3902563Y-18774103D01*
X4331134Y-18526484D02*
X4350182Y-18526484D01*
X4350182Y-18526484D02*
X4369229Y-18536008D01*
X4369229Y-18536008D02*
X4378753Y-18545531D01*
X4378753Y-18545531D02*
X4388277Y-18564579D01*
X4388277Y-18564579D02*
X4397801Y-18602674D01*
X4397801Y-18602674D02*
X4397801Y-18650293D01*
X4397801Y-18650293D02*
X4388277Y-18688389D01*
X4388277Y-18688389D02*
X4378753Y-18707436D01*
X4378753Y-18707436D02*
X4369229Y-18716960D01*
X4369229Y-18716960D02*
X4350182Y-18726484D01*
X4350182Y-18726484D02*
X4331134Y-18726484D01*
X4331134Y-18726484D02*
X4312087Y-18716960D01*
X4312087Y-18716960D02*
X4302563Y-18707436D01*
X4302563Y-18707436D02*
X4293039Y-18688389D01*
X4293039Y-18688389D02*
X4283515Y-18650293D01*
X4283515Y-18650293D02*
X4283515Y-18602674D01*
X4283515Y-18602674D02*
X4293039Y-18564579D01*
X4293039Y-18564579D02*
X4302563Y-18545531D01*
X4302563Y-18545531D02*
X4312087Y-18536008D01*
X4312087Y-18536008D02*
X4331134Y-18526484D01*
X4483515Y-18707436D02*
X4493039Y-18716960D01*
X4493039Y-18716960D02*
X4483515Y-18726484D01*
X4483515Y-18726484D02*
X4473991Y-18716960D01*
X4473991Y-18716960D02*
X4483515Y-18707436D01*
X4483515Y-18707436D02*
X4483515Y-18726484D01*
X4616848Y-18526484D02*
X4635896Y-18526484D01*
X4635896Y-18526484D02*
X4654944Y-18536008D01*
X4654944Y-18536008D02*
X4664468Y-18545531D01*
X4664468Y-18545531D02*
X4673991Y-18564579D01*
X4673991Y-18564579D02*
X4683515Y-18602674D01*
X4683515Y-18602674D02*
X4683515Y-18650293D01*
X4683515Y-18650293D02*
X4673991Y-18688389D01*
X4673991Y-18688389D02*
X4664468Y-18707436D01*
X4664468Y-18707436D02*
X4654944Y-18716960D01*
X4654944Y-18716960D02*
X4635896Y-18726484D01*
X4635896Y-18726484D02*
X4616848Y-18726484D01*
X4616848Y-18726484D02*
X4597801Y-18716960D01*
X4597801Y-18716960D02*
X4588277Y-18707436D01*
X4588277Y-18707436D02*
X4578753Y-18688389D01*
X4578753Y-18688389D02*
X4569229Y-18650293D01*
X4569229Y-18650293D02*
X4569229Y-18602674D01*
X4569229Y-18602674D02*
X4578753Y-18564579D01*
X4578753Y-18564579D02*
X4588277Y-18545531D01*
X4588277Y-18545531D02*
X4597801Y-18536008D01*
X4597801Y-18536008D02*
X4616848Y-18526484D01*
X4854944Y-18593150D02*
X4854944Y-18726484D01*
X4807325Y-18516960D02*
X4759706Y-18659817D01*
X4759706Y-18659817D02*
X4883515Y-18659817D01*
X4997801Y-18526484D02*
X5016849Y-18526484D01*
X5016849Y-18526484D02*
X5035896Y-18536008D01*
X5035896Y-18536008D02*
X5045420Y-18545531D01*
X5045420Y-18545531D02*
X5054944Y-18564579D01*
X5054944Y-18564579D02*
X5064468Y-18602674D01*
X5064468Y-18602674D02*
X5064468Y-18650293D01*
X5064468Y-18650293D02*
X5054944Y-18688389D01*
X5054944Y-18688389D02*
X5045420Y-18707436D01*
X5045420Y-18707436D02*
X5035896Y-18716960D01*
X5035896Y-18716960D02*
X5016849Y-18726484D01*
X5016849Y-18726484D02*
X4997801Y-18726484D01*
X4997801Y-18726484D02*
X4978753Y-18716960D01*
X4978753Y-18716960D02*
X4969229Y-18707436D01*
X4969229Y-18707436D02*
X4959706Y-18688389D01*
X4959706Y-18688389D02*
X4950182Y-18650293D01*
X4950182Y-18650293D02*
X4950182Y-18602674D01*
X4950182Y-18602674D02*
X4959706Y-18564579D01*
X4959706Y-18564579D02*
X4969229Y-18545531D01*
X4969229Y-18545531D02*
X4978753Y-18536008D01*
X4978753Y-18536008D02*
X4997801Y-18526484D01*
X5140658Y-18545531D02*
X5150182Y-18536008D01*
X5150182Y-18536008D02*
X5169229Y-18526484D01*
X5169229Y-18526484D02*
X5216849Y-18526484D01*
X5216849Y-18526484D02*
X5235896Y-18536008D01*
X5235896Y-18536008D02*
X5245420Y-18545531D01*
X5245420Y-18545531D02*
X5254944Y-18564579D01*
X5254944Y-18564579D02*
X5254944Y-18583627D01*
X5254944Y-18583627D02*
X5245420Y-18612198D01*
X5245420Y-18612198D02*
X5131134Y-18726484D01*
X5131134Y-18726484D02*
X5254944Y-18726484D01*
X5331134Y-18526484D02*
X5331134Y-18564579D01*
X5407325Y-18526484D02*
X5407325Y-18564579D01*
X5702563Y-18802674D02*
X5693039Y-18793150D01*
X5693039Y-18793150D02*
X5673991Y-18764579D01*
X5673991Y-18764579D02*
X5664468Y-18745531D01*
X5664468Y-18745531D02*
X5654944Y-18716960D01*
X5654944Y-18716960D02*
X5645420Y-18669341D01*
X5645420Y-18669341D02*
X5645420Y-18631246D01*
X5645420Y-18631246D02*
X5654944Y-18583627D01*
X5654944Y-18583627D02*
X5664468Y-18555055D01*
X5664468Y-18555055D02*
X5673991Y-18536008D01*
X5673991Y-18536008D02*
X5693039Y-18507436D01*
X5693039Y-18507436D02*
X5702563Y-18497912D01*
X5864468Y-18593150D02*
X5864468Y-18726484D01*
X5816848Y-18516960D02*
X5769229Y-18659817D01*
X5769229Y-18659817D02*
X5893039Y-18659817D01*
X5950182Y-18526484D02*
X6073991Y-18526484D01*
X6073991Y-18526484D02*
X6007325Y-18602674D01*
X6007325Y-18602674D02*
X6035896Y-18602674D01*
X6035896Y-18602674D02*
X6054944Y-18612198D01*
X6054944Y-18612198D02*
X6064468Y-18621722D01*
X6064468Y-18621722D02*
X6073991Y-18640770D01*
X6073991Y-18640770D02*
X6073991Y-18688389D01*
X6073991Y-18688389D02*
X6064468Y-18707436D01*
X6064468Y-18707436D02*
X6054944Y-18716960D01*
X6054944Y-18716960D02*
X6035896Y-18726484D01*
X6035896Y-18726484D02*
X5978753Y-18726484D01*
X5978753Y-18726484D02*
X5959706Y-18716960D01*
X5959706Y-18716960D02*
X5950182Y-18707436D01*
X6312087Y-18726484D02*
X6312087Y-18526484D01*
X6397801Y-18726484D02*
X6397801Y-18621722D01*
X6397801Y-18621722D02*
X6388277Y-18602674D01*
X6388277Y-18602674D02*
X6369230Y-18593150D01*
X6369230Y-18593150D02*
X6340658Y-18593150D01*
X6340658Y-18593150D02*
X6321610Y-18602674D01*
X6321610Y-18602674D02*
X6312087Y-18612198D01*
X6521610Y-18726484D02*
X6502563Y-18716960D01*
X6502563Y-18716960D02*
X6493039Y-18707436D01*
X6493039Y-18707436D02*
X6483515Y-18688389D01*
X6483515Y-18688389D02*
X6483515Y-18631246D01*
X6483515Y-18631246D02*
X6493039Y-18612198D01*
X6493039Y-18612198D02*
X6502563Y-18602674D01*
X6502563Y-18602674D02*
X6521610Y-18593150D01*
X6521610Y-18593150D02*
X6550182Y-18593150D01*
X6550182Y-18593150D02*
X6569230Y-18602674D01*
X6569230Y-18602674D02*
X6578753Y-18612198D01*
X6578753Y-18612198D02*
X6588277Y-18631246D01*
X6588277Y-18631246D02*
X6588277Y-18688389D01*
X6588277Y-18688389D02*
X6578753Y-18707436D01*
X6578753Y-18707436D02*
X6569230Y-18716960D01*
X6569230Y-18716960D02*
X6550182Y-18726484D01*
X6550182Y-18726484D02*
X6521610Y-18726484D01*
X6702563Y-18726484D02*
X6683515Y-18716960D01*
X6683515Y-18716960D02*
X6673991Y-18697912D01*
X6673991Y-18697912D02*
X6673991Y-18526484D01*
X6854944Y-18716960D02*
X6835896Y-18726484D01*
X6835896Y-18726484D02*
X6797801Y-18726484D01*
X6797801Y-18726484D02*
X6778753Y-18716960D01*
X6778753Y-18716960D02*
X6769230Y-18697912D01*
X6769230Y-18697912D02*
X6769230Y-18621722D01*
X6769230Y-18621722D02*
X6778753Y-18602674D01*
X6778753Y-18602674D02*
X6797801Y-18593150D01*
X6797801Y-18593150D02*
X6835896Y-18593150D01*
X6835896Y-18593150D02*
X6854944Y-18602674D01*
X6854944Y-18602674D02*
X6864468Y-18621722D01*
X6864468Y-18621722D02*
X6864468Y-18640770D01*
X6864468Y-18640770D02*
X6769230Y-18659817D01*
X6940658Y-18716960D02*
X6959706Y-18726484D01*
X6959706Y-18726484D02*
X6997801Y-18726484D01*
X6997801Y-18726484D02*
X7016849Y-18716960D01*
X7016849Y-18716960D02*
X7026372Y-18697912D01*
X7026372Y-18697912D02*
X7026372Y-18688389D01*
X7026372Y-18688389D02*
X7016849Y-18669341D01*
X7016849Y-18669341D02*
X6997801Y-18659817D01*
X6997801Y-18659817D02*
X6969230Y-18659817D01*
X6969230Y-18659817D02*
X6950182Y-18650293D01*
X6950182Y-18650293D02*
X6940658Y-18631246D01*
X6940658Y-18631246D02*
X6940658Y-18621722D01*
X6940658Y-18621722D02*
X6950182Y-18602674D01*
X6950182Y-18602674D02*
X6969230Y-18593150D01*
X6969230Y-18593150D02*
X6997801Y-18593150D01*
X6997801Y-18593150D02*
X7016849Y-18602674D01*
X7093039Y-18802674D02*
X7102563Y-18793150D01*
X7102563Y-18793150D02*
X7121611Y-18764579D01*
X7121611Y-18764579D02*
X7131134Y-18745531D01*
X7131134Y-18745531D02*
X7140658Y-18716960D01*
X7140658Y-18716960D02*
X7150182Y-18669341D01*
X7150182Y-18669341D02*
X7150182Y-18631246D01*
X7150182Y-18631246D02*
X7140658Y-18583627D01*
X7140658Y-18583627D02*
X7131134Y-18555055D01*
X7131134Y-18555055D02*
X7121611Y-18536008D01*
X7121611Y-18536008D02*
X7102563Y-18507436D01*
X7102563Y-18507436D02*
X7093039Y-18497912D01*
D14*
X1977500Y-18824000D02*
X2127500Y-18974000D01*
X2127500Y-18824000D02*
X1977500Y-18974000D01*
X2052500Y-18824000D02*
X2052500Y-18974000D01*
X1977500Y-18899000D02*
X2127500Y-18899000D01*
D11*
X2493039Y-18990484D02*
X2378753Y-18990484D01*
X2435896Y-18990484D02*
X2435896Y-18790484D01*
X2435896Y-18790484D02*
X2416848Y-18819055D01*
X2416848Y-18819055D02*
X2397801Y-18838103D01*
X2397801Y-18838103D02*
X2378753Y-18847627D01*
X2578753Y-18971436D02*
X2588277Y-18980960D01*
X2588277Y-18980960D02*
X2578753Y-18990484D01*
X2578753Y-18990484D02*
X2569229Y-18980960D01*
X2569229Y-18980960D02*
X2578753Y-18971436D01*
X2578753Y-18971436D02*
X2578753Y-18990484D01*
X2769229Y-18790484D02*
X2673991Y-18790484D01*
X2673991Y-18790484D02*
X2664467Y-18885722D01*
X2664467Y-18885722D02*
X2673991Y-18876198D01*
X2673991Y-18876198D02*
X2693039Y-18866674D01*
X2693039Y-18866674D02*
X2740658Y-18866674D01*
X2740658Y-18866674D02*
X2759705Y-18876198D01*
X2759705Y-18876198D02*
X2769229Y-18885722D01*
X2769229Y-18885722D02*
X2778753Y-18904770D01*
X2778753Y-18904770D02*
X2778753Y-18952389D01*
X2778753Y-18952389D02*
X2769229Y-18971436D01*
X2769229Y-18971436D02*
X2759705Y-18980960D01*
X2759705Y-18980960D02*
X2740658Y-18990484D01*
X2740658Y-18990484D02*
X2693039Y-18990484D01*
X2693039Y-18990484D02*
X2673991Y-18980960D01*
X2673991Y-18980960D02*
X2664467Y-18971436D01*
X2902562Y-18790484D02*
X2921610Y-18790484D01*
X2921610Y-18790484D02*
X2940658Y-18800008D01*
X2940658Y-18800008D02*
X2950182Y-18809531D01*
X2950182Y-18809531D02*
X2959705Y-18828579D01*
X2959705Y-18828579D02*
X2969229Y-18866674D01*
X2969229Y-18866674D02*
X2969229Y-18914293D01*
X2969229Y-18914293D02*
X2959705Y-18952389D01*
X2959705Y-18952389D02*
X2950182Y-18971436D01*
X2950182Y-18971436D02*
X2940658Y-18980960D01*
X2940658Y-18980960D02*
X2921610Y-18990484D01*
X2921610Y-18990484D02*
X2902562Y-18990484D01*
X2902562Y-18990484D02*
X2883515Y-18980960D01*
X2883515Y-18980960D02*
X2873991Y-18971436D01*
X2873991Y-18971436D02*
X2864467Y-18952389D01*
X2864467Y-18952389D02*
X2854943Y-18914293D01*
X2854943Y-18914293D02*
X2854943Y-18866674D01*
X2854943Y-18866674D02*
X2864467Y-18828579D01*
X2864467Y-18828579D02*
X2873991Y-18809531D01*
X2873991Y-18809531D02*
X2883515Y-18800008D01*
X2883515Y-18800008D02*
X2902562Y-18790484D01*
X3093039Y-18790484D02*
X3112086Y-18790484D01*
X3112086Y-18790484D02*
X3131134Y-18800008D01*
X3131134Y-18800008D02*
X3140658Y-18809531D01*
X3140658Y-18809531D02*
X3150182Y-18828579D01*
X3150182Y-18828579D02*
X3159705Y-18866674D01*
X3159705Y-18866674D02*
X3159705Y-18914293D01*
X3159705Y-18914293D02*
X3150182Y-18952389D01*
X3150182Y-18952389D02*
X3140658Y-18971436D01*
X3140658Y-18971436D02*
X3131134Y-18980960D01*
X3131134Y-18980960D02*
X3112086Y-18990484D01*
X3112086Y-18990484D02*
X3093039Y-18990484D01*
X3093039Y-18990484D02*
X3073991Y-18980960D01*
X3073991Y-18980960D02*
X3064467Y-18971436D01*
X3064467Y-18971436D02*
X3054943Y-18952389D01*
X3054943Y-18952389D02*
X3045420Y-18914293D01*
X3045420Y-18914293D02*
X3045420Y-18866674D01*
X3045420Y-18866674D02*
X3054943Y-18828579D01*
X3054943Y-18828579D02*
X3064467Y-18809531D01*
X3064467Y-18809531D02*
X3073991Y-18800008D01*
X3073991Y-18800008D02*
X3093039Y-18790484D01*
X3245420Y-18990484D02*
X3245420Y-18857150D01*
X3245420Y-18876198D02*
X3254943Y-18866674D01*
X3254943Y-18866674D02*
X3273991Y-18857150D01*
X3273991Y-18857150D02*
X3302563Y-18857150D01*
X3302563Y-18857150D02*
X3321610Y-18866674D01*
X3321610Y-18866674D02*
X3331134Y-18885722D01*
X3331134Y-18885722D02*
X3331134Y-18990484D01*
X3331134Y-18885722D02*
X3340658Y-18866674D01*
X3340658Y-18866674D02*
X3359705Y-18857150D01*
X3359705Y-18857150D02*
X3388277Y-18857150D01*
X3388277Y-18857150D02*
X3407324Y-18866674D01*
X3407324Y-18866674D02*
X3416848Y-18885722D01*
X3416848Y-18885722D02*
X3416848Y-18990484D01*
X3512086Y-18990484D02*
X3512086Y-18857150D01*
X3512086Y-18876198D02*
X3521610Y-18866674D01*
X3521610Y-18866674D02*
X3540658Y-18857150D01*
X3540658Y-18857150D02*
X3569229Y-18857150D01*
X3569229Y-18857150D02*
X3588277Y-18866674D01*
X3588277Y-18866674D02*
X3597801Y-18885722D01*
X3597801Y-18885722D02*
X3597801Y-18990484D01*
X3597801Y-18885722D02*
X3607324Y-18866674D01*
X3607324Y-18866674D02*
X3626372Y-18857150D01*
X3626372Y-18857150D02*
X3654943Y-18857150D01*
X3654943Y-18857150D02*
X3673991Y-18866674D01*
X3673991Y-18866674D02*
X3683515Y-18885722D01*
X3683515Y-18885722D02*
X3683515Y-18990484D01*
X4073991Y-18780960D02*
X3902563Y-19038103D01*
X4331134Y-18790484D02*
X4350182Y-18790484D01*
X4350182Y-18790484D02*
X4369229Y-18800008D01*
X4369229Y-18800008D02*
X4378753Y-18809531D01*
X4378753Y-18809531D02*
X4388277Y-18828579D01*
X4388277Y-18828579D02*
X4397801Y-18866674D01*
X4397801Y-18866674D02*
X4397801Y-18914293D01*
X4397801Y-18914293D02*
X4388277Y-18952389D01*
X4388277Y-18952389D02*
X4378753Y-18971436D01*
X4378753Y-18971436D02*
X4369229Y-18980960D01*
X4369229Y-18980960D02*
X4350182Y-18990484D01*
X4350182Y-18990484D02*
X4331134Y-18990484D01*
X4331134Y-18990484D02*
X4312087Y-18980960D01*
X4312087Y-18980960D02*
X4302563Y-18971436D01*
X4302563Y-18971436D02*
X4293039Y-18952389D01*
X4293039Y-18952389D02*
X4283515Y-18914293D01*
X4283515Y-18914293D02*
X4283515Y-18866674D01*
X4283515Y-18866674D02*
X4293039Y-18828579D01*
X4293039Y-18828579D02*
X4302563Y-18809531D01*
X4302563Y-18809531D02*
X4312087Y-18800008D01*
X4312087Y-18800008D02*
X4331134Y-18790484D01*
X4483515Y-18971436D02*
X4493039Y-18980960D01*
X4493039Y-18980960D02*
X4483515Y-18990484D01*
X4483515Y-18990484D02*
X4473991Y-18980960D01*
X4473991Y-18980960D02*
X4483515Y-18971436D01*
X4483515Y-18971436D02*
X4483515Y-18990484D01*
X4616848Y-18790484D02*
X4635896Y-18790484D01*
X4635896Y-18790484D02*
X4654944Y-18800008D01*
X4654944Y-18800008D02*
X4664468Y-18809531D01*
X4664468Y-18809531D02*
X4673991Y-18828579D01*
X4673991Y-18828579D02*
X4683515Y-18866674D01*
X4683515Y-18866674D02*
X4683515Y-18914293D01*
X4683515Y-18914293D02*
X4673991Y-18952389D01*
X4673991Y-18952389D02*
X4664468Y-18971436D01*
X4664468Y-18971436D02*
X4654944Y-18980960D01*
X4654944Y-18980960D02*
X4635896Y-18990484D01*
X4635896Y-18990484D02*
X4616848Y-18990484D01*
X4616848Y-18990484D02*
X4597801Y-18980960D01*
X4597801Y-18980960D02*
X4588277Y-18971436D01*
X4588277Y-18971436D02*
X4578753Y-18952389D01*
X4578753Y-18952389D02*
X4569229Y-18914293D01*
X4569229Y-18914293D02*
X4569229Y-18866674D01*
X4569229Y-18866674D02*
X4578753Y-18828579D01*
X4578753Y-18828579D02*
X4588277Y-18809531D01*
X4588277Y-18809531D02*
X4597801Y-18800008D01*
X4597801Y-18800008D02*
X4616848Y-18790484D01*
X4864468Y-18790484D02*
X4769229Y-18790484D01*
X4769229Y-18790484D02*
X4759706Y-18885722D01*
X4759706Y-18885722D02*
X4769229Y-18876198D01*
X4769229Y-18876198D02*
X4788277Y-18866674D01*
X4788277Y-18866674D02*
X4835896Y-18866674D01*
X4835896Y-18866674D02*
X4854944Y-18876198D01*
X4854944Y-18876198D02*
X4864468Y-18885722D01*
X4864468Y-18885722D02*
X4873991Y-18904770D01*
X4873991Y-18904770D02*
X4873991Y-18952389D01*
X4873991Y-18952389D02*
X4864468Y-18971436D01*
X4864468Y-18971436D02*
X4854944Y-18980960D01*
X4854944Y-18980960D02*
X4835896Y-18990484D01*
X4835896Y-18990484D02*
X4788277Y-18990484D01*
X4788277Y-18990484D02*
X4769229Y-18980960D01*
X4769229Y-18980960D02*
X4759706Y-18971436D01*
X4969229Y-18990484D02*
X5007325Y-18990484D01*
X5007325Y-18990484D02*
X5026372Y-18980960D01*
X5026372Y-18980960D02*
X5035896Y-18971436D01*
X5035896Y-18971436D02*
X5054944Y-18942865D01*
X5054944Y-18942865D02*
X5064468Y-18904770D01*
X5064468Y-18904770D02*
X5064468Y-18828579D01*
X5064468Y-18828579D02*
X5054944Y-18809531D01*
X5054944Y-18809531D02*
X5045420Y-18800008D01*
X5045420Y-18800008D02*
X5026372Y-18790484D01*
X5026372Y-18790484D02*
X4988277Y-18790484D01*
X4988277Y-18790484D02*
X4969229Y-18800008D01*
X4969229Y-18800008D02*
X4959706Y-18809531D01*
X4959706Y-18809531D02*
X4950182Y-18828579D01*
X4950182Y-18828579D02*
X4950182Y-18876198D01*
X4950182Y-18876198D02*
X4959706Y-18895246D01*
X4959706Y-18895246D02*
X4969229Y-18904770D01*
X4969229Y-18904770D02*
X4988277Y-18914293D01*
X4988277Y-18914293D02*
X5026372Y-18914293D01*
X5026372Y-18914293D02*
X5045420Y-18904770D01*
X5045420Y-18904770D02*
X5054944Y-18895246D01*
X5054944Y-18895246D02*
X5064468Y-18876198D01*
X5254944Y-18990484D02*
X5140658Y-18990484D01*
X5197801Y-18990484D02*
X5197801Y-18790484D01*
X5197801Y-18790484D02*
X5178753Y-18819055D01*
X5178753Y-18819055D02*
X5159706Y-18838103D01*
X5159706Y-18838103D02*
X5140658Y-18847627D01*
X5331134Y-18790484D02*
X5331134Y-18828579D01*
X5407325Y-18790484D02*
X5407325Y-18828579D01*
X5702563Y-19066674D02*
X5693039Y-19057150D01*
X5693039Y-19057150D02*
X5673991Y-19028579D01*
X5673991Y-19028579D02*
X5664468Y-19009531D01*
X5664468Y-19009531D02*
X5654944Y-18980960D01*
X5654944Y-18980960D02*
X5645420Y-18933341D01*
X5645420Y-18933341D02*
X5645420Y-18895246D01*
X5645420Y-18895246D02*
X5654944Y-18847627D01*
X5654944Y-18847627D02*
X5664468Y-18819055D01*
X5664468Y-18819055D02*
X5673991Y-18800008D01*
X5673991Y-18800008D02*
X5693039Y-18771436D01*
X5693039Y-18771436D02*
X5702563Y-18761912D01*
X5769229Y-18809531D02*
X5778753Y-18800008D01*
X5778753Y-18800008D02*
X5797801Y-18790484D01*
X5797801Y-18790484D02*
X5845420Y-18790484D01*
X5845420Y-18790484D02*
X5864468Y-18800008D01*
X5864468Y-18800008D02*
X5873991Y-18809531D01*
X5873991Y-18809531D02*
X5883515Y-18828579D01*
X5883515Y-18828579D02*
X5883515Y-18847627D01*
X5883515Y-18847627D02*
X5873991Y-18876198D01*
X5873991Y-18876198D02*
X5759706Y-18990484D01*
X5759706Y-18990484D02*
X5883515Y-18990484D01*
X6007325Y-18790484D02*
X6026372Y-18790484D01*
X6026372Y-18790484D02*
X6045420Y-18800008D01*
X6045420Y-18800008D02*
X6054944Y-18809531D01*
X6054944Y-18809531D02*
X6064468Y-18828579D01*
X6064468Y-18828579D02*
X6073991Y-18866674D01*
X6073991Y-18866674D02*
X6073991Y-18914293D01*
X6073991Y-18914293D02*
X6064468Y-18952389D01*
X6064468Y-18952389D02*
X6054944Y-18971436D01*
X6054944Y-18971436D02*
X6045420Y-18980960D01*
X6045420Y-18980960D02*
X6026372Y-18990484D01*
X6026372Y-18990484D02*
X6007325Y-18990484D01*
X6007325Y-18990484D02*
X5988277Y-18980960D01*
X5988277Y-18980960D02*
X5978753Y-18971436D01*
X5978753Y-18971436D02*
X5969229Y-18952389D01*
X5969229Y-18952389D02*
X5959706Y-18914293D01*
X5959706Y-18914293D02*
X5959706Y-18866674D01*
X5959706Y-18866674D02*
X5969229Y-18828579D01*
X5969229Y-18828579D02*
X5978753Y-18809531D01*
X5978753Y-18809531D02*
X5988277Y-18800008D01*
X5988277Y-18800008D02*
X6007325Y-18790484D01*
X6188277Y-18876198D02*
X6169229Y-18866674D01*
X6169229Y-18866674D02*
X6159706Y-18857150D01*
X6159706Y-18857150D02*
X6150182Y-18838103D01*
X6150182Y-18838103D02*
X6150182Y-18828579D01*
X6150182Y-18828579D02*
X6159706Y-18809531D01*
X6159706Y-18809531D02*
X6169229Y-18800008D01*
X6169229Y-18800008D02*
X6188277Y-18790484D01*
X6188277Y-18790484D02*
X6226372Y-18790484D01*
X6226372Y-18790484D02*
X6245420Y-18800008D01*
X6245420Y-18800008D02*
X6254944Y-18809531D01*
X6254944Y-18809531D02*
X6264468Y-18828579D01*
X6264468Y-18828579D02*
X6264468Y-18838103D01*
X6264468Y-18838103D02*
X6254944Y-18857150D01*
X6254944Y-18857150D02*
X6245420Y-18866674D01*
X6245420Y-18866674D02*
X6226372Y-18876198D01*
X6226372Y-18876198D02*
X6188277Y-18876198D01*
X6188277Y-18876198D02*
X6169229Y-18885722D01*
X6169229Y-18885722D02*
X6159706Y-18895246D01*
X6159706Y-18895246D02*
X6150182Y-18914293D01*
X6150182Y-18914293D02*
X6150182Y-18952389D01*
X6150182Y-18952389D02*
X6159706Y-18971436D01*
X6159706Y-18971436D02*
X6169229Y-18980960D01*
X6169229Y-18980960D02*
X6188277Y-18990484D01*
X6188277Y-18990484D02*
X6226372Y-18990484D01*
X6226372Y-18990484D02*
X6245420Y-18980960D01*
X6245420Y-18980960D02*
X6254944Y-18971436D01*
X6254944Y-18971436D02*
X6264468Y-18952389D01*
X6264468Y-18952389D02*
X6264468Y-18914293D01*
X6264468Y-18914293D02*
X6254944Y-18895246D01*
X6254944Y-18895246D02*
X6245420Y-18885722D01*
X6245420Y-18885722D02*
X6226372Y-18876198D01*
X6502563Y-18990484D02*
X6502563Y-18790484D01*
X6588277Y-18990484D02*
X6588277Y-18885722D01*
X6588277Y-18885722D02*
X6578753Y-18866674D01*
X6578753Y-18866674D02*
X6559706Y-18857150D01*
X6559706Y-18857150D02*
X6531134Y-18857150D01*
X6531134Y-18857150D02*
X6512087Y-18866674D01*
X6512087Y-18866674D02*
X6502563Y-18876198D01*
X6712087Y-18990484D02*
X6693039Y-18980960D01*
X6693039Y-18980960D02*
X6683515Y-18971436D01*
X6683515Y-18971436D02*
X6673991Y-18952389D01*
X6673991Y-18952389D02*
X6673991Y-18895246D01*
X6673991Y-18895246D02*
X6683515Y-18876198D01*
X6683515Y-18876198D02*
X6693039Y-18866674D01*
X6693039Y-18866674D02*
X6712087Y-18857150D01*
X6712087Y-18857150D02*
X6740658Y-18857150D01*
X6740658Y-18857150D02*
X6759706Y-18866674D01*
X6759706Y-18866674D02*
X6769230Y-18876198D01*
X6769230Y-18876198D02*
X6778753Y-18895246D01*
X6778753Y-18895246D02*
X6778753Y-18952389D01*
X6778753Y-18952389D02*
X6769230Y-18971436D01*
X6769230Y-18971436D02*
X6759706Y-18980960D01*
X6759706Y-18980960D02*
X6740658Y-18990484D01*
X6740658Y-18990484D02*
X6712087Y-18990484D01*
X6893039Y-18990484D02*
X6873991Y-18980960D01*
X6873991Y-18980960D02*
X6864468Y-18961912D01*
X6864468Y-18961912D02*
X6864468Y-18790484D01*
X7045420Y-18980960D02*
X7026372Y-18990484D01*
X7026372Y-18990484D02*
X6988277Y-18990484D01*
X6988277Y-18990484D02*
X6969230Y-18980960D01*
X6969230Y-18980960D02*
X6959706Y-18961912D01*
X6959706Y-18961912D02*
X6959706Y-18885722D01*
X6959706Y-18885722D02*
X6969230Y-18866674D01*
X6969230Y-18866674D02*
X6988277Y-18857150D01*
X6988277Y-18857150D02*
X7026372Y-18857150D01*
X7026372Y-18857150D02*
X7045420Y-18866674D01*
X7045420Y-18866674D02*
X7054944Y-18885722D01*
X7054944Y-18885722D02*
X7054944Y-18904770D01*
X7054944Y-18904770D02*
X6959706Y-18923817D01*
X7131134Y-18980960D02*
X7150182Y-18990484D01*
X7150182Y-18990484D02*
X7188277Y-18990484D01*
X7188277Y-18990484D02*
X7207325Y-18980960D01*
X7207325Y-18980960D02*
X7216849Y-18961912D01*
X7216849Y-18961912D02*
X7216849Y-18952389D01*
X7216849Y-18952389D02*
X7207325Y-18933341D01*
X7207325Y-18933341D02*
X7188277Y-18923817D01*
X7188277Y-18923817D02*
X7159706Y-18923817D01*
X7159706Y-18923817D02*
X7140658Y-18914293D01*
X7140658Y-18914293D02*
X7131134Y-18895246D01*
X7131134Y-18895246D02*
X7131134Y-18885722D01*
X7131134Y-18885722D02*
X7140658Y-18866674D01*
X7140658Y-18866674D02*
X7159706Y-18857150D01*
X7159706Y-18857150D02*
X7188277Y-18857150D01*
X7188277Y-18857150D02*
X7207325Y-18866674D01*
X7283515Y-19066674D02*
X7293039Y-19057150D01*
X7293039Y-19057150D02*
X7312087Y-19028579D01*
X7312087Y-19028579D02*
X7321611Y-19009531D01*
X7321611Y-19009531D02*
X7331134Y-18980960D01*
X7331134Y-18980960D02*
X7340658Y-18933341D01*
X7340658Y-18933341D02*
X7340658Y-18895246D01*
X7340658Y-18895246D02*
X7331134Y-18847627D01*
X7331134Y-18847627D02*
X7321611Y-18819055D01*
X7321611Y-18819055D02*
X7312087Y-18800008D01*
X7312087Y-18800008D02*
X7293039Y-18771436D01*
X7293039Y-18771436D02*
X7283515Y-18761912D01*
M02*
