%TF.GenerationSoftware,KiCad,Pcbnew,8.0.5*%
%TF.CreationDate,2025-05-24T12:52:23-04:00*%
%TF.ProjectId,Keyboard-Saturn,4b657962-6f61-4726-942d-53617475726e,rev?*%
%TF.SameCoordinates,Original*%
%TF.FileFunction,Copper,L1,Top*%
%TF.FilePolarity,Positive*%
%FSLAX46Y46*%
G04 Gerber Fmt 4.6, Leading zero omitted, Abs format (unit mm)*
G04 Created by KiCad (PCBNEW 8.0.5) date 2025-05-24 12:52:23*
%MOMM*%
%LPD*%
G01*
G04 APERTURE LIST*
%TA.AperFunction,ComponentPad*%
%ADD10R,1.600000X1.600000*%
%TD*%
%TA.AperFunction,ComponentPad*%
%ADD11O,1.600000X1.600000*%
%TD*%
%TA.AperFunction,ComponentPad*%
%ADD12C,2.500000*%
%TD*%
%TA.AperFunction,ComponentPad*%
%ADD13C,1.130000*%
%TD*%
%TA.AperFunction,ComponentPad*%
%ADD14R,1.130000X1.130000*%
%TD*%
%TA.AperFunction,ComponentPad*%
%ADD15R,1.700000X1.700000*%
%TD*%
%TA.AperFunction,ComponentPad*%
%ADD16O,1.700000X1.700000*%
%TD*%
%TA.AperFunction,ComponentPad*%
%ADD17C,1.400000*%
%TD*%
%TA.AperFunction,ComponentPad*%
%ADD18O,1.400000X1.400000*%
%TD*%
%TA.AperFunction,SMDPad,CuDef*%
%ADD19R,1.700000X3.500000*%
%TD*%
%TA.AperFunction,SMDPad,CuDef*%
%ADD20R,3.500000X1.700000*%
%TD*%
%TA.AperFunction,ViaPad*%
%ADD21C,0.600000*%
%TD*%
%TA.AperFunction,Conductor*%
%ADD22C,0.200000*%
%TD*%
G04 APERTURE END LIST*
D10*
%TO.P,D3,1,K*%
%TO.N,row 1*%
X97500000Y-59660000D03*
D11*
%TO.P,D3,2,A*%
%TO.N,Net-(D3-A)*%
X97500000Y-52040000D03*
%TD*%
D12*
%TO.P,SW14,1,1*%
%TO.N,col 1*%
X27070000Y-78380000D03*
%TO.P,SW14,2,2*%
%TO.N,Net-(D14-A)*%
X33420000Y-75840000D03*
%TD*%
D10*
%TO.P,D30,1,K*%
%TO.N,row 3*%
X88000000Y-102500000D03*
D11*
%TO.P,D30,2,A*%
%TO.N,Net-(D30-A)*%
X88000000Y-94880000D03*
%TD*%
D10*
%TO.P,D37,1,K*%
%TO.N,row 3*%
X221300000Y-102500000D03*
D11*
%TO.P,D37,2,A*%
%TO.N,Net-(D37-A)*%
X221300000Y-94880000D03*
%TD*%
D12*
%TO.P,SW32,1,1*%
%TO.N,col 5*%
X112750000Y-97420000D03*
%TO.P,SW32,2,2*%
%TO.N,Net-(D32-A)*%
X119100000Y-94880000D03*
%TD*%
%TO.P,SW0,1,1*%
%TO.N,col 16*%
X338910000Y-97415000D03*
%TO.P,SW0,2,2*%
%TO.N,Net-(D80-A)*%
X345260000Y-94875000D03*
%TD*%
D10*
%TO.P,D1,1,K*%
%TO.N,row 1*%
X40500000Y-59620000D03*
D11*
%TO.P,D1,2,A*%
%TO.N,Net-(D1-A)*%
X40500000Y-52000000D03*
%TD*%
D10*
%TO.P,D5,1,K*%
%TO.N,row 1*%
X135600000Y-59660000D03*
D11*
%TO.P,D5,2,A*%
%TO.N,Net-(D5-A)*%
X135600000Y-52040000D03*
%TD*%
D10*
%TO.P,D76,1,K*%
%TO.N,row 2*%
X333150000Y-83470000D03*
D11*
%TO.P,D76,2,A*%
%TO.N,Net-(D76-A)*%
X333150000Y-75850000D03*
%TD*%
D10*
%TO.P,D7,1,K*%
%TO.N,row 1*%
X183200000Y-59660000D03*
D11*
%TO.P,D7,2,A*%
%TO.N,Net-(D7-A)*%
X183200000Y-52040000D03*
%TD*%
D10*
%TO.P,D50,1,K*%
%TO.N,row 4*%
X207000000Y-121500000D03*
D11*
%TO.P,D50,2,A*%
%TO.N,Net-(D50-A)*%
X207000000Y-113880000D03*
%TD*%
D10*
%TO.P,D83,1,K*%
%TO.N,row 3*%
X371325000Y-102525000D03*
D11*
%TO.P,D83,2,A*%
%TO.N,Net-(D83-A)*%
X371325000Y-94905000D03*
%TD*%
D12*
%TO.P,SW74,1,1*%
%TO.N,col 14*%
X291310000Y-154650000D03*
%TO.P,SW74,2,2*%
%TO.N,Net-(D74-A)*%
X297660000Y-152110000D03*
%TD*%
%TO.P,SW63,1,1*%
%TO.N,col 9*%
X203190000Y-135500000D03*
%TO.P,SW63,2,2*%
%TO.N,Net-(D63-A)*%
X209540000Y-132960000D03*
%TD*%
D10*
%TO.P,D98,1,K*%
%TO.N,row 3*%
X437625000Y-121550000D03*
D11*
%TO.P,D98,2,A*%
%TO.N,Net-(D98-A)*%
X437625000Y-113930000D03*
%TD*%
D10*
%TO.P,D60,1,K*%
%TO.N,row 5*%
X159450000Y-140550000D03*
D11*
%TO.P,D60,2,A*%
%TO.N,Net-(D60-A)*%
X159450000Y-132930000D03*
%TD*%
D10*
%TO.P,D104,1,K*%
%TO.N,row 4*%
X437600000Y-140600000D03*
D11*
%TO.P,D104,2,A*%
%TO.N,Net-(D104-A)*%
X437600000Y-132980000D03*
%TD*%
D12*
%TO.P,SW46,1,1*%
%TO.N,col 5*%
X117510000Y-116460000D03*
%TO.P,SW46,2,2*%
%TO.N,Net-(D46-A)*%
X123860000Y-113920000D03*
%TD*%
D10*
%TO.P,D63,1,K*%
%TO.N,row 5*%
X216500000Y-140600000D03*
D11*
%TO.P,D63,2,A*%
%TO.N,Net-(D63-A)*%
X216500000Y-132980000D03*
%TD*%
D12*
%TO.P,SW43,1,1*%
%TO.N,col 2*%
X60390000Y-116460000D03*
%TO.P,SW43,2,2*%
%TO.N,Net-(D43-A)*%
X66740000Y-113920000D03*
%TD*%
D10*
%TO.P,D25,1,K*%
%TO.N,row 2*%
X249800000Y-83400000D03*
D11*
%TO.P,D25,2,A*%
%TO.N,Net-(D25-A)*%
X249800000Y-75780000D03*
%TD*%
D10*
%TO.P,D86,1,K*%
%TO.N,row 4*%
X352200000Y-140600000D03*
D11*
%TO.P,D86,2,A*%
%TO.N,Net-(D86-A)*%
X352200000Y-132980000D03*
%TD*%
D12*
%TO.P,SW7,1,1*%
%TO.N,col 7*%
X169870000Y-54580000D03*
%TO.P,SW7,2,2*%
%TO.N,Net-(D7-A)*%
X176220000Y-52040000D03*
%TD*%
D10*
%TO.P,D28,1,K*%
%TO.N,row 3*%
X49900000Y-102500000D03*
D11*
%TO.P,D28,2,A*%
%TO.N,Net-(D28-A)*%
X49900000Y-94880000D03*
%TD*%
D10*
%TO.P,D33,1,K*%
%TO.N,row 3*%
X145100000Y-102500000D03*
D11*
%TO.P,D33,2,A*%
%TO.N,Net-(D33-A)*%
X145100000Y-94880000D03*
%TD*%
D12*
%TO.P,SW82,1,1*%
%TO.N,col 17*%
X357950000Y-78375000D03*
%TO.P,SW82,2,2*%
%TO.N,Net-(D82-A)*%
X364300000Y-75835000D03*
%TD*%
D10*
%TO.P,D4,1,K*%
%TO.N,row 1*%
X116500000Y-59660000D03*
D11*
%TO.P,D4,2,A*%
%TO.N,Net-(D4-A)*%
X116500000Y-52040000D03*
%TD*%
D12*
%TO.P,SW64,1,1*%
%TO.N,col 10*%
X222230000Y-135500000D03*
%TO.P,SW64,2,2*%
%TO.N,Net-(D64-A)*%
X228580000Y-132960000D03*
%TD*%
%TO.P,SW78,1,1*%
%TO.N,col 16*%
X338910000Y-54575000D03*
%TO.P,SW78,2,2*%
%TO.N,Net-(D78-A)*%
X345260000Y-52035000D03*
%TD*%
%TO.P,SW84,1,1*%
%TO.N,col 18*%
X386190000Y-78375000D03*
%TO.P,SW84,2,2*%
%TO.N,Net-(D84-A)*%
X392540000Y-75835000D03*
%TD*%
%TO.P,SW97,1,1*%
%TO.N,col 20*%
X424270000Y-97415000D03*
%TO.P,SW97,2,2*%
%TO.N,Net-(D97-A)*%
X430620000Y-94875000D03*
%TD*%
D10*
%TO.P,D78,1,K*%
%TO.N,row 1*%
X352250000Y-59645000D03*
D11*
%TO.P,D78,2,A*%
%TO.N,Net-(D78-A)*%
X352250000Y-52025000D03*
%TD*%
D12*
%TO.P,SW8,1,1*%
%TO.N,col 8*%
X188910000Y-54580000D03*
%TO.P,SW8,2,2*%
%TO.N,Net-(D8-A)*%
X195260000Y-52040000D03*
%TD*%
D10*
%TO.P,D90,1,K*%
%TO.N,row 3*%
X399575000Y-121525000D03*
D11*
%TO.P,D90,2,A*%
%TO.N,Net-(D90-A)*%
X399575000Y-113905000D03*
%TD*%
D12*
%TO.P,SW59,1,1*%
%TO.N,col 5*%
X127030000Y-135500000D03*
%TO.P,SW59,2,2*%
%TO.N,Net-(D59-A)*%
X133380000Y-132960000D03*
%TD*%
D10*
%TO.P,D34,1,K*%
%TO.N,row 3*%
X164200000Y-102500000D03*
D11*
%TO.P,D34,2,A*%
%TO.N,Net-(D34-A)*%
X164200000Y-94880000D03*
%TD*%
D12*
%TO.P,SW56,1,1*%
%TO.N,col 2*%
X69910000Y-135500000D03*
%TO.P,SW56,2,2*%
%TO.N,Net-(D56-A)*%
X76260000Y-132960000D03*
%TD*%
D10*
%TO.P,D44,1,K*%
%TO.N,row 4*%
X92800000Y-121510000D03*
D11*
%TO.P,D44,2,A*%
%TO.N,Net-(D44-A)*%
X92800000Y-113890000D03*
%TD*%
D10*
%TO.P,D67,1,K*%
%TO.N,row 6*%
X45300000Y-159635000D03*
D11*
%TO.P,D67,2,A*%
%TO.N,Net-(D67-A)*%
X45300000Y-152015000D03*
%TD*%
D10*
%TO.P,D71,1,K*%
%TO.N,row 6*%
X235625000Y-159650000D03*
D11*
%TO.P,D71,2,A*%
%TO.N,Net-(D71-A)*%
X235625000Y-152030000D03*
%TD*%
D10*
%TO.P,D85,1,K*%
%TO.N,row 5*%
X333175000Y-159600000D03*
D11*
%TO.P,D85,2,A*%
%TO.N,Net-(D85-A)*%
X333175000Y-151980000D03*
%TD*%
D12*
%TO.P,SW93,1,1*%
%TO.N,col 19*%
X405230000Y-97415000D03*
%TO.P,SW93,2,2*%
%TO.N,Net-(D93-A)*%
X411580000Y-94875000D03*
%TD*%
D13*
%TO.P,U3,16,VCC*%
%TO.N,+3.3V*%
X386940000Y-68200000D03*
%TO.P,U3,15,CLK_INH*%
%TO.N,GND*%
X386940000Y-65660000D03*
%TO.P,U3,14,D*%
%TO.N,row 4*%
X386940000Y-63120000D03*
%TO.P,U3,13,C*%
%TO.N,row 3*%
X386940000Y-60580000D03*
%TO.P,U3,12,B*%
%TO.N,row 2*%
X386940000Y-58040000D03*
%TO.P,U3,11,A*%
%TO.N,row 1*%
X386940000Y-55500000D03*
%TO.P,U3,10,SER*%
%TO.N,GND*%
X386940000Y-52960000D03*
%TO.P,U3,9,QH*%
%TO.N,Net-(U1-GPIO27_ADC1)*%
X386940000Y-50420000D03*
%TO.P,U3,8,GND*%
%TO.N,GND*%
X379000000Y-50420000D03*
%TO.P,U3,7,~{QH}*%
%TO.N,unconnected-(U3-~{QH}-Pad7)*%
X379000000Y-52960000D03*
%TO.P,U3,6,H*%
%TO.N,unconnected-(U3-H-Pad6)*%
X379000000Y-55500000D03*
%TO.P,U3,5,G*%
%TO.N,unconnected-(U3-G-Pad5)*%
X379000000Y-58040000D03*
%TO.P,U3,4,F*%
%TO.N,row 6*%
X379000000Y-60580000D03*
%TO.P,U3,3,E*%
%TO.N,row 5*%
X379000000Y-63120000D03*
%TO.P,U3,2,CLK*%
%TO.N,Net-(U1-GPIO26_ADC0)*%
X379000000Y-65660000D03*
D14*
%TO.P,U3,1,SH/~LD*%
%TO.N,Net-(U1-GPIO0)*%
X379000000Y-68200000D03*
%TD*%
D12*
%TO.P,SW52,1,1*%
%TO.N,col 11*%
X231750000Y-116460000D03*
%TO.P,SW52,2,2*%
%TO.N,Net-(D52-A)*%
X238100000Y-113920000D03*
%TD*%
D10*
%TO.P,D19,1,K*%
%TO.N,row 2*%
X135600000Y-83500000D03*
D11*
%TO.P,D19,2,A*%
%TO.N,Net-(D19-A)*%
X135600000Y-75880000D03*
%TD*%
D10*
%TO.P,D9,1,K*%
%TO.N,row 1*%
X221300000Y-59660000D03*
D11*
%TO.P,D9,2,A*%
%TO.N,Net-(D9-A)*%
X221300000Y-52040000D03*
%TD*%
D10*
%TO.P,D70,1,K*%
%TO.N,row 6*%
X211875000Y-159600000D03*
D11*
%TO.P,D70,2,A*%
%TO.N,Net-(D70-A)*%
X211875000Y-151980000D03*
%TD*%
D12*
%TO.P,SW75,1,1*%
%TO.N,col 15*%
X319870000Y-54575000D03*
%TO.P,SW75,2,2*%
%TO.N,Net-(D75-A)*%
X326220000Y-52035000D03*
%TD*%
%TO.P,SW12,1,1*%
%TO.N,col 12*%
X274590000Y-54580000D03*
%TO.P,SW12,2,2*%
%TO.N,Net-(D12-A)*%
X280940000Y-52040000D03*
%TD*%
D10*
%TO.P,D53,1,K*%
%TO.N,row 4*%
X264100000Y-121500000D03*
D11*
%TO.P,D53,2,A*%
%TO.N,Net-(D53-A)*%
X264100000Y-113880000D03*
%TD*%
D10*
%TO.P,D18,1,K*%
%TO.N,row 2*%
X116500000Y-83400000D03*
D11*
%TO.P,D18,2,A*%
%TO.N,Net-(D18-A)*%
X116500000Y-75780000D03*
%TD*%
D15*
%TO.P,J1,1,GND*%
%TO.N,GND*%
X323680000Y-123975000D03*
D16*
%TO.P,J1,2,VCC*%
%TO.N,+5V*%
X323680000Y-121435000D03*
%TO.P,J1,3,SCL*%
%TO.N,SCL*%
X323680000Y-118895000D03*
%TO.P,J1,4,SDA*%
%TO.N,SDA*%
X323680000Y-116355000D03*
%TD*%
D12*
%TO.P,SW10,1,1*%
%TO.N,col 10*%
X236510000Y-54580000D03*
%TO.P,SW10,2,2*%
%TO.N,Net-(D10-A)*%
X242860000Y-52040000D03*
%TD*%
%TO.P,SW37,1,1*%
%TO.N,col 10*%
X207950000Y-97420000D03*
%TO.P,SW37,2,2*%
%TO.N,Net-(D37-A)*%
X214300000Y-94880000D03*
%TD*%
D10*
%TO.P,D47,1,K*%
%TO.N,row 4*%
X149900000Y-121500000D03*
D11*
%TO.P,D47,2,A*%
%TO.N,Net-(D47-A)*%
X149900000Y-113880000D03*
%TD*%
D12*
%TO.P,SW36,1,1*%
%TO.N,col 9*%
X188910000Y-97420000D03*
%TO.P,SW36,2,2*%
%TO.N,Net-(D36-A)*%
X195260000Y-94880000D03*
%TD*%
%TO.P,SW30,1,1*%
%TO.N,col 3*%
X74670000Y-97420000D03*
%TO.P,SW30,2,2*%
%TO.N,Net-(D30-A)*%
X81020000Y-94880000D03*
%TD*%
%TO.P,SW51,1,1*%
%TO.N,col 10*%
X212710000Y-116460000D03*
%TO.P,SW51,2,2*%
%TO.N,Net-(D51-A)*%
X219060000Y-113920000D03*
%TD*%
D10*
%TO.P,D52,1,K*%
%TO.N,row 4*%
X245200000Y-121500000D03*
D11*
%TO.P,D52,2,A*%
%TO.N,Net-(D52-A)*%
X245200000Y-113880000D03*
%TD*%
D10*
%TO.P,D8,1,K*%
%TO.N,row 1*%
X202300000Y-59660000D03*
D11*
%TO.P,D8,2,A*%
%TO.N,Net-(D8-A)*%
X202300000Y-52040000D03*
%TD*%
D12*
%TO.P,SW83,1,1*%
%TO.N,col 17*%
X357950000Y-97415000D03*
%TO.P,SW83,2,2*%
%TO.N,Net-(D83-A)*%
X364300000Y-94875000D03*
%TD*%
%TO.P,SW15,1,1*%
%TO.N,col 2*%
X46110000Y-78380000D03*
%TO.P,SW15,2,2*%
%TO.N,Net-(D15-A)*%
X52460000Y-75840000D03*
%TD*%
%TO.P,SW76,1,1*%
%TO.N,col 15*%
X319870000Y-78375000D03*
%TO.P,SW76,2,2*%
%TO.N,Net-(D76-A)*%
X326220000Y-75835000D03*
%TD*%
D10*
%TO.P,D2,1,K*%
%TO.N,row 1*%
X78500000Y-59670000D03*
D11*
%TO.P,D2,2,A*%
%TO.N,Net-(D2-A)*%
X78500000Y-52050000D03*
%TD*%
D12*
%TO.P,SW35,1,1*%
%TO.N,col 8*%
X169870000Y-97420000D03*
%TO.P,SW35,2,2*%
%TO.N,Net-(D35-A)*%
X176220000Y-94880000D03*
%TD*%
D10*
%TO.P,D72,1,K*%
%TO.N,row 6*%
X259400000Y-159650000D03*
D11*
%TO.P,D72,2,A*%
%TO.N,Net-(D72-A)*%
X259400000Y-152030000D03*
%TD*%
D12*
%TO.P,SW100,1,1*%
%TO.N,col 21*%
X443310000Y-78375000D03*
%TO.P,SW100,2,2*%
%TO.N,Net-(D100-A)*%
X449660000Y-75835000D03*
%TD*%
D10*
%TO.P,D73,1,K*%
%TO.N,row 6*%
X283200000Y-159650000D03*
D11*
%TO.P,D73,2,A*%
%TO.N,Net-(D73-A)*%
X283200000Y-152030000D03*
%TD*%
D12*
%TO.P,SW1,1,1*%
%TO.N,col 1*%
X27070000Y-54580000D03*
%TO.P,SW1,2,2*%
%TO.N,Net-(D1-A)*%
X33420000Y-52040000D03*
%TD*%
D10*
%TO.P,D24,1,K*%
%TO.N,row 2*%
X230800000Y-83400000D03*
D11*
%TO.P,D24,2,A*%
%TO.N,Net-(D24-A)*%
X230800000Y-75780000D03*
%TD*%
D10*
%TO.P,D13,1,K*%
%TO.N,row 1*%
X307000000Y-59660000D03*
D11*
%TO.P,D13,2,A*%
%TO.N,Net-(D13-A)*%
X307000000Y-52040000D03*
%TD*%
D12*
%TO.P,SW42,1,1*%
%TO.N,col 1*%
X34210000Y-116465000D03*
%TO.P,SW42,2,2*%
%TO.N,Net-(D42-A)*%
X40560000Y-113925000D03*
%TD*%
%TO.P,SW72,1,1*%
%TO.N,col 10*%
X243710000Y-154540000D03*
%TO.P,SW72,2,2*%
%TO.N,Net-(D72-A)*%
X250060000Y-152000000D03*
%TD*%
%TO.P,SW81,1,1*%
%TO.N,col 17*%
X357950000Y-54575000D03*
%TO.P,SW81,2,2*%
%TO.N,Net-(D81-A)*%
X364300000Y-52035000D03*
%TD*%
%TO.P,SW34,1,1*%
%TO.N,col 7*%
X150830000Y-97420000D03*
%TO.P,SW34,2,2*%
%TO.N,Net-(D34-A)*%
X157180000Y-94880000D03*
%TD*%
D17*
%TO.P,R4,1*%
%TO.N,SDA*%
X319500000Y-116350000D03*
D18*
%TO.P,R4,2*%
%TO.N,+3.3V*%
X311880000Y-116350000D03*
%TD*%
D12*
%TO.P,SW17,1,1*%
%TO.N,col 4*%
X84190000Y-78380000D03*
%TO.P,SW17,2,2*%
%TO.N,Net-(D17-A)*%
X90540000Y-75840000D03*
%TD*%
%TO.P,SW95,1,1*%
%TO.N,col 21*%
X443310000Y-145015000D03*
%TO.P,SW95,2,2*%
%TO.N,Net-(D95-A)*%
X449660000Y-142475000D03*
%TD*%
D10*
%TO.P,D14,1,K*%
%TO.N,row 2*%
X40400000Y-83410000D03*
D11*
%TO.P,D14,2,A*%
%TO.N,Net-(D14-A)*%
X40400000Y-75790000D03*
%TD*%
D10*
%TO.P,D31,1,K*%
%TO.N,row 3*%
X107100000Y-102500000D03*
D11*
%TO.P,D31,2,A*%
%TO.N,Net-(D31-A)*%
X107100000Y-94880000D03*
%TD*%
D12*
%TO.P,SW65,1,1*%
%TO.N,col 11*%
X241270000Y-135500000D03*
%TO.P,SW65,2,2*%
%TO.N,Net-(D65-A)*%
X247620000Y-132960000D03*
%TD*%
%TO.P,SW53,1,1*%
%TO.N,col 12*%
X250790000Y-116460000D03*
%TO.P,SW53,2,2*%
%TO.N,Net-(D53-A)*%
X257140000Y-113920000D03*
%TD*%
%TO.P,SW28,1,1*%
%TO.N,col 1*%
X31830000Y-97420000D03*
%TO.P,SW28,2,2*%
%TO.N,Net-(D28-A)*%
X38180000Y-94880000D03*
%TD*%
%TO.P,SW44,1,1*%
%TO.N,col 3*%
X79430000Y-116460000D03*
%TO.P,SW44,2,2*%
%TO.N,Net-(D44-A)*%
X85780000Y-113920000D03*
%TD*%
D10*
%TO.P,D84,1,K*%
%TO.N,row 1*%
X399575000Y-83425000D03*
D11*
%TO.P,D84,2,A*%
%TO.N,Net-(D84-A)*%
X399575000Y-75805000D03*
%TD*%
D12*
%TO.P,SW67,1,1*%
%TO.N,col 1*%
X29510000Y-154540000D03*
%TO.P,SW67,2,2*%
%TO.N,Net-(D67-A)*%
X35860000Y-152000000D03*
%TD*%
D10*
%TO.P,D102,1,K*%
%TO.N,row 2*%
X456650000Y-96775000D03*
D11*
%TO.P,D102,2,A*%
%TO.N,Net-(D102-A)*%
X456650000Y-104395000D03*
%TD*%
D10*
%TO.P,D93,1,K*%
%TO.N,row 2*%
X418550000Y-102475000D03*
D11*
%TO.P,D93,2,A*%
%TO.N,Net-(D93-A)*%
X418550000Y-94855000D03*
%TD*%
D12*
%TO.P,SW68,1,1*%
%TO.N,col 2*%
X53310000Y-154540000D03*
%TO.P,SW68,2,2*%
%TO.N,Net-(D68-A)*%
X59660000Y-152000000D03*
%TD*%
D10*
%TO.P,D35,1,K*%
%TO.N,row 3*%
X183200000Y-102500000D03*
D11*
%TO.P,D35,2,A*%
%TO.N,Net-(D35-A)*%
X183200000Y-94880000D03*
%TD*%
D12*
%TO.P,SW25,1,1*%
%TO.N,col 12*%
X236510000Y-78380000D03*
%TO.P,SW25,2,2*%
%TO.N,Net-(D25-A)*%
X242860000Y-75840000D03*
%TD*%
D10*
%TO.P,D40,1,K*%
%TO.N,row 3*%
X278400000Y-102500000D03*
D11*
%TO.P,D40,2,A*%
%TO.N,Net-(D40-A)*%
X278400000Y-94880000D03*
%TD*%
D10*
%TO.P,D103,1,K*%
%TO.N,row 4*%
X418500000Y-140625000D03*
D11*
%TO.P,D103,2,A*%
%TO.N,Net-(D103-A)*%
X418500000Y-133005000D03*
%TD*%
D10*
%TO.P,D95,1,K*%
%TO.N,row 4*%
X456700000Y-134925000D03*
D11*
%TO.P,D95,2,A*%
%TO.N,Net-(D95-A)*%
X456700000Y-142545000D03*
%TD*%
D12*
%TO.P,SW62,1,1*%
%TO.N,col 8*%
X184150000Y-135500000D03*
%TO.P,SW62,2,2*%
%TO.N,Net-(D62-A)*%
X190500000Y-132960000D03*
%TD*%
D17*
%TO.P,R3,1*%
%TO.N,SCL*%
X319400000Y-123425000D03*
D18*
%TO.P,R3,2*%
%TO.N,+3.3V*%
X311780000Y-123425000D03*
%TD*%
D12*
%TO.P,SW38,1,1*%
%TO.N,col 11*%
X226990000Y-97420000D03*
%TO.P,SW38,2,2*%
%TO.N,Net-(D38-A)*%
X233340000Y-94880000D03*
%TD*%
D10*
%TO.P,D42,1,K*%
%TO.N,row 4*%
X54700000Y-121510000D03*
D11*
%TO.P,D42,2,A*%
%TO.N,Net-(D42-A)*%
X54700000Y-113890000D03*
%TD*%
D12*
%TO.P,SW58,1,1*%
%TO.N,col 4*%
X107990000Y-135500000D03*
%TO.P,SW58,2,2*%
%TO.N,Net-(D58-A)*%
X114340000Y-132960000D03*
%TD*%
%TO.P,SW13,1,1*%
%TO.N,col 13*%
X293630000Y-54580000D03*
%TO.P,SW13,2,2*%
%TO.N,Net-(D13-A)*%
X299980000Y-52040000D03*
%TD*%
D10*
%TO.P,D68,1,K*%
%TO.N,row 6*%
X69100000Y-159635000D03*
D11*
%TO.P,D68,2,A*%
%TO.N,Net-(D68-A)*%
X69100000Y-152015000D03*
%TD*%
D10*
%TO.P,D48,1,K*%
%TO.N,row 4*%
X168900000Y-121500000D03*
D11*
%TO.P,D48,2,A*%
%TO.N,Net-(D48-A)*%
X168900000Y-113880000D03*
%TD*%
D12*
%TO.P,SW23,1,1*%
%TO.N,col 10*%
X198430000Y-78380000D03*
%TO.P,SW23,2,2*%
%TO.N,Net-(D23-A)*%
X204780000Y-75840000D03*
%TD*%
%TO.P,SW22,1,1*%
%TO.N,col 9*%
X179390000Y-78380000D03*
%TO.P,SW22,2,2*%
%TO.N,Net-(D22-A)*%
X185740000Y-75840000D03*
%TD*%
%TO.P,SW88,1,1*%
%TO.N,col 18*%
X386190000Y-97415000D03*
%TO.P,SW88,2,2*%
%TO.N,Net-(D88-A)*%
X392540000Y-94875000D03*
%TD*%
%TO.P,SW20,1,1*%
%TO.N,col 7*%
X141310000Y-78380000D03*
%TO.P,SW20,2,2*%
%TO.N,Net-(D20-A)*%
X147660000Y-75840000D03*
%TD*%
%TO.P,SW18,1,1*%
%TO.N,col 5*%
X103230000Y-78380000D03*
%TO.P,SW18,2,2*%
%TO.N,Net-(D18-A)*%
X109580000Y-75840000D03*
%TD*%
%TO.P,SW33,1,1*%
%TO.N,col 6*%
X131790000Y-97420000D03*
%TO.P,SW33,2,2*%
%TO.N,Net-(D33-A)*%
X138140000Y-94880000D03*
%TD*%
%TO.P,SW6,1,1*%
%TO.N,col 6*%
X150830000Y-54580000D03*
%TO.P,SW6,2,2*%
%TO.N,Net-(D6-A)*%
X157180000Y-52040000D03*
%TD*%
D10*
%TO.P,D54,1,K*%
%TO.N,row 4*%
X307000000Y-121500000D03*
D11*
%TO.P,D54,2,A*%
%TO.N,Net-(D54-A)*%
X307000000Y-113880000D03*
%TD*%
D12*
%TO.P,SW91,1,1*%
%TO.N,col 18*%
X395710000Y-154535000D03*
%TO.P,SW91,2,2*%
%TO.N,Net-(D91-A)*%
X402060000Y-151995000D03*
%TD*%
%TO.P,SW85,1,1*%
%TO.N,col 15*%
X319870000Y-154535000D03*
%TO.P,SW85,2,2*%
%TO.N,Net-(D85-A)*%
X326220000Y-151995000D03*
%TD*%
D10*
%TO.P,D21,1,K*%
%TO.N,row 2*%
X173700000Y-83400000D03*
D11*
%TO.P,D21,2,A*%
%TO.N,Net-(D21-A)*%
X173700000Y-75780000D03*
%TD*%
D10*
%TO.P,D58,1,K*%
%TO.N,row 5*%
X121300000Y-140550000D03*
D11*
%TO.P,D58,2,A*%
%TO.N,Net-(D58-A)*%
X121300000Y-132930000D03*
%TD*%
D10*
%TO.P,D101,1,K*%
%TO.N,row 4*%
X399525000Y-140600000D03*
D11*
%TO.P,D101,2,A*%
%TO.N,Net-(D101-A)*%
X399525000Y-132980000D03*
%TD*%
D12*
%TO.P,SW24,1,1*%
%TO.N,col 11*%
X217470000Y-78380000D03*
%TO.P,SW24,2,2*%
%TO.N,Net-(D24-A)*%
X223820000Y-75840000D03*
%TD*%
D10*
%TO.P,D10,1,K*%
%TO.N,row 1*%
X249800000Y-59660000D03*
D11*
%TO.P,D10,2,A*%
%TO.N,Net-(D10-A)*%
X249800000Y-52040000D03*
%TD*%
D10*
%TO.P,D36,1,K*%
%TO.N,row 3*%
X202200000Y-102500000D03*
D11*
%TO.P,D36,2,A*%
%TO.N,Net-(D36-A)*%
X202200000Y-94880000D03*
%TD*%
D10*
%TO.P,D6,1,K*%
%TO.N,row 1*%
X164200000Y-59660000D03*
D11*
%TO.P,D6,2,A*%
%TO.N,Net-(D6-A)*%
X164200000Y-52040000D03*
%TD*%
D10*
%TO.P,D32,1,K*%
%TO.N,row 3*%
X126100000Y-102500000D03*
D11*
%TO.P,D32,2,A*%
%TO.N,Net-(D32-A)*%
X126100000Y-94880000D03*
%TD*%
D12*
%TO.P,SW40,1,1*%
%TO.N,col 13*%
X265070000Y-97420000D03*
%TO.P,SW40,2,2*%
%TO.N,Net-(D40-A)*%
X271420000Y-94880000D03*
%TD*%
%TO.P,SW31,1,1*%
%TO.N,col 4*%
X93710000Y-97420000D03*
%TO.P,SW31,2,2*%
%TO.N,Net-(D31-A)*%
X100060000Y-94880000D03*
%TD*%
D10*
%TO.P,D97,1,K*%
%TO.N,row 2*%
X437575000Y-102525000D03*
D11*
%TO.P,D97,2,A*%
%TO.N,Net-(D97-A)*%
X437575000Y-94905000D03*
%TD*%
D12*
%TO.P,SW39,1,1*%
%TO.N,col 12*%
X246030000Y-97420000D03*
%TO.P,SW39,2,2*%
%TO.N,Net-(D39-A)*%
X252380000Y-94880000D03*
%TD*%
D10*
%TO.P,D100,1,K*%
%TO.N,row 1*%
X456625000Y-83460000D03*
D11*
%TO.P,D100,2,A*%
%TO.N,Net-(D100-A)*%
X456625000Y-75840000D03*
%TD*%
D12*
%TO.P,SW92,1,1*%
%TO.N,col 19*%
X405230000Y-78375000D03*
%TO.P,SW92,2,2*%
%TO.N,Net-(D92-A)*%
X411580000Y-75835000D03*
%TD*%
D10*
%TO.P,D29,1,K*%
%TO.N,row 3*%
X69000000Y-102500000D03*
D11*
%TO.P,D29,2,A*%
%TO.N,Net-(D29-A)*%
X69000000Y-94880000D03*
%TD*%
D10*
%TO.P,D22,1,K*%
%TO.N,row 2*%
X192800000Y-83410000D03*
D11*
%TO.P,D22,2,A*%
%TO.N,Net-(D22-A)*%
X192800000Y-75790000D03*
%TD*%
D12*
%TO.P,SW103,1,1*%
%TO.N,col 19*%
X405230000Y-135495000D03*
%TO.P,SW103,2,2*%
%TO.N,Net-(D103-A)*%
X411580000Y-132955000D03*
%TD*%
%TO.P,SW9,1,1*%
%TO.N,col 9*%
X207950000Y-54580000D03*
%TO.P,SW9,2,2*%
%TO.N,Net-(D9-A)*%
X214300000Y-52040000D03*
%TD*%
%TO.P,SW73,1,1*%
%TO.N,col 11*%
X267525000Y-154550000D03*
%TO.P,SW73,2,2*%
%TO.N,Net-(D73-A)*%
X273875000Y-152010000D03*
%TD*%
D10*
%TO.P,D12,1,K*%
%TO.N,row 1*%
X288000000Y-59660000D03*
D11*
%TO.P,D12,2,A*%
%TO.N,Net-(D12-A)*%
X288000000Y-52040000D03*
%TD*%
D10*
%TO.P,D27,1,K*%
%TO.N,row 2*%
X306950000Y-83435000D03*
D11*
%TO.P,D27,2,A*%
%TO.N,Net-(D27-A)*%
X306950000Y-75815000D03*
%TD*%
D10*
%TO.P,D38,1,K*%
%TO.N,row 3*%
X240300000Y-102500000D03*
D11*
%TO.P,D38,2,A*%
%TO.N,Net-(D38-A)*%
X240300000Y-94880000D03*
%TD*%
D10*
%TO.P,D89,1,K*%
%TO.N,row 5*%
X371225000Y-159650000D03*
D11*
%TO.P,D89,2,A*%
%TO.N,Net-(D89-A)*%
X371225000Y-152030000D03*
%TD*%
D10*
%TO.P,D57,1,K*%
%TO.N,row 5*%
X102350000Y-140600000D03*
D11*
%TO.P,D57,2,A*%
%TO.N,Net-(D57-A)*%
X102350000Y-132980000D03*
%TD*%
D12*
%TO.P,SW87,1,1*%
%TO.N,col 16*%
X338910000Y-154535000D03*
%TO.P,SW87,2,2*%
%TO.N,Net-(D87-A)*%
X345260000Y-151995000D03*
%TD*%
D10*
%TO.P,D79,1,K*%
%TO.N,row 2*%
X352200000Y-83420000D03*
D11*
%TO.P,D79,2,A*%
%TO.N,Net-(D79-A)*%
X352200000Y-75800000D03*
%TD*%
D12*
%TO.P,SW86,1,1*%
%TO.N,col 16*%
X338910000Y-135495000D03*
%TO.P,SW86,2,2*%
%TO.N,Net-(D86-A)*%
X345260000Y-132955000D03*
%TD*%
D10*
%TO.P,D81,1,K*%
%TO.N,row 1*%
X371375000Y-59665000D03*
D11*
%TO.P,D81,2,A*%
%TO.N,Net-(D81-A)*%
X371375000Y-52045000D03*
%TD*%
D10*
%TO.P,D45,1,K*%
%TO.N,row 4*%
X111800000Y-121510000D03*
D11*
%TO.P,D45,2,A*%
%TO.N,Net-(D45-A)*%
X111800000Y-113890000D03*
%TD*%
D12*
%TO.P,SW26,1,1*%
%TO.N,col 13*%
X255550000Y-78380000D03*
%TO.P,SW26,2,2*%
%TO.N,Net-(D26-A)*%
X261900000Y-75840000D03*
%TD*%
%TO.P,SW61,1,1*%
%TO.N,col 7*%
X165110000Y-135500000D03*
%TO.P,SW61,2,2*%
%TO.N,Net-(D61-A)*%
X171460000Y-132960000D03*
%TD*%
D10*
%TO.P,D43,1,K*%
%TO.N,row 4*%
X73700000Y-121510000D03*
D11*
%TO.P,D43,2,A*%
%TO.N,Net-(D43-A)*%
X73700000Y-113890000D03*
%TD*%
D10*
%TO.P,D46,1,K*%
%TO.N,row 4*%
X130900000Y-121510000D03*
D11*
%TO.P,D46,2,A*%
%TO.N,Net-(D46-A)*%
X130900000Y-113890000D03*
%TD*%
D12*
%TO.P,SW96,1,1*%
%TO.N,col 20*%
X424270000Y-78375000D03*
%TO.P,SW96,2,2*%
%TO.N,Net-(D96-A)*%
X430620000Y-75835000D03*
%TD*%
%TO.P,SW47,1,1*%
%TO.N,col 6*%
X136550000Y-116460000D03*
%TO.P,SW47,2,2*%
%TO.N,Net-(D47-A)*%
X142900000Y-113920000D03*
%TD*%
%TO.P,SW21,1,1*%
%TO.N,col 8*%
X160350000Y-78380000D03*
%TO.P,SW21,2,2*%
%TO.N,Net-(D21-A)*%
X166700000Y-75840000D03*
%TD*%
D10*
%TO.P,D17,1,K*%
%TO.N,row 2*%
X97600000Y-83400000D03*
D11*
%TO.P,D17,2,A*%
%TO.N,Net-(D17-A)*%
X97600000Y-75780000D03*
%TD*%
D12*
%TO.P,SW102,1,1*%
%TO.N,col 21*%
X443310000Y-106935000D03*
%TO.P,SW102,2,2*%
%TO.N,Net-(D102-A)*%
X449660000Y-104395000D03*
%TD*%
%TO.P,SW99,1,1*%
%TO.N,col 20*%
X424270000Y-154535000D03*
%TO.P,SW99,2,2*%
%TO.N,Net-(D99-A)*%
X430620000Y-151995000D03*
%TD*%
D10*
%TO.P,D88,1,K*%
%TO.N,row 2*%
X399575000Y-102475000D03*
D11*
%TO.P,D88,2,A*%
%TO.N,Net-(D88-A)*%
X399575000Y-94855000D03*
%TD*%
D12*
%TO.P,SW11,1,1*%
%TO.N,col 11*%
X255550000Y-54580000D03*
%TO.P,SW11,2,2*%
%TO.N,Net-(D11-A)*%
X261900000Y-52040000D03*
%TD*%
D10*
%TO.P,D75,1,K*%
%TO.N,row 1*%
X333250000Y-59615000D03*
D11*
%TO.P,D75,2,A*%
%TO.N,Net-(D75-A)*%
X333250000Y-51995000D03*
%TD*%
D12*
%TO.P,SW48,1,1*%
%TO.N,col 7*%
X155590000Y-116460000D03*
%TO.P,SW48,2,2*%
%TO.N,Net-(D48-A)*%
X161940000Y-113920000D03*
%TD*%
D10*
%TO.P,D15,1,K*%
%TO.N,row 2*%
X59400000Y-83400000D03*
D11*
%TO.P,D15,2,A*%
%TO.N,Net-(D15-A)*%
X59400000Y-75780000D03*
%TD*%
D12*
%TO.P,SW71,1,1*%
%TO.N,col 9*%
X219910000Y-154540000D03*
%TO.P,SW71,2,2*%
%TO.N,Net-(D71-A)*%
X226260000Y-152000000D03*
%TD*%
%TO.P,SW27,1,1*%
%TO.N,col 14*%
X284110000Y-78380000D03*
%TO.P,SW27,2,2*%
%TO.N,Net-(D27-A)*%
X290460000Y-75840000D03*
%TD*%
D10*
%TO.P,D59,1,K*%
%TO.N,row 5*%
X140400000Y-140550000D03*
D11*
%TO.P,D59,2,A*%
%TO.N,Net-(D59-A)*%
X140400000Y-132930000D03*
%TD*%
D12*
%TO.P,SW16,1,1*%
%TO.N,col 3*%
X65150000Y-78380000D03*
%TO.P,SW16,2,2*%
%TO.N,Net-(D16-A)*%
X71500000Y-75840000D03*
%TD*%
D10*
%TO.P,D20,1,K*%
%TO.N,row 2*%
X154700000Y-83410000D03*
D11*
%TO.P,D20,2,A*%
%TO.N,Net-(D20-A)*%
X154700000Y-75790000D03*
%TD*%
D10*
%TO.P,D26,1,K*%
%TO.N,row 2*%
X268900000Y-83400000D03*
D11*
%TO.P,D26,2,A*%
%TO.N,Net-(D26-A)*%
X268900000Y-75780000D03*
%TD*%
D12*
%TO.P,SW2,1,1*%
%TO.N,col 2*%
X65150000Y-54580000D03*
%TO.P,SW2,2,2*%
%TO.N,Net-(D2-A)*%
X71500000Y-52040000D03*
%TD*%
D10*
%TO.P,D77,1,K*%
%TO.N,row 3*%
X333200000Y-102470000D03*
D11*
%TO.P,D77,2,A*%
%TO.N,Net-(D77-A)*%
X333200000Y-94850000D03*
%TD*%
D12*
%TO.P,SW57,1,1*%
%TO.N,col 3*%
X88950000Y-135500000D03*
%TO.P,SW57,2,2*%
%TO.N,Net-(D57-A)*%
X95300000Y-132960000D03*
%TD*%
D10*
%TO.P,D49,1,K*%
%TO.N,row 4*%
X188000000Y-121500000D03*
D11*
%TO.P,D49,2,A*%
%TO.N,Net-(D49-A)*%
X188000000Y-113880000D03*
%TD*%
D12*
%TO.P,SW45,1,1*%
%TO.N,col 4*%
X98470000Y-116460000D03*
%TO.P,SW45,2,2*%
%TO.N,Net-(D45-A)*%
X104820000Y-113920000D03*
%TD*%
D10*
%TO.P,D80,1,K*%
%TO.N,row 3*%
X352275000Y-102525000D03*
D11*
%TO.P,D80,2,A*%
%TO.N,Net-(D80-A)*%
X352275000Y-94905000D03*
%TD*%
D12*
%TO.P,SW60,1,1*%
%TO.N,col 6*%
X146070000Y-135500000D03*
%TO.P,SW60,2,2*%
%TO.N,Net-(D60-A)*%
X152420000Y-132960000D03*
%TD*%
D10*
%TO.P,D91,1,K*%
%TO.N,row 5*%
X418600000Y-159725000D03*
D11*
%TO.P,D91,2,A*%
%TO.N,Net-(D91-A)*%
X418600000Y-152105000D03*
%TD*%
D10*
%TO.P,D61,1,K*%
%TO.N,row 5*%
X178500000Y-140550000D03*
D11*
%TO.P,D61,2,A*%
%TO.N,Net-(D61-A)*%
X178500000Y-132930000D03*
%TD*%
D10*
%TO.P,D99,1,K*%
%TO.N,row 5*%
X437675000Y-159625000D03*
D11*
%TO.P,D99,2,A*%
%TO.N,Net-(D99-A)*%
X437675000Y-152005000D03*
%TD*%
D12*
%TO.P,SW90,1,1*%
%TO.N,col 18*%
X386190000Y-116455000D03*
%TO.P,SW90,2,2*%
%TO.N,Net-(D90-A)*%
X392540000Y-113915000D03*
%TD*%
%TO.P,SW50,1,1*%
%TO.N,col 9*%
X193670000Y-116460000D03*
%TO.P,SW50,2,2*%
%TO.N,Net-(D50-A)*%
X200020000Y-113920000D03*
%TD*%
D10*
%TO.P,D66,1,K*%
%TO.N,row 5*%
X307050000Y-140600000D03*
D11*
%TO.P,D66,2,A*%
%TO.N,Net-(D66-A)*%
X307050000Y-132980000D03*
%TD*%
D12*
%TO.P,SW55,1,1*%
%TO.N,col 1*%
X38960000Y-135500000D03*
%TO.P,SW55,2,2*%
%TO.N,Net-(D55-A)*%
X45310000Y-132960000D03*
%TD*%
D10*
%TO.P,D69,1,K*%
%TO.N,row 6*%
X92900000Y-159575000D03*
D11*
%TO.P,D69,2,A*%
%TO.N,Net-(D69-A)*%
X92900000Y-151955000D03*
%TD*%
D12*
%TO.P,SW89,1,1*%
%TO.N,col 17*%
X357950000Y-154535000D03*
%TO.P,SW89,2,2*%
%TO.N,Net-(D89-A)*%
X364300000Y-151995000D03*
%TD*%
%TO.P,SW101,1,1*%
%TO.N,col 18*%
X386190000Y-135495000D03*
%TO.P,SW101,2,2*%
%TO.N,Net-(D101-A)*%
X392540000Y-132955000D03*
%TD*%
D10*
%TO.P,D65,1,K*%
%TO.N,row 5*%
X254650000Y-140600000D03*
D11*
%TO.P,D65,2,A*%
%TO.N,Net-(D65-A)*%
X254650000Y-132980000D03*
%TD*%
D12*
%TO.P,SW77,1,1*%
%TO.N,col 15*%
X319870000Y-97415000D03*
%TO.P,SW77,2,2*%
%TO.N,Net-(D77-A)*%
X326220000Y-94875000D03*
%TD*%
%TO.P,SW70,1,1*%
%TO.N,col 6*%
X148595000Y-154535000D03*
%TO.P,SW70,2,2*%
%TO.N,Net-(D70-A)*%
X154945000Y-151995000D03*
%TD*%
%TO.P,F2,1,1*%
%TO.N,col 3*%
X84190000Y-54580000D03*
%TO.P,F2,2,2*%
%TO.N,Net-(D3-A)*%
X90540000Y-52040000D03*
%TD*%
%TO.P,SW4,1,1*%
%TO.N,col 4*%
X103230000Y-54580000D03*
%TO.P,SW4,2,2*%
%TO.N,Net-(D4-A)*%
X109580000Y-52040000D03*
%TD*%
%TO.P,SW41,1,1*%
%TO.N,col 14*%
X288870000Y-97420000D03*
%TO.P,SW41,2,2*%
%TO.N,Net-(D41-A)*%
X295220000Y-94880000D03*
%TD*%
%TO.P,SW79,1,1*%
%TO.N,col 16*%
X338910000Y-78375000D03*
%TO.P,SW79,2,2*%
%TO.N,Net-(D79-A)*%
X345260000Y-75835000D03*
%TD*%
D10*
%TO.P,D64,1,K*%
%TO.N,row 5*%
X235550000Y-140600000D03*
D11*
%TO.P,D64,2,A*%
%TO.N,Net-(D64-A)*%
X235550000Y-132980000D03*
%TD*%
D10*
%TO.P,D23,1,K*%
%TO.N,row 2*%
X211800000Y-83410000D03*
D11*
%TO.P,D23,2,A*%
%TO.N,Net-(D23-A)*%
X211800000Y-75790000D03*
%TD*%
D10*
%TO.P,D56,1,K*%
%TO.N,row 5*%
X83250000Y-140600000D03*
D11*
%TO.P,D56,2,A*%
%TO.N,Net-(D56-A)*%
X83250000Y-132980000D03*
%TD*%
D10*
%TO.P,D51,1,K*%
%TO.N,row 4*%
X226100000Y-121500000D03*
D11*
%TO.P,D51,2,A*%
%TO.N,Net-(D51-A)*%
X226100000Y-113880000D03*
%TD*%
D12*
%TO.P,SW94,1,1*%
%TO.N,col 19*%
X405230000Y-116455000D03*
%TO.P,SW94,2,2*%
%TO.N,Net-(D94-A)*%
X411580000Y-113915000D03*
%TD*%
D10*
%TO.P,D92,1,K*%
%TO.N,row 1*%
X418600000Y-83425000D03*
D11*
%TO.P,D92,2,A*%
%TO.N,Net-(D92-A)*%
X418600000Y-75805000D03*
%TD*%
D10*
%TO.P,D82,1,K*%
%TO.N,row 2*%
X371350000Y-83470000D03*
D11*
%TO.P,D82,2,A*%
%TO.N,Net-(D82-A)*%
X371350000Y-75850000D03*
%TD*%
D12*
%TO.P,SW54,1,1*%
%TO.N,col 14*%
X281750000Y-116460000D03*
%TO.P,SW54,2,2*%
%TO.N,Net-(D54-A)*%
X288100000Y-113920000D03*
%TD*%
D10*
%TO.P,D96,1,K*%
%TO.N,row 1*%
X437625000Y-83425000D03*
D11*
%TO.P,D96,2,A*%
%TO.N,Net-(D96-A)*%
X437625000Y-75805000D03*
%TD*%
D16*
%TO.P,U1,1,GPIO0*%
%TO.N,Net-(U1-GPIO0)*%
X454240000Y-49615000D03*
D19*
X454240000Y-48715000D03*
D16*
%TO.P,U1,2,GPIO1*%
%TO.N,col 1*%
X451700000Y-49615000D03*
D19*
X451700000Y-48715000D03*
D15*
%TO.P,U1,3,GND*%
%TO.N,unconnected-(U1-GND-Pad3)*%
X449160000Y-49615000D03*
D19*
%TO.N,unconnected-(U1-GND-Pad3)_1*%
X449160000Y-48715000D03*
D16*
%TO.P,U1,4,GPIO2*%
%TO.N,col 2*%
X446620000Y-49615000D03*
D19*
X446620000Y-48715000D03*
D16*
%TO.P,U1,5,GPIO3*%
%TO.N,col 3*%
X444080000Y-49615000D03*
D19*
X444080000Y-48715000D03*
D16*
%TO.P,U1,6,GPIO4*%
%TO.N,col 4*%
X441540000Y-49615000D03*
D19*
X441540000Y-48715000D03*
D16*
%TO.P,U1,7,GPIO5*%
%TO.N,col 5*%
X439000000Y-49615000D03*
D19*
X439000000Y-48715000D03*
D15*
%TO.P,U1,8,GND*%
%TO.N,unconnected-(U1-GND-Pad8)*%
X436460000Y-49615000D03*
D19*
%TO.N,unconnected-(U1-GND-Pad8)_1*%
X436460000Y-48715000D03*
D16*
%TO.P,U1,9,GPIO6*%
%TO.N,col 6*%
X433920000Y-49615000D03*
D19*
X433920000Y-48715000D03*
D16*
%TO.P,U1,10,GPIO7*%
%TO.N,col 7*%
X431380000Y-49615000D03*
D19*
X431380000Y-48715000D03*
D16*
%TO.P,U1,11,GPIO8*%
%TO.N,col 8*%
X428840000Y-49615000D03*
D19*
X428840000Y-48715000D03*
D16*
%TO.P,U1,12,GPIO9*%
%TO.N,col 9*%
X426300000Y-49615000D03*
D19*
X426300000Y-48715000D03*
D15*
%TO.P,U1,13,GND*%
%TO.N,unconnected-(U1-GND-Pad13)*%
X423760000Y-49615000D03*
D19*
%TO.N,unconnected-(U1-GND-Pad13)_1*%
X423760000Y-48715000D03*
D16*
%TO.P,U1,14,GPIO10*%
%TO.N,col 10*%
X421220000Y-49615000D03*
D19*
X421220000Y-48715000D03*
D16*
%TO.P,U1,15,GPIO11*%
%TO.N,col 11*%
X418680000Y-49615000D03*
D19*
X418680000Y-48715000D03*
D16*
%TO.P,U1,16,GPIO12*%
%TO.N,col 12*%
X416140000Y-49615000D03*
D19*
X416140000Y-48715000D03*
D16*
%TO.P,U1,17,GPIO13*%
%TO.N,col 13*%
X413600000Y-49615000D03*
D19*
X413600000Y-48715000D03*
D15*
%TO.P,U1,18,GND*%
%TO.N,unconnected-(U1-GND-Pad18)_1*%
X411060000Y-49615000D03*
D19*
%TO.N,unconnected-(U1-GND-Pad18)*%
X411060000Y-48715000D03*
D16*
%TO.P,U1,19,GPIO14*%
%TO.N,col 14*%
X408520000Y-49615000D03*
D19*
X408520000Y-48715000D03*
D16*
%TO.P,U1,20,GPIO15*%
%TO.N,col 15*%
X405980000Y-49615000D03*
D19*
X405980000Y-48715000D03*
D16*
%TO.P,U1,21,GPIO16*%
%TO.N,col 16*%
X405980000Y-67395000D03*
D19*
X405980000Y-68295000D03*
D16*
%TO.P,U1,22,GPIO17*%
%TO.N,col 17*%
X408520000Y-67395000D03*
D19*
X408520000Y-68295000D03*
D15*
%TO.P,U1,23,GND*%
%TO.N,unconnected-(U1-GND-Pad23)_1*%
X411060000Y-67395000D03*
D19*
%TO.N,unconnected-(U1-GND-Pad23)*%
X411060000Y-68295000D03*
D16*
%TO.P,U1,24,GPIO18*%
%TO.N,col 18*%
X413600000Y-67395000D03*
D19*
X413600000Y-68295000D03*
D16*
%TO.P,U1,25,GPIO19*%
%TO.N,col 19*%
X416140000Y-67395000D03*
D19*
X416140000Y-68295000D03*
D16*
%TO.P,U1,26,GPIO20*%
%TO.N,col 20*%
X418680000Y-67395000D03*
D19*
X418680000Y-68295000D03*
D16*
%TO.P,U1,27,GPIO21*%
%TO.N,col 21*%
X421220000Y-67395000D03*
D19*
X421220000Y-68295000D03*
D15*
%TO.P,U1,28,GND*%
%TO.N,unconnected-(U1-GND-Pad28)*%
X423760000Y-67395000D03*
D19*
%TO.N,unconnected-(U1-GND-Pad28)_1*%
X423760000Y-68295000D03*
D16*
%TO.P,U1,29,GPIO22*%
%TO.N,SDA*%
X426300000Y-67395000D03*
D19*
X426300000Y-68295000D03*
D16*
%TO.P,U1,30,RUN*%
%TO.N,unconnected-(U1-RUN-Pad30)*%
X428840000Y-67395000D03*
D19*
%TO.N,unconnected-(U1-RUN-Pad30)_1*%
X428840000Y-68295000D03*
D16*
%TO.P,U1,31,GPIO26_ADC0*%
%TO.N,Net-(U1-GPIO26_ADC0)*%
X431380000Y-67395000D03*
D19*
X431380000Y-68295000D03*
D16*
%TO.P,U1,32,GPIO27_ADC1*%
%TO.N,Net-(U1-GPIO27_ADC1)*%
X433920000Y-67395000D03*
D19*
X433920000Y-68295000D03*
D15*
%TO.P,U1,33,AGND*%
%TO.N,unconnected-(U1-AGND-Pad33)*%
X436460000Y-67395000D03*
D19*
%TO.N,unconnected-(U1-AGND-Pad33)_1*%
X436460000Y-68295000D03*
D16*
%TO.P,U1,34,GPIO28_ADC2*%
%TO.N,SCL*%
X439000000Y-67395000D03*
D19*
X439000000Y-68295000D03*
D16*
%TO.P,U1,35,ADC_VREF*%
%TO.N,unconnected-(U1-ADC_VREF-Pad35)*%
X441540000Y-67395000D03*
D19*
%TO.N,unconnected-(U1-ADC_VREF-Pad35)_1*%
X441540000Y-68295000D03*
D16*
%TO.P,U1,36,3V3*%
%TO.N,unconnected-(U1-3V3-Pad36)*%
X444080000Y-67395000D03*
D19*
%TO.N,unconnected-(U1-3V3-Pad36)_1*%
X444080000Y-68295000D03*
D16*
%TO.P,U1,37,3V3_EN*%
%TO.N,unconnected-(U1-3V3_EN-Pad37)*%
X446620000Y-67395000D03*
D19*
%TO.N,unconnected-(U1-3V3_EN-Pad37)_1*%
X446620000Y-68295000D03*
D15*
%TO.P,U1,38,GND*%
%TO.N,unconnected-(U1-GND-Pad38)*%
X449160000Y-67395000D03*
D19*
%TO.N,unconnected-(U1-GND-Pad38)_1*%
X449160000Y-68295000D03*
D16*
%TO.P,U1,39,VSYS*%
%TO.N,unconnected-(U1-VSYS-Pad39)*%
X451700000Y-67395000D03*
D19*
%TO.N,unconnected-(U1-VSYS-Pad39)_1*%
X451700000Y-68295000D03*
D16*
%TO.P,U1,40,VBUS*%
%TO.N,unconnected-(U1-VBUS-Pad40)*%
X454240000Y-67395000D03*
D19*
%TO.N,unconnected-(U1-VBUS-Pad40)_1*%
X454240000Y-68295000D03*
D16*
%TO.P,U1,41,SWCLK*%
%TO.N,unconnected-(U1-SWCLK-Pad41)*%
X406210000Y-55965000D03*
D20*
%TO.N,unconnected-(U1-SWCLK-Pad41)_1*%
X405310000Y-55965000D03*
D15*
%TO.P,U1,42,GND*%
%TO.N,GND*%
X406210000Y-58505000D03*
D20*
X405310000Y-58505000D03*
D16*
%TO.P,U1,43,SWDIO*%
%TO.N,unconnected-(U1-SWDIO-Pad43)*%
X406210000Y-61045000D03*
D20*
%TO.N,unconnected-(U1-SWDIO-Pad43)_1*%
X405310000Y-61045000D03*
%TD*%
D12*
%TO.P,SW66,1,1*%
%TO.N,col 14*%
X277030000Y-135500000D03*
%TO.P,SW66,2,2*%
%TO.N,Net-(D66-A)*%
X283380000Y-132960000D03*
%TD*%
D10*
%TO.P,D41,1,K*%
%TO.N,row 3*%
X307000000Y-102500000D03*
D11*
%TO.P,D41,2,A*%
%TO.N,Net-(D41-A)*%
X307000000Y-94880000D03*
%TD*%
D10*
%TO.P,D39,1,K*%
%TO.N,row 3*%
X259400000Y-102500000D03*
D11*
%TO.P,D39,2,A*%
%TO.N,Net-(D39-A)*%
X259400000Y-94880000D03*
%TD*%
D12*
%TO.P,SW104,1,1*%
%TO.N,col 20*%
X424270000Y-135495000D03*
%TO.P,SW104,2,2*%
%TO.N,Net-(D104-A)*%
X430620000Y-132955000D03*
%TD*%
D10*
%TO.P,D11,1,K*%
%TO.N,row 1*%
X268900000Y-59660000D03*
D11*
%TO.P,D11,2,A*%
%TO.N,Net-(D11-A)*%
X268900000Y-52040000D03*
%TD*%
D10*
%TO.P,D62,1,K*%
%TO.N,row 5*%
X197500000Y-140600000D03*
D11*
%TO.P,D62,2,A*%
%TO.N,Net-(D62-A)*%
X197500000Y-132980000D03*
%TD*%
D10*
%TO.P,D55,1,K*%
%TO.N,row 5*%
X64250000Y-140610000D03*
D11*
%TO.P,D55,2,A*%
%TO.N,Net-(D55-A)*%
X64250000Y-132990000D03*
%TD*%
D12*
%TO.P,SW49,1,1*%
%TO.N,col 8*%
X174630000Y-116460000D03*
%TO.P,SW49,2,2*%
%TO.N,Net-(D49-A)*%
X180980000Y-113920000D03*
%TD*%
D10*
%TO.P,D16,1,K*%
%TO.N,row 2*%
X78500000Y-83400000D03*
D11*
%TO.P,D16,2,A*%
%TO.N,Net-(D16-A)*%
X78500000Y-75780000D03*
%TD*%
D12*
%TO.P,SW5,1,1*%
%TO.N,col 5*%
X122270000Y-54580000D03*
%TO.P,SW5,2,2*%
%TO.N,Net-(D5-A)*%
X128620000Y-52040000D03*
%TD*%
%TO.P,SW19,1,1*%
%TO.N,col 6*%
X122270000Y-78380000D03*
%TO.P,SW19,2,2*%
%TO.N,Net-(D19-A)*%
X128620000Y-75840000D03*
%TD*%
%TO.P,SW69,1,1*%
%TO.N,col 3*%
X77190000Y-154540000D03*
%TO.P,SW69,2,2*%
%TO.N,Net-(D69-A)*%
X83540000Y-152000000D03*
%TD*%
%TO.P,SW29,1,1*%
%TO.N,col 2*%
X55630000Y-97420000D03*
%TO.P,SW29,2,2*%
%TO.N,Net-(D29-A)*%
X61980000Y-94880000D03*
%TD*%
%TO.P,SW98,1,1*%
%TO.N,col 20*%
X424270000Y-116455000D03*
%TO.P,SW98,2,2*%
%TO.N,Net-(D98-A)*%
X430620000Y-113915000D03*
%TD*%
D10*
%TO.P,D87,1,K*%
%TO.N,row 5*%
X352175000Y-159600000D03*
D11*
%TO.P,D87,2,A*%
%TO.N,Net-(D87-A)*%
X352175000Y-151980000D03*
%TD*%
D10*
%TO.P,D94,1,K*%
%TO.N,row 3*%
X418600000Y-121525000D03*
D11*
%TO.P,D94,2,A*%
%TO.N,Net-(D94-A)*%
X418600000Y-113905000D03*
%TD*%
D10*
%TO.P,D74,1,K*%
%TO.N,row 6*%
X307025000Y-159725000D03*
D11*
%TO.P,D74,2,A*%
%TO.N,Net-(D74-A)*%
X307025000Y-152105000D03*
%TD*%
D21*
%TO.N,row 4*%
X457750000Y-55475000D03*
X399775000Y-54050000D03*
%TO.N,Net-(U1-GPIO0)*%
X401425000Y-65375000D03*
%TO.N,Net-(U1-GPIO27_ADC1)*%
X390200000Y-68200000D03*
X399170000Y-69750000D03*
X430450000Y-70975000D03*
%TO.N,+3.3V*%
X311925000Y-67100000D03*
X371825000Y-67100000D03*
X369025000Y-67100000D03*
%TO.N,SDA*%
X446450000Y-72225000D03*
X426325000Y-65125000D03*
%TO.N,SCL*%
X454000000Y-89075000D03*
%TO.N,col 16*%
X377850000Y-76775000D03*
%TO.N,col 17*%
X378087500Y-78412500D03*
%TD*%
D22*
%TO.N,row 4*%
X456325000Y-54050000D02*
X457750000Y-55475000D01*
X399775000Y-54050000D02*
X456325000Y-54050000D01*
%TO.N,Net-(U1-GPIO0)*%
X396900000Y-69900000D02*
X401425000Y-65375000D01*
X380700000Y-69900000D02*
X396900000Y-69900000D01*
X379000000Y-68200000D02*
X380700000Y-69900000D01*
%TO.N,+3.3V*%
X383535000Y-64795000D02*
X386940000Y-68200000D01*
X374130000Y-64795000D02*
X383535000Y-64795000D01*
X371825000Y-67100000D02*
X374130000Y-64795000D01*
%TO.N,Net-(U1-GPIO27_ADC1)*%
X388281705Y-68225000D02*
X390150000Y-68225000D01*
X386075000Y-51285000D02*
X386075000Y-66018295D01*
X386075000Y-66018295D02*
X388281705Y-68225000D01*
X386940000Y-50420000D02*
X386075000Y-51285000D01*
%TO.N,GND*%
X390331705Y-56351705D02*
X386940000Y-52960000D01*
X390331705Y-58505000D02*
X390331705Y-56351705D01*
X390385000Y-62215000D02*
X386940000Y-65660000D01*
X390385000Y-58505000D02*
X390385000Y-62215000D01*
%TO.N,Net-(U1-GPIO26_ADC0)*%
X382840000Y-69500000D02*
X394655000Y-69500000D01*
X379000000Y-65660000D02*
X382840000Y-69500000D01*
%TO.N,row 1*%
X370875000Y-60165000D02*
X371375000Y-59665000D01*
X437660000Y-83460000D02*
X437625000Y-83425000D01*
X175030000Y-59620000D02*
X175075000Y-59665000D01*
X40500000Y-59620000D02*
X175030000Y-59620000D01*
X399575000Y-83425000D02*
X385697588Y-83425000D01*
X370875000Y-68602412D02*
X370875000Y-60165000D01*
X175075000Y-59665000D02*
X371375000Y-59665000D01*
X385697588Y-83425000D02*
X370875000Y-68602412D01*
X413377412Y-83460000D02*
X454150000Y-83460000D01*
X399575000Y-83425000D02*
X413342412Y-83425000D01*
X456625000Y-83460000D02*
X437660000Y-83460000D01*
X413342412Y-83425000D02*
X413377412Y-83460000D01*
%TO.N,Net-(D1-A)*%
X40460000Y-52040000D02*
X40500000Y-52000000D01*
X33420000Y-52040000D02*
X40460000Y-52040000D01*
%TO.N,Net-(D2-A)*%
X71500000Y-52040000D02*
X78490000Y-52040000D01*
X78490000Y-52040000D02*
X78500000Y-52050000D01*
%TO.N,Net-(D3-A)*%
X97500000Y-52040000D02*
X90540000Y-52040000D01*
%TO.N,Net-(D4-A)*%
X109580000Y-52040000D02*
X116500000Y-52040000D01*
%TO.N,Net-(D5-A)*%
X135600000Y-52040000D02*
X128620000Y-52040000D01*
%TO.N,Net-(D6-A)*%
X157180000Y-52040000D02*
X164200000Y-52040000D01*
%TO.N,Net-(D7-A)*%
X183200000Y-52040000D02*
X176220000Y-52040000D01*
%TO.N,Net-(D8-A)*%
X202300000Y-52040000D02*
X195260000Y-52040000D01*
%TO.N,Net-(D9-A)*%
X214300000Y-52040000D02*
X221300000Y-52040000D01*
%TO.N,Net-(D10-A)*%
X242860000Y-52040000D02*
X249800000Y-52040000D01*
%TO.N,Net-(D11-A)*%
X268900000Y-52040000D02*
X261900000Y-52040000D01*
%TO.N,Net-(D12-A)*%
X280940000Y-52040000D02*
X288000000Y-52040000D01*
%TO.N,row 2*%
X450900000Y-102525000D02*
X456650000Y-96775000D01*
X371350000Y-83470000D02*
X376862588Y-83470000D01*
X40400000Y-83410000D02*
X371290000Y-83410000D01*
X376862588Y-83470000D02*
X395867588Y-102475000D01*
X399575000Y-102475000D02*
X437525000Y-102475000D01*
X437525000Y-102475000D02*
X437575000Y-102525000D01*
X395867588Y-102475000D02*
X399575000Y-102475000D01*
X437575000Y-102525000D02*
X450900000Y-102525000D01*
X371290000Y-83410000D02*
X371350000Y-83470000D01*
%TO.N,Net-(D14-A)*%
X33470000Y-75790000D02*
X33420000Y-75840000D01*
X40400000Y-75790000D02*
X33470000Y-75790000D01*
%TO.N,Net-(D15-A)*%
X52520000Y-75780000D02*
X52460000Y-75840000D01*
X59400000Y-75780000D02*
X52520000Y-75780000D01*
%TO.N,Net-(D16-A)*%
X78500000Y-75780000D02*
X71560000Y-75780000D01*
X71560000Y-75780000D02*
X71500000Y-75840000D01*
%TO.N,Net-(D17-A)*%
X90600000Y-75780000D02*
X90540000Y-75840000D01*
X97600000Y-75780000D02*
X90600000Y-75780000D01*
%TO.N,Net-(D18-A)*%
X116500000Y-75780000D02*
X109640000Y-75780000D01*
X109640000Y-75780000D02*
X109580000Y-75840000D01*
%TO.N,Net-(D19-A)*%
X128660000Y-75880000D02*
X128620000Y-75840000D01*
X135600000Y-75880000D02*
X128660000Y-75880000D01*
%TO.N,Net-(D20-A)*%
X154700000Y-75790000D02*
X147710000Y-75790000D01*
X147710000Y-75790000D02*
X147660000Y-75840000D01*
%TO.N,Net-(D21-A)*%
X166760000Y-75780000D02*
X166700000Y-75840000D01*
X173700000Y-75780000D02*
X166760000Y-75780000D01*
%TO.N,Net-(D22-A)*%
X185790000Y-75790000D02*
X185740000Y-75840000D01*
X192800000Y-75790000D02*
X185790000Y-75790000D01*
%TO.N,Net-(D23-A)*%
X204830000Y-75790000D02*
X204780000Y-75840000D01*
X211800000Y-75790000D02*
X204830000Y-75790000D01*
%TO.N,Net-(D24-A)*%
X223880000Y-75780000D02*
X223820000Y-75840000D01*
X230800000Y-75780000D02*
X223880000Y-75780000D01*
%TO.N,Net-(D25-A)*%
X249800000Y-75780000D02*
X242920000Y-75780000D01*
X242920000Y-75780000D02*
X242860000Y-75840000D01*
%TO.N,Net-(D26-A)*%
X261960000Y-75780000D02*
X261900000Y-75840000D01*
X268900000Y-75780000D02*
X261960000Y-75780000D01*
%TO.N,Net-(D27-A)*%
X306950000Y-75815000D02*
X290485000Y-75815000D01*
X290485000Y-75815000D02*
X290460000Y-75840000D01*
%TO.N,row 3*%
X378957968Y-102525000D02*
X394202968Y-117770000D01*
X395820000Y-117770000D02*
X399575000Y-121525000D01*
X399575000Y-121525000D02*
X437600000Y-121525000D01*
X371325000Y-102525000D02*
X378957968Y-102525000D01*
X371300000Y-102500000D02*
X371325000Y-102525000D01*
X49900000Y-102500000D02*
X371300000Y-102500000D01*
X437600000Y-121525000D02*
X437625000Y-121550000D01*
X394202968Y-117770000D02*
X395820000Y-117770000D01*
%TO.N,Net-(D28-A)*%
X38180000Y-94880000D02*
X49900000Y-94880000D01*
%TO.N,Net-(D29-A)*%
X69000000Y-94880000D02*
X61980000Y-94880000D01*
%TO.N,Net-(D30-A)*%
X81020000Y-94880000D02*
X88000000Y-94880000D01*
%TO.N,Net-(D31-A)*%
X100060000Y-94880000D02*
X107100000Y-94880000D01*
%TO.N,Net-(D32-A)*%
X119100000Y-94880000D02*
X126100000Y-94880000D01*
%TO.N,Net-(D33-A)*%
X138140000Y-94880000D02*
X145100000Y-94880000D01*
%TO.N,Net-(D34-A)*%
X157180000Y-94880000D02*
X164200000Y-94880000D01*
%TO.N,Net-(D35-A)*%
X176220000Y-94880000D02*
X183200000Y-94880000D01*
%TO.N,Net-(D36-A)*%
X195260000Y-94880000D02*
X202200000Y-94880000D01*
%TO.N,Net-(D37-A)*%
X214300000Y-94880000D02*
X221300000Y-94880000D01*
%TO.N,Net-(D38-A)*%
X233340000Y-94880000D02*
X240300000Y-94880000D01*
%TO.N,Net-(D39-A)*%
X259400000Y-94880000D02*
X252380000Y-94880000D01*
%TO.N,Net-(D40-A)*%
X278400000Y-94880000D02*
X271420000Y-94880000D01*
%TO.N,Net-(D41-A)*%
X295220000Y-94880000D02*
X307000000Y-94880000D01*
%TO.N,Net-(D42-A)*%
X54700000Y-113890000D02*
X40595000Y-113890000D01*
X40595000Y-113890000D02*
X40560000Y-113925000D01*
%TO.N,row 4*%
X306990000Y-121510000D02*
X307000000Y-121500000D01*
X437600000Y-140600000D02*
X437600000Y-138650000D01*
X352200000Y-140600000D02*
X437600000Y-140600000D01*
X54700000Y-121510000D02*
X306990000Y-121510000D01*
X307000000Y-121500000D02*
X326100000Y-140600000D01*
X441325000Y-134925000D02*
X456700000Y-134925000D01*
X437600000Y-138650000D02*
X441325000Y-134925000D01*
X326100000Y-140600000D02*
X352200000Y-140600000D01*
%TO.N,Net-(D43-A)*%
X66770000Y-113890000D02*
X66740000Y-113920000D01*
X73700000Y-113890000D02*
X66770000Y-113890000D01*
%TO.N,Net-(D44-A)*%
X85810000Y-113890000D02*
X85780000Y-113920000D01*
X92800000Y-113890000D02*
X85810000Y-113890000D01*
%TO.N,Net-(D45-A)*%
X104850000Y-113890000D02*
X104820000Y-113920000D01*
X111800000Y-113890000D02*
X104850000Y-113890000D01*
%TO.N,Net-(D46-A)*%
X130900000Y-113890000D02*
X123890000Y-113890000D01*
X123890000Y-113890000D02*
X123860000Y-113920000D01*
%TO.N,Net-(D47-A)*%
X142940000Y-113880000D02*
X142900000Y-113920000D01*
X149900000Y-113880000D02*
X142940000Y-113880000D01*
%TO.N,Net-(D48-A)*%
X161980000Y-113880000D02*
X161940000Y-113920000D01*
X168900000Y-113880000D02*
X161980000Y-113880000D01*
%TO.N,Net-(D49-A)*%
X188000000Y-113880000D02*
X181020000Y-113880000D01*
X181020000Y-113880000D02*
X180980000Y-113920000D01*
%TO.N,Net-(D50-A)*%
X207000000Y-113880000D02*
X200060000Y-113880000D01*
X200060000Y-113880000D02*
X200020000Y-113920000D01*
%TO.N,Net-(D51-A)*%
X226100000Y-113880000D02*
X219100000Y-113880000D01*
X219100000Y-113880000D02*
X219060000Y-113920000D01*
%TO.N,Net-(D52-A)*%
X238140000Y-113880000D02*
X238100000Y-113920000D01*
X245200000Y-113880000D02*
X238140000Y-113880000D01*
%TO.N,Net-(D53-A)*%
X264060000Y-113920000D02*
X264100000Y-113880000D01*
X257140000Y-113920000D02*
X264060000Y-113920000D01*
%TO.N,Net-(D54-A)*%
X307000000Y-113880000D02*
X288140000Y-113880000D01*
X288140000Y-113880000D02*
X288100000Y-113920000D01*
%TO.N,Net-(D55-A)*%
X45310000Y-132960000D02*
X64220000Y-132960000D01*
X64220000Y-132960000D02*
X64250000Y-132990000D01*
%TO.N,row 5*%
X285425000Y-140600000D02*
X307050000Y-140600000D01*
X319392588Y-159600000D02*
X333175000Y-159600000D01*
X307050000Y-147257412D02*
X319392588Y-159600000D01*
X437675000Y-159625000D02*
X418700000Y-159625000D01*
X371300000Y-159725000D02*
X371225000Y-159650000D01*
X285415000Y-140610000D02*
X285425000Y-140600000D01*
X418700000Y-159625000D02*
X418600000Y-159725000D01*
X64250000Y-140610000D02*
X285415000Y-140610000D01*
X418600000Y-159725000D02*
X371300000Y-159725000D01*
X333175000Y-159600000D02*
X352175000Y-159600000D01*
X371225000Y-159650000D02*
X352225000Y-159650000D01*
X352225000Y-159650000D02*
X352175000Y-159600000D01*
X307050000Y-140600000D02*
X307050000Y-147257412D01*
%TO.N,Net-(D56-A)*%
X76260000Y-132960000D02*
X83230000Y-132960000D01*
X83230000Y-132960000D02*
X83250000Y-132980000D01*
%TO.N,Net-(D57-A)*%
X95320000Y-132980000D02*
X95300000Y-132960000D01*
X102350000Y-132980000D02*
X95320000Y-132980000D01*
%TO.N,Net-(D58-A)*%
X114340000Y-132960000D02*
X121270000Y-132960000D01*
X121270000Y-132960000D02*
X121300000Y-132930000D01*
%TO.N,Net-(D59-A)*%
X133380000Y-132960000D02*
X140370000Y-132960000D01*
X140370000Y-132960000D02*
X140400000Y-132930000D01*
%TO.N,Net-(D60-A)*%
X159420000Y-132960000D02*
X159450000Y-132930000D01*
X152420000Y-132960000D02*
X159420000Y-132960000D01*
%TO.N,Net-(D61-A)*%
X171460000Y-132960000D02*
X178470000Y-132960000D01*
X178470000Y-132960000D02*
X178500000Y-132930000D01*
%TO.N,Net-(D62-A)*%
X190500000Y-132960000D02*
X197480000Y-132960000D01*
X197480000Y-132960000D02*
X197500000Y-132980000D01*
%TO.N,Net-(D63-A)*%
X209540000Y-132960000D02*
X216480000Y-132960000D01*
X216480000Y-132960000D02*
X216500000Y-132980000D01*
%TO.N,Net-(D64-A)*%
X235530000Y-132960000D02*
X235550000Y-132980000D01*
X228580000Y-132960000D02*
X235530000Y-132960000D01*
%TO.N,Net-(D65-A)*%
X247620000Y-132960000D02*
X254630000Y-132960000D01*
X254630000Y-132960000D02*
X254650000Y-132980000D01*
%TO.N,Net-(D66-A)*%
X307030000Y-132960000D02*
X307050000Y-132980000D01*
X283380000Y-132960000D02*
X307030000Y-132960000D01*
%TO.N,row 6*%
X306935000Y-159635000D02*
X307025000Y-159725000D01*
X45300000Y-159635000D02*
X306935000Y-159635000D01*
%TO.N,Net-(D67-A)*%
X35875000Y-152015000D02*
X35860000Y-152000000D01*
X45300000Y-152015000D02*
X35875000Y-152015000D01*
%TO.N,Net-(D68-A)*%
X59675000Y-152015000D02*
X59660000Y-152000000D01*
X69100000Y-152015000D02*
X59675000Y-152015000D01*
%TO.N,Net-(D69-A)*%
X83585000Y-151955000D02*
X83540000Y-152000000D01*
X92900000Y-151955000D02*
X83585000Y-151955000D01*
%TO.N,Net-(D70-A)*%
X154960000Y-151980000D02*
X154945000Y-151995000D01*
X211875000Y-151980000D02*
X154960000Y-151980000D01*
%TO.N,Net-(D71-A)*%
X235625000Y-152030000D02*
X226290000Y-152030000D01*
X226290000Y-152030000D02*
X226260000Y-152000000D01*
%TO.N,Net-(D72-A)*%
X250090000Y-152030000D02*
X250060000Y-152000000D01*
X259400000Y-152030000D02*
X250090000Y-152030000D01*
%TO.N,Net-(D73-A)*%
X283200000Y-152030000D02*
X273895000Y-152030000D01*
X273895000Y-152030000D02*
X273875000Y-152010000D01*
%TO.N,Net-(D74-A)*%
X307025000Y-152105000D02*
X297665000Y-152105000D01*
X297665000Y-152105000D02*
X297660000Y-152110000D01*
%TO.N,Net-(U1-GPIO27_ADC1)*%
X399170000Y-69750000D02*
X399820000Y-70400000D01*
X399820000Y-70400000D02*
X429875000Y-70400000D01*
X429875000Y-70400000D02*
X430450000Y-70975000D01*
%TO.N,+3.3V*%
X311925000Y-67100000D02*
X369025000Y-67100000D01*
%TO.N,Net-(U1-GPIO26_ADC0)*%
X428140000Y-64155000D02*
X431380000Y-67395000D01*
X400000000Y-64155000D02*
X428140000Y-64155000D01*
X394655000Y-69500000D02*
X400000000Y-64155000D01*
%TO.N,GND*%
X390385000Y-58505000D02*
X390500000Y-58505000D01*
X390331705Y-58505000D02*
X390385000Y-58505000D01*
X439873402Y-70345000D02*
X447253402Y-77725000D01*
X447253402Y-77725000D02*
X458300000Y-77725000D01*
X390500000Y-58505000D02*
X406210000Y-58505000D01*
X424790000Y-58505000D02*
X432530000Y-66245000D01*
X406210000Y-58505000D02*
X424790000Y-58505000D01*
X323680000Y-123975000D02*
X360075000Y-123975000D01*
X443359314Y-123975000D02*
X359925000Y-123975000D01*
X432530000Y-70345000D02*
X439873402Y-70345000D01*
X458300000Y-109034314D02*
X443359314Y-123975000D01*
X432530000Y-66245000D02*
X432530000Y-70345000D01*
X458300000Y-77725000D02*
X458300000Y-109034314D01*
%TO.N,Net-(D75-A)*%
X326220000Y-52035000D02*
X333210000Y-52035000D01*
X333210000Y-52035000D02*
X333250000Y-51995000D01*
%TO.N,Net-(D76-A)*%
X326235000Y-75850000D02*
X326220000Y-75835000D01*
X333150000Y-75850000D02*
X326235000Y-75850000D01*
%TO.N,Net-(D77-A)*%
X333175000Y-94875000D02*
X333200000Y-94850000D01*
X326220000Y-94875000D02*
X333175000Y-94875000D01*
%TO.N,Net-(D78-A)*%
X345270000Y-52025000D02*
X345260000Y-52035000D01*
X352250000Y-52025000D02*
X345270000Y-52025000D01*
%TO.N,Net-(D79-A)*%
X352200000Y-75800000D02*
X345295000Y-75800000D01*
X345295000Y-75800000D02*
X345260000Y-75835000D01*
%TO.N,Net-(D80-A)*%
X345260000Y-94875000D02*
X352245000Y-94875000D01*
X352245000Y-94875000D02*
X352275000Y-94905000D01*
%TO.N,Net-(D81-A)*%
X371365000Y-52035000D02*
X371375000Y-52045000D01*
X364300000Y-52035000D02*
X371365000Y-52035000D01*
%TO.N,Net-(D82-A)*%
X364315000Y-75850000D02*
X364300000Y-75835000D01*
X371350000Y-75850000D02*
X364315000Y-75850000D01*
%TO.N,Net-(D83-A)*%
X364300000Y-94875000D02*
X371295000Y-94875000D01*
X371295000Y-94875000D02*
X371325000Y-94905000D01*
%TO.N,Net-(D84-A)*%
X399545000Y-75835000D02*
X399575000Y-75805000D01*
X392540000Y-75835000D02*
X399545000Y-75835000D01*
%TO.N,Net-(D85-A)*%
X333175000Y-151980000D02*
X326235000Y-151980000D01*
X326235000Y-151980000D02*
X326220000Y-151995000D01*
%TO.N,Net-(D86-A)*%
X345260000Y-132955000D02*
X352175000Y-132955000D01*
X352175000Y-132955000D02*
X352200000Y-132980000D01*
%TO.N,Net-(D87-A)*%
X345275000Y-151980000D02*
X345260000Y-151995000D01*
X352175000Y-151980000D02*
X345275000Y-151980000D01*
%TO.N,Net-(D88-A)*%
X399575000Y-94855000D02*
X392560000Y-94855000D01*
X392560000Y-94855000D02*
X392540000Y-94875000D01*
%TO.N,Net-(D89-A)*%
X364335000Y-152030000D02*
X364300000Y-151995000D01*
X371225000Y-152030000D02*
X364335000Y-152030000D01*
%TO.N,Net-(D90-A)*%
X399575000Y-113905000D02*
X392550000Y-113905000D01*
X392550000Y-113905000D02*
X392540000Y-113915000D01*
%TO.N,Net-(D91-A)*%
X418600000Y-152105000D02*
X402170000Y-152105000D01*
X402170000Y-152105000D02*
X402060000Y-151995000D01*
%TO.N,Net-(D92-A)*%
X418570000Y-75835000D02*
X418600000Y-75805000D01*
X411580000Y-75835000D02*
X418570000Y-75835000D01*
%TO.N,Net-(D93-A)*%
X418530000Y-94875000D02*
X418550000Y-94855000D01*
X411580000Y-94875000D02*
X418530000Y-94875000D01*
%TO.N,Net-(D94-A)*%
X411590000Y-113905000D02*
X411580000Y-113915000D01*
X418600000Y-113905000D02*
X411590000Y-113905000D01*
%TO.N,Net-(D95-A)*%
X449660000Y-142475000D02*
X456630000Y-142475000D01*
X456630000Y-142475000D02*
X456700000Y-142545000D01*
%TO.N,Net-(D96-A)*%
X437625000Y-75805000D02*
X430650000Y-75805000D01*
X430650000Y-75805000D02*
X430620000Y-75835000D01*
%TO.N,Net-(D97-A)*%
X437545000Y-94875000D02*
X437575000Y-94905000D01*
X430620000Y-94875000D02*
X437545000Y-94875000D01*
%TO.N,Net-(D98-A)*%
X437625000Y-113930000D02*
X430635000Y-113930000D01*
X430635000Y-113930000D02*
X430620000Y-113915000D01*
%TO.N,Net-(D99-A)*%
X437675000Y-152005000D02*
X430630000Y-152005000D01*
X430630000Y-152005000D02*
X430620000Y-151995000D01*
%TO.N,Net-(D100-A)*%
X456625000Y-75840000D02*
X449665000Y-75840000D01*
X449665000Y-75840000D02*
X449660000Y-75835000D01*
%TO.N,Net-(D101-A)*%
X392540000Y-132955000D02*
X399500000Y-132955000D01*
X399500000Y-132955000D02*
X399525000Y-132980000D01*
%TO.N,Net-(D102-A)*%
X456650000Y-104395000D02*
X449660000Y-104395000D01*
%TO.N,Net-(D103-A)*%
X411580000Y-132955000D02*
X418450000Y-132955000D01*
X418450000Y-132955000D02*
X418500000Y-133005000D01*
%TO.N,Net-(D104-A)*%
X430620000Y-132955000D02*
X437575000Y-132955000D01*
X437575000Y-132955000D02*
X437600000Y-132980000D01*
%TO.N,SDA*%
X458700000Y-109200000D02*
X458700000Y-72325000D01*
X442775000Y-125125000D02*
X458700000Y-109200000D01*
X318400000Y-121635000D02*
X318400000Y-123875000D01*
X458700000Y-72325000D02*
X458600000Y-72225000D01*
X323680000Y-116355000D02*
X318400000Y-121635000D01*
X458600000Y-72225000D02*
X446450000Y-72225000D01*
X318400000Y-123875000D02*
X319650000Y-125125000D01*
X426325000Y-65125000D02*
X426300000Y-65150000D01*
X323680000Y-116355000D02*
X319505000Y-116355000D01*
X319650000Y-125125000D02*
X442775000Y-125125000D01*
X426300000Y-65150000D02*
X426300000Y-67395000D01*
X319505000Y-116355000D02*
X319500000Y-116350000D01*
%TO.N,SCL*%
X457750000Y-104850635D02*
X457750000Y-92825000D01*
X445997968Y-102925000D02*
X449017968Y-105945000D01*
X457750000Y-92825000D02*
X454000000Y-89075000D01*
X323680000Y-118895000D02*
X327435000Y-122650000D01*
X438725000Y-102925000D02*
X445997968Y-102925000D01*
X438725000Y-122650000D02*
X438725000Y-102925000D01*
X327435000Y-122650000D02*
X438725000Y-122650000D01*
X323680000Y-118895000D02*
X319400000Y-123175000D01*
X449017968Y-105945000D02*
X456655635Y-105945000D01*
X456655635Y-105945000D02*
X457750000Y-104850635D01*
X319400000Y-123175000D02*
X319400000Y-123425000D01*
%TO.N,col 16*%
X357817032Y-76050000D02*
X353575000Y-76050000D01*
X377075000Y-77550000D02*
X359317032Y-77550000D01*
X351250000Y-78375000D02*
X338910000Y-78375000D01*
X377850000Y-76775000D02*
X377075000Y-77550000D01*
X353575000Y-76050000D02*
X351250000Y-78375000D01*
X359317032Y-77550000D02*
X357817032Y-76050000D01*
%TO.N,col 17*%
X378050000Y-78375000D02*
X378087500Y-78412500D01*
X357950000Y-78375000D02*
X378050000Y-78375000D01*
X378087500Y-78412500D02*
X378100000Y-78425000D01*
%TO.N,Net-(D13-A)*%
X307000000Y-52040000D02*
X299980000Y-52040000D01*
%TD*%
M02*
