%TF.GenerationSoftware,KiCad,Pcbnew,8.0.5*%
%TF.CreationDate,2025-05-24T13:04:37-04:00*%
%TF.ProjectId,Keyboard-Saturn,4b657962-6f61-4726-942d-53617475726e,rev?*%
%TF.SameCoordinates,Original*%
%TF.FileFunction,Drillmap*%
%TF.FilePolarity,Positive*%
%FSLAX45Y45*%
G04 Gerber Fmt 4.5, Leading zero omitted, Abs format (unit mm)*
G04 Created by KiCad (PCBNEW 8.0.5) date 2025-05-24 13:04:37*
%MOMM*%
%LPD*%
G01*
G04 APERTURE LIST*
%ADD10C,0.050000*%
%ADD11C,0.200000*%
%ADD12C,0.175000*%
%ADD13C,0.400000*%
G04 APERTURE END LIST*
D10*
X45975000Y-9435000D02*
X46022500Y-9435000D01*
X46022500Y-9452500D01*
X45975000Y-9452500D01*
X45975000Y-9435000D01*
X2130000Y-4237500D02*
X45940000Y-4237500D01*
X45940000Y-16672500D01*
X2130000Y-16672500D01*
X2130000Y-4237500D01*
D11*
D12*
X2492500Y-5624500D02*
X2667500Y-5799500D01*
X2667500Y-5624500D02*
X2492500Y-5799500D01*
X2492500Y-8004500D02*
X2667500Y-8179500D01*
X2667500Y-8004500D02*
X2492500Y-8179500D01*
X2736500Y-15620500D02*
X2911500Y-15795500D01*
X2911500Y-15620500D02*
X2736500Y-15795500D01*
X2968500Y-9908500D02*
X3143500Y-10083500D01*
X3143500Y-9908500D02*
X2968500Y-10083500D01*
X3206500Y-11813000D02*
X3381500Y-11988000D01*
X3381500Y-11813000D02*
X3206500Y-11988000D01*
X3508500Y-5624500D02*
X3683500Y-5799500D01*
X3683500Y-5624500D02*
X3508500Y-5799500D01*
X3508500Y-8004500D02*
X3683500Y-8179500D01*
X3683500Y-8004500D02*
X3508500Y-8179500D01*
X3681500Y-13716500D02*
X3856500Y-13891500D01*
X3856500Y-13716500D02*
X3681500Y-13891500D01*
X3752500Y-15620500D02*
X3927500Y-15795500D01*
X3927500Y-15620500D02*
X3752500Y-15795500D01*
X3984500Y-9908500D02*
X4159500Y-10083500D01*
X4159500Y-9908500D02*
X3984500Y-10083500D01*
X4222500Y-11813000D02*
X4397500Y-11988000D01*
X4397500Y-11813000D02*
X4222500Y-11988000D01*
X4396500Y-8004500D02*
X4571500Y-8179500D01*
X4571500Y-8004500D02*
X4396500Y-8179500D01*
X4697500Y-13716500D02*
X4872500Y-13891500D01*
X4872500Y-13716500D02*
X4697500Y-13891500D01*
X5116500Y-15620500D02*
X5291500Y-15795500D01*
X5291500Y-15620500D02*
X5116500Y-15795500D01*
X5348500Y-9908500D02*
X5523500Y-10083500D01*
X5523500Y-9908500D02*
X5348500Y-10083500D01*
X5412500Y-8004500D02*
X5587500Y-8179500D01*
X5587500Y-8004500D02*
X5412500Y-8179500D01*
X5824500Y-11812500D02*
X5999500Y-11987500D01*
X5999500Y-11812500D02*
X5824500Y-11987500D01*
X6132500Y-15620500D02*
X6307500Y-15795500D01*
X6307500Y-15620500D02*
X6132500Y-15795500D01*
X6300500Y-5624500D02*
X6475500Y-5799500D01*
X6475500Y-5624500D02*
X6300500Y-5799500D01*
X6300500Y-8004500D02*
X6475500Y-8179500D01*
X6475500Y-8004500D02*
X6300500Y-8179500D01*
X6364500Y-9908500D02*
X6539500Y-10083500D01*
X6539500Y-9908500D02*
X6364500Y-10083500D01*
X6776500Y-13716500D02*
X6951500Y-13891500D01*
X6951500Y-13716500D02*
X6776500Y-13891500D01*
X6840500Y-11812500D02*
X7015500Y-11987500D01*
X7015500Y-11812500D02*
X6840500Y-11987500D01*
X7252500Y-9908500D02*
X7427500Y-10083500D01*
X7427500Y-9908500D02*
X7252500Y-10083500D01*
X7316500Y-5624500D02*
X7491500Y-5799500D01*
X7491500Y-5624500D02*
X7316500Y-5799500D01*
X7316500Y-8004500D02*
X7491500Y-8179500D01*
X7491500Y-8004500D02*
X7316500Y-8179500D01*
X7504500Y-15620500D02*
X7679500Y-15795500D01*
X7679500Y-15620500D02*
X7504500Y-15795500D01*
X7728500Y-11812500D02*
X7903500Y-11987500D01*
X7903500Y-11812500D02*
X7728500Y-11987500D01*
X7792500Y-13716500D02*
X7967500Y-13891500D01*
X7967500Y-13716500D02*
X7792500Y-13891500D01*
X8204500Y-5624500D02*
X8379500Y-5799500D01*
X8379500Y-5624500D02*
X8204500Y-5799500D01*
X8204500Y-8004500D02*
X8379500Y-8179500D01*
X8379500Y-8004500D02*
X8204500Y-8179500D01*
X8268500Y-9908500D02*
X8443500Y-10083500D01*
X8443500Y-9908500D02*
X8268500Y-10083500D01*
X8520500Y-15620500D02*
X8695500Y-15795500D01*
X8695500Y-15620500D02*
X8520500Y-15795500D01*
X8680500Y-13716500D02*
X8855500Y-13891500D01*
X8855500Y-13716500D02*
X8680500Y-13891500D01*
X8744500Y-11812500D02*
X8919500Y-11987500D01*
X8919500Y-11812500D02*
X8744500Y-11987500D01*
X9156500Y-9908500D02*
X9331500Y-10083500D01*
X9331500Y-9908500D02*
X9156500Y-10083500D01*
X9220500Y-5624500D02*
X9395500Y-5799500D01*
X9395500Y-5624500D02*
X9220500Y-5799500D01*
X9220500Y-8004500D02*
X9395500Y-8179500D01*
X9395500Y-8004500D02*
X9220500Y-8179500D01*
X9632500Y-11812500D02*
X9807500Y-11987500D01*
X9807500Y-11812500D02*
X9632500Y-11987500D01*
X9696500Y-13716500D02*
X9871500Y-13891500D01*
X9871500Y-13716500D02*
X9696500Y-13891500D01*
X10108500Y-5624500D02*
X10283500Y-5799500D01*
X10283500Y-5624500D02*
X10108500Y-5799500D01*
X10108500Y-8004500D02*
X10283500Y-8179500D01*
X10283500Y-8004500D02*
X10108500Y-8179500D01*
X10172500Y-9908500D02*
X10347500Y-10083500D01*
X10347500Y-9908500D02*
X10172500Y-10083500D01*
X10584500Y-13716500D02*
X10759500Y-13891500D01*
X10759500Y-13716500D02*
X10584500Y-13891500D01*
X10648500Y-11812500D02*
X10823500Y-11987500D01*
X10823500Y-11812500D02*
X10648500Y-11987500D01*
X11060500Y-9908500D02*
X11235500Y-10083500D01*
X11235500Y-9908500D02*
X11060500Y-10083500D01*
X11124500Y-5624500D02*
X11299500Y-5799500D01*
X11299500Y-5624500D02*
X11124500Y-5799500D01*
X11124500Y-8004500D02*
X11299500Y-8179500D01*
X11299500Y-8004500D02*
X11124500Y-8179500D01*
X11536500Y-11812500D02*
X11711500Y-11987500D01*
X11711500Y-11812500D02*
X11536500Y-11987500D01*
X11600500Y-13716500D02*
X11775500Y-13891500D01*
X11775500Y-13716500D02*
X11600500Y-13891500D01*
X12012500Y-5624500D02*
X12187500Y-5799500D01*
X12187500Y-5624500D02*
X12012500Y-5799500D01*
X12012500Y-8004500D02*
X12187500Y-8179500D01*
X12187500Y-8004500D02*
X12012500Y-8179500D01*
X12076500Y-9908500D02*
X12251500Y-10083500D01*
X12251500Y-9908500D02*
X12076500Y-10083500D01*
X12488500Y-13716500D02*
X12663500Y-13891500D01*
X12663500Y-13716500D02*
X12488500Y-13891500D01*
X12552500Y-11812500D02*
X12727500Y-11987500D01*
X12727500Y-11812500D02*
X12552500Y-11987500D01*
X12964500Y-9908500D02*
X13139500Y-10083500D01*
X13139500Y-9908500D02*
X12964500Y-10083500D01*
X13028500Y-5624500D02*
X13203500Y-5799500D01*
X13203500Y-5624500D02*
X13028500Y-5799500D01*
X13028500Y-8004500D02*
X13203500Y-8179500D01*
X13203500Y-8004500D02*
X13028500Y-8179500D01*
X13440500Y-11812500D02*
X13615500Y-11987500D01*
X13615500Y-11812500D02*
X13440500Y-11987500D01*
X13504500Y-13716500D02*
X13679500Y-13891500D01*
X13679500Y-13716500D02*
X13504500Y-13891500D01*
X13916500Y-8004500D02*
X14091500Y-8179500D01*
X14091500Y-8004500D02*
X13916500Y-8179500D01*
X13980500Y-9908500D02*
X14155500Y-10083500D01*
X14155500Y-9908500D02*
X13980500Y-10083500D01*
X14392500Y-13716500D02*
X14567500Y-13891500D01*
X14567500Y-13716500D02*
X14392500Y-13891500D01*
X14456500Y-11812500D02*
X14631500Y-11987500D01*
X14631500Y-11812500D02*
X14456500Y-11987500D01*
X14645000Y-15620000D02*
X14820000Y-15795000D01*
X14820000Y-15620000D02*
X14645000Y-15795000D01*
X14868500Y-5624500D02*
X15043500Y-5799500D01*
X15043500Y-5624500D02*
X14868500Y-5799500D01*
X14868500Y-9908500D02*
X15043500Y-10083500D01*
X15043500Y-9908500D02*
X14868500Y-10083500D01*
X14932500Y-8004500D02*
X15107500Y-8179500D01*
X15107500Y-8004500D02*
X14932500Y-8179500D01*
X15344500Y-11812500D02*
X15519500Y-11987500D01*
X15519500Y-11812500D02*
X15344500Y-11987500D01*
X15408500Y-13716500D02*
X15583500Y-13891500D01*
X15583500Y-13716500D02*
X15408500Y-13891500D01*
X15661000Y-15620000D02*
X15836000Y-15795000D01*
X15836000Y-15620000D02*
X15661000Y-15795000D01*
X15820500Y-8004500D02*
X15995500Y-8179500D01*
X15995500Y-8004500D02*
X15820500Y-8179500D01*
X15884500Y-5624500D02*
X16059500Y-5799500D01*
X16059500Y-5624500D02*
X15884500Y-5799500D01*
X15884500Y-9908500D02*
X16059500Y-10083500D01*
X16059500Y-9908500D02*
X15884500Y-10083500D01*
X16296500Y-13716500D02*
X16471500Y-13891500D01*
X16471500Y-13716500D02*
X16296500Y-13891500D01*
X16360500Y-11812500D02*
X16535500Y-11987500D01*
X16535500Y-11812500D02*
X16360500Y-11987500D01*
X16772500Y-5624500D02*
X16947500Y-5799500D01*
X16947500Y-5624500D02*
X16772500Y-5799500D01*
X16772500Y-9908500D02*
X16947500Y-10083500D01*
X16947500Y-9908500D02*
X16772500Y-10083500D01*
X16836500Y-8004500D02*
X17011500Y-8179500D01*
X17011500Y-8004500D02*
X16836500Y-8179500D01*
X17248500Y-11812500D02*
X17423500Y-11987500D01*
X17423500Y-11812500D02*
X17248500Y-11987500D01*
X17312500Y-13716500D02*
X17487500Y-13891500D01*
X17487500Y-13716500D02*
X17312500Y-13891500D01*
X17724500Y-8004500D02*
X17899500Y-8179500D01*
X17899500Y-8004500D02*
X17724500Y-8179500D01*
X17788500Y-5624500D02*
X17963500Y-5799500D01*
X17963500Y-5624500D02*
X17788500Y-5799500D01*
X17788500Y-9908500D02*
X17963500Y-10083500D01*
X17963500Y-9908500D02*
X17788500Y-10083500D01*
X18200500Y-13716500D02*
X18375500Y-13891500D01*
X18375500Y-13716500D02*
X18200500Y-13891500D01*
X18264500Y-11812500D02*
X18439500Y-11987500D01*
X18439500Y-11812500D02*
X18264500Y-11987500D01*
X18676500Y-5624500D02*
X18851500Y-5799500D01*
X18851500Y-5624500D02*
X18676500Y-5799500D01*
X18676500Y-9908500D02*
X18851500Y-10083500D01*
X18851500Y-9908500D02*
X18676500Y-10083500D01*
X18740500Y-8004500D02*
X18915500Y-8179500D01*
X18915500Y-8004500D02*
X18740500Y-8179500D01*
X19152500Y-11812500D02*
X19327500Y-11987500D01*
X19327500Y-11812500D02*
X19152500Y-11987500D01*
X19216500Y-13716500D02*
X19391500Y-13891500D01*
X19391500Y-13716500D02*
X19216500Y-13891500D01*
X19628500Y-8004500D02*
X19803500Y-8179500D01*
X19803500Y-8004500D02*
X19628500Y-8179500D01*
X19692500Y-5624500D02*
X19867500Y-5799500D01*
X19867500Y-5624500D02*
X19692500Y-5799500D01*
X19692500Y-9908500D02*
X19867500Y-10083500D01*
X19867500Y-9908500D02*
X19692500Y-10083500D01*
X20104500Y-13716500D02*
X20279500Y-13891500D01*
X20279500Y-13716500D02*
X20104500Y-13891500D01*
X20168500Y-11812500D02*
X20343500Y-11987500D01*
X20343500Y-11812500D02*
X20168500Y-11987500D01*
X20580500Y-5624500D02*
X20755500Y-5799500D01*
X20755500Y-5624500D02*
X20580500Y-5799500D01*
X20580500Y-9908500D02*
X20755500Y-10083500D01*
X20755500Y-9908500D02*
X20580500Y-10083500D01*
X20644500Y-8004500D02*
X20819500Y-8179500D01*
X20819500Y-8004500D02*
X20644500Y-8179500D01*
X21056500Y-11812500D02*
X21231500Y-11987500D01*
X21231500Y-11812500D02*
X21056500Y-11987500D01*
X21120500Y-13716500D02*
X21295500Y-13891500D01*
X21295500Y-13716500D02*
X21120500Y-13891500D01*
X21532500Y-8004500D02*
X21707500Y-8179500D01*
X21707500Y-8004500D02*
X21532500Y-8179500D01*
X21596500Y-5624500D02*
X21771500Y-5799500D01*
X21771500Y-5624500D02*
X21596500Y-5799500D01*
X21596500Y-9908500D02*
X21771500Y-10083500D01*
X21771500Y-9908500D02*
X21596500Y-10083500D01*
X21776500Y-15620500D02*
X21951500Y-15795500D01*
X21951500Y-15620500D02*
X21776500Y-15795500D01*
X22008500Y-13716500D02*
X22183500Y-13891500D01*
X22183500Y-13716500D02*
X22008500Y-13891500D01*
X22072500Y-11812500D02*
X22247500Y-11987500D01*
X22247500Y-11812500D02*
X22072500Y-11987500D01*
X22484500Y-9908500D02*
X22659500Y-10083500D01*
X22659500Y-9908500D02*
X22484500Y-10083500D01*
X22548500Y-8004500D02*
X22723500Y-8179500D01*
X22723500Y-8004500D02*
X22548500Y-8179500D01*
X22792500Y-15620500D02*
X22967500Y-15795500D01*
X22967500Y-15620500D02*
X22792500Y-15795500D01*
X22960500Y-11812500D02*
X23135500Y-11987500D01*
X23135500Y-11812500D02*
X22960500Y-11987500D01*
X23024500Y-13716500D02*
X23199500Y-13891500D01*
X23199500Y-13716500D02*
X23024500Y-13891500D01*
X23436500Y-5624500D02*
X23611500Y-5799500D01*
X23611500Y-5624500D02*
X23436500Y-5799500D01*
X23436500Y-8004500D02*
X23611500Y-8179500D01*
X23611500Y-8004500D02*
X23436500Y-8179500D01*
X23500500Y-9908500D02*
X23675500Y-10083500D01*
X23675500Y-9908500D02*
X23500500Y-10083500D01*
X23912500Y-13716500D02*
X24087500Y-13891500D01*
X24087500Y-13716500D02*
X23912500Y-13891500D01*
X23976500Y-11812500D02*
X24151500Y-11987500D01*
X24151500Y-11812500D02*
X23976500Y-11987500D01*
X24156500Y-15620500D02*
X24331500Y-15795500D01*
X24331500Y-15620500D02*
X24156500Y-15795500D01*
X24388500Y-9908500D02*
X24563500Y-10083500D01*
X24563500Y-9908500D02*
X24388500Y-10083500D01*
X24452500Y-5624500D02*
X24627500Y-5799500D01*
X24627500Y-5624500D02*
X24452500Y-5799500D01*
X24452500Y-8004500D02*
X24627500Y-8179500D01*
X24627500Y-8004500D02*
X24452500Y-8179500D01*
X24864500Y-11812500D02*
X25039500Y-11987500D01*
X25039500Y-11812500D02*
X24864500Y-11987500D01*
X24928500Y-13716500D02*
X25103500Y-13891500D01*
X25103500Y-13716500D02*
X24928500Y-13891500D01*
X25172500Y-15620500D02*
X25347500Y-15795500D01*
X25347500Y-15620500D02*
X25172500Y-15795500D01*
X25340500Y-5624500D02*
X25515500Y-5799500D01*
X25515500Y-5624500D02*
X25340500Y-5799500D01*
X25340500Y-8004500D02*
X25515500Y-8179500D01*
X25515500Y-8004500D02*
X25340500Y-8179500D01*
X25404500Y-9908500D02*
X25579500Y-10083500D01*
X25579500Y-9908500D02*
X25404500Y-10083500D01*
X25880500Y-11812500D02*
X26055500Y-11987500D01*
X26055500Y-11812500D02*
X25880500Y-11987500D01*
X26292500Y-9908500D02*
X26467500Y-10083500D01*
X26467500Y-9908500D02*
X26292500Y-10083500D01*
X26356500Y-5624500D02*
X26531500Y-5799500D01*
X26531500Y-5624500D02*
X26356500Y-5799500D01*
X26356500Y-8004500D02*
X26531500Y-8179500D01*
X26531500Y-8004500D02*
X26356500Y-8179500D01*
X26538000Y-15621500D02*
X26713000Y-15796500D01*
X26713000Y-15621500D02*
X26538000Y-15796500D01*
X27244500Y-5624500D02*
X27419500Y-5799500D01*
X27419500Y-5624500D02*
X27244500Y-5799500D01*
X27308500Y-9908500D02*
X27483500Y-10083500D01*
X27483500Y-9908500D02*
X27308500Y-10083500D01*
X27488500Y-13716500D02*
X27663500Y-13891500D01*
X27663500Y-13716500D02*
X27488500Y-13891500D01*
X27554000Y-15621500D02*
X27729000Y-15796500D01*
X27729000Y-15621500D02*
X27554000Y-15796500D01*
X27960500Y-11812500D02*
X28135500Y-11987500D01*
X28135500Y-11812500D02*
X27960500Y-11987500D01*
X28196500Y-8004500D02*
X28371500Y-8179500D01*
X28371500Y-8004500D02*
X28196500Y-8179500D01*
X28260500Y-5624500D02*
X28435500Y-5799500D01*
X28435500Y-5624500D02*
X28260500Y-5799500D01*
X28504500Y-13716500D02*
X28679500Y-13891500D01*
X28679500Y-13716500D02*
X28504500Y-13891500D01*
X28672500Y-9908500D02*
X28847500Y-10083500D01*
X28847500Y-9908500D02*
X28672500Y-10083500D01*
X28916500Y-15631500D02*
X29091500Y-15806500D01*
X29091500Y-15631500D02*
X28916500Y-15806500D01*
X28976500Y-11812500D02*
X29151500Y-11987500D01*
X29151500Y-11812500D02*
X28976500Y-11987500D01*
X29148500Y-5624500D02*
X29323500Y-5799500D01*
X29323500Y-5624500D02*
X29148500Y-5799500D01*
X29212500Y-8004500D02*
X29387500Y-8179500D01*
X29387500Y-8004500D02*
X29212500Y-8179500D01*
X29688500Y-9908500D02*
X29863500Y-10083500D01*
X29863500Y-9908500D02*
X29688500Y-10083500D01*
X29932500Y-15631500D02*
X30107500Y-15806500D01*
X30107500Y-15631500D02*
X29932500Y-15806500D01*
X30164500Y-5624500D02*
X30339500Y-5799500D01*
X30339500Y-5624500D02*
X30164500Y-5799500D01*
X31772500Y-5624000D02*
X31947500Y-5799000D01*
X31947500Y-5624000D02*
X31772500Y-5799000D01*
X31772500Y-8004000D02*
X31947500Y-8179000D01*
X31947500Y-8004000D02*
X31772500Y-8179000D01*
X31772500Y-9908000D02*
X31947500Y-10083000D01*
X31947500Y-9908000D02*
X31772500Y-10083000D01*
X31772500Y-15620000D02*
X31947500Y-15795000D01*
X31947500Y-15620000D02*
X31772500Y-15795000D01*
X32788500Y-5624000D02*
X32963500Y-5799000D01*
X32963500Y-5624000D02*
X32788500Y-5799000D01*
X32788500Y-8004000D02*
X32963500Y-8179000D01*
X32963500Y-8004000D02*
X32788500Y-8179000D01*
X32788500Y-9908000D02*
X32963500Y-10083000D01*
X32963500Y-9908000D02*
X32788500Y-10083000D01*
X32788500Y-15620000D02*
X32963500Y-15795000D01*
X32963500Y-15620000D02*
X32788500Y-15795000D01*
X33676500Y-5624000D02*
X33851500Y-5799000D01*
X33851500Y-5624000D02*
X33676500Y-5799000D01*
X33676500Y-8004000D02*
X33851500Y-8179000D01*
X33851500Y-8004000D02*
X33676500Y-8179000D01*
X33676500Y-9908000D02*
X33851500Y-10083000D01*
X33851500Y-9908000D02*
X33676500Y-10083000D01*
X33676500Y-13716000D02*
X33851500Y-13891000D01*
X33851500Y-13716000D02*
X33676500Y-13891000D01*
X33676500Y-15620000D02*
X33851500Y-15795000D01*
X33851500Y-15620000D02*
X33676500Y-15795000D01*
X34692500Y-5624000D02*
X34867500Y-5799000D01*
X34867500Y-5624000D02*
X34692500Y-5799000D01*
X34692500Y-8004000D02*
X34867500Y-8179000D01*
X34867500Y-8004000D02*
X34692500Y-8179000D01*
X34692500Y-9908000D02*
X34867500Y-10083000D01*
X34867500Y-9908000D02*
X34692500Y-10083000D01*
X34692500Y-13716000D02*
X34867500Y-13891000D01*
X34867500Y-13716000D02*
X34692500Y-13891000D01*
X34692500Y-15620000D02*
X34867500Y-15795000D01*
X34867500Y-15620000D02*
X34692500Y-15795000D01*
X35580500Y-5624000D02*
X35755500Y-5799000D01*
X35755500Y-5624000D02*
X35580500Y-5799000D01*
X35580500Y-8004000D02*
X35755500Y-8179000D01*
X35755500Y-8004000D02*
X35580500Y-8179000D01*
X35580500Y-9908000D02*
X35755500Y-10083000D01*
X35755500Y-9908000D02*
X35580500Y-10083000D01*
X35580500Y-15620000D02*
X35755500Y-15795000D01*
X35755500Y-15620000D02*
X35580500Y-15795000D01*
X36596500Y-5624000D02*
X36771500Y-5799000D01*
X36771500Y-5624000D02*
X36596500Y-5799000D01*
X36596500Y-8004000D02*
X36771500Y-8179000D01*
X36771500Y-8004000D02*
X36596500Y-8179000D01*
X36596500Y-9908000D02*
X36771500Y-10083000D01*
X36771500Y-9908000D02*
X36596500Y-10083000D01*
X36596500Y-15620000D02*
X36771500Y-15795000D01*
X36771500Y-15620000D02*
X36596500Y-15795000D01*
X38404500Y-8004000D02*
X38579500Y-8179000D01*
X38579500Y-8004000D02*
X38404500Y-8179000D01*
X38404500Y-9908000D02*
X38579500Y-10083000D01*
X38579500Y-9908000D02*
X38404500Y-10083000D01*
X38404500Y-11812000D02*
X38579500Y-11987000D01*
X38579500Y-11812000D02*
X38404500Y-11987000D01*
X38404500Y-13716000D02*
X38579500Y-13891000D01*
X38579500Y-13716000D02*
X38404500Y-13891000D01*
X39356500Y-15620000D02*
X39531500Y-15795000D01*
X39531500Y-15620000D02*
X39356500Y-15795000D01*
X39420500Y-8004000D02*
X39595500Y-8179000D01*
X39595500Y-8004000D02*
X39420500Y-8179000D01*
X39420500Y-9908000D02*
X39595500Y-10083000D01*
X39595500Y-9908000D02*
X39420500Y-10083000D01*
X39420500Y-11812000D02*
X39595500Y-11987000D01*
X39595500Y-11812000D02*
X39420500Y-11987000D01*
X39420500Y-13716000D02*
X39595500Y-13891000D01*
X39595500Y-13716000D02*
X39420500Y-13891000D01*
X40308500Y-8004000D02*
X40483500Y-8179000D01*
X40483500Y-8004000D02*
X40308500Y-8179000D01*
X40308500Y-9908000D02*
X40483500Y-10083000D01*
X40483500Y-9908000D02*
X40308500Y-10083000D01*
X40308500Y-11812000D02*
X40483500Y-11987000D01*
X40483500Y-11812000D02*
X40308500Y-11987000D01*
X40308500Y-13716000D02*
X40483500Y-13891000D01*
X40483500Y-13716000D02*
X40308500Y-13891000D01*
X40372500Y-15620000D02*
X40547500Y-15795000D01*
X40547500Y-15620000D02*
X40372500Y-15795000D01*
X41324500Y-8004000D02*
X41499500Y-8179000D01*
X41499500Y-8004000D02*
X41324500Y-8179000D01*
X41324500Y-9908000D02*
X41499500Y-10083000D01*
X41499500Y-9908000D02*
X41324500Y-10083000D01*
X41324500Y-11812000D02*
X41499500Y-11987000D01*
X41499500Y-11812000D02*
X41324500Y-11987000D01*
X41324500Y-13716000D02*
X41499500Y-13891000D01*
X41499500Y-13716000D02*
X41324500Y-13891000D01*
X42212500Y-8004000D02*
X42387500Y-8179000D01*
X42387500Y-8004000D02*
X42212500Y-8179000D01*
X42212500Y-9908000D02*
X42387500Y-10083000D01*
X42387500Y-9908000D02*
X42212500Y-10083000D01*
X42212500Y-11812000D02*
X42387500Y-11987000D01*
X42387500Y-11812000D02*
X42212500Y-11987000D01*
X42212500Y-13716000D02*
X42387500Y-13891000D01*
X42387500Y-13716000D02*
X42212500Y-13891000D01*
X42212500Y-15620000D02*
X42387500Y-15795000D01*
X42387500Y-15620000D02*
X42212500Y-15795000D01*
X43228500Y-8004000D02*
X43403500Y-8179000D01*
X43403500Y-8004000D02*
X43228500Y-8179000D01*
X43228500Y-9908000D02*
X43403500Y-10083000D01*
X43403500Y-9908000D02*
X43228500Y-10083000D01*
X43228500Y-11812000D02*
X43403500Y-11987000D01*
X43403500Y-11812000D02*
X43228500Y-11987000D01*
X43228500Y-13716000D02*
X43403500Y-13891000D01*
X43403500Y-13716000D02*
X43228500Y-13891000D01*
X43228500Y-15620000D02*
X43403500Y-15795000D01*
X43403500Y-15620000D02*
X43228500Y-15795000D01*
X44116500Y-8004000D02*
X44291500Y-8179000D01*
X44291500Y-8004000D02*
X44116500Y-8179000D01*
X44116500Y-10860000D02*
X44291500Y-11035000D01*
X44291500Y-10860000D02*
X44116500Y-11035000D01*
X44116500Y-14668000D02*
X44291500Y-14843000D01*
X44291500Y-14668000D02*
X44116500Y-14843000D01*
X45132500Y-8004000D02*
X45307500Y-8179000D01*
X45307500Y-8004000D02*
X45132500Y-8179000D01*
X45132500Y-10860000D02*
X45307500Y-11035000D01*
X45307500Y-10860000D02*
X45132500Y-11035000D01*
X45132500Y-14668000D02*
X45307500Y-14843000D01*
X45307500Y-14668000D02*
X45132500Y-14843000D01*
D13*
X3288000Y-5712000D02*
G75*
G02*
X2888000Y-5712000I-200000J0D01*
G01*
X2888000Y-5712000D02*
G75*
G02*
X3288000Y-5712000I200000J0D01*
G01*
X3288000Y-8092000D02*
G75*
G02*
X2888000Y-8092000I-200000J0D01*
G01*
X2888000Y-8092000D02*
G75*
G02*
X3288000Y-8092000I200000J0D01*
G01*
X3532000Y-15708000D02*
G75*
G02*
X3132000Y-15708000I-200000J0D01*
G01*
X3132000Y-15708000D02*
G75*
G02*
X3532000Y-15708000I200000J0D01*
G01*
X3764000Y-9996000D02*
G75*
G02*
X3364000Y-9996000I-200000J0D01*
G01*
X3364000Y-9996000D02*
G75*
G02*
X3764000Y-9996000I200000J0D01*
G01*
X4002000Y-11900500D02*
G75*
G02*
X3602000Y-11900500I-200000J0D01*
G01*
X3602000Y-11900500D02*
G75*
G02*
X4002000Y-11900500I200000J0D01*
G01*
X4477000Y-13804000D02*
G75*
G02*
X4077000Y-13804000I-200000J0D01*
G01*
X4077000Y-13804000D02*
G75*
G02*
X4477000Y-13804000I200000J0D01*
G01*
X5192000Y-8092000D02*
G75*
G02*
X4792000Y-8092000I-200000J0D01*
G01*
X4792000Y-8092000D02*
G75*
G02*
X5192000Y-8092000I200000J0D01*
G01*
X5912000Y-15708000D02*
G75*
G02*
X5512000Y-15708000I-200000J0D01*
G01*
X5512000Y-15708000D02*
G75*
G02*
X5912000Y-15708000I200000J0D01*
G01*
X6144000Y-9996000D02*
G75*
G02*
X5744000Y-9996000I-200000J0D01*
G01*
X5744000Y-9996000D02*
G75*
G02*
X6144000Y-9996000I200000J0D01*
G01*
X6620000Y-11900000D02*
G75*
G02*
X6220000Y-11900000I-200000J0D01*
G01*
X6220000Y-11900000D02*
G75*
G02*
X6620000Y-11900000I200000J0D01*
G01*
X7096000Y-5712000D02*
G75*
G02*
X6696000Y-5712000I-200000J0D01*
G01*
X6696000Y-5712000D02*
G75*
G02*
X7096000Y-5712000I200000J0D01*
G01*
X7096000Y-8092000D02*
G75*
G02*
X6696000Y-8092000I-200000J0D01*
G01*
X6696000Y-8092000D02*
G75*
G02*
X7096000Y-8092000I200000J0D01*
G01*
X7572000Y-13804000D02*
G75*
G02*
X7172000Y-13804000I-200000J0D01*
G01*
X7172000Y-13804000D02*
G75*
G02*
X7572000Y-13804000I200000J0D01*
G01*
X8048000Y-9996000D02*
G75*
G02*
X7648000Y-9996000I-200000J0D01*
G01*
X7648000Y-9996000D02*
G75*
G02*
X8048000Y-9996000I200000J0D01*
G01*
X8300000Y-15708000D02*
G75*
G02*
X7900000Y-15708000I-200000J0D01*
G01*
X7900000Y-15708000D02*
G75*
G02*
X8300000Y-15708000I200000J0D01*
G01*
X8524000Y-11900000D02*
G75*
G02*
X8124000Y-11900000I-200000J0D01*
G01*
X8124000Y-11900000D02*
G75*
G02*
X8524000Y-11900000I200000J0D01*
G01*
X9000000Y-5712000D02*
G75*
G02*
X8600000Y-5712000I-200000J0D01*
G01*
X8600000Y-5712000D02*
G75*
G02*
X9000000Y-5712000I200000J0D01*
G01*
X9000000Y-8092000D02*
G75*
G02*
X8600000Y-8092000I-200000J0D01*
G01*
X8600000Y-8092000D02*
G75*
G02*
X9000000Y-8092000I200000J0D01*
G01*
X9476000Y-13804000D02*
G75*
G02*
X9076000Y-13804000I-200000J0D01*
G01*
X9076000Y-13804000D02*
G75*
G02*
X9476000Y-13804000I200000J0D01*
G01*
X9952000Y-9996000D02*
G75*
G02*
X9552000Y-9996000I-200000J0D01*
G01*
X9552000Y-9996000D02*
G75*
G02*
X9952000Y-9996000I200000J0D01*
G01*
X10428000Y-11900000D02*
G75*
G02*
X10028000Y-11900000I-200000J0D01*
G01*
X10028000Y-11900000D02*
G75*
G02*
X10428000Y-11900000I200000J0D01*
G01*
X10904000Y-5712000D02*
G75*
G02*
X10504000Y-5712000I-200000J0D01*
G01*
X10504000Y-5712000D02*
G75*
G02*
X10904000Y-5712000I200000J0D01*
G01*
X10904000Y-8092000D02*
G75*
G02*
X10504000Y-8092000I-200000J0D01*
G01*
X10504000Y-8092000D02*
G75*
G02*
X10904000Y-8092000I200000J0D01*
G01*
X11380000Y-13804000D02*
G75*
G02*
X10980000Y-13804000I-200000J0D01*
G01*
X10980000Y-13804000D02*
G75*
G02*
X11380000Y-13804000I200000J0D01*
G01*
X11856000Y-9996000D02*
G75*
G02*
X11456000Y-9996000I-200000J0D01*
G01*
X11456000Y-9996000D02*
G75*
G02*
X11856000Y-9996000I200000J0D01*
G01*
X12332000Y-11900000D02*
G75*
G02*
X11932000Y-11900000I-200000J0D01*
G01*
X11932000Y-11900000D02*
G75*
G02*
X12332000Y-11900000I200000J0D01*
G01*
X12808000Y-5712000D02*
G75*
G02*
X12408000Y-5712000I-200000J0D01*
G01*
X12408000Y-5712000D02*
G75*
G02*
X12808000Y-5712000I200000J0D01*
G01*
X12808000Y-8092000D02*
G75*
G02*
X12408000Y-8092000I-200000J0D01*
G01*
X12408000Y-8092000D02*
G75*
G02*
X12808000Y-8092000I200000J0D01*
G01*
X13284000Y-13804000D02*
G75*
G02*
X12884000Y-13804000I-200000J0D01*
G01*
X12884000Y-13804000D02*
G75*
G02*
X13284000Y-13804000I200000J0D01*
G01*
X13760000Y-9996000D02*
G75*
G02*
X13360000Y-9996000I-200000J0D01*
G01*
X13360000Y-9996000D02*
G75*
G02*
X13760000Y-9996000I200000J0D01*
G01*
X14236000Y-11900000D02*
G75*
G02*
X13836000Y-11900000I-200000J0D01*
G01*
X13836000Y-11900000D02*
G75*
G02*
X14236000Y-11900000I200000J0D01*
G01*
X14712000Y-8092000D02*
G75*
G02*
X14312000Y-8092000I-200000J0D01*
G01*
X14312000Y-8092000D02*
G75*
G02*
X14712000Y-8092000I200000J0D01*
G01*
X15188000Y-13804000D02*
G75*
G02*
X14788000Y-13804000I-200000J0D01*
G01*
X14788000Y-13804000D02*
G75*
G02*
X15188000Y-13804000I200000J0D01*
G01*
X15440500Y-15707500D02*
G75*
G02*
X15040500Y-15707500I-200000J0D01*
G01*
X15040500Y-15707500D02*
G75*
G02*
X15440500Y-15707500I200000J0D01*
G01*
X15664000Y-5712000D02*
G75*
G02*
X15264000Y-5712000I-200000J0D01*
G01*
X15264000Y-5712000D02*
G75*
G02*
X15664000Y-5712000I200000J0D01*
G01*
X15664000Y-9996000D02*
G75*
G02*
X15264000Y-9996000I-200000J0D01*
G01*
X15264000Y-9996000D02*
G75*
G02*
X15664000Y-9996000I200000J0D01*
G01*
X16140000Y-11900000D02*
G75*
G02*
X15740000Y-11900000I-200000J0D01*
G01*
X15740000Y-11900000D02*
G75*
G02*
X16140000Y-11900000I200000J0D01*
G01*
X16616000Y-8092000D02*
G75*
G02*
X16216000Y-8092000I-200000J0D01*
G01*
X16216000Y-8092000D02*
G75*
G02*
X16616000Y-8092000I200000J0D01*
G01*
X17092000Y-13804000D02*
G75*
G02*
X16692000Y-13804000I-200000J0D01*
G01*
X16692000Y-13804000D02*
G75*
G02*
X17092000Y-13804000I200000J0D01*
G01*
X17568000Y-5712000D02*
G75*
G02*
X17168000Y-5712000I-200000J0D01*
G01*
X17168000Y-5712000D02*
G75*
G02*
X17568000Y-5712000I200000J0D01*
G01*
X17568000Y-9996000D02*
G75*
G02*
X17168000Y-9996000I-200000J0D01*
G01*
X17168000Y-9996000D02*
G75*
G02*
X17568000Y-9996000I200000J0D01*
G01*
X18044000Y-11900000D02*
G75*
G02*
X17644000Y-11900000I-200000J0D01*
G01*
X17644000Y-11900000D02*
G75*
G02*
X18044000Y-11900000I200000J0D01*
G01*
X18520000Y-8092000D02*
G75*
G02*
X18120000Y-8092000I-200000J0D01*
G01*
X18120000Y-8092000D02*
G75*
G02*
X18520000Y-8092000I200000J0D01*
G01*
X18996000Y-13804000D02*
G75*
G02*
X18596000Y-13804000I-200000J0D01*
G01*
X18596000Y-13804000D02*
G75*
G02*
X18996000Y-13804000I200000J0D01*
G01*
X19472000Y-5712000D02*
G75*
G02*
X19072000Y-5712000I-200000J0D01*
G01*
X19072000Y-5712000D02*
G75*
G02*
X19472000Y-5712000I200000J0D01*
G01*
X19472000Y-9996000D02*
G75*
G02*
X19072000Y-9996000I-200000J0D01*
G01*
X19072000Y-9996000D02*
G75*
G02*
X19472000Y-9996000I200000J0D01*
G01*
X19948000Y-11900000D02*
G75*
G02*
X19548000Y-11900000I-200000J0D01*
G01*
X19548000Y-11900000D02*
G75*
G02*
X19948000Y-11900000I200000J0D01*
G01*
X20424000Y-8092000D02*
G75*
G02*
X20024000Y-8092000I-200000J0D01*
G01*
X20024000Y-8092000D02*
G75*
G02*
X20424000Y-8092000I200000J0D01*
G01*
X20900000Y-13804000D02*
G75*
G02*
X20500000Y-13804000I-200000J0D01*
G01*
X20500000Y-13804000D02*
G75*
G02*
X20900000Y-13804000I200000J0D01*
G01*
X21376000Y-5712000D02*
G75*
G02*
X20976000Y-5712000I-200000J0D01*
G01*
X20976000Y-5712000D02*
G75*
G02*
X21376000Y-5712000I200000J0D01*
G01*
X21376000Y-9996000D02*
G75*
G02*
X20976000Y-9996000I-200000J0D01*
G01*
X20976000Y-9996000D02*
G75*
G02*
X21376000Y-9996000I200000J0D01*
G01*
X21852000Y-11900000D02*
G75*
G02*
X21452000Y-11900000I-200000J0D01*
G01*
X21452000Y-11900000D02*
G75*
G02*
X21852000Y-11900000I200000J0D01*
G01*
X22328000Y-8092000D02*
G75*
G02*
X21928000Y-8092000I-200000J0D01*
G01*
X21928000Y-8092000D02*
G75*
G02*
X22328000Y-8092000I200000J0D01*
G01*
X22572000Y-15708000D02*
G75*
G02*
X22172000Y-15708000I-200000J0D01*
G01*
X22172000Y-15708000D02*
G75*
G02*
X22572000Y-15708000I200000J0D01*
G01*
X22804000Y-13804000D02*
G75*
G02*
X22404000Y-13804000I-200000J0D01*
G01*
X22404000Y-13804000D02*
G75*
G02*
X22804000Y-13804000I200000J0D01*
G01*
X23280000Y-9996000D02*
G75*
G02*
X22880000Y-9996000I-200000J0D01*
G01*
X22880000Y-9996000D02*
G75*
G02*
X23280000Y-9996000I200000J0D01*
G01*
X23756000Y-11900000D02*
G75*
G02*
X23356000Y-11900000I-200000J0D01*
G01*
X23356000Y-11900000D02*
G75*
G02*
X23756000Y-11900000I200000J0D01*
G01*
X24232000Y-5712000D02*
G75*
G02*
X23832000Y-5712000I-200000J0D01*
G01*
X23832000Y-5712000D02*
G75*
G02*
X24232000Y-5712000I200000J0D01*
G01*
X24232000Y-8092000D02*
G75*
G02*
X23832000Y-8092000I-200000J0D01*
G01*
X23832000Y-8092000D02*
G75*
G02*
X24232000Y-8092000I200000J0D01*
G01*
X24708000Y-13804000D02*
G75*
G02*
X24308000Y-13804000I-200000J0D01*
G01*
X24308000Y-13804000D02*
G75*
G02*
X24708000Y-13804000I200000J0D01*
G01*
X24952000Y-15708000D02*
G75*
G02*
X24552000Y-15708000I-200000J0D01*
G01*
X24552000Y-15708000D02*
G75*
G02*
X24952000Y-15708000I200000J0D01*
G01*
X25184000Y-9996000D02*
G75*
G02*
X24784000Y-9996000I-200000J0D01*
G01*
X24784000Y-9996000D02*
G75*
G02*
X25184000Y-9996000I200000J0D01*
G01*
X25660000Y-11900000D02*
G75*
G02*
X25260000Y-11900000I-200000J0D01*
G01*
X25260000Y-11900000D02*
G75*
G02*
X25660000Y-11900000I200000J0D01*
G01*
X26136000Y-5712000D02*
G75*
G02*
X25736000Y-5712000I-200000J0D01*
G01*
X25736000Y-5712000D02*
G75*
G02*
X26136000Y-5712000I200000J0D01*
G01*
X26136000Y-8092000D02*
G75*
G02*
X25736000Y-8092000I-200000J0D01*
G01*
X25736000Y-8092000D02*
G75*
G02*
X26136000Y-8092000I200000J0D01*
G01*
X27088000Y-9996000D02*
G75*
G02*
X26688000Y-9996000I-200000J0D01*
G01*
X26688000Y-9996000D02*
G75*
G02*
X27088000Y-9996000I200000J0D01*
G01*
X27333500Y-15709000D02*
G75*
G02*
X26933500Y-15709000I-200000J0D01*
G01*
X26933500Y-15709000D02*
G75*
G02*
X27333500Y-15709000I200000J0D01*
G01*
X28040000Y-5712000D02*
G75*
G02*
X27640000Y-5712000I-200000J0D01*
G01*
X27640000Y-5712000D02*
G75*
G02*
X28040000Y-5712000I200000J0D01*
G01*
X28284000Y-13804000D02*
G75*
G02*
X27884000Y-13804000I-200000J0D01*
G01*
X27884000Y-13804000D02*
G75*
G02*
X28284000Y-13804000I200000J0D01*
G01*
X28756000Y-11900000D02*
G75*
G02*
X28356000Y-11900000I-200000J0D01*
G01*
X28356000Y-11900000D02*
G75*
G02*
X28756000Y-11900000I200000J0D01*
G01*
X28992000Y-8092000D02*
G75*
G02*
X28592000Y-8092000I-200000J0D01*
G01*
X28592000Y-8092000D02*
G75*
G02*
X28992000Y-8092000I200000J0D01*
G01*
X29468000Y-9996000D02*
G75*
G02*
X29068000Y-9996000I-200000J0D01*
G01*
X29068000Y-9996000D02*
G75*
G02*
X29468000Y-9996000I200000J0D01*
G01*
X29712000Y-15719000D02*
G75*
G02*
X29312000Y-15719000I-200000J0D01*
G01*
X29312000Y-15719000D02*
G75*
G02*
X29712000Y-15719000I200000J0D01*
G01*
X29944000Y-5712000D02*
G75*
G02*
X29544000Y-5712000I-200000J0D01*
G01*
X29544000Y-5712000D02*
G75*
G02*
X29944000Y-5712000I200000J0D01*
G01*
X32568000Y-5711500D02*
G75*
G02*
X32168000Y-5711500I-200000J0D01*
G01*
X32168000Y-5711500D02*
G75*
G02*
X32568000Y-5711500I200000J0D01*
G01*
X32568000Y-8091500D02*
G75*
G02*
X32168000Y-8091500I-200000J0D01*
G01*
X32168000Y-8091500D02*
G75*
G02*
X32568000Y-8091500I200000J0D01*
G01*
X32568000Y-9995500D02*
G75*
G02*
X32168000Y-9995500I-200000J0D01*
G01*
X32168000Y-9995500D02*
G75*
G02*
X32568000Y-9995500I200000J0D01*
G01*
X32568000Y-15707500D02*
G75*
G02*
X32168000Y-15707500I-200000J0D01*
G01*
X32168000Y-15707500D02*
G75*
G02*
X32568000Y-15707500I200000J0D01*
G01*
X34472000Y-5711500D02*
G75*
G02*
X34072000Y-5711500I-200000J0D01*
G01*
X34072000Y-5711500D02*
G75*
G02*
X34472000Y-5711500I200000J0D01*
G01*
X34472000Y-8091500D02*
G75*
G02*
X34072000Y-8091500I-200000J0D01*
G01*
X34072000Y-8091500D02*
G75*
G02*
X34472000Y-8091500I200000J0D01*
G01*
X34472000Y-9995500D02*
G75*
G02*
X34072000Y-9995500I-200000J0D01*
G01*
X34072000Y-9995500D02*
G75*
G02*
X34472000Y-9995500I200000J0D01*
G01*
X34472000Y-13803500D02*
G75*
G02*
X34072000Y-13803500I-200000J0D01*
G01*
X34072000Y-13803500D02*
G75*
G02*
X34472000Y-13803500I200000J0D01*
G01*
X34472000Y-15707500D02*
G75*
G02*
X34072000Y-15707500I-200000J0D01*
G01*
X34072000Y-15707500D02*
G75*
G02*
X34472000Y-15707500I200000J0D01*
G01*
X36376000Y-5711500D02*
G75*
G02*
X35976000Y-5711500I-200000J0D01*
G01*
X35976000Y-5711500D02*
G75*
G02*
X36376000Y-5711500I200000J0D01*
G01*
X36376000Y-8091500D02*
G75*
G02*
X35976000Y-8091500I-200000J0D01*
G01*
X35976000Y-8091500D02*
G75*
G02*
X36376000Y-8091500I200000J0D01*
G01*
X36376000Y-9995500D02*
G75*
G02*
X35976000Y-9995500I-200000J0D01*
G01*
X35976000Y-9995500D02*
G75*
G02*
X36376000Y-9995500I200000J0D01*
G01*
X36376000Y-15707500D02*
G75*
G02*
X35976000Y-15707500I-200000J0D01*
G01*
X35976000Y-15707500D02*
G75*
G02*
X36376000Y-15707500I200000J0D01*
G01*
X39200000Y-8091500D02*
G75*
G02*
X38800000Y-8091500I-200000J0D01*
G01*
X38800000Y-8091500D02*
G75*
G02*
X39200000Y-8091500I200000J0D01*
G01*
X39200000Y-9995500D02*
G75*
G02*
X38800000Y-9995500I-200000J0D01*
G01*
X38800000Y-9995500D02*
G75*
G02*
X39200000Y-9995500I200000J0D01*
G01*
X39200000Y-11899500D02*
G75*
G02*
X38800000Y-11899500I-200000J0D01*
G01*
X38800000Y-11899500D02*
G75*
G02*
X39200000Y-11899500I200000J0D01*
G01*
X39200000Y-13803500D02*
G75*
G02*
X38800000Y-13803500I-200000J0D01*
G01*
X38800000Y-13803500D02*
G75*
G02*
X39200000Y-13803500I200000J0D01*
G01*
X40152000Y-15707500D02*
G75*
G02*
X39752000Y-15707500I-200000J0D01*
G01*
X39752000Y-15707500D02*
G75*
G02*
X40152000Y-15707500I200000J0D01*
G01*
X41104000Y-8091500D02*
G75*
G02*
X40704000Y-8091500I-200000J0D01*
G01*
X40704000Y-8091500D02*
G75*
G02*
X41104000Y-8091500I200000J0D01*
G01*
X41104000Y-9995500D02*
G75*
G02*
X40704000Y-9995500I-200000J0D01*
G01*
X40704000Y-9995500D02*
G75*
G02*
X41104000Y-9995500I200000J0D01*
G01*
X41104000Y-11899500D02*
G75*
G02*
X40704000Y-11899500I-200000J0D01*
G01*
X40704000Y-11899500D02*
G75*
G02*
X41104000Y-11899500I200000J0D01*
G01*
X41104000Y-13803500D02*
G75*
G02*
X40704000Y-13803500I-200000J0D01*
G01*
X40704000Y-13803500D02*
G75*
G02*
X41104000Y-13803500I200000J0D01*
G01*
X43008000Y-8091500D02*
G75*
G02*
X42608000Y-8091500I-200000J0D01*
G01*
X42608000Y-8091500D02*
G75*
G02*
X43008000Y-8091500I200000J0D01*
G01*
X43008000Y-9995500D02*
G75*
G02*
X42608000Y-9995500I-200000J0D01*
G01*
X42608000Y-9995500D02*
G75*
G02*
X43008000Y-9995500I200000J0D01*
G01*
X43008000Y-11899500D02*
G75*
G02*
X42608000Y-11899500I-200000J0D01*
G01*
X42608000Y-11899500D02*
G75*
G02*
X43008000Y-11899500I200000J0D01*
G01*
X43008000Y-13803500D02*
G75*
G02*
X42608000Y-13803500I-200000J0D01*
G01*
X42608000Y-13803500D02*
G75*
G02*
X43008000Y-13803500I200000J0D01*
G01*
X43008000Y-15707500D02*
G75*
G02*
X42608000Y-15707500I-200000J0D01*
G01*
X42608000Y-15707500D02*
G75*
G02*
X43008000Y-15707500I200000J0D01*
G01*
X44912000Y-8091500D02*
G75*
G02*
X44512000Y-8091500I-200000J0D01*
G01*
X44512000Y-8091500D02*
G75*
G02*
X44912000Y-8091500I200000J0D01*
G01*
X44912000Y-10947500D02*
G75*
G02*
X44512000Y-10947500I-200000J0D01*
G01*
X44512000Y-10947500D02*
G75*
G02*
X44912000Y-10947500I200000J0D01*
G01*
X44912000Y-14755500D02*
G75*
G02*
X44512000Y-14755500I-200000J0D01*
G01*
X44512000Y-14755500D02*
G75*
G02*
X44912000Y-14755500I200000J0D01*
G01*
D11*
X2388277Y-16986484D02*
X2388277Y-16786484D01*
X2388277Y-16786484D02*
X2435896Y-16786484D01*
X2435896Y-16786484D02*
X2464467Y-16796008D01*
X2464467Y-16796008D02*
X2483515Y-16815055D01*
X2483515Y-16815055D02*
X2493039Y-16834103D01*
X2493039Y-16834103D02*
X2502563Y-16872198D01*
X2502563Y-16872198D02*
X2502563Y-16900770D01*
X2502563Y-16900770D02*
X2493039Y-16938865D01*
X2493039Y-16938865D02*
X2483515Y-16957912D01*
X2483515Y-16957912D02*
X2464467Y-16976960D01*
X2464467Y-16976960D02*
X2435896Y-16986484D01*
X2435896Y-16986484D02*
X2388277Y-16986484D01*
X2588277Y-16986484D02*
X2588277Y-16853150D01*
X2588277Y-16891246D02*
X2597801Y-16872198D01*
X2597801Y-16872198D02*
X2607324Y-16862674D01*
X2607324Y-16862674D02*
X2626372Y-16853150D01*
X2626372Y-16853150D02*
X2645420Y-16853150D01*
X2712086Y-16986484D02*
X2712086Y-16853150D01*
X2712086Y-16786484D02*
X2702563Y-16796008D01*
X2702563Y-16796008D02*
X2712086Y-16805531D01*
X2712086Y-16805531D02*
X2721610Y-16796008D01*
X2721610Y-16796008D02*
X2712086Y-16786484D01*
X2712086Y-16786484D02*
X2712086Y-16805531D01*
X2835896Y-16986484D02*
X2816848Y-16976960D01*
X2816848Y-16976960D02*
X2807324Y-16957912D01*
X2807324Y-16957912D02*
X2807324Y-16786484D01*
X2940658Y-16986484D02*
X2921610Y-16976960D01*
X2921610Y-16976960D02*
X2912086Y-16957912D01*
X2912086Y-16957912D02*
X2912086Y-16786484D01*
X3169229Y-16986484D02*
X3169229Y-16786484D01*
X3169229Y-16786484D02*
X3235896Y-16929341D01*
X3235896Y-16929341D02*
X3302562Y-16786484D01*
X3302562Y-16786484D02*
X3302562Y-16986484D01*
X3483515Y-16986484D02*
X3483515Y-16881722D01*
X3483515Y-16881722D02*
X3473991Y-16862674D01*
X3473991Y-16862674D02*
X3454943Y-16853150D01*
X3454943Y-16853150D02*
X3416848Y-16853150D01*
X3416848Y-16853150D02*
X3397801Y-16862674D01*
X3483515Y-16976960D02*
X3464467Y-16986484D01*
X3464467Y-16986484D02*
X3416848Y-16986484D01*
X3416848Y-16986484D02*
X3397801Y-16976960D01*
X3397801Y-16976960D02*
X3388277Y-16957912D01*
X3388277Y-16957912D02*
X3388277Y-16938865D01*
X3388277Y-16938865D02*
X3397801Y-16919817D01*
X3397801Y-16919817D02*
X3416848Y-16910293D01*
X3416848Y-16910293D02*
X3464467Y-16910293D01*
X3464467Y-16910293D02*
X3483515Y-16900770D01*
X3578753Y-16853150D02*
X3578753Y-17053150D01*
X3578753Y-16862674D02*
X3597801Y-16853150D01*
X3597801Y-16853150D02*
X3635896Y-16853150D01*
X3635896Y-16853150D02*
X3654943Y-16862674D01*
X3654943Y-16862674D02*
X3664467Y-16872198D01*
X3664467Y-16872198D02*
X3673991Y-16891246D01*
X3673991Y-16891246D02*
X3673991Y-16948389D01*
X3673991Y-16948389D02*
X3664467Y-16967436D01*
X3664467Y-16967436D02*
X3654943Y-16976960D01*
X3654943Y-16976960D02*
X3635896Y-16986484D01*
X3635896Y-16986484D02*
X3597801Y-16986484D01*
X3597801Y-16986484D02*
X3578753Y-16976960D01*
X3759705Y-16967436D02*
X3769229Y-16976960D01*
X3769229Y-16976960D02*
X3759705Y-16986484D01*
X3759705Y-16986484D02*
X3750182Y-16976960D01*
X3750182Y-16976960D02*
X3759705Y-16967436D01*
X3759705Y-16967436D02*
X3759705Y-16986484D01*
X3759705Y-16862674D02*
X3769229Y-16872198D01*
X3769229Y-16872198D02*
X3759705Y-16881722D01*
X3759705Y-16881722D02*
X3750182Y-16872198D01*
X3750182Y-16872198D02*
X3759705Y-16862674D01*
X3759705Y-16862674D02*
X3759705Y-16881722D01*
D12*
X1952500Y-17227500D02*
X2127500Y-17402500D01*
X2127500Y-17227500D02*
X1952500Y-17402500D01*
D11*
X2493039Y-17406484D02*
X2378753Y-17406484D01*
X2435896Y-17406484D02*
X2435896Y-17206484D01*
X2435896Y-17206484D02*
X2416848Y-17235055D01*
X2416848Y-17235055D02*
X2397801Y-17254103D01*
X2397801Y-17254103D02*
X2378753Y-17263627D01*
X2578753Y-17387436D02*
X2588277Y-17396960D01*
X2588277Y-17396960D02*
X2578753Y-17406484D01*
X2578753Y-17406484D02*
X2569229Y-17396960D01*
X2569229Y-17396960D02*
X2578753Y-17387436D01*
X2578753Y-17387436D02*
X2578753Y-17406484D01*
X2654944Y-17206484D02*
X2788277Y-17206484D01*
X2788277Y-17206484D02*
X2702563Y-17406484D01*
X2959705Y-17206484D02*
X2864467Y-17206484D01*
X2864467Y-17206484D02*
X2854943Y-17301722D01*
X2854943Y-17301722D02*
X2864467Y-17292198D01*
X2864467Y-17292198D02*
X2883515Y-17282674D01*
X2883515Y-17282674D02*
X2931134Y-17282674D01*
X2931134Y-17282674D02*
X2950182Y-17292198D01*
X2950182Y-17292198D02*
X2959705Y-17301722D01*
X2959705Y-17301722D02*
X2969229Y-17320770D01*
X2969229Y-17320770D02*
X2969229Y-17368389D01*
X2969229Y-17368389D02*
X2959705Y-17387436D01*
X2959705Y-17387436D02*
X2950182Y-17396960D01*
X2950182Y-17396960D02*
X2931134Y-17406484D01*
X2931134Y-17406484D02*
X2883515Y-17406484D01*
X2883515Y-17406484D02*
X2864467Y-17396960D01*
X2864467Y-17396960D02*
X2854943Y-17387436D01*
X3093039Y-17206484D02*
X3112086Y-17206484D01*
X3112086Y-17206484D02*
X3131134Y-17216008D01*
X3131134Y-17216008D02*
X3140658Y-17225531D01*
X3140658Y-17225531D02*
X3150182Y-17244579D01*
X3150182Y-17244579D02*
X3159705Y-17282674D01*
X3159705Y-17282674D02*
X3159705Y-17330293D01*
X3159705Y-17330293D02*
X3150182Y-17368389D01*
X3150182Y-17368389D02*
X3140658Y-17387436D01*
X3140658Y-17387436D02*
X3131134Y-17396960D01*
X3131134Y-17396960D02*
X3112086Y-17406484D01*
X3112086Y-17406484D02*
X3093039Y-17406484D01*
X3093039Y-17406484D02*
X3073991Y-17396960D01*
X3073991Y-17396960D02*
X3064467Y-17387436D01*
X3064467Y-17387436D02*
X3054943Y-17368389D01*
X3054943Y-17368389D02*
X3045420Y-17330293D01*
X3045420Y-17330293D02*
X3045420Y-17282674D01*
X3045420Y-17282674D02*
X3054943Y-17244579D01*
X3054943Y-17244579D02*
X3064467Y-17225531D01*
X3064467Y-17225531D02*
X3073991Y-17216008D01*
X3073991Y-17216008D02*
X3093039Y-17206484D01*
X3245420Y-17406484D02*
X3245420Y-17273150D01*
X3245420Y-17292198D02*
X3254943Y-17282674D01*
X3254943Y-17282674D02*
X3273991Y-17273150D01*
X3273991Y-17273150D02*
X3302563Y-17273150D01*
X3302563Y-17273150D02*
X3321610Y-17282674D01*
X3321610Y-17282674D02*
X3331134Y-17301722D01*
X3331134Y-17301722D02*
X3331134Y-17406484D01*
X3331134Y-17301722D02*
X3340658Y-17282674D01*
X3340658Y-17282674D02*
X3359705Y-17273150D01*
X3359705Y-17273150D02*
X3388277Y-17273150D01*
X3388277Y-17273150D02*
X3407324Y-17282674D01*
X3407324Y-17282674D02*
X3416848Y-17301722D01*
X3416848Y-17301722D02*
X3416848Y-17406484D01*
X3512086Y-17406484D02*
X3512086Y-17273150D01*
X3512086Y-17292198D02*
X3521610Y-17282674D01*
X3521610Y-17282674D02*
X3540658Y-17273150D01*
X3540658Y-17273150D02*
X3569229Y-17273150D01*
X3569229Y-17273150D02*
X3588277Y-17282674D01*
X3588277Y-17282674D02*
X3597801Y-17301722D01*
X3597801Y-17301722D02*
X3597801Y-17406484D01*
X3597801Y-17301722D02*
X3607324Y-17282674D01*
X3607324Y-17282674D02*
X3626372Y-17273150D01*
X3626372Y-17273150D02*
X3654943Y-17273150D01*
X3654943Y-17273150D02*
X3673991Y-17282674D01*
X3673991Y-17282674D02*
X3683515Y-17301722D01*
X3683515Y-17301722D02*
X3683515Y-17406484D01*
X4073991Y-17196960D02*
X3902563Y-17454103D01*
X4331134Y-17206484D02*
X4350182Y-17206484D01*
X4350182Y-17206484D02*
X4369229Y-17216008D01*
X4369229Y-17216008D02*
X4378753Y-17225531D01*
X4378753Y-17225531D02*
X4388277Y-17244579D01*
X4388277Y-17244579D02*
X4397801Y-17282674D01*
X4397801Y-17282674D02*
X4397801Y-17330293D01*
X4397801Y-17330293D02*
X4388277Y-17368389D01*
X4388277Y-17368389D02*
X4378753Y-17387436D01*
X4378753Y-17387436D02*
X4369229Y-17396960D01*
X4369229Y-17396960D02*
X4350182Y-17406484D01*
X4350182Y-17406484D02*
X4331134Y-17406484D01*
X4331134Y-17406484D02*
X4312087Y-17396960D01*
X4312087Y-17396960D02*
X4302563Y-17387436D01*
X4302563Y-17387436D02*
X4293039Y-17368389D01*
X4293039Y-17368389D02*
X4283515Y-17330293D01*
X4283515Y-17330293D02*
X4283515Y-17282674D01*
X4283515Y-17282674D02*
X4293039Y-17244579D01*
X4293039Y-17244579D02*
X4302563Y-17225531D01*
X4302563Y-17225531D02*
X4312087Y-17216008D01*
X4312087Y-17216008D02*
X4331134Y-17206484D01*
X4483515Y-17387436D02*
X4493039Y-17396960D01*
X4493039Y-17396960D02*
X4483515Y-17406484D01*
X4483515Y-17406484D02*
X4473991Y-17396960D01*
X4473991Y-17396960D02*
X4483515Y-17387436D01*
X4483515Y-17387436D02*
X4483515Y-17406484D01*
X4616848Y-17206484D02*
X4635896Y-17206484D01*
X4635896Y-17206484D02*
X4654944Y-17216008D01*
X4654944Y-17216008D02*
X4664468Y-17225531D01*
X4664468Y-17225531D02*
X4673991Y-17244579D01*
X4673991Y-17244579D02*
X4683515Y-17282674D01*
X4683515Y-17282674D02*
X4683515Y-17330293D01*
X4683515Y-17330293D02*
X4673991Y-17368389D01*
X4673991Y-17368389D02*
X4664468Y-17387436D01*
X4664468Y-17387436D02*
X4654944Y-17396960D01*
X4654944Y-17396960D02*
X4635896Y-17406484D01*
X4635896Y-17406484D02*
X4616848Y-17406484D01*
X4616848Y-17406484D02*
X4597801Y-17396960D01*
X4597801Y-17396960D02*
X4588277Y-17387436D01*
X4588277Y-17387436D02*
X4578753Y-17368389D01*
X4578753Y-17368389D02*
X4569229Y-17330293D01*
X4569229Y-17330293D02*
X4569229Y-17282674D01*
X4569229Y-17282674D02*
X4578753Y-17244579D01*
X4578753Y-17244579D02*
X4588277Y-17225531D01*
X4588277Y-17225531D02*
X4597801Y-17216008D01*
X4597801Y-17216008D02*
X4616848Y-17206484D01*
X4854944Y-17206484D02*
X4816848Y-17206484D01*
X4816848Y-17206484D02*
X4797801Y-17216008D01*
X4797801Y-17216008D02*
X4788277Y-17225531D01*
X4788277Y-17225531D02*
X4769229Y-17254103D01*
X4769229Y-17254103D02*
X4759706Y-17292198D01*
X4759706Y-17292198D02*
X4759706Y-17368389D01*
X4759706Y-17368389D02*
X4769229Y-17387436D01*
X4769229Y-17387436D02*
X4778753Y-17396960D01*
X4778753Y-17396960D02*
X4797801Y-17406484D01*
X4797801Y-17406484D02*
X4835896Y-17406484D01*
X4835896Y-17406484D02*
X4854944Y-17396960D01*
X4854944Y-17396960D02*
X4864468Y-17387436D01*
X4864468Y-17387436D02*
X4873991Y-17368389D01*
X4873991Y-17368389D02*
X4873991Y-17320770D01*
X4873991Y-17320770D02*
X4864468Y-17301722D01*
X4864468Y-17301722D02*
X4854944Y-17292198D01*
X4854944Y-17292198D02*
X4835896Y-17282674D01*
X4835896Y-17282674D02*
X4797801Y-17282674D01*
X4797801Y-17282674D02*
X4778753Y-17292198D01*
X4778753Y-17292198D02*
X4769229Y-17301722D01*
X4769229Y-17301722D02*
X4759706Y-17320770D01*
X4988277Y-17292198D02*
X4969229Y-17282674D01*
X4969229Y-17282674D02*
X4959706Y-17273150D01*
X4959706Y-17273150D02*
X4950182Y-17254103D01*
X4950182Y-17254103D02*
X4950182Y-17244579D01*
X4950182Y-17244579D02*
X4959706Y-17225531D01*
X4959706Y-17225531D02*
X4969229Y-17216008D01*
X4969229Y-17216008D02*
X4988277Y-17206484D01*
X4988277Y-17206484D02*
X5026372Y-17206484D01*
X5026372Y-17206484D02*
X5045420Y-17216008D01*
X5045420Y-17216008D02*
X5054944Y-17225531D01*
X5054944Y-17225531D02*
X5064468Y-17244579D01*
X5064468Y-17244579D02*
X5064468Y-17254103D01*
X5064468Y-17254103D02*
X5054944Y-17273150D01*
X5054944Y-17273150D02*
X5045420Y-17282674D01*
X5045420Y-17282674D02*
X5026372Y-17292198D01*
X5026372Y-17292198D02*
X4988277Y-17292198D01*
X4988277Y-17292198D02*
X4969229Y-17301722D01*
X4969229Y-17301722D02*
X4959706Y-17311246D01*
X4959706Y-17311246D02*
X4950182Y-17330293D01*
X4950182Y-17330293D02*
X4950182Y-17368389D01*
X4950182Y-17368389D02*
X4959706Y-17387436D01*
X4959706Y-17387436D02*
X4969229Y-17396960D01*
X4969229Y-17396960D02*
X4988277Y-17406484D01*
X4988277Y-17406484D02*
X5026372Y-17406484D01*
X5026372Y-17406484D02*
X5045420Y-17396960D01*
X5045420Y-17396960D02*
X5054944Y-17387436D01*
X5054944Y-17387436D02*
X5064468Y-17368389D01*
X5064468Y-17368389D02*
X5064468Y-17330293D01*
X5064468Y-17330293D02*
X5054944Y-17311246D01*
X5054944Y-17311246D02*
X5045420Y-17301722D01*
X5045420Y-17301722D02*
X5026372Y-17292198D01*
X5159706Y-17406484D02*
X5197801Y-17406484D01*
X5197801Y-17406484D02*
X5216849Y-17396960D01*
X5216849Y-17396960D02*
X5226372Y-17387436D01*
X5226372Y-17387436D02*
X5245420Y-17358865D01*
X5245420Y-17358865D02*
X5254944Y-17320770D01*
X5254944Y-17320770D02*
X5254944Y-17244579D01*
X5254944Y-17244579D02*
X5245420Y-17225531D01*
X5245420Y-17225531D02*
X5235896Y-17216008D01*
X5235896Y-17216008D02*
X5216849Y-17206484D01*
X5216849Y-17206484D02*
X5178753Y-17206484D01*
X5178753Y-17206484D02*
X5159706Y-17216008D01*
X5159706Y-17216008D02*
X5150182Y-17225531D01*
X5150182Y-17225531D02*
X5140658Y-17244579D01*
X5140658Y-17244579D02*
X5140658Y-17292198D01*
X5140658Y-17292198D02*
X5150182Y-17311246D01*
X5150182Y-17311246D02*
X5159706Y-17320770D01*
X5159706Y-17320770D02*
X5178753Y-17330293D01*
X5178753Y-17330293D02*
X5216849Y-17330293D01*
X5216849Y-17330293D02*
X5235896Y-17320770D01*
X5235896Y-17320770D02*
X5245420Y-17311246D01*
X5245420Y-17311246D02*
X5254944Y-17292198D01*
X5331134Y-17206484D02*
X5331134Y-17244579D01*
X5407325Y-17206484D02*
X5407325Y-17244579D01*
X5702563Y-17482674D02*
X5693039Y-17473150D01*
X5693039Y-17473150D02*
X5673991Y-17444579D01*
X5673991Y-17444579D02*
X5664468Y-17425531D01*
X5664468Y-17425531D02*
X5654944Y-17396960D01*
X5654944Y-17396960D02*
X5645420Y-17349341D01*
X5645420Y-17349341D02*
X5645420Y-17311246D01*
X5645420Y-17311246D02*
X5654944Y-17263627D01*
X5654944Y-17263627D02*
X5664468Y-17235055D01*
X5664468Y-17235055D02*
X5673991Y-17216008D01*
X5673991Y-17216008D02*
X5693039Y-17187436D01*
X5693039Y-17187436D02*
X5702563Y-17177912D01*
X5769229Y-17225531D02*
X5778753Y-17216008D01*
X5778753Y-17216008D02*
X5797801Y-17206484D01*
X5797801Y-17206484D02*
X5845420Y-17206484D01*
X5845420Y-17206484D02*
X5864468Y-17216008D01*
X5864468Y-17216008D02*
X5873991Y-17225531D01*
X5873991Y-17225531D02*
X5883515Y-17244579D01*
X5883515Y-17244579D02*
X5883515Y-17263627D01*
X5883515Y-17263627D02*
X5873991Y-17292198D01*
X5873991Y-17292198D02*
X5759706Y-17406484D01*
X5759706Y-17406484D02*
X5883515Y-17406484D01*
X6007325Y-17206484D02*
X6026372Y-17206484D01*
X6026372Y-17206484D02*
X6045420Y-17216008D01*
X6045420Y-17216008D02*
X6054944Y-17225531D01*
X6054944Y-17225531D02*
X6064468Y-17244579D01*
X6064468Y-17244579D02*
X6073991Y-17282674D01*
X6073991Y-17282674D02*
X6073991Y-17330293D01*
X6073991Y-17330293D02*
X6064468Y-17368389D01*
X6064468Y-17368389D02*
X6054944Y-17387436D01*
X6054944Y-17387436D02*
X6045420Y-17396960D01*
X6045420Y-17396960D02*
X6026372Y-17406484D01*
X6026372Y-17406484D02*
X6007325Y-17406484D01*
X6007325Y-17406484D02*
X5988277Y-17396960D01*
X5988277Y-17396960D02*
X5978753Y-17387436D01*
X5978753Y-17387436D02*
X5969229Y-17368389D01*
X5969229Y-17368389D02*
X5959706Y-17330293D01*
X5959706Y-17330293D02*
X5959706Y-17282674D01*
X5959706Y-17282674D02*
X5969229Y-17244579D01*
X5969229Y-17244579D02*
X5978753Y-17225531D01*
X5978753Y-17225531D02*
X5988277Y-17216008D01*
X5988277Y-17216008D02*
X6007325Y-17206484D01*
X6188277Y-17292198D02*
X6169229Y-17282674D01*
X6169229Y-17282674D02*
X6159706Y-17273150D01*
X6159706Y-17273150D02*
X6150182Y-17254103D01*
X6150182Y-17254103D02*
X6150182Y-17244579D01*
X6150182Y-17244579D02*
X6159706Y-17225531D01*
X6159706Y-17225531D02*
X6169229Y-17216008D01*
X6169229Y-17216008D02*
X6188277Y-17206484D01*
X6188277Y-17206484D02*
X6226372Y-17206484D01*
X6226372Y-17206484D02*
X6245420Y-17216008D01*
X6245420Y-17216008D02*
X6254944Y-17225531D01*
X6254944Y-17225531D02*
X6264468Y-17244579D01*
X6264468Y-17244579D02*
X6264468Y-17254103D01*
X6264468Y-17254103D02*
X6254944Y-17273150D01*
X6254944Y-17273150D02*
X6245420Y-17282674D01*
X6245420Y-17282674D02*
X6226372Y-17292198D01*
X6226372Y-17292198D02*
X6188277Y-17292198D01*
X6188277Y-17292198D02*
X6169229Y-17301722D01*
X6169229Y-17301722D02*
X6159706Y-17311246D01*
X6159706Y-17311246D02*
X6150182Y-17330293D01*
X6150182Y-17330293D02*
X6150182Y-17368389D01*
X6150182Y-17368389D02*
X6159706Y-17387436D01*
X6159706Y-17387436D02*
X6169229Y-17396960D01*
X6169229Y-17396960D02*
X6188277Y-17406484D01*
X6188277Y-17406484D02*
X6226372Y-17406484D01*
X6226372Y-17406484D02*
X6245420Y-17396960D01*
X6245420Y-17396960D02*
X6254944Y-17387436D01*
X6254944Y-17387436D02*
X6264468Y-17368389D01*
X6264468Y-17368389D02*
X6264468Y-17330293D01*
X6264468Y-17330293D02*
X6254944Y-17311246D01*
X6254944Y-17311246D02*
X6245420Y-17301722D01*
X6245420Y-17301722D02*
X6226372Y-17292198D01*
X6502563Y-17406484D02*
X6502563Y-17206484D01*
X6588277Y-17406484D02*
X6588277Y-17301722D01*
X6588277Y-17301722D02*
X6578753Y-17282674D01*
X6578753Y-17282674D02*
X6559706Y-17273150D01*
X6559706Y-17273150D02*
X6531134Y-17273150D01*
X6531134Y-17273150D02*
X6512087Y-17282674D01*
X6512087Y-17282674D02*
X6502563Y-17292198D01*
X6712087Y-17406484D02*
X6693039Y-17396960D01*
X6693039Y-17396960D02*
X6683515Y-17387436D01*
X6683515Y-17387436D02*
X6673991Y-17368389D01*
X6673991Y-17368389D02*
X6673991Y-17311246D01*
X6673991Y-17311246D02*
X6683515Y-17292198D01*
X6683515Y-17292198D02*
X6693039Y-17282674D01*
X6693039Y-17282674D02*
X6712087Y-17273150D01*
X6712087Y-17273150D02*
X6740658Y-17273150D01*
X6740658Y-17273150D02*
X6759706Y-17282674D01*
X6759706Y-17282674D02*
X6769230Y-17292198D01*
X6769230Y-17292198D02*
X6778753Y-17311246D01*
X6778753Y-17311246D02*
X6778753Y-17368389D01*
X6778753Y-17368389D02*
X6769230Y-17387436D01*
X6769230Y-17387436D02*
X6759706Y-17396960D01*
X6759706Y-17396960D02*
X6740658Y-17406484D01*
X6740658Y-17406484D02*
X6712087Y-17406484D01*
X6893039Y-17406484D02*
X6873991Y-17396960D01*
X6873991Y-17396960D02*
X6864468Y-17377912D01*
X6864468Y-17377912D02*
X6864468Y-17206484D01*
X7045420Y-17396960D02*
X7026372Y-17406484D01*
X7026372Y-17406484D02*
X6988277Y-17406484D01*
X6988277Y-17406484D02*
X6969230Y-17396960D01*
X6969230Y-17396960D02*
X6959706Y-17377912D01*
X6959706Y-17377912D02*
X6959706Y-17301722D01*
X6959706Y-17301722D02*
X6969230Y-17282674D01*
X6969230Y-17282674D02*
X6988277Y-17273150D01*
X6988277Y-17273150D02*
X7026372Y-17273150D01*
X7026372Y-17273150D02*
X7045420Y-17282674D01*
X7045420Y-17282674D02*
X7054944Y-17301722D01*
X7054944Y-17301722D02*
X7054944Y-17320770D01*
X7054944Y-17320770D02*
X6959706Y-17339817D01*
X7131134Y-17396960D02*
X7150182Y-17406484D01*
X7150182Y-17406484D02*
X7188277Y-17406484D01*
X7188277Y-17406484D02*
X7207325Y-17396960D01*
X7207325Y-17396960D02*
X7216849Y-17377912D01*
X7216849Y-17377912D02*
X7216849Y-17368389D01*
X7216849Y-17368389D02*
X7207325Y-17349341D01*
X7207325Y-17349341D02*
X7188277Y-17339817D01*
X7188277Y-17339817D02*
X7159706Y-17339817D01*
X7159706Y-17339817D02*
X7140658Y-17330293D01*
X7140658Y-17330293D02*
X7131134Y-17311246D01*
X7131134Y-17311246D02*
X7131134Y-17301722D01*
X7131134Y-17301722D02*
X7140658Y-17282674D01*
X7140658Y-17282674D02*
X7159706Y-17273150D01*
X7159706Y-17273150D02*
X7188277Y-17273150D01*
X7188277Y-17273150D02*
X7207325Y-17282674D01*
X7283515Y-17482674D02*
X7293039Y-17473150D01*
X7293039Y-17473150D02*
X7312087Y-17444579D01*
X7312087Y-17444579D02*
X7321611Y-17425531D01*
X7321611Y-17425531D02*
X7331134Y-17396960D01*
X7331134Y-17396960D02*
X7340658Y-17349341D01*
X7340658Y-17349341D02*
X7340658Y-17311246D01*
X7340658Y-17311246D02*
X7331134Y-17263627D01*
X7331134Y-17263627D02*
X7321611Y-17235055D01*
X7321611Y-17235055D02*
X7312087Y-17216008D01*
X7312087Y-17216008D02*
X7293039Y-17187436D01*
X7293039Y-17187436D02*
X7283515Y-17177912D01*
X7645420Y-17482674D02*
X7635896Y-17473150D01*
X7635896Y-17473150D02*
X7616849Y-17444579D01*
X7616849Y-17444579D02*
X7607325Y-17425531D01*
X7607325Y-17425531D02*
X7597801Y-17396960D01*
X7597801Y-17396960D02*
X7588277Y-17349341D01*
X7588277Y-17349341D02*
X7588277Y-17311246D01*
X7588277Y-17311246D02*
X7597801Y-17263627D01*
X7597801Y-17263627D02*
X7607325Y-17235055D01*
X7607325Y-17235055D02*
X7616849Y-17216008D01*
X7616849Y-17216008D02*
X7635896Y-17187436D01*
X7635896Y-17187436D02*
X7645420Y-17177912D01*
X7721611Y-17273150D02*
X7721611Y-17406484D01*
X7721611Y-17292198D02*
X7731134Y-17282674D01*
X7731134Y-17282674D02*
X7750182Y-17273150D01*
X7750182Y-17273150D02*
X7778753Y-17273150D01*
X7778753Y-17273150D02*
X7797801Y-17282674D01*
X7797801Y-17282674D02*
X7807325Y-17301722D01*
X7807325Y-17301722D02*
X7807325Y-17406484D01*
X7931134Y-17406484D02*
X7912087Y-17396960D01*
X7912087Y-17396960D02*
X7902563Y-17387436D01*
X7902563Y-17387436D02*
X7893039Y-17368389D01*
X7893039Y-17368389D02*
X7893039Y-17311246D01*
X7893039Y-17311246D02*
X7902563Y-17292198D01*
X7902563Y-17292198D02*
X7912087Y-17282674D01*
X7912087Y-17282674D02*
X7931134Y-17273150D01*
X7931134Y-17273150D02*
X7959706Y-17273150D01*
X7959706Y-17273150D02*
X7978753Y-17282674D01*
X7978753Y-17282674D02*
X7988277Y-17292198D01*
X7988277Y-17292198D02*
X7997801Y-17311246D01*
X7997801Y-17311246D02*
X7997801Y-17368389D01*
X7997801Y-17368389D02*
X7988277Y-17387436D01*
X7988277Y-17387436D02*
X7978753Y-17396960D01*
X7978753Y-17396960D02*
X7959706Y-17406484D01*
X7959706Y-17406484D02*
X7931134Y-17406484D01*
X8054944Y-17273150D02*
X8131134Y-17273150D01*
X8083515Y-17206484D02*
X8083515Y-17377912D01*
X8083515Y-17377912D02*
X8093039Y-17396960D01*
X8093039Y-17396960D02*
X8112087Y-17406484D01*
X8112087Y-17406484D02*
X8131134Y-17406484D01*
X8350182Y-17273150D02*
X8350182Y-17473150D01*
X8350182Y-17282674D02*
X8369230Y-17273150D01*
X8369230Y-17273150D02*
X8407325Y-17273150D01*
X8407325Y-17273150D02*
X8426373Y-17282674D01*
X8426373Y-17282674D02*
X8435896Y-17292198D01*
X8435896Y-17292198D02*
X8445420Y-17311246D01*
X8445420Y-17311246D02*
X8445420Y-17368389D01*
X8445420Y-17368389D02*
X8435896Y-17387436D01*
X8435896Y-17387436D02*
X8426373Y-17396960D01*
X8426373Y-17396960D02*
X8407325Y-17406484D01*
X8407325Y-17406484D02*
X8369230Y-17406484D01*
X8369230Y-17406484D02*
X8350182Y-17396960D01*
X8559706Y-17406484D02*
X8540658Y-17396960D01*
X8540658Y-17396960D02*
X8531135Y-17377912D01*
X8531135Y-17377912D02*
X8531135Y-17206484D01*
X8721611Y-17406484D02*
X8721611Y-17301722D01*
X8721611Y-17301722D02*
X8712087Y-17282674D01*
X8712087Y-17282674D02*
X8693039Y-17273150D01*
X8693039Y-17273150D02*
X8654944Y-17273150D01*
X8654944Y-17273150D02*
X8635896Y-17282674D01*
X8721611Y-17396960D02*
X8702563Y-17406484D01*
X8702563Y-17406484D02*
X8654944Y-17406484D01*
X8654944Y-17406484D02*
X8635896Y-17396960D01*
X8635896Y-17396960D02*
X8626373Y-17377912D01*
X8626373Y-17377912D02*
X8626373Y-17358865D01*
X8626373Y-17358865D02*
X8635896Y-17339817D01*
X8635896Y-17339817D02*
X8654944Y-17330293D01*
X8654944Y-17330293D02*
X8702563Y-17330293D01*
X8702563Y-17330293D02*
X8721611Y-17320770D01*
X8788277Y-17273150D02*
X8864468Y-17273150D01*
X8816849Y-17206484D02*
X8816849Y-17377912D01*
X8816849Y-17377912D02*
X8826373Y-17396960D01*
X8826373Y-17396960D02*
X8845420Y-17406484D01*
X8845420Y-17406484D02*
X8864468Y-17406484D01*
X9007325Y-17396960D02*
X8988277Y-17406484D01*
X8988277Y-17406484D02*
X8950182Y-17406484D01*
X8950182Y-17406484D02*
X8931135Y-17396960D01*
X8931135Y-17396960D02*
X8921611Y-17377912D01*
X8921611Y-17377912D02*
X8921611Y-17301722D01*
X8921611Y-17301722D02*
X8931135Y-17282674D01*
X8931135Y-17282674D02*
X8950182Y-17273150D01*
X8950182Y-17273150D02*
X8988277Y-17273150D01*
X8988277Y-17273150D02*
X9007325Y-17282674D01*
X9007325Y-17282674D02*
X9016849Y-17301722D01*
X9016849Y-17301722D02*
X9016849Y-17320770D01*
X9016849Y-17320770D02*
X8921611Y-17339817D01*
X9188277Y-17406484D02*
X9188277Y-17206484D01*
X9188277Y-17396960D02*
X9169230Y-17406484D01*
X9169230Y-17406484D02*
X9131135Y-17406484D01*
X9131135Y-17406484D02*
X9112087Y-17396960D01*
X9112087Y-17396960D02*
X9102563Y-17387436D01*
X9102563Y-17387436D02*
X9093039Y-17368389D01*
X9093039Y-17368389D02*
X9093039Y-17311246D01*
X9093039Y-17311246D02*
X9102563Y-17292198D01*
X9102563Y-17292198D02*
X9112087Y-17282674D01*
X9112087Y-17282674D02*
X9131135Y-17273150D01*
X9131135Y-17273150D02*
X9169230Y-17273150D01*
X9169230Y-17273150D02*
X9188277Y-17282674D01*
X9264468Y-17482674D02*
X9273992Y-17473150D01*
X9273992Y-17473150D02*
X9293039Y-17444579D01*
X9293039Y-17444579D02*
X9302563Y-17425531D01*
X9302563Y-17425531D02*
X9312087Y-17396960D01*
X9312087Y-17396960D02*
X9321611Y-17349341D01*
X9321611Y-17349341D02*
X9321611Y-17311246D01*
X9321611Y-17311246D02*
X9312087Y-17263627D01*
X9312087Y-17263627D02*
X9302563Y-17235055D01*
X9302563Y-17235055D02*
X9293039Y-17216008D01*
X9293039Y-17216008D02*
X9273992Y-17187436D01*
X9273992Y-17187436D02*
X9264468Y-17177912D01*
X2127500Y-17610000D02*
G75*
G02*
X1927500Y-17610000I-100000J0D01*
G01*
X1927500Y-17610000D02*
G75*
G02*
X2127500Y-17610000I100000J0D01*
G01*
X2473991Y-17568150D02*
X2473991Y-17701484D01*
X2426372Y-17491960D02*
X2378753Y-17634817D01*
X2378753Y-17634817D02*
X2502563Y-17634817D01*
X2578753Y-17682436D02*
X2588277Y-17691960D01*
X2588277Y-17691960D02*
X2578753Y-17701484D01*
X2578753Y-17701484D02*
X2569229Y-17691960D01*
X2569229Y-17691960D02*
X2578753Y-17682436D01*
X2578753Y-17682436D02*
X2578753Y-17701484D01*
X2712086Y-17501484D02*
X2731134Y-17501484D01*
X2731134Y-17501484D02*
X2750182Y-17511008D01*
X2750182Y-17511008D02*
X2759705Y-17520531D01*
X2759705Y-17520531D02*
X2769229Y-17539579D01*
X2769229Y-17539579D02*
X2778753Y-17577674D01*
X2778753Y-17577674D02*
X2778753Y-17625293D01*
X2778753Y-17625293D02*
X2769229Y-17663389D01*
X2769229Y-17663389D02*
X2759705Y-17682436D01*
X2759705Y-17682436D02*
X2750182Y-17691960D01*
X2750182Y-17691960D02*
X2731134Y-17701484D01*
X2731134Y-17701484D02*
X2712086Y-17701484D01*
X2712086Y-17701484D02*
X2693039Y-17691960D01*
X2693039Y-17691960D02*
X2683515Y-17682436D01*
X2683515Y-17682436D02*
X2673991Y-17663389D01*
X2673991Y-17663389D02*
X2664467Y-17625293D01*
X2664467Y-17625293D02*
X2664467Y-17577674D01*
X2664467Y-17577674D02*
X2673991Y-17539579D01*
X2673991Y-17539579D02*
X2683515Y-17520531D01*
X2683515Y-17520531D02*
X2693039Y-17511008D01*
X2693039Y-17511008D02*
X2712086Y-17501484D01*
X2902562Y-17501484D02*
X2921610Y-17501484D01*
X2921610Y-17501484D02*
X2940658Y-17511008D01*
X2940658Y-17511008D02*
X2950182Y-17520531D01*
X2950182Y-17520531D02*
X2959705Y-17539579D01*
X2959705Y-17539579D02*
X2969229Y-17577674D01*
X2969229Y-17577674D02*
X2969229Y-17625293D01*
X2969229Y-17625293D02*
X2959705Y-17663389D01*
X2959705Y-17663389D02*
X2950182Y-17682436D01*
X2950182Y-17682436D02*
X2940658Y-17691960D01*
X2940658Y-17691960D02*
X2921610Y-17701484D01*
X2921610Y-17701484D02*
X2902562Y-17701484D01*
X2902562Y-17701484D02*
X2883515Y-17691960D01*
X2883515Y-17691960D02*
X2873991Y-17682436D01*
X2873991Y-17682436D02*
X2864467Y-17663389D01*
X2864467Y-17663389D02*
X2854943Y-17625293D01*
X2854943Y-17625293D02*
X2854943Y-17577674D01*
X2854943Y-17577674D02*
X2864467Y-17539579D01*
X2864467Y-17539579D02*
X2873991Y-17520531D01*
X2873991Y-17520531D02*
X2883515Y-17511008D01*
X2883515Y-17511008D02*
X2902562Y-17501484D01*
X3093039Y-17501484D02*
X3112086Y-17501484D01*
X3112086Y-17501484D02*
X3131134Y-17511008D01*
X3131134Y-17511008D02*
X3140658Y-17520531D01*
X3140658Y-17520531D02*
X3150182Y-17539579D01*
X3150182Y-17539579D02*
X3159705Y-17577674D01*
X3159705Y-17577674D02*
X3159705Y-17625293D01*
X3159705Y-17625293D02*
X3150182Y-17663389D01*
X3150182Y-17663389D02*
X3140658Y-17682436D01*
X3140658Y-17682436D02*
X3131134Y-17691960D01*
X3131134Y-17691960D02*
X3112086Y-17701484D01*
X3112086Y-17701484D02*
X3093039Y-17701484D01*
X3093039Y-17701484D02*
X3073991Y-17691960D01*
X3073991Y-17691960D02*
X3064467Y-17682436D01*
X3064467Y-17682436D02*
X3054943Y-17663389D01*
X3054943Y-17663389D02*
X3045420Y-17625293D01*
X3045420Y-17625293D02*
X3045420Y-17577674D01*
X3045420Y-17577674D02*
X3054943Y-17539579D01*
X3054943Y-17539579D02*
X3064467Y-17520531D01*
X3064467Y-17520531D02*
X3073991Y-17511008D01*
X3073991Y-17511008D02*
X3093039Y-17501484D01*
X3245420Y-17701484D02*
X3245420Y-17568150D01*
X3245420Y-17587198D02*
X3254943Y-17577674D01*
X3254943Y-17577674D02*
X3273991Y-17568150D01*
X3273991Y-17568150D02*
X3302563Y-17568150D01*
X3302563Y-17568150D02*
X3321610Y-17577674D01*
X3321610Y-17577674D02*
X3331134Y-17596722D01*
X3331134Y-17596722D02*
X3331134Y-17701484D01*
X3331134Y-17596722D02*
X3340658Y-17577674D01*
X3340658Y-17577674D02*
X3359705Y-17568150D01*
X3359705Y-17568150D02*
X3388277Y-17568150D01*
X3388277Y-17568150D02*
X3407324Y-17577674D01*
X3407324Y-17577674D02*
X3416848Y-17596722D01*
X3416848Y-17596722D02*
X3416848Y-17701484D01*
X3512086Y-17701484D02*
X3512086Y-17568150D01*
X3512086Y-17587198D02*
X3521610Y-17577674D01*
X3521610Y-17577674D02*
X3540658Y-17568150D01*
X3540658Y-17568150D02*
X3569229Y-17568150D01*
X3569229Y-17568150D02*
X3588277Y-17577674D01*
X3588277Y-17577674D02*
X3597801Y-17596722D01*
X3597801Y-17596722D02*
X3597801Y-17701484D01*
X3597801Y-17596722D02*
X3607324Y-17577674D01*
X3607324Y-17577674D02*
X3626372Y-17568150D01*
X3626372Y-17568150D02*
X3654943Y-17568150D01*
X3654943Y-17568150D02*
X3673991Y-17577674D01*
X3673991Y-17577674D02*
X3683515Y-17596722D01*
X3683515Y-17596722D02*
X3683515Y-17701484D01*
X4073991Y-17491960D02*
X3902563Y-17749103D01*
X4331134Y-17501484D02*
X4350182Y-17501484D01*
X4350182Y-17501484D02*
X4369229Y-17511008D01*
X4369229Y-17511008D02*
X4378753Y-17520531D01*
X4378753Y-17520531D02*
X4388277Y-17539579D01*
X4388277Y-17539579D02*
X4397801Y-17577674D01*
X4397801Y-17577674D02*
X4397801Y-17625293D01*
X4397801Y-17625293D02*
X4388277Y-17663389D01*
X4388277Y-17663389D02*
X4378753Y-17682436D01*
X4378753Y-17682436D02*
X4369229Y-17691960D01*
X4369229Y-17691960D02*
X4350182Y-17701484D01*
X4350182Y-17701484D02*
X4331134Y-17701484D01*
X4331134Y-17701484D02*
X4312087Y-17691960D01*
X4312087Y-17691960D02*
X4302563Y-17682436D01*
X4302563Y-17682436D02*
X4293039Y-17663389D01*
X4293039Y-17663389D02*
X4283515Y-17625293D01*
X4283515Y-17625293D02*
X4283515Y-17577674D01*
X4283515Y-17577674D02*
X4293039Y-17539579D01*
X4293039Y-17539579D02*
X4302563Y-17520531D01*
X4302563Y-17520531D02*
X4312087Y-17511008D01*
X4312087Y-17511008D02*
X4331134Y-17501484D01*
X4483515Y-17682436D02*
X4493039Y-17691960D01*
X4493039Y-17691960D02*
X4483515Y-17701484D01*
X4483515Y-17701484D02*
X4473991Y-17691960D01*
X4473991Y-17691960D02*
X4483515Y-17682436D01*
X4483515Y-17682436D02*
X4483515Y-17701484D01*
X4683515Y-17701484D02*
X4569229Y-17701484D01*
X4626372Y-17701484D02*
X4626372Y-17501484D01*
X4626372Y-17501484D02*
X4607325Y-17530055D01*
X4607325Y-17530055D02*
X4588277Y-17549103D01*
X4588277Y-17549103D02*
X4569229Y-17558627D01*
X4864468Y-17501484D02*
X4769229Y-17501484D01*
X4769229Y-17501484D02*
X4759706Y-17596722D01*
X4759706Y-17596722D02*
X4769229Y-17587198D01*
X4769229Y-17587198D02*
X4788277Y-17577674D01*
X4788277Y-17577674D02*
X4835896Y-17577674D01*
X4835896Y-17577674D02*
X4854944Y-17587198D01*
X4854944Y-17587198D02*
X4864468Y-17596722D01*
X4864468Y-17596722D02*
X4873991Y-17615770D01*
X4873991Y-17615770D02*
X4873991Y-17663389D01*
X4873991Y-17663389D02*
X4864468Y-17682436D01*
X4864468Y-17682436D02*
X4854944Y-17691960D01*
X4854944Y-17691960D02*
X4835896Y-17701484D01*
X4835896Y-17701484D02*
X4788277Y-17701484D01*
X4788277Y-17701484D02*
X4769229Y-17691960D01*
X4769229Y-17691960D02*
X4759706Y-17682436D01*
X4940658Y-17501484D02*
X5073991Y-17501484D01*
X5073991Y-17501484D02*
X4988277Y-17701484D01*
X5245420Y-17501484D02*
X5150182Y-17501484D01*
X5150182Y-17501484D02*
X5140658Y-17596722D01*
X5140658Y-17596722D02*
X5150182Y-17587198D01*
X5150182Y-17587198D02*
X5169229Y-17577674D01*
X5169229Y-17577674D02*
X5216849Y-17577674D01*
X5216849Y-17577674D02*
X5235896Y-17587198D01*
X5235896Y-17587198D02*
X5245420Y-17596722D01*
X5245420Y-17596722D02*
X5254944Y-17615770D01*
X5254944Y-17615770D02*
X5254944Y-17663389D01*
X5254944Y-17663389D02*
X5245420Y-17682436D01*
X5245420Y-17682436D02*
X5235896Y-17691960D01*
X5235896Y-17691960D02*
X5216849Y-17701484D01*
X5216849Y-17701484D02*
X5169229Y-17701484D01*
X5169229Y-17701484D02*
X5150182Y-17691960D01*
X5150182Y-17691960D02*
X5140658Y-17682436D01*
X5331134Y-17501484D02*
X5331134Y-17539579D01*
X5407325Y-17501484D02*
X5407325Y-17539579D01*
X5702563Y-17777674D02*
X5693039Y-17768150D01*
X5693039Y-17768150D02*
X5673991Y-17739579D01*
X5673991Y-17739579D02*
X5664468Y-17720531D01*
X5664468Y-17720531D02*
X5654944Y-17691960D01*
X5654944Y-17691960D02*
X5645420Y-17644341D01*
X5645420Y-17644341D02*
X5645420Y-17606246D01*
X5645420Y-17606246D02*
X5654944Y-17558627D01*
X5654944Y-17558627D02*
X5664468Y-17530055D01*
X5664468Y-17530055D02*
X5673991Y-17511008D01*
X5673991Y-17511008D02*
X5693039Y-17482436D01*
X5693039Y-17482436D02*
X5702563Y-17472912D01*
X5883515Y-17701484D02*
X5769229Y-17701484D01*
X5826372Y-17701484D02*
X5826372Y-17501484D01*
X5826372Y-17501484D02*
X5807325Y-17530055D01*
X5807325Y-17530055D02*
X5788277Y-17549103D01*
X5788277Y-17549103D02*
X5769229Y-17558627D01*
X6007325Y-17501484D02*
X6026372Y-17501484D01*
X6026372Y-17501484D02*
X6045420Y-17511008D01*
X6045420Y-17511008D02*
X6054944Y-17520531D01*
X6054944Y-17520531D02*
X6064468Y-17539579D01*
X6064468Y-17539579D02*
X6073991Y-17577674D01*
X6073991Y-17577674D02*
X6073991Y-17625293D01*
X6073991Y-17625293D02*
X6064468Y-17663389D01*
X6064468Y-17663389D02*
X6054944Y-17682436D01*
X6054944Y-17682436D02*
X6045420Y-17691960D01*
X6045420Y-17691960D02*
X6026372Y-17701484D01*
X6026372Y-17701484D02*
X6007325Y-17701484D01*
X6007325Y-17701484D02*
X5988277Y-17691960D01*
X5988277Y-17691960D02*
X5978753Y-17682436D01*
X5978753Y-17682436D02*
X5969229Y-17663389D01*
X5969229Y-17663389D02*
X5959706Y-17625293D01*
X5959706Y-17625293D02*
X5959706Y-17577674D01*
X5959706Y-17577674D02*
X5969229Y-17539579D01*
X5969229Y-17539579D02*
X5978753Y-17520531D01*
X5978753Y-17520531D02*
X5988277Y-17511008D01*
X5988277Y-17511008D02*
X6007325Y-17501484D01*
X6245420Y-17568150D02*
X6245420Y-17701484D01*
X6197801Y-17491960D02*
X6150182Y-17634817D01*
X6150182Y-17634817D02*
X6273991Y-17634817D01*
X6502563Y-17701484D02*
X6502563Y-17501484D01*
X6588277Y-17701484D02*
X6588277Y-17596722D01*
X6588277Y-17596722D02*
X6578753Y-17577674D01*
X6578753Y-17577674D02*
X6559706Y-17568150D01*
X6559706Y-17568150D02*
X6531134Y-17568150D01*
X6531134Y-17568150D02*
X6512087Y-17577674D01*
X6512087Y-17577674D02*
X6502563Y-17587198D01*
X6712087Y-17701484D02*
X6693039Y-17691960D01*
X6693039Y-17691960D02*
X6683515Y-17682436D01*
X6683515Y-17682436D02*
X6673991Y-17663389D01*
X6673991Y-17663389D02*
X6673991Y-17606246D01*
X6673991Y-17606246D02*
X6683515Y-17587198D01*
X6683515Y-17587198D02*
X6693039Y-17577674D01*
X6693039Y-17577674D02*
X6712087Y-17568150D01*
X6712087Y-17568150D02*
X6740658Y-17568150D01*
X6740658Y-17568150D02*
X6759706Y-17577674D01*
X6759706Y-17577674D02*
X6769230Y-17587198D01*
X6769230Y-17587198D02*
X6778753Y-17606246D01*
X6778753Y-17606246D02*
X6778753Y-17663389D01*
X6778753Y-17663389D02*
X6769230Y-17682436D01*
X6769230Y-17682436D02*
X6759706Y-17691960D01*
X6759706Y-17691960D02*
X6740658Y-17701484D01*
X6740658Y-17701484D02*
X6712087Y-17701484D01*
X6893039Y-17701484D02*
X6873991Y-17691960D01*
X6873991Y-17691960D02*
X6864468Y-17672912D01*
X6864468Y-17672912D02*
X6864468Y-17501484D01*
X7045420Y-17691960D02*
X7026372Y-17701484D01*
X7026372Y-17701484D02*
X6988277Y-17701484D01*
X6988277Y-17701484D02*
X6969230Y-17691960D01*
X6969230Y-17691960D02*
X6959706Y-17672912D01*
X6959706Y-17672912D02*
X6959706Y-17596722D01*
X6959706Y-17596722D02*
X6969230Y-17577674D01*
X6969230Y-17577674D02*
X6988277Y-17568150D01*
X6988277Y-17568150D02*
X7026372Y-17568150D01*
X7026372Y-17568150D02*
X7045420Y-17577674D01*
X7045420Y-17577674D02*
X7054944Y-17596722D01*
X7054944Y-17596722D02*
X7054944Y-17615770D01*
X7054944Y-17615770D02*
X6959706Y-17634817D01*
X7131134Y-17691960D02*
X7150182Y-17701484D01*
X7150182Y-17701484D02*
X7188277Y-17701484D01*
X7188277Y-17701484D02*
X7207325Y-17691960D01*
X7207325Y-17691960D02*
X7216849Y-17672912D01*
X7216849Y-17672912D02*
X7216849Y-17663389D01*
X7216849Y-17663389D02*
X7207325Y-17644341D01*
X7207325Y-17644341D02*
X7188277Y-17634817D01*
X7188277Y-17634817D02*
X7159706Y-17634817D01*
X7159706Y-17634817D02*
X7140658Y-17625293D01*
X7140658Y-17625293D02*
X7131134Y-17606246D01*
X7131134Y-17606246D02*
X7131134Y-17596722D01*
X7131134Y-17596722D02*
X7140658Y-17577674D01*
X7140658Y-17577674D02*
X7159706Y-17568150D01*
X7159706Y-17568150D02*
X7188277Y-17568150D01*
X7188277Y-17568150D02*
X7207325Y-17577674D01*
X7283515Y-17777674D02*
X7293039Y-17768150D01*
X7293039Y-17768150D02*
X7312087Y-17739579D01*
X7312087Y-17739579D02*
X7321611Y-17720531D01*
X7321611Y-17720531D02*
X7331134Y-17691960D01*
X7331134Y-17691960D02*
X7340658Y-17644341D01*
X7340658Y-17644341D02*
X7340658Y-17606246D01*
X7340658Y-17606246D02*
X7331134Y-17558627D01*
X7331134Y-17558627D02*
X7321611Y-17530055D01*
X7321611Y-17530055D02*
X7312087Y-17511008D01*
X7312087Y-17511008D02*
X7293039Y-17482436D01*
X7293039Y-17482436D02*
X7283515Y-17472912D01*
X7645420Y-17777674D02*
X7635896Y-17768150D01*
X7635896Y-17768150D02*
X7616849Y-17739579D01*
X7616849Y-17739579D02*
X7607325Y-17720531D01*
X7607325Y-17720531D02*
X7597801Y-17691960D01*
X7597801Y-17691960D02*
X7588277Y-17644341D01*
X7588277Y-17644341D02*
X7588277Y-17606246D01*
X7588277Y-17606246D02*
X7597801Y-17558627D01*
X7597801Y-17558627D02*
X7607325Y-17530055D01*
X7607325Y-17530055D02*
X7616849Y-17511008D01*
X7616849Y-17511008D02*
X7635896Y-17482436D01*
X7635896Y-17482436D02*
X7645420Y-17472912D01*
X7721611Y-17568150D02*
X7721611Y-17701484D01*
X7721611Y-17587198D02*
X7731134Y-17577674D01*
X7731134Y-17577674D02*
X7750182Y-17568150D01*
X7750182Y-17568150D02*
X7778753Y-17568150D01*
X7778753Y-17568150D02*
X7797801Y-17577674D01*
X7797801Y-17577674D02*
X7807325Y-17596722D01*
X7807325Y-17596722D02*
X7807325Y-17701484D01*
X7931134Y-17701484D02*
X7912087Y-17691960D01*
X7912087Y-17691960D02*
X7902563Y-17682436D01*
X7902563Y-17682436D02*
X7893039Y-17663389D01*
X7893039Y-17663389D02*
X7893039Y-17606246D01*
X7893039Y-17606246D02*
X7902563Y-17587198D01*
X7902563Y-17587198D02*
X7912087Y-17577674D01*
X7912087Y-17577674D02*
X7931134Y-17568150D01*
X7931134Y-17568150D02*
X7959706Y-17568150D01*
X7959706Y-17568150D02*
X7978753Y-17577674D01*
X7978753Y-17577674D02*
X7988277Y-17587198D01*
X7988277Y-17587198D02*
X7997801Y-17606246D01*
X7997801Y-17606246D02*
X7997801Y-17663389D01*
X7997801Y-17663389D02*
X7988277Y-17682436D01*
X7988277Y-17682436D02*
X7978753Y-17691960D01*
X7978753Y-17691960D02*
X7959706Y-17701484D01*
X7959706Y-17701484D02*
X7931134Y-17701484D01*
X8054944Y-17568150D02*
X8131134Y-17568150D01*
X8083515Y-17501484D02*
X8083515Y-17672912D01*
X8083515Y-17672912D02*
X8093039Y-17691960D01*
X8093039Y-17691960D02*
X8112087Y-17701484D01*
X8112087Y-17701484D02*
X8131134Y-17701484D01*
X8350182Y-17568150D02*
X8350182Y-17768150D01*
X8350182Y-17577674D02*
X8369230Y-17568150D01*
X8369230Y-17568150D02*
X8407325Y-17568150D01*
X8407325Y-17568150D02*
X8426373Y-17577674D01*
X8426373Y-17577674D02*
X8435896Y-17587198D01*
X8435896Y-17587198D02*
X8445420Y-17606246D01*
X8445420Y-17606246D02*
X8445420Y-17663389D01*
X8445420Y-17663389D02*
X8435896Y-17682436D01*
X8435896Y-17682436D02*
X8426373Y-17691960D01*
X8426373Y-17691960D02*
X8407325Y-17701484D01*
X8407325Y-17701484D02*
X8369230Y-17701484D01*
X8369230Y-17701484D02*
X8350182Y-17691960D01*
X8559706Y-17701484D02*
X8540658Y-17691960D01*
X8540658Y-17691960D02*
X8531135Y-17672912D01*
X8531135Y-17672912D02*
X8531135Y-17501484D01*
X8721611Y-17701484D02*
X8721611Y-17596722D01*
X8721611Y-17596722D02*
X8712087Y-17577674D01*
X8712087Y-17577674D02*
X8693039Y-17568150D01*
X8693039Y-17568150D02*
X8654944Y-17568150D01*
X8654944Y-17568150D02*
X8635896Y-17577674D01*
X8721611Y-17691960D02*
X8702563Y-17701484D01*
X8702563Y-17701484D02*
X8654944Y-17701484D01*
X8654944Y-17701484D02*
X8635896Y-17691960D01*
X8635896Y-17691960D02*
X8626373Y-17672912D01*
X8626373Y-17672912D02*
X8626373Y-17653865D01*
X8626373Y-17653865D02*
X8635896Y-17634817D01*
X8635896Y-17634817D02*
X8654944Y-17625293D01*
X8654944Y-17625293D02*
X8702563Y-17625293D01*
X8702563Y-17625293D02*
X8721611Y-17615770D01*
X8788277Y-17568150D02*
X8864468Y-17568150D01*
X8816849Y-17501484D02*
X8816849Y-17672912D01*
X8816849Y-17672912D02*
X8826373Y-17691960D01*
X8826373Y-17691960D02*
X8845420Y-17701484D01*
X8845420Y-17701484D02*
X8864468Y-17701484D01*
X9007325Y-17691960D02*
X8988277Y-17701484D01*
X8988277Y-17701484D02*
X8950182Y-17701484D01*
X8950182Y-17701484D02*
X8931135Y-17691960D01*
X8931135Y-17691960D02*
X8921611Y-17672912D01*
X8921611Y-17672912D02*
X8921611Y-17596722D01*
X8921611Y-17596722D02*
X8931135Y-17577674D01*
X8931135Y-17577674D02*
X8950182Y-17568150D01*
X8950182Y-17568150D02*
X8988277Y-17568150D01*
X8988277Y-17568150D02*
X9007325Y-17577674D01*
X9007325Y-17577674D02*
X9016849Y-17596722D01*
X9016849Y-17596722D02*
X9016849Y-17615770D01*
X9016849Y-17615770D02*
X8921611Y-17634817D01*
X9188277Y-17701484D02*
X9188277Y-17501484D01*
X9188277Y-17691960D02*
X9169230Y-17701484D01*
X9169230Y-17701484D02*
X9131135Y-17701484D01*
X9131135Y-17701484D02*
X9112087Y-17691960D01*
X9112087Y-17691960D02*
X9102563Y-17682436D01*
X9102563Y-17682436D02*
X9093039Y-17663389D01*
X9093039Y-17663389D02*
X9093039Y-17606246D01*
X9093039Y-17606246D02*
X9102563Y-17587198D01*
X9102563Y-17587198D02*
X9112087Y-17577674D01*
X9112087Y-17577674D02*
X9131135Y-17568150D01*
X9131135Y-17568150D02*
X9169230Y-17568150D01*
X9169230Y-17568150D02*
X9188277Y-17577674D01*
X9264468Y-17777674D02*
X9273992Y-17768150D01*
X9273992Y-17768150D02*
X9293039Y-17739579D01*
X9293039Y-17739579D02*
X9302563Y-17720531D01*
X9302563Y-17720531D02*
X9312087Y-17691960D01*
X9312087Y-17691960D02*
X9321611Y-17644341D01*
X9321611Y-17644341D02*
X9321611Y-17606246D01*
X9321611Y-17606246D02*
X9312087Y-17558627D01*
X9312087Y-17558627D02*
X9302563Y-17530055D01*
X9302563Y-17530055D02*
X9293039Y-17511008D01*
X9293039Y-17511008D02*
X9273992Y-17482436D01*
X9273992Y-17482436D02*
X9264468Y-17472912D01*
M02*
